G04 EAGLE Gerber RS-274X export*
G75*
%MOMM*%
%FSLAX34Y34*%
%LPD*%
%INTop Copper*%
%IPPOS*%
%AMOC8*
5,1,8,0,0,1.08239X$1,22.5*%
G01*
%ADD10C,2.316000*%
%ADD11C,1.916000*%
%ADD12C,2.216000*%
%ADD13C,2.016000*%
%ADD14C,2.032000*%
%ADD15P,1.979475X8X112.500000*%
%ADD16P,1.979475X8X202.500000*%
%ADD17C,5.324000*%
%ADD18P,1.979475X8X22.500000*%
%ADD19P,2.749271X8X22.500000*%
%ADD20C,2.117600*%
%ADD21C,1.500000*%

G36*
X1389477Y9939D02*
X1389477Y9939D01*
X1389604Y9937D01*
X1389863Y9959D01*
X1390124Y9973D01*
X1390249Y9992D01*
X1390376Y10003D01*
X1390631Y10052D01*
X1390889Y10092D01*
X1391011Y10125D01*
X1391136Y10148D01*
X1391386Y10224D01*
X1391637Y10290D01*
X1391756Y10335D01*
X1391878Y10371D01*
X1392118Y10472D01*
X1392362Y10564D01*
X1392475Y10621D01*
X1392592Y10670D01*
X1392821Y10794D01*
X1393054Y10911D01*
X1393161Y10979D01*
X1393272Y11040D01*
X1393487Y11188D01*
X1393706Y11328D01*
X1393806Y11406D01*
X1393911Y11478D01*
X1394109Y11648D01*
X1394313Y11809D01*
X1394403Y11898D01*
X1394500Y11980D01*
X1394680Y12169D01*
X1394866Y12351D01*
X1394947Y12449D01*
X1395035Y12540D01*
X1395194Y12746D01*
X1395360Y12947D01*
X1395431Y13052D01*
X1395509Y13153D01*
X1395646Y13374D01*
X1395791Y13590D01*
X1395850Y13702D01*
X1395917Y13811D01*
X1396031Y14045D01*
X1396153Y14275D01*
X1396200Y14393D01*
X1396256Y14507D01*
X1396345Y14752D01*
X1396442Y14993D01*
X1396477Y15115D01*
X1396521Y15235D01*
X1396584Y15488D01*
X1396656Y15737D01*
X1396678Y15862D01*
X1396709Y15986D01*
X1396746Y16244D01*
X1396791Y16500D01*
X1396801Y16626D01*
X1396819Y16752D01*
X1396829Y17013D01*
X1396848Y17272D01*
X1396844Y17399D01*
X1396849Y17526D01*
X1396832Y17785D01*
X1396825Y18046D01*
X1396808Y18172D01*
X1396799Y18298D01*
X1396769Y18455D01*
X1396721Y18813D01*
X1396624Y19216D01*
X1396594Y19373D01*
X1394695Y26460D01*
X1394695Y33085D01*
X1396410Y39484D01*
X1399722Y45221D01*
X1404407Y49906D01*
X1410144Y53218D01*
X1416543Y54933D01*
X1423169Y54933D01*
X1429568Y53218D01*
X1429856Y53051D01*
X1430153Y52900D01*
X1430449Y52744D01*
X1430498Y52724D01*
X1430546Y52699D01*
X1430857Y52579D01*
X1431167Y52454D01*
X1431219Y52440D01*
X1431268Y52420D01*
X1431590Y52333D01*
X1431911Y52241D01*
X1431964Y52231D01*
X1432015Y52217D01*
X1432346Y52163D01*
X1432674Y52105D01*
X1432727Y52101D01*
X1432779Y52092D01*
X1433114Y52073D01*
X1433446Y52048D01*
X1433499Y52050D01*
X1433552Y52047D01*
X1433886Y52062D01*
X1434220Y52072D01*
X1434273Y52079D01*
X1434326Y52081D01*
X1434656Y52130D01*
X1434987Y52175D01*
X1435039Y52187D01*
X1435092Y52195D01*
X1435415Y52278D01*
X1435740Y52357D01*
X1435790Y52374D01*
X1435842Y52388D01*
X1436155Y52504D01*
X1436470Y52615D01*
X1436518Y52638D01*
X1436568Y52656D01*
X1436868Y52804D01*
X1437169Y52947D01*
X1437215Y52975D01*
X1437263Y52999D01*
X1437546Y53176D01*
X1437831Y53350D01*
X1437873Y53382D01*
X1437918Y53410D01*
X1438182Y53617D01*
X1438447Y53818D01*
X1438486Y53855D01*
X1438528Y53888D01*
X1438769Y54120D01*
X1439012Y54348D01*
X1439047Y54388D01*
X1439085Y54425D01*
X1439300Y54681D01*
X1439519Y54933D01*
X1439550Y54977D01*
X1439584Y55018D01*
X1439771Y55293D01*
X1439963Y55568D01*
X1439989Y55614D01*
X1440019Y55658D01*
X1440177Y55953D01*
X1440339Y56244D01*
X1440360Y56293D01*
X1440386Y56340D01*
X1440512Y56649D01*
X1440644Y56956D01*
X1440660Y57007D01*
X1440680Y57056D01*
X1440775Y57377D01*
X1440873Y57696D01*
X1440884Y57748D01*
X1440899Y57799D01*
X1440960Y58128D01*
X1441025Y58455D01*
X1441029Y58498D01*
X1441040Y58560D01*
X1441102Y59332D01*
X1441099Y59463D01*
X1441105Y59546D01*
X1441105Y739998D01*
X1441088Y740332D01*
X1441076Y740665D01*
X1441068Y740718D01*
X1441065Y740771D01*
X1441014Y741101D01*
X1440967Y741432D01*
X1440954Y741484D01*
X1440946Y741536D01*
X1440861Y741858D01*
X1440780Y742183D01*
X1440762Y742234D01*
X1440748Y742285D01*
X1440630Y742596D01*
X1440516Y742911D01*
X1440493Y742960D01*
X1440474Y743009D01*
X1440325Y743307D01*
X1440179Y743608D01*
X1440151Y743654D01*
X1440127Y743701D01*
X1439947Y743984D01*
X1439772Y744267D01*
X1439739Y744309D01*
X1439710Y744354D01*
X1439503Y744616D01*
X1439299Y744880D01*
X1439262Y744919D01*
X1439229Y744960D01*
X1438995Y745199D01*
X1438765Y745441D01*
X1438724Y745476D01*
X1438687Y745514D01*
X1438430Y745727D01*
X1438176Y745944D01*
X1438132Y745974D01*
X1438091Y746008D01*
X1437813Y746194D01*
X1437539Y746383D01*
X1437492Y746409D01*
X1437448Y746439D01*
X1437152Y746595D01*
X1436859Y746755D01*
X1436810Y746775D01*
X1436763Y746800D01*
X1436453Y746925D01*
X1436145Y747054D01*
X1436094Y747070D01*
X1436045Y747090D01*
X1435724Y747182D01*
X1435404Y747279D01*
X1435352Y747289D01*
X1435301Y747303D01*
X1434972Y747362D01*
X1434644Y747425D01*
X1434591Y747430D01*
X1434538Y747439D01*
X1434205Y747464D01*
X1433873Y747493D01*
X1433819Y747492D01*
X1433766Y747496D01*
X1433433Y747486D01*
X1433098Y747480D01*
X1433045Y747474D01*
X1432992Y747472D01*
X1432662Y747428D01*
X1432330Y747388D01*
X1432278Y747376D01*
X1432225Y747369D01*
X1431899Y747290D01*
X1431574Y747217D01*
X1431524Y747200D01*
X1431472Y747187D01*
X1431156Y747076D01*
X1430841Y746969D01*
X1430802Y746950D01*
X1430742Y746929D01*
X1430043Y746597D01*
X1429931Y746529D01*
X1429856Y746493D01*
X1429568Y746326D01*
X1423169Y744611D01*
X1416543Y744611D01*
X1410144Y746326D01*
X1404407Y749638D01*
X1399722Y754323D01*
X1396410Y760060D01*
X1394695Y766459D01*
X1394695Y773084D01*
X1396165Y778571D01*
X1396192Y778696D01*
X1396227Y778817D01*
X1396272Y779073D01*
X1396327Y779328D01*
X1396341Y779455D01*
X1396363Y779580D01*
X1396382Y779839D01*
X1396410Y780098D01*
X1396410Y780225D01*
X1396419Y780352D01*
X1396411Y780612D01*
X1396412Y780872D01*
X1396400Y780999D01*
X1396396Y781126D01*
X1396361Y781384D01*
X1396335Y781643D01*
X1396310Y781767D01*
X1396293Y781893D01*
X1396232Y782146D01*
X1396179Y782401D01*
X1396141Y782523D01*
X1396111Y782646D01*
X1396024Y782891D01*
X1395946Y783140D01*
X1395895Y783256D01*
X1395853Y783376D01*
X1395741Y783611D01*
X1395637Y783850D01*
X1395575Y783961D01*
X1395520Y784075D01*
X1395385Y784297D01*
X1395257Y784524D01*
X1395184Y784628D01*
X1395118Y784737D01*
X1394960Y784944D01*
X1394810Y785156D01*
X1394726Y785252D01*
X1394649Y785353D01*
X1394471Y785543D01*
X1394299Y785739D01*
X1394206Y785825D01*
X1394119Y785918D01*
X1393923Y786088D01*
X1393732Y786265D01*
X1393630Y786342D01*
X1393534Y786425D01*
X1393321Y786574D01*
X1393113Y786731D01*
X1393004Y786796D01*
X1392900Y786869D01*
X1392673Y786996D01*
X1392449Y787130D01*
X1392334Y787184D01*
X1392223Y787245D01*
X1391984Y787348D01*
X1391748Y787458D01*
X1391628Y787500D01*
X1391511Y787550D01*
X1391263Y787627D01*
X1391017Y787713D01*
X1390893Y787742D01*
X1390772Y787779D01*
X1390517Y787830D01*
X1390263Y787890D01*
X1390137Y787907D01*
X1390013Y787931D01*
X1389853Y787943D01*
X1389495Y787989D01*
X1389081Y788000D01*
X1388922Y788011D01*
X1059856Y788011D01*
X1059549Y787995D01*
X1059242Y787986D01*
X1059163Y787975D01*
X1059083Y787971D01*
X1058780Y787924D01*
X1058475Y787883D01*
X1058397Y787864D01*
X1058318Y787852D01*
X1058022Y787774D01*
X1057722Y787701D01*
X1057646Y787674D01*
X1057569Y787654D01*
X1057283Y787546D01*
X1056992Y787443D01*
X1056920Y787408D01*
X1056845Y787380D01*
X1056571Y787243D01*
X1056293Y787111D01*
X1056224Y787069D01*
X1056153Y787033D01*
X1055894Y786868D01*
X1055631Y786708D01*
X1055568Y786660D01*
X1055500Y786616D01*
X1055260Y786426D01*
X1055015Y786239D01*
X1054956Y786185D01*
X1054894Y786135D01*
X1054674Y785920D01*
X1054450Y785710D01*
X1054398Y785649D01*
X1054340Y785593D01*
X1054144Y785356D01*
X1053943Y785125D01*
X1053897Y785059D01*
X1053846Y784997D01*
X1053675Y784742D01*
X1053499Y784490D01*
X1053460Y784420D01*
X1053416Y784354D01*
X1053272Y784082D01*
X1053123Y783814D01*
X1053091Y783740D01*
X1053054Y783669D01*
X1052939Y783384D01*
X1052818Y783102D01*
X1052794Y783025D01*
X1052764Y782951D01*
X1052680Y782656D01*
X1052589Y782362D01*
X1052573Y782284D01*
X1052551Y782207D01*
X1052497Y781905D01*
X1052437Y781603D01*
X1052432Y781539D01*
X1052415Y781444D01*
X1052358Y780672D01*
X1052361Y780576D01*
X1052357Y780512D01*
X1052357Y635653D01*
X17516Y635653D01*
X17209Y635637D01*
X16902Y635628D01*
X16823Y635617D01*
X16743Y635613D01*
X16440Y635566D01*
X16135Y635525D01*
X16057Y635506D01*
X15978Y635494D01*
X15681Y635416D01*
X15382Y635343D01*
X15306Y635316D01*
X15229Y635296D01*
X14943Y635188D01*
X14652Y635085D01*
X14580Y635050D01*
X14505Y635022D01*
X14231Y634885D01*
X13953Y634753D01*
X13884Y634711D01*
X13813Y634675D01*
X13554Y634510D01*
X13291Y634350D01*
X13228Y634302D01*
X13160Y634258D01*
X12920Y634068D01*
X12675Y633881D01*
X12616Y633827D01*
X12554Y633777D01*
X12334Y633562D01*
X12110Y633352D01*
X12058Y633291D01*
X12000Y633235D01*
X11804Y632998D01*
X11603Y632767D01*
X11557Y632701D01*
X11506Y632639D01*
X11335Y632384D01*
X11159Y632132D01*
X11120Y632062D01*
X11075Y631996D01*
X10932Y631724D01*
X10783Y631456D01*
X10751Y631382D01*
X10714Y631311D01*
X10599Y631026D01*
X10478Y630744D01*
X10454Y630667D01*
X10424Y630593D01*
X10340Y630298D01*
X10249Y630004D01*
X10233Y629926D01*
X10211Y629849D01*
X10157Y629547D01*
X10097Y629245D01*
X10092Y629181D01*
X10075Y629086D01*
X10018Y628314D01*
X10021Y628218D01*
X10017Y628154D01*
X10017Y251428D01*
X10026Y251248D01*
X10025Y251067D01*
X10046Y250861D01*
X10057Y250655D01*
X10085Y250476D01*
X10103Y250297D01*
X10144Y250094D01*
X10176Y249890D01*
X10222Y249715D01*
X10259Y249538D01*
X10321Y249341D01*
X10374Y249141D01*
X10438Y248972D01*
X10492Y248800D01*
X10575Y248610D01*
X10648Y248417D01*
X10729Y248256D01*
X10801Y248090D01*
X10902Y247909D01*
X10995Y247725D01*
X11092Y247572D01*
X11181Y247415D01*
X11300Y247246D01*
X11412Y247072D01*
X11524Y246931D01*
X11628Y246783D01*
X11765Y246628D01*
X11893Y246466D01*
X12019Y246337D01*
X12138Y246201D01*
X12290Y246060D01*
X12435Y245912D01*
X12574Y245797D01*
X12706Y245674D01*
X12871Y245550D01*
X13031Y245418D01*
X13180Y245318D01*
X13325Y245209D01*
X13502Y245102D01*
X13674Y244987D01*
X13834Y244903D01*
X13988Y244810D01*
X14176Y244722D01*
X14359Y244626D01*
X14526Y244558D01*
X14690Y244482D01*
X14885Y244414D01*
X15077Y244336D01*
X15251Y244286D01*
X15421Y244227D01*
X15622Y244180D01*
X15821Y244123D01*
X15999Y244091D01*
X16174Y244050D01*
X16380Y244023D01*
X16584Y243987D01*
X16764Y243974D01*
X16942Y243951D01*
X17149Y243945D01*
X17356Y243930D01*
X17536Y243936D01*
X17717Y243931D01*
X17923Y243947D01*
X18130Y243954D01*
X18309Y243978D01*
X18488Y243992D01*
X18692Y244029D01*
X18897Y244057D01*
X19073Y244099D01*
X19250Y244132D01*
X19449Y244190D01*
X19650Y244239D01*
X19820Y244299D01*
X19993Y244349D01*
X20184Y244428D01*
X20380Y244497D01*
X20543Y244574D01*
X20710Y244643D01*
X20892Y244740D01*
X21079Y244829D01*
X21233Y244923D01*
X21392Y245008D01*
X21564Y245124D01*
X21741Y245232D01*
X21884Y245341D01*
X22034Y245442D01*
X22192Y245575D01*
X22357Y245700D01*
X22489Y245824D01*
X22627Y245940D01*
X22771Y246088D01*
X22922Y246230D01*
X23040Y246367D01*
X23165Y246496D01*
X23293Y246659D01*
X23429Y246815D01*
X23532Y246963D01*
X23644Y247105D01*
X23754Y247280D01*
X23873Y247449D01*
X23961Y247607D01*
X24057Y247760D01*
X24149Y247945D01*
X24249Y248126D01*
X24320Y248292D01*
X24400Y248454D01*
X24447Y248589D01*
X24554Y248838D01*
X24718Y249368D01*
X24760Y249487D01*
X26076Y254398D01*
X30249Y261627D01*
X36151Y267529D01*
X43380Y271702D01*
X51442Y273863D01*
X113030Y273863D01*
X121092Y271702D01*
X128321Y267529D01*
X134223Y261627D01*
X138396Y254398D01*
X140557Y246336D01*
X140557Y237988D01*
X138396Y229926D01*
X134223Y222697D01*
X128321Y216795D01*
X121092Y212622D01*
X113030Y210461D01*
X51442Y210461D01*
X43380Y212622D01*
X36151Y216795D01*
X30249Y222697D01*
X26076Y229926D01*
X24760Y234837D01*
X24704Y235009D01*
X24658Y235183D01*
X24585Y235376D01*
X24521Y235574D01*
X24448Y235739D01*
X24384Y235907D01*
X24291Y236092D01*
X24208Y236282D01*
X24118Y236438D01*
X24037Y236599D01*
X23926Y236774D01*
X23823Y236954D01*
X23717Y237100D01*
X23620Y237252D01*
X23492Y237414D01*
X23371Y237582D01*
X23251Y237717D01*
X23139Y237858D01*
X22994Y238006D01*
X22856Y238161D01*
X22723Y238283D01*
X22597Y238412D01*
X22438Y238544D01*
X22285Y238684D01*
X22140Y238791D01*
X22001Y238906D01*
X21829Y239021D01*
X21663Y239145D01*
X21508Y239236D01*
X21358Y239337D01*
X21175Y239433D01*
X20996Y239539D01*
X20833Y239614D01*
X20673Y239698D01*
X20481Y239776D01*
X20293Y239862D01*
X20122Y239920D01*
X19955Y239988D01*
X19756Y240045D01*
X19560Y240112D01*
X19384Y240152D01*
X19211Y240201D01*
X19007Y240238D01*
X18805Y240284D01*
X18626Y240306D01*
X18448Y240337D01*
X18242Y240352D01*
X18036Y240377D01*
X17856Y240381D01*
X17676Y240394D01*
X17470Y240387D01*
X17262Y240391D01*
X17082Y240376D01*
X16902Y240370D01*
X16697Y240343D01*
X16491Y240325D01*
X16314Y240291D01*
X16135Y240267D01*
X15934Y240219D01*
X15730Y240180D01*
X15557Y240128D01*
X15382Y240085D01*
X15187Y240016D01*
X14989Y239957D01*
X14822Y239887D01*
X14652Y239827D01*
X14465Y239738D01*
X14274Y239658D01*
X14116Y239572D01*
X13953Y239495D01*
X13776Y239387D01*
X13594Y239288D01*
X13445Y239186D01*
X13291Y239092D01*
X13127Y238967D01*
X12956Y238850D01*
X12819Y238733D01*
X12675Y238624D01*
X12524Y238482D01*
X12366Y238348D01*
X12242Y238217D01*
X12110Y238094D01*
X11975Y237937D01*
X11832Y237788D01*
X11721Y237645D01*
X11603Y237509D01*
X11484Y237339D01*
X11358Y237176D01*
X11262Y237022D01*
X11159Y236875D01*
X11058Y236693D01*
X10949Y236518D01*
X10870Y236356D01*
X10783Y236198D01*
X10701Y236007D01*
X10611Y235821D01*
X10549Y235652D01*
X10478Y235486D01*
X10417Y235288D01*
X10346Y235094D01*
X10302Y234919D01*
X10249Y234746D01*
X10208Y234544D01*
X10158Y234343D01*
X10132Y234164D01*
X10097Y233987D01*
X10086Y233844D01*
X10048Y233576D01*
X10026Y233022D01*
X10017Y232896D01*
X10017Y172688D01*
X10026Y172508D01*
X10025Y172327D01*
X10046Y172121D01*
X10057Y171915D01*
X10085Y171736D01*
X10103Y171557D01*
X10144Y171354D01*
X10176Y171150D01*
X10222Y170975D01*
X10259Y170798D01*
X10321Y170601D01*
X10374Y170401D01*
X10438Y170232D01*
X10492Y170060D01*
X10575Y169870D01*
X10648Y169677D01*
X10729Y169516D01*
X10801Y169350D01*
X10902Y169169D01*
X10995Y168985D01*
X11092Y168832D01*
X11181Y168675D01*
X11300Y168506D01*
X11412Y168332D01*
X11524Y168191D01*
X11628Y168043D01*
X11765Y167888D01*
X11893Y167726D01*
X12019Y167597D01*
X12138Y167461D01*
X12290Y167320D01*
X12435Y167172D01*
X12574Y167057D01*
X12706Y166934D01*
X12871Y166810D01*
X13031Y166678D01*
X13180Y166578D01*
X13325Y166469D01*
X13502Y166362D01*
X13674Y166247D01*
X13834Y166163D01*
X13988Y166070D01*
X14176Y165982D01*
X14359Y165886D01*
X14526Y165818D01*
X14690Y165742D01*
X14885Y165674D01*
X15077Y165596D01*
X15251Y165546D01*
X15421Y165487D01*
X15622Y165440D01*
X15821Y165383D01*
X15999Y165351D01*
X16174Y165310D01*
X16380Y165283D01*
X16584Y165247D01*
X16764Y165234D01*
X16942Y165211D01*
X17149Y165205D01*
X17356Y165190D01*
X17536Y165196D01*
X17717Y165191D01*
X17923Y165207D01*
X18130Y165214D01*
X18309Y165238D01*
X18488Y165252D01*
X18692Y165289D01*
X18897Y165317D01*
X19073Y165359D01*
X19250Y165392D01*
X19449Y165450D01*
X19650Y165499D01*
X19820Y165559D01*
X19993Y165609D01*
X20184Y165688D01*
X20380Y165757D01*
X20543Y165834D01*
X20710Y165903D01*
X20892Y166000D01*
X21079Y166089D01*
X21233Y166183D01*
X21392Y166268D01*
X21564Y166384D01*
X21741Y166492D01*
X21884Y166601D01*
X22034Y166702D01*
X22192Y166835D01*
X22357Y166960D01*
X22489Y167084D01*
X22627Y167200D01*
X22771Y167348D01*
X22922Y167490D01*
X23040Y167627D01*
X23165Y167756D01*
X23293Y167919D01*
X23429Y168075D01*
X23532Y168223D01*
X23644Y168365D01*
X23754Y168540D01*
X23873Y168709D01*
X23961Y168867D01*
X24057Y169020D01*
X24149Y169205D01*
X24249Y169386D01*
X24320Y169552D01*
X24400Y169714D01*
X24447Y169849D01*
X24554Y170098D01*
X24718Y170628D01*
X24760Y170747D01*
X26076Y175658D01*
X30249Y182887D01*
X36151Y188789D01*
X43380Y192962D01*
X51442Y195123D01*
X113030Y195123D01*
X121092Y192962D01*
X128321Y188789D01*
X134223Y182887D01*
X138396Y175658D01*
X140557Y167596D01*
X140557Y159248D01*
X138396Y151186D01*
X134223Y143957D01*
X128321Y138055D01*
X121092Y133882D01*
X113030Y131721D01*
X51442Y131721D01*
X43380Y133882D01*
X36151Y138055D01*
X30249Y143957D01*
X26076Y151186D01*
X24760Y156097D01*
X24704Y156269D01*
X24658Y156443D01*
X24585Y156636D01*
X24521Y156834D01*
X24448Y156999D01*
X24384Y157167D01*
X24291Y157352D01*
X24208Y157542D01*
X24118Y157698D01*
X24037Y157859D01*
X23926Y158034D01*
X23823Y158214D01*
X23717Y158360D01*
X23620Y158512D01*
X23492Y158674D01*
X23371Y158842D01*
X23251Y158977D01*
X23139Y159118D01*
X22994Y159266D01*
X22856Y159421D01*
X22723Y159543D01*
X22597Y159672D01*
X22438Y159804D01*
X22285Y159944D01*
X22140Y160051D01*
X22001Y160166D01*
X21829Y160281D01*
X21663Y160405D01*
X21508Y160496D01*
X21358Y160597D01*
X21175Y160693D01*
X20996Y160799D01*
X20833Y160874D01*
X20673Y160958D01*
X20481Y161036D01*
X20293Y161122D01*
X20122Y161180D01*
X19955Y161248D01*
X19756Y161305D01*
X19560Y161372D01*
X19384Y161412D01*
X19211Y161461D01*
X19007Y161498D01*
X18805Y161544D01*
X18626Y161566D01*
X18448Y161597D01*
X18242Y161612D01*
X18036Y161637D01*
X17856Y161641D01*
X17676Y161654D01*
X17470Y161647D01*
X17262Y161651D01*
X17082Y161636D01*
X16902Y161630D01*
X16697Y161603D01*
X16491Y161585D01*
X16314Y161551D01*
X16135Y161527D01*
X15934Y161479D01*
X15730Y161440D01*
X15557Y161388D01*
X15382Y161345D01*
X15187Y161276D01*
X14989Y161217D01*
X14822Y161147D01*
X14652Y161087D01*
X14465Y160998D01*
X14274Y160918D01*
X14116Y160832D01*
X13953Y160755D01*
X13776Y160647D01*
X13594Y160548D01*
X13445Y160446D01*
X13291Y160352D01*
X13127Y160227D01*
X12956Y160110D01*
X12819Y159993D01*
X12675Y159884D01*
X12524Y159742D01*
X12366Y159608D01*
X12242Y159477D01*
X12110Y159354D01*
X11975Y159197D01*
X11832Y159048D01*
X11721Y158905D01*
X11603Y158769D01*
X11484Y158599D01*
X11358Y158436D01*
X11262Y158282D01*
X11159Y158135D01*
X11058Y157953D01*
X10949Y157778D01*
X10870Y157616D01*
X10783Y157458D01*
X10701Y157267D01*
X10611Y157081D01*
X10549Y156912D01*
X10478Y156746D01*
X10417Y156548D01*
X10346Y156354D01*
X10302Y156179D01*
X10249Y156006D01*
X10208Y155804D01*
X10158Y155603D01*
X10132Y155424D01*
X10097Y155247D01*
X10086Y155104D01*
X10048Y154836D01*
X10026Y154282D01*
X10017Y154156D01*
X10017Y87598D01*
X10026Y87418D01*
X10025Y87237D01*
X10046Y87031D01*
X10057Y86825D01*
X10085Y86646D01*
X10103Y86467D01*
X10144Y86264D01*
X10176Y86060D01*
X10222Y85885D01*
X10259Y85708D01*
X10321Y85511D01*
X10374Y85311D01*
X10438Y85142D01*
X10492Y84970D01*
X10575Y84780D01*
X10648Y84587D01*
X10729Y84425D01*
X10801Y84260D01*
X10902Y84079D01*
X10995Y83895D01*
X11092Y83742D01*
X11181Y83585D01*
X11300Y83416D01*
X11412Y83242D01*
X11524Y83101D01*
X11628Y82953D01*
X11765Y82798D01*
X11893Y82636D01*
X12019Y82507D01*
X12138Y82371D01*
X12290Y82230D01*
X12435Y82082D01*
X12574Y81967D01*
X12706Y81844D01*
X12871Y81720D01*
X13031Y81588D01*
X13180Y81488D01*
X13325Y81379D01*
X13502Y81272D01*
X13674Y81157D01*
X13834Y81073D01*
X13988Y80980D01*
X14176Y80892D01*
X14359Y80796D01*
X14526Y80728D01*
X14690Y80652D01*
X14885Y80584D01*
X15077Y80506D01*
X15251Y80456D01*
X15421Y80397D01*
X15622Y80350D01*
X15821Y80293D01*
X15999Y80261D01*
X16174Y80220D01*
X16380Y80193D01*
X16584Y80157D01*
X16764Y80144D01*
X16942Y80121D01*
X17149Y80115D01*
X17356Y80100D01*
X17536Y80106D01*
X17717Y80101D01*
X17923Y80117D01*
X18130Y80124D01*
X18309Y80148D01*
X18488Y80162D01*
X18692Y80199D01*
X18897Y80227D01*
X19073Y80269D01*
X19250Y80302D01*
X19449Y80360D01*
X19650Y80409D01*
X19820Y80469D01*
X19993Y80519D01*
X20184Y80598D01*
X20380Y80667D01*
X20543Y80744D01*
X20710Y80813D01*
X20892Y80910D01*
X21079Y80999D01*
X21233Y81093D01*
X21392Y81178D01*
X21564Y81294D01*
X21741Y81402D01*
X21884Y81511D01*
X22034Y81612D01*
X22192Y81745D01*
X22357Y81870D01*
X22489Y81994D01*
X22627Y82110D01*
X22771Y82258D01*
X22922Y82400D01*
X23040Y82537D01*
X23165Y82666D01*
X23293Y82829D01*
X23429Y82985D01*
X23532Y83133D01*
X23644Y83275D01*
X23754Y83450D01*
X23873Y83619D01*
X23961Y83777D01*
X24057Y83930D01*
X24149Y84115D01*
X24249Y84296D01*
X24320Y84462D01*
X24400Y84624D01*
X24447Y84759D01*
X24554Y85008D01*
X24718Y85538D01*
X24760Y85657D01*
X26076Y90568D01*
X30249Y97797D01*
X36151Y103699D01*
X43380Y107872D01*
X51442Y110033D01*
X113030Y110033D01*
X121092Y107872D01*
X128321Y103699D01*
X134223Y97797D01*
X138396Y90568D01*
X140557Y82506D01*
X140557Y74158D01*
X138396Y66096D01*
X134223Y58867D01*
X128321Y52965D01*
X121092Y48792D01*
X113030Y46631D01*
X61160Y46631D01*
X61033Y46625D01*
X60906Y46627D01*
X60647Y46605D01*
X60387Y46591D01*
X60261Y46572D01*
X60135Y46561D01*
X59879Y46512D01*
X59622Y46472D01*
X59499Y46439D01*
X59374Y46416D01*
X59125Y46340D01*
X58873Y46274D01*
X58755Y46229D01*
X58633Y46193D01*
X58392Y46092D01*
X58149Y46000D01*
X58035Y45943D01*
X57918Y45894D01*
X57690Y45770D01*
X57457Y45653D01*
X57350Y45585D01*
X57238Y45524D01*
X57023Y45376D01*
X56804Y45236D01*
X56705Y45158D01*
X56600Y45086D01*
X56401Y44916D01*
X56198Y44755D01*
X56107Y44666D01*
X56010Y44584D01*
X55831Y44395D01*
X55645Y44213D01*
X55563Y44115D01*
X55476Y44024D01*
X55316Y43818D01*
X55150Y43617D01*
X55079Y43512D01*
X55002Y43411D01*
X54864Y43190D01*
X54720Y42974D01*
X54660Y42862D01*
X54593Y42753D01*
X54479Y42519D01*
X54358Y42289D01*
X54310Y42171D01*
X54255Y42057D01*
X54166Y41812D01*
X54068Y41571D01*
X54033Y41449D01*
X53990Y41329D01*
X53927Y41077D01*
X53855Y40827D01*
X53833Y40702D01*
X53802Y40578D01*
X53765Y40320D01*
X53719Y40064D01*
X53710Y39938D01*
X53692Y39812D01*
X53682Y39551D01*
X53663Y39292D01*
X53666Y39165D01*
X53661Y39038D01*
X53678Y38779D01*
X53686Y38518D01*
X53703Y38392D01*
X53711Y38266D01*
X53741Y38109D01*
X53789Y37751D01*
X53886Y37348D01*
X53916Y37191D01*
X55017Y33084D01*
X55017Y26460D01*
X53118Y19373D01*
X53091Y19248D01*
X53056Y19127D01*
X53011Y18871D01*
X52956Y18616D01*
X52943Y18489D01*
X52921Y18364D01*
X52902Y18105D01*
X52874Y17846D01*
X52873Y17719D01*
X52864Y17592D01*
X52872Y17332D01*
X52871Y17072D01*
X52884Y16945D01*
X52887Y16818D01*
X52922Y16560D01*
X52948Y16301D01*
X52974Y16177D01*
X52991Y16051D01*
X53052Y15797D01*
X53104Y15543D01*
X53142Y15422D01*
X53172Y15298D01*
X53259Y15052D01*
X53338Y14804D01*
X53388Y14688D01*
X53431Y14568D01*
X53542Y14333D01*
X53646Y14094D01*
X53708Y13983D01*
X53763Y13869D01*
X53898Y13647D01*
X54026Y13420D01*
X54100Y13316D01*
X54166Y13207D01*
X54323Y13000D01*
X54474Y12788D01*
X54557Y12692D01*
X54634Y12591D01*
X54812Y12401D01*
X54984Y12205D01*
X55077Y12119D01*
X55164Y12026D01*
X55361Y11856D01*
X55551Y11679D01*
X55653Y11602D01*
X55749Y11519D01*
X55962Y11370D01*
X56170Y11213D01*
X56279Y11148D01*
X56383Y11075D01*
X56611Y10948D01*
X56834Y10814D01*
X56949Y10760D01*
X57060Y10699D01*
X57300Y10596D01*
X57535Y10486D01*
X57655Y10444D01*
X57772Y10394D01*
X58021Y10317D01*
X58266Y10231D01*
X58390Y10202D01*
X58511Y10165D01*
X58766Y10113D01*
X59020Y10054D01*
X59146Y10037D01*
X59271Y10013D01*
X59430Y10001D01*
X59788Y9955D01*
X60202Y9944D01*
X60362Y9933D01*
X1389350Y9933D01*
X1389477Y9939D01*
G37*
%LPC*%
G36*
X1102739Y48103D02*
X1102739Y48103D01*
X1096980Y50489D01*
X1092573Y54896D01*
X1090187Y60655D01*
X1090187Y66898D01*
X1090215Y66975D01*
X1090274Y67114D01*
X1090344Y67340D01*
X1090423Y67563D01*
X1090459Y67710D01*
X1090503Y67853D01*
X1090550Y68085D01*
X1090606Y68316D01*
X1090626Y68465D01*
X1090655Y68612D01*
X1090667Y68767D01*
X1090710Y69083D01*
X1090724Y69552D01*
X1090735Y69703D01*
X1090735Y136603D01*
X1090727Y136753D01*
X1090729Y136903D01*
X1090708Y137139D01*
X1090695Y137376D01*
X1090672Y137524D01*
X1090658Y137674D01*
X1090612Y137907D01*
X1090576Y138141D01*
X1090537Y138286D01*
X1090508Y138434D01*
X1090460Y138581D01*
X1090378Y138890D01*
X1090212Y139328D01*
X1090187Y139403D01*
X1090187Y145651D01*
X1091137Y147944D01*
X1091189Y148089D01*
X1091249Y148231D01*
X1091318Y148454D01*
X1091396Y148674D01*
X1091432Y148823D01*
X1091478Y148971D01*
X1091524Y149199D01*
X1091578Y149426D01*
X1091599Y149579D01*
X1091629Y149730D01*
X1091651Y149962D01*
X1091682Y150193D01*
X1091687Y150348D01*
X1091701Y150501D01*
X1091699Y150734D01*
X1091706Y150967D01*
X1091695Y151121D01*
X1091694Y151275D01*
X1091667Y151507D01*
X1091651Y151740D01*
X1091624Y151891D01*
X1091606Y152044D01*
X1091556Y152272D01*
X1091515Y152502D01*
X1091473Y152650D01*
X1091440Y152801D01*
X1091367Y153022D01*
X1091302Y153246D01*
X1091245Y153389D01*
X1091197Y153536D01*
X1091101Y153749D01*
X1091014Y153965D01*
X1090942Y154101D01*
X1090879Y154242D01*
X1090761Y154443D01*
X1090653Y154650D01*
X1090567Y154778D01*
X1090490Y154911D01*
X1090352Y155100D01*
X1090223Y155294D01*
X1090124Y155412D01*
X1090034Y155537D01*
X1089877Y155711D01*
X1089729Y155890D01*
X1089619Y155998D01*
X1089515Y156112D01*
X1089343Y156269D01*
X1089176Y156432D01*
X1089055Y156528D01*
X1088941Y156631D01*
X1088753Y156769D01*
X1088570Y156914D01*
X1088440Y156997D01*
X1088316Y157088D01*
X1088114Y157206D01*
X1087918Y157332D01*
X1087780Y157401D01*
X1087647Y157478D01*
X1087434Y157575D01*
X1087226Y157679D01*
X1087082Y157734D01*
X1086941Y157797D01*
X1086720Y157871D01*
X1086502Y157954D01*
X1086353Y157993D01*
X1086207Y158042D01*
X1085979Y158092D01*
X1085753Y158152D01*
X1085601Y158176D01*
X1085451Y158209D01*
X1085219Y158236D01*
X1084988Y158272D01*
X1084835Y158280D01*
X1084681Y158298D01*
X1084448Y158301D01*
X1084215Y158313D01*
X1084061Y158305D01*
X1083907Y158307D01*
X1083675Y158285D01*
X1083442Y158274D01*
X1083290Y158250D01*
X1083136Y158236D01*
X1083012Y158211D01*
X1076440Y158211D01*
X1069626Y161034D01*
X1069556Y161059D01*
X1069489Y161089D01*
X1069192Y161188D01*
X1068896Y161293D01*
X1068825Y161310D01*
X1068755Y161334D01*
X1068448Y161401D01*
X1068144Y161475D01*
X1068071Y161485D01*
X1067999Y161501D01*
X1067688Y161537D01*
X1067376Y161579D01*
X1067303Y161581D01*
X1067230Y161590D01*
X1066917Y161593D01*
X1066602Y161603D01*
X1066529Y161598D01*
X1066455Y161599D01*
X1066143Y161570D01*
X1065830Y161547D01*
X1065758Y161535D01*
X1065684Y161528D01*
X1065377Y161467D01*
X1065068Y161412D01*
X1064997Y161392D01*
X1064925Y161378D01*
X1064783Y161331D01*
X1064323Y161199D01*
X1064032Y161082D01*
X1063886Y161034D01*
X1057072Y158211D01*
X1051040Y158211D01*
X1044226Y161034D01*
X1044156Y161059D01*
X1044089Y161089D01*
X1043792Y161188D01*
X1043496Y161293D01*
X1043425Y161310D01*
X1043355Y161334D01*
X1043048Y161401D01*
X1042744Y161475D01*
X1042671Y161485D01*
X1042599Y161501D01*
X1042288Y161537D01*
X1041976Y161579D01*
X1041903Y161581D01*
X1041830Y161590D01*
X1041517Y161593D01*
X1041202Y161603D01*
X1041129Y161598D01*
X1041055Y161599D01*
X1040743Y161570D01*
X1040430Y161547D01*
X1040358Y161535D01*
X1040284Y161528D01*
X1039977Y161467D01*
X1039668Y161412D01*
X1039597Y161392D01*
X1039525Y161378D01*
X1039383Y161331D01*
X1038923Y161199D01*
X1038632Y161082D01*
X1038486Y161034D01*
X1031672Y158211D01*
X1025640Y158211D01*
X1018826Y161034D01*
X1018756Y161059D01*
X1018689Y161089D01*
X1018392Y161188D01*
X1018096Y161293D01*
X1018025Y161310D01*
X1017955Y161334D01*
X1017648Y161401D01*
X1017344Y161475D01*
X1017271Y161485D01*
X1017199Y161501D01*
X1016888Y161537D01*
X1016576Y161579D01*
X1016503Y161581D01*
X1016430Y161590D01*
X1016117Y161593D01*
X1015802Y161603D01*
X1015729Y161598D01*
X1015655Y161599D01*
X1015343Y161570D01*
X1015030Y161547D01*
X1014958Y161535D01*
X1014884Y161528D01*
X1014577Y161467D01*
X1014268Y161412D01*
X1014197Y161392D01*
X1014125Y161378D01*
X1013983Y161331D01*
X1013523Y161199D01*
X1013232Y161082D01*
X1013086Y161034D01*
X1006272Y158211D01*
X1000240Y158211D01*
X993426Y161034D01*
X993356Y161059D01*
X993289Y161089D01*
X992992Y161188D01*
X992696Y161293D01*
X992625Y161310D01*
X992555Y161334D01*
X992248Y161401D01*
X991944Y161475D01*
X991871Y161485D01*
X991799Y161501D01*
X991488Y161537D01*
X991176Y161579D01*
X991103Y161581D01*
X991030Y161590D01*
X990717Y161593D01*
X990402Y161603D01*
X990329Y161598D01*
X990255Y161599D01*
X989943Y161570D01*
X989630Y161547D01*
X989558Y161535D01*
X989484Y161528D01*
X989177Y161467D01*
X988868Y161412D01*
X988797Y161392D01*
X988725Y161378D01*
X988583Y161331D01*
X988123Y161199D01*
X987832Y161082D01*
X987686Y161034D01*
X980872Y158211D01*
X974840Y158211D01*
X968026Y161034D01*
X967956Y161059D01*
X967889Y161089D01*
X967592Y161188D01*
X967296Y161293D01*
X967225Y161310D01*
X967155Y161334D01*
X966848Y161401D01*
X966544Y161475D01*
X966471Y161485D01*
X966399Y161501D01*
X966088Y161537D01*
X965776Y161579D01*
X965703Y161581D01*
X965630Y161590D01*
X965317Y161593D01*
X965002Y161603D01*
X964929Y161598D01*
X964855Y161599D01*
X964543Y161570D01*
X964230Y161547D01*
X964158Y161535D01*
X964084Y161528D01*
X963777Y161467D01*
X963468Y161412D01*
X963397Y161392D01*
X963325Y161378D01*
X963183Y161331D01*
X962723Y161199D01*
X962432Y161082D01*
X962286Y161034D01*
X955472Y158211D01*
X949440Y158211D01*
X942626Y161034D01*
X942556Y161059D01*
X942489Y161089D01*
X942192Y161188D01*
X941896Y161293D01*
X941825Y161310D01*
X941755Y161334D01*
X941448Y161401D01*
X941144Y161475D01*
X941071Y161485D01*
X940999Y161501D01*
X940688Y161537D01*
X940376Y161579D01*
X940303Y161581D01*
X940230Y161590D01*
X939917Y161593D01*
X939602Y161603D01*
X939529Y161598D01*
X939455Y161599D01*
X939143Y161570D01*
X938830Y161547D01*
X938758Y161535D01*
X938684Y161528D01*
X938377Y161467D01*
X938068Y161412D01*
X937997Y161392D01*
X937925Y161378D01*
X937783Y161331D01*
X937323Y161199D01*
X937032Y161082D01*
X936886Y161034D01*
X930072Y158211D01*
X924040Y158211D01*
X918468Y160519D01*
X914203Y164784D01*
X911895Y170356D01*
X911895Y176388D01*
X914203Y181960D01*
X918468Y186225D01*
X924040Y188533D01*
X930072Y188533D01*
X936886Y185710D01*
X936956Y185685D01*
X937023Y185655D01*
X937320Y185556D01*
X937616Y185451D01*
X937687Y185434D01*
X937757Y185410D01*
X938064Y185342D01*
X938368Y185269D01*
X938441Y185259D01*
X938513Y185243D01*
X938825Y185207D01*
X939136Y185165D01*
X939209Y185163D01*
X939282Y185154D01*
X939595Y185151D01*
X939910Y185141D01*
X939983Y185146D01*
X940057Y185145D01*
X940369Y185174D01*
X940682Y185197D01*
X940754Y185209D01*
X940828Y185216D01*
X941135Y185277D01*
X941444Y185332D01*
X941515Y185352D01*
X941587Y185366D01*
X941729Y185413D01*
X942189Y185545D01*
X942480Y185662D01*
X942626Y185710D01*
X949440Y188533D01*
X955472Y188533D01*
X962286Y185710D01*
X962356Y185685D01*
X962423Y185655D01*
X962720Y185556D01*
X963016Y185451D01*
X963087Y185434D01*
X963157Y185410D01*
X963464Y185342D01*
X963768Y185269D01*
X963841Y185259D01*
X963913Y185243D01*
X964225Y185207D01*
X964536Y185165D01*
X964609Y185163D01*
X964682Y185154D01*
X964995Y185151D01*
X965310Y185141D01*
X965383Y185146D01*
X965457Y185145D01*
X965769Y185174D01*
X966082Y185197D01*
X966154Y185209D01*
X966228Y185216D01*
X966535Y185277D01*
X966844Y185332D01*
X966915Y185352D01*
X966987Y185366D01*
X967129Y185413D01*
X967589Y185545D01*
X967880Y185662D01*
X968026Y185710D01*
X974840Y188533D01*
X980872Y188533D01*
X987686Y185710D01*
X987756Y185685D01*
X987823Y185655D01*
X988120Y185556D01*
X988416Y185451D01*
X988487Y185434D01*
X988557Y185410D01*
X988864Y185342D01*
X989168Y185269D01*
X989241Y185259D01*
X989313Y185243D01*
X989625Y185207D01*
X989936Y185165D01*
X990009Y185163D01*
X990082Y185154D01*
X990395Y185151D01*
X990710Y185141D01*
X990783Y185146D01*
X990857Y185145D01*
X991169Y185174D01*
X991482Y185197D01*
X991554Y185209D01*
X991628Y185216D01*
X991935Y185277D01*
X992244Y185332D01*
X992315Y185352D01*
X992387Y185366D01*
X992529Y185413D01*
X992989Y185545D01*
X993280Y185662D01*
X993426Y185710D01*
X1000240Y188533D01*
X1006272Y188533D01*
X1013086Y185710D01*
X1013156Y185685D01*
X1013223Y185655D01*
X1013520Y185556D01*
X1013816Y185451D01*
X1013887Y185434D01*
X1013957Y185410D01*
X1014264Y185342D01*
X1014568Y185269D01*
X1014641Y185259D01*
X1014713Y185243D01*
X1015025Y185207D01*
X1015336Y185165D01*
X1015409Y185163D01*
X1015482Y185154D01*
X1015795Y185151D01*
X1016110Y185141D01*
X1016183Y185146D01*
X1016257Y185145D01*
X1016569Y185174D01*
X1016882Y185197D01*
X1016954Y185209D01*
X1017028Y185216D01*
X1017335Y185277D01*
X1017644Y185332D01*
X1017715Y185352D01*
X1017787Y185366D01*
X1017929Y185413D01*
X1018389Y185545D01*
X1018680Y185662D01*
X1018826Y185710D01*
X1025640Y188533D01*
X1031672Y188533D01*
X1038486Y185710D01*
X1038556Y185685D01*
X1038623Y185655D01*
X1038920Y185556D01*
X1039216Y185451D01*
X1039287Y185434D01*
X1039357Y185410D01*
X1039664Y185342D01*
X1039968Y185269D01*
X1040041Y185259D01*
X1040113Y185243D01*
X1040425Y185207D01*
X1040736Y185165D01*
X1040809Y185163D01*
X1040882Y185154D01*
X1041195Y185151D01*
X1041510Y185141D01*
X1041583Y185146D01*
X1041657Y185145D01*
X1041969Y185174D01*
X1042282Y185197D01*
X1042354Y185209D01*
X1042428Y185216D01*
X1042735Y185277D01*
X1043044Y185332D01*
X1043115Y185352D01*
X1043187Y185366D01*
X1043329Y185413D01*
X1043789Y185545D01*
X1044080Y185662D01*
X1044226Y185710D01*
X1051040Y188533D01*
X1057072Y188533D01*
X1063886Y185710D01*
X1063956Y185685D01*
X1064023Y185655D01*
X1064320Y185556D01*
X1064616Y185451D01*
X1064687Y185434D01*
X1064757Y185410D01*
X1065064Y185342D01*
X1065368Y185269D01*
X1065441Y185259D01*
X1065513Y185243D01*
X1065825Y185207D01*
X1066136Y185165D01*
X1066209Y185163D01*
X1066282Y185154D01*
X1066595Y185151D01*
X1066910Y185141D01*
X1066983Y185146D01*
X1067057Y185145D01*
X1067369Y185174D01*
X1067682Y185197D01*
X1067754Y185209D01*
X1067828Y185216D01*
X1068135Y185277D01*
X1068444Y185332D01*
X1068515Y185352D01*
X1068587Y185366D01*
X1068729Y185413D01*
X1069189Y185545D01*
X1069480Y185662D01*
X1069626Y185710D01*
X1076440Y188533D01*
X1082472Y188533D01*
X1089286Y185710D01*
X1089356Y185685D01*
X1089423Y185655D01*
X1089720Y185556D01*
X1090016Y185451D01*
X1090087Y185434D01*
X1090157Y185410D01*
X1090464Y185342D01*
X1090768Y185269D01*
X1090841Y185259D01*
X1090913Y185243D01*
X1091225Y185207D01*
X1091536Y185165D01*
X1091609Y185163D01*
X1091682Y185154D01*
X1091995Y185151D01*
X1092310Y185141D01*
X1092383Y185146D01*
X1092457Y185145D01*
X1092769Y185174D01*
X1093082Y185197D01*
X1093154Y185209D01*
X1093228Y185216D01*
X1093535Y185277D01*
X1093844Y185332D01*
X1093915Y185352D01*
X1093987Y185366D01*
X1094129Y185413D01*
X1094589Y185545D01*
X1094880Y185662D01*
X1095026Y185710D01*
X1101840Y188533D01*
X1107872Y188533D01*
X1114686Y185710D01*
X1114756Y185685D01*
X1114823Y185655D01*
X1115120Y185556D01*
X1115416Y185451D01*
X1115487Y185434D01*
X1115557Y185410D01*
X1115864Y185342D01*
X1116168Y185269D01*
X1116241Y185259D01*
X1116313Y185243D01*
X1116625Y185207D01*
X1116936Y185165D01*
X1117009Y185163D01*
X1117082Y185154D01*
X1117395Y185151D01*
X1117710Y185141D01*
X1117783Y185146D01*
X1117857Y185145D01*
X1118169Y185174D01*
X1118482Y185197D01*
X1118554Y185209D01*
X1118628Y185216D01*
X1118935Y185277D01*
X1119244Y185332D01*
X1119315Y185352D01*
X1119387Y185366D01*
X1119529Y185413D01*
X1119989Y185545D01*
X1120280Y185662D01*
X1120426Y185710D01*
X1127240Y188533D01*
X1133272Y188533D01*
X1140086Y185710D01*
X1140156Y185685D01*
X1140223Y185655D01*
X1140520Y185556D01*
X1140816Y185451D01*
X1140887Y185434D01*
X1140957Y185410D01*
X1141264Y185342D01*
X1141568Y185269D01*
X1141641Y185259D01*
X1141713Y185243D01*
X1142025Y185207D01*
X1142336Y185165D01*
X1142409Y185163D01*
X1142482Y185154D01*
X1142795Y185151D01*
X1143110Y185141D01*
X1143183Y185146D01*
X1143257Y185145D01*
X1143569Y185174D01*
X1143882Y185197D01*
X1143954Y185209D01*
X1144028Y185216D01*
X1144335Y185277D01*
X1144644Y185332D01*
X1144715Y185352D01*
X1144787Y185366D01*
X1144929Y185413D01*
X1145389Y185545D01*
X1145680Y185662D01*
X1145826Y185710D01*
X1152640Y188533D01*
X1158672Y188533D01*
X1165486Y185710D01*
X1165556Y185685D01*
X1165623Y185655D01*
X1165920Y185556D01*
X1166216Y185451D01*
X1166287Y185434D01*
X1166357Y185410D01*
X1166664Y185342D01*
X1166968Y185269D01*
X1167041Y185259D01*
X1167113Y185243D01*
X1167425Y185207D01*
X1167736Y185165D01*
X1167809Y185163D01*
X1167882Y185154D01*
X1168195Y185151D01*
X1168510Y185141D01*
X1168583Y185146D01*
X1168657Y185145D01*
X1168969Y185174D01*
X1169282Y185197D01*
X1169354Y185209D01*
X1169428Y185216D01*
X1169735Y185277D01*
X1170044Y185332D01*
X1170115Y185352D01*
X1170187Y185366D01*
X1170329Y185413D01*
X1170789Y185545D01*
X1171080Y185662D01*
X1171226Y185710D01*
X1178040Y188533D01*
X1184072Y188533D01*
X1190886Y185710D01*
X1190956Y185685D01*
X1191023Y185655D01*
X1191320Y185556D01*
X1191616Y185451D01*
X1191687Y185434D01*
X1191757Y185410D01*
X1192064Y185342D01*
X1192368Y185269D01*
X1192441Y185259D01*
X1192513Y185243D01*
X1192825Y185207D01*
X1193136Y185165D01*
X1193209Y185163D01*
X1193282Y185154D01*
X1193595Y185151D01*
X1193910Y185141D01*
X1193983Y185146D01*
X1194057Y185145D01*
X1194369Y185174D01*
X1194682Y185197D01*
X1194754Y185209D01*
X1194828Y185216D01*
X1195135Y185277D01*
X1195444Y185332D01*
X1195515Y185352D01*
X1195587Y185366D01*
X1195729Y185413D01*
X1196189Y185545D01*
X1196480Y185662D01*
X1196626Y185710D01*
X1203440Y188533D01*
X1209472Y188533D01*
X1216286Y185710D01*
X1216356Y185685D01*
X1216423Y185655D01*
X1216720Y185556D01*
X1217016Y185451D01*
X1217087Y185434D01*
X1217157Y185410D01*
X1217464Y185342D01*
X1217768Y185269D01*
X1217841Y185259D01*
X1217913Y185243D01*
X1218225Y185207D01*
X1218536Y185165D01*
X1218609Y185163D01*
X1218682Y185154D01*
X1218995Y185151D01*
X1219310Y185141D01*
X1219383Y185146D01*
X1219457Y185145D01*
X1219769Y185174D01*
X1220082Y185197D01*
X1220154Y185209D01*
X1220228Y185216D01*
X1220535Y185277D01*
X1220844Y185332D01*
X1220915Y185352D01*
X1220987Y185366D01*
X1221129Y185413D01*
X1221589Y185545D01*
X1221880Y185662D01*
X1222026Y185710D01*
X1228840Y188533D01*
X1234872Y188533D01*
X1240444Y186225D01*
X1243297Y183371D01*
X1243372Y183304D01*
X1243441Y183231D01*
X1243659Y183045D01*
X1243872Y182853D01*
X1243953Y182794D01*
X1244030Y182728D01*
X1244266Y182565D01*
X1244498Y182396D01*
X1244584Y182346D01*
X1244667Y182289D01*
X1244919Y182151D01*
X1245167Y182007D01*
X1245259Y181965D01*
X1245346Y181917D01*
X1245611Y181806D01*
X1245873Y181688D01*
X1245968Y181657D01*
X1246060Y181618D01*
X1246335Y181535D01*
X1246607Y181444D01*
X1246706Y181423D01*
X1246802Y181394D01*
X1247083Y181339D01*
X1247364Y181277D01*
X1247463Y181266D01*
X1247562Y181247D01*
X1247847Y181222D01*
X1248133Y181189D01*
X1248233Y181188D01*
X1248333Y181180D01*
X1248620Y181184D01*
X1248907Y181181D01*
X1249007Y181190D01*
X1249107Y181192D01*
X1249392Y181226D01*
X1249678Y181253D01*
X1249757Y181268D01*
X1249757Y173372D01*
X1249757Y165471D01*
X1249710Y165477D01*
X1249426Y165524D01*
X1249326Y165529D01*
X1249227Y165543D01*
X1248940Y165552D01*
X1248653Y165569D01*
X1248553Y165565D01*
X1248453Y165568D01*
X1248167Y165547D01*
X1247880Y165535D01*
X1247780Y165520D01*
X1247681Y165513D01*
X1247398Y165463D01*
X1247114Y165421D01*
X1247017Y165396D01*
X1246918Y165378D01*
X1246643Y165300D01*
X1246364Y165228D01*
X1246270Y165193D01*
X1246173Y165166D01*
X1245908Y165059D01*
X1245638Y164959D01*
X1245548Y164915D01*
X1245455Y164878D01*
X1245201Y164744D01*
X1244943Y164617D01*
X1244858Y164564D01*
X1244769Y164517D01*
X1244530Y164358D01*
X1244288Y164205D01*
X1244209Y164144D01*
X1244125Y164088D01*
X1244004Y163983D01*
X1243678Y163728D01*
X1243418Y163477D01*
X1243297Y163373D01*
X1240444Y160519D01*
X1234872Y158211D01*
X1228840Y158211D01*
X1222026Y161034D01*
X1221956Y161059D01*
X1221889Y161089D01*
X1221592Y161188D01*
X1221296Y161293D01*
X1221225Y161310D01*
X1221155Y161334D01*
X1220848Y161401D01*
X1220544Y161475D01*
X1220471Y161485D01*
X1220399Y161501D01*
X1220088Y161537D01*
X1219776Y161579D01*
X1219703Y161581D01*
X1219630Y161590D01*
X1219317Y161593D01*
X1219002Y161603D01*
X1218929Y161598D01*
X1218855Y161599D01*
X1218543Y161570D01*
X1218230Y161547D01*
X1218158Y161535D01*
X1218084Y161528D01*
X1217777Y161467D01*
X1217468Y161412D01*
X1217397Y161392D01*
X1217325Y161378D01*
X1217183Y161331D01*
X1216723Y161199D01*
X1216432Y161082D01*
X1216286Y161034D01*
X1209472Y158211D01*
X1203440Y158211D01*
X1196626Y161034D01*
X1196556Y161059D01*
X1196489Y161089D01*
X1196192Y161188D01*
X1195896Y161293D01*
X1195825Y161310D01*
X1195755Y161334D01*
X1195448Y161401D01*
X1195144Y161475D01*
X1195071Y161485D01*
X1194999Y161501D01*
X1194688Y161537D01*
X1194376Y161579D01*
X1194303Y161581D01*
X1194230Y161590D01*
X1193917Y161593D01*
X1193602Y161603D01*
X1193529Y161598D01*
X1193455Y161599D01*
X1193143Y161570D01*
X1192830Y161547D01*
X1192758Y161535D01*
X1192684Y161528D01*
X1192377Y161467D01*
X1192068Y161412D01*
X1191997Y161392D01*
X1191925Y161378D01*
X1191783Y161331D01*
X1191323Y161199D01*
X1191032Y161082D01*
X1190886Y161034D01*
X1184072Y158211D01*
X1178040Y158211D01*
X1171226Y161034D01*
X1171156Y161059D01*
X1171089Y161089D01*
X1170792Y161188D01*
X1170496Y161293D01*
X1170425Y161310D01*
X1170355Y161334D01*
X1170048Y161401D01*
X1169744Y161475D01*
X1169671Y161485D01*
X1169599Y161501D01*
X1169288Y161537D01*
X1168976Y161579D01*
X1168903Y161581D01*
X1168830Y161590D01*
X1168517Y161593D01*
X1168202Y161603D01*
X1168129Y161598D01*
X1168055Y161599D01*
X1167743Y161570D01*
X1167430Y161547D01*
X1167358Y161535D01*
X1167284Y161528D01*
X1166977Y161467D01*
X1166668Y161412D01*
X1166597Y161392D01*
X1166525Y161378D01*
X1166383Y161331D01*
X1165923Y161199D01*
X1165632Y161082D01*
X1165486Y161034D01*
X1158672Y158211D01*
X1152640Y158211D01*
X1145826Y161034D01*
X1145756Y161059D01*
X1145689Y161089D01*
X1145392Y161188D01*
X1145096Y161293D01*
X1145025Y161310D01*
X1144955Y161334D01*
X1144648Y161401D01*
X1144344Y161475D01*
X1144271Y161485D01*
X1144199Y161501D01*
X1143888Y161537D01*
X1143576Y161579D01*
X1143503Y161581D01*
X1143430Y161590D01*
X1143117Y161593D01*
X1142802Y161603D01*
X1142729Y161598D01*
X1142655Y161599D01*
X1142343Y161570D01*
X1142030Y161547D01*
X1141958Y161535D01*
X1141884Y161528D01*
X1141577Y161467D01*
X1141268Y161412D01*
X1141197Y161392D01*
X1141125Y161378D01*
X1140983Y161331D01*
X1140523Y161199D01*
X1140232Y161082D01*
X1140086Y161034D01*
X1133272Y158211D01*
X1127545Y158211D01*
X1127315Y158199D01*
X1127085Y158197D01*
X1126929Y158179D01*
X1126772Y158171D01*
X1126544Y158136D01*
X1126315Y158110D01*
X1126162Y158076D01*
X1126007Y158052D01*
X1125784Y157993D01*
X1125559Y157943D01*
X1125410Y157894D01*
X1125258Y157854D01*
X1125043Y157773D01*
X1124824Y157700D01*
X1124681Y157636D01*
X1124534Y157580D01*
X1124329Y157477D01*
X1124118Y157382D01*
X1123982Y157303D01*
X1123842Y157233D01*
X1123648Y157109D01*
X1123449Y156993D01*
X1123322Y156901D01*
X1123189Y156816D01*
X1123009Y156673D01*
X1122823Y156537D01*
X1122706Y156432D01*
X1122583Y156335D01*
X1122419Y156174D01*
X1122247Y156019D01*
X1122142Y155903D01*
X1122030Y155793D01*
X1121883Y155616D01*
X1121728Y155445D01*
X1121636Y155318D01*
X1121535Y155197D01*
X1121407Y155006D01*
X1121271Y154820D01*
X1121192Y154684D01*
X1121105Y154554D01*
X1120997Y154350D01*
X1120881Y154151D01*
X1120816Y154008D01*
X1120743Y153869D01*
X1120657Y153655D01*
X1120562Y153445D01*
X1120512Y153297D01*
X1120454Y153151D01*
X1120390Y152929D01*
X1120317Y152711D01*
X1120283Y152557D01*
X1120240Y152407D01*
X1120200Y152180D01*
X1120150Y151955D01*
X1120132Y151799D01*
X1120104Y151644D01*
X1120088Y151415D01*
X1120061Y151186D01*
X1120059Y151029D01*
X1120048Y150872D01*
X1120055Y150642D01*
X1120052Y150411D01*
X1120067Y150255D01*
X1120071Y150098D01*
X1120102Y149870D01*
X1120123Y149640D01*
X1120154Y149486D01*
X1120174Y149331D01*
X1120229Y149106D01*
X1120273Y148881D01*
X1120310Y148770D01*
X1120356Y148578D01*
X1120614Y147848D01*
X1120616Y147845D01*
X1120617Y147842D01*
X1121525Y145651D01*
X1121525Y139408D01*
X1121497Y139331D01*
X1121438Y139192D01*
X1121368Y138966D01*
X1121289Y138743D01*
X1121253Y138596D01*
X1121209Y138453D01*
X1121162Y138221D01*
X1121106Y137990D01*
X1121086Y137841D01*
X1121057Y137694D01*
X1121045Y137539D01*
X1121002Y137223D01*
X1120988Y136754D01*
X1120977Y136603D01*
X1120977Y69703D01*
X1120985Y69553D01*
X1120983Y69403D01*
X1121004Y69167D01*
X1121017Y68930D01*
X1121040Y68782D01*
X1121054Y68632D01*
X1121100Y68399D01*
X1121136Y68165D01*
X1121175Y68020D01*
X1121204Y67872D01*
X1121252Y67725D01*
X1121334Y67416D01*
X1121500Y66978D01*
X1121525Y66903D01*
X1121525Y60655D01*
X1119139Y54896D01*
X1114732Y50489D01*
X1108973Y48103D01*
X1102739Y48103D01*
G37*
%LPD*%
%LPC*%
G36*
X924040Y405911D02*
X924040Y405911D01*
X918468Y408219D01*
X914203Y412484D01*
X911895Y418056D01*
X911895Y424088D01*
X914203Y429660D01*
X918468Y433925D01*
X924040Y436233D01*
X930072Y436233D01*
X936886Y433410D01*
X936956Y433385D01*
X937023Y433355D01*
X937320Y433256D01*
X937616Y433151D01*
X937687Y433134D01*
X937757Y433110D01*
X938064Y433042D01*
X938368Y432969D01*
X938441Y432959D01*
X938513Y432943D01*
X938825Y432907D01*
X939136Y432865D01*
X939209Y432863D01*
X939282Y432854D01*
X939595Y432851D01*
X939910Y432841D01*
X939983Y432846D01*
X940057Y432845D01*
X940369Y432874D01*
X940682Y432897D01*
X940754Y432909D01*
X940828Y432916D01*
X941135Y432977D01*
X941444Y433032D01*
X941515Y433052D01*
X941587Y433066D01*
X941729Y433113D01*
X942189Y433245D01*
X942480Y433362D01*
X942626Y433410D01*
X949440Y436233D01*
X955472Y436233D01*
X962286Y433410D01*
X962356Y433385D01*
X962423Y433355D01*
X962720Y433256D01*
X963016Y433151D01*
X963087Y433134D01*
X963157Y433110D01*
X963464Y433042D01*
X963768Y432969D01*
X963841Y432959D01*
X963913Y432943D01*
X964225Y432907D01*
X964536Y432865D01*
X964609Y432863D01*
X964682Y432854D01*
X964995Y432851D01*
X965310Y432841D01*
X965383Y432846D01*
X965457Y432845D01*
X965769Y432874D01*
X966082Y432897D01*
X966154Y432909D01*
X966228Y432916D01*
X966535Y432977D01*
X966844Y433032D01*
X966915Y433052D01*
X966987Y433066D01*
X967129Y433113D01*
X967589Y433245D01*
X967880Y433362D01*
X968026Y433410D01*
X974840Y436233D01*
X980872Y436233D01*
X987686Y433410D01*
X987756Y433385D01*
X987823Y433355D01*
X988120Y433256D01*
X988416Y433151D01*
X988487Y433134D01*
X988557Y433110D01*
X988864Y433042D01*
X989168Y432969D01*
X989241Y432959D01*
X989313Y432943D01*
X989625Y432907D01*
X989936Y432865D01*
X990009Y432863D01*
X990082Y432854D01*
X990395Y432851D01*
X990710Y432841D01*
X990783Y432846D01*
X990857Y432845D01*
X991169Y432874D01*
X991482Y432897D01*
X991554Y432909D01*
X991628Y432916D01*
X991935Y432977D01*
X992244Y433032D01*
X992315Y433052D01*
X992387Y433066D01*
X992529Y433113D01*
X992989Y433245D01*
X993280Y433362D01*
X993426Y433410D01*
X1000240Y436233D01*
X1006272Y436233D01*
X1013086Y433410D01*
X1013156Y433385D01*
X1013223Y433355D01*
X1013520Y433256D01*
X1013816Y433151D01*
X1013887Y433134D01*
X1013957Y433110D01*
X1014264Y433042D01*
X1014568Y432969D01*
X1014641Y432959D01*
X1014713Y432943D01*
X1015025Y432907D01*
X1015336Y432865D01*
X1015409Y432863D01*
X1015482Y432854D01*
X1015795Y432851D01*
X1016110Y432841D01*
X1016183Y432846D01*
X1016257Y432845D01*
X1016569Y432874D01*
X1016882Y432897D01*
X1016954Y432909D01*
X1017028Y432916D01*
X1017335Y432977D01*
X1017644Y433032D01*
X1017715Y433052D01*
X1017787Y433066D01*
X1017929Y433113D01*
X1018389Y433245D01*
X1018680Y433362D01*
X1018826Y433410D01*
X1025640Y436233D01*
X1031672Y436233D01*
X1038486Y433410D01*
X1038556Y433385D01*
X1038623Y433355D01*
X1038920Y433256D01*
X1039216Y433151D01*
X1039287Y433134D01*
X1039357Y433110D01*
X1039664Y433042D01*
X1039968Y432969D01*
X1040041Y432959D01*
X1040113Y432943D01*
X1040425Y432907D01*
X1040736Y432865D01*
X1040809Y432863D01*
X1040882Y432854D01*
X1041195Y432851D01*
X1041510Y432841D01*
X1041583Y432846D01*
X1041657Y432845D01*
X1041969Y432874D01*
X1042282Y432897D01*
X1042354Y432909D01*
X1042428Y432916D01*
X1042735Y432977D01*
X1043044Y433032D01*
X1043115Y433052D01*
X1043187Y433066D01*
X1043329Y433113D01*
X1043789Y433245D01*
X1044080Y433362D01*
X1044226Y433410D01*
X1051040Y436233D01*
X1057072Y436233D01*
X1063886Y433410D01*
X1063956Y433385D01*
X1064023Y433355D01*
X1064320Y433256D01*
X1064616Y433151D01*
X1064687Y433134D01*
X1064757Y433110D01*
X1065064Y433042D01*
X1065368Y432969D01*
X1065441Y432959D01*
X1065513Y432943D01*
X1065825Y432907D01*
X1066136Y432865D01*
X1066209Y432863D01*
X1066282Y432854D01*
X1066595Y432851D01*
X1066910Y432841D01*
X1066983Y432846D01*
X1067057Y432845D01*
X1067369Y432874D01*
X1067682Y432897D01*
X1067754Y432909D01*
X1067828Y432916D01*
X1068135Y432977D01*
X1068444Y433032D01*
X1068515Y433052D01*
X1068587Y433066D01*
X1068729Y433113D01*
X1069189Y433245D01*
X1069480Y433362D01*
X1069626Y433410D01*
X1076440Y436233D01*
X1082472Y436233D01*
X1089286Y433410D01*
X1089356Y433385D01*
X1089423Y433355D01*
X1089720Y433256D01*
X1090016Y433151D01*
X1090087Y433134D01*
X1090157Y433110D01*
X1090464Y433042D01*
X1090768Y432969D01*
X1090841Y432959D01*
X1090913Y432943D01*
X1091225Y432907D01*
X1091536Y432865D01*
X1091609Y432863D01*
X1091682Y432854D01*
X1091995Y432851D01*
X1092310Y432841D01*
X1092383Y432846D01*
X1092457Y432845D01*
X1092769Y432874D01*
X1093082Y432897D01*
X1093154Y432909D01*
X1093228Y432916D01*
X1093535Y432977D01*
X1093844Y433032D01*
X1093915Y433052D01*
X1093987Y433066D01*
X1094129Y433113D01*
X1094589Y433245D01*
X1094880Y433362D01*
X1095026Y433410D01*
X1101840Y436233D01*
X1107872Y436233D01*
X1114686Y433410D01*
X1114756Y433385D01*
X1114823Y433355D01*
X1115120Y433256D01*
X1115416Y433151D01*
X1115487Y433134D01*
X1115557Y433110D01*
X1115864Y433042D01*
X1116168Y432969D01*
X1116241Y432959D01*
X1116313Y432943D01*
X1116625Y432907D01*
X1116936Y432865D01*
X1117009Y432863D01*
X1117082Y432854D01*
X1117395Y432851D01*
X1117710Y432841D01*
X1117783Y432846D01*
X1117857Y432845D01*
X1118169Y432874D01*
X1118482Y432897D01*
X1118554Y432909D01*
X1118628Y432916D01*
X1118935Y432977D01*
X1119244Y433032D01*
X1119315Y433052D01*
X1119387Y433066D01*
X1119529Y433113D01*
X1119989Y433245D01*
X1120280Y433362D01*
X1120426Y433410D01*
X1127240Y436233D01*
X1133272Y436233D01*
X1140086Y433410D01*
X1140156Y433385D01*
X1140223Y433355D01*
X1140520Y433256D01*
X1140816Y433151D01*
X1140887Y433134D01*
X1140957Y433110D01*
X1141264Y433042D01*
X1141568Y432969D01*
X1141641Y432959D01*
X1141713Y432943D01*
X1142025Y432907D01*
X1142336Y432865D01*
X1142409Y432863D01*
X1142482Y432854D01*
X1142795Y432851D01*
X1143110Y432841D01*
X1143183Y432846D01*
X1143257Y432845D01*
X1143569Y432874D01*
X1143882Y432897D01*
X1143954Y432909D01*
X1144028Y432916D01*
X1144335Y432977D01*
X1144644Y433032D01*
X1144715Y433052D01*
X1144787Y433066D01*
X1144929Y433113D01*
X1145389Y433245D01*
X1145680Y433362D01*
X1145826Y433410D01*
X1152640Y436233D01*
X1158672Y436233D01*
X1165486Y433410D01*
X1165556Y433385D01*
X1165623Y433355D01*
X1165920Y433256D01*
X1166216Y433151D01*
X1166287Y433134D01*
X1166357Y433110D01*
X1166664Y433042D01*
X1166968Y432969D01*
X1167041Y432959D01*
X1167113Y432943D01*
X1167425Y432907D01*
X1167736Y432865D01*
X1167809Y432863D01*
X1167882Y432854D01*
X1168195Y432851D01*
X1168510Y432841D01*
X1168583Y432846D01*
X1168657Y432845D01*
X1168969Y432874D01*
X1169282Y432897D01*
X1169354Y432909D01*
X1169428Y432916D01*
X1169735Y432977D01*
X1170044Y433032D01*
X1170115Y433052D01*
X1170187Y433066D01*
X1170329Y433113D01*
X1170789Y433245D01*
X1171080Y433362D01*
X1171226Y433410D01*
X1178040Y436233D01*
X1184072Y436233D01*
X1190886Y433410D01*
X1190956Y433385D01*
X1191023Y433355D01*
X1191320Y433256D01*
X1191616Y433151D01*
X1191687Y433134D01*
X1191757Y433110D01*
X1192064Y433042D01*
X1192368Y432969D01*
X1192441Y432959D01*
X1192513Y432943D01*
X1192825Y432907D01*
X1193136Y432865D01*
X1193209Y432863D01*
X1193282Y432854D01*
X1193595Y432851D01*
X1193910Y432841D01*
X1193983Y432846D01*
X1194057Y432845D01*
X1194369Y432874D01*
X1194682Y432897D01*
X1194754Y432909D01*
X1194828Y432916D01*
X1195135Y432977D01*
X1195444Y433032D01*
X1195515Y433052D01*
X1195587Y433066D01*
X1195729Y433113D01*
X1196189Y433245D01*
X1196480Y433362D01*
X1196626Y433410D01*
X1203440Y436233D01*
X1209472Y436233D01*
X1216286Y433410D01*
X1216356Y433385D01*
X1216423Y433355D01*
X1216720Y433256D01*
X1217016Y433151D01*
X1217087Y433134D01*
X1217157Y433110D01*
X1217464Y433042D01*
X1217768Y432969D01*
X1217841Y432959D01*
X1217913Y432943D01*
X1218225Y432907D01*
X1218536Y432865D01*
X1218609Y432863D01*
X1218682Y432854D01*
X1218995Y432851D01*
X1219310Y432841D01*
X1219383Y432846D01*
X1219457Y432845D01*
X1219769Y432874D01*
X1220082Y432897D01*
X1220154Y432909D01*
X1220228Y432916D01*
X1220535Y432977D01*
X1220844Y433032D01*
X1220915Y433052D01*
X1220987Y433066D01*
X1221129Y433113D01*
X1221589Y433245D01*
X1221880Y433362D01*
X1222026Y433410D01*
X1228840Y436233D01*
X1234872Y436233D01*
X1240444Y433925D01*
X1243297Y431071D01*
X1243372Y431004D01*
X1243441Y430931D01*
X1243659Y430745D01*
X1243872Y430553D01*
X1243953Y430494D01*
X1244030Y430428D01*
X1244266Y430265D01*
X1244498Y430096D01*
X1244584Y430046D01*
X1244667Y429989D01*
X1244919Y429851D01*
X1245167Y429707D01*
X1245259Y429665D01*
X1245346Y429617D01*
X1245611Y429506D01*
X1245873Y429388D01*
X1245968Y429357D01*
X1246060Y429318D01*
X1246335Y429235D01*
X1246607Y429144D01*
X1246706Y429123D01*
X1246802Y429094D01*
X1247083Y429039D01*
X1247364Y428977D01*
X1247463Y428966D01*
X1247562Y428947D01*
X1247847Y428922D01*
X1248133Y428889D01*
X1248233Y428888D01*
X1248333Y428880D01*
X1248620Y428884D01*
X1248907Y428881D01*
X1249007Y428890D01*
X1249107Y428892D01*
X1249392Y428926D01*
X1249678Y428953D01*
X1249757Y428968D01*
X1249757Y421072D01*
X1249757Y413171D01*
X1249710Y413177D01*
X1249426Y413224D01*
X1249326Y413229D01*
X1249227Y413243D01*
X1248940Y413252D01*
X1248653Y413269D01*
X1248553Y413265D01*
X1248453Y413268D01*
X1248167Y413247D01*
X1247880Y413235D01*
X1247780Y413220D01*
X1247681Y413213D01*
X1247398Y413163D01*
X1247114Y413121D01*
X1247017Y413096D01*
X1246918Y413078D01*
X1246643Y413000D01*
X1246364Y412928D01*
X1246270Y412893D01*
X1246173Y412866D01*
X1245908Y412759D01*
X1245638Y412659D01*
X1245548Y412615D01*
X1245455Y412578D01*
X1245201Y412444D01*
X1244943Y412317D01*
X1244858Y412264D01*
X1244769Y412217D01*
X1244530Y412058D01*
X1244288Y411905D01*
X1244209Y411844D01*
X1244125Y411788D01*
X1244004Y411683D01*
X1243678Y411428D01*
X1243418Y411177D01*
X1243297Y411073D01*
X1240444Y408219D01*
X1234872Y405911D01*
X1228840Y405911D01*
X1222026Y408734D01*
X1221956Y408759D01*
X1221889Y408789D01*
X1221592Y408888D01*
X1221296Y408993D01*
X1221225Y409010D01*
X1221155Y409034D01*
X1220848Y409101D01*
X1220544Y409175D01*
X1220471Y409185D01*
X1220399Y409201D01*
X1220088Y409237D01*
X1219776Y409279D01*
X1219703Y409281D01*
X1219630Y409290D01*
X1219317Y409293D01*
X1219002Y409303D01*
X1218929Y409298D01*
X1218855Y409299D01*
X1218543Y409270D01*
X1218230Y409247D01*
X1218158Y409235D01*
X1218084Y409228D01*
X1217777Y409167D01*
X1217468Y409112D01*
X1217397Y409092D01*
X1217325Y409078D01*
X1217183Y409031D01*
X1216723Y408899D01*
X1216432Y408782D01*
X1216286Y408734D01*
X1209472Y405911D01*
X1203440Y405911D01*
X1196626Y408734D01*
X1196556Y408759D01*
X1196489Y408789D01*
X1196192Y408888D01*
X1195896Y408993D01*
X1195825Y409010D01*
X1195755Y409034D01*
X1195448Y409101D01*
X1195144Y409175D01*
X1195071Y409185D01*
X1194999Y409201D01*
X1194688Y409237D01*
X1194376Y409279D01*
X1194303Y409281D01*
X1194230Y409290D01*
X1193917Y409293D01*
X1193602Y409303D01*
X1193529Y409298D01*
X1193455Y409299D01*
X1193143Y409270D01*
X1192830Y409247D01*
X1192758Y409235D01*
X1192684Y409228D01*
X1192377Y409167D01*
X1192068Y409112D01*
X1191997Y409092D01*
X1191925Y409078D01*
X1191783Y409031D01*
X1191323Y408899D01*
X1191032Y408782D01*
X1190886Y408734D01*
X1184072Y405911D01*
X1178040Y405911D01*
X1171226Y408734D01*
X1171156Y408759D01*
X1171089Y408789D01*
X1170792Y408888D01*
X1170496Y408993D01*
X1170425Y409010D01*
X1170355Y409034D01*
X1170048Y409101D01*
X1169744Y409175D01*
X1169671Y409185D01*
X1169599Y409201D01*
X1169288Y409237D01*
X1168976Y409279D01*
X1168903Y409281D01*
X1168830Y409290D01*
X1168517Y409293D01*
X1168202Y409303D01*
X1168129Y409298D01*
X1168055Y409299D01*
X1167743Y409270D01*
X1167430Y409247D01*
X1167358Y409235D01*
X1167284Y409228D01*
X1166977Y409167D01*
X1166668Y409112D01*
X1166597Y409092D01*
X1166525Y409078D01*
X1166383Y409031D01*
X1165923Y408899D01*
X1165632Y408782D01*
X1165486Y408734D01*
X1158672Y405911D01*
X1152640Y405911D01*
X1145826Y408734D01*
X1145756Y408759D01*
X1145689Y408789D01*
X1145392Y408888D01*
X1145096Y408993D01*
X1145025Y409010D01*
X1144955Y409034D01*
X1144648Y409101D01*
X1144344Y409175D01*
X1144271Y409185D01*
X1144199Y409201D01*
X1143888Y409237D01*
X1143576Y409279D01*
X1143503Y409281D01*
X1143430Y409290D01*
X1143117Y409293D01*
X1142802Y409303D01*
X1142729Y409298D01*
X1142655Y409299D01*
X1142343Y409270D01*
X1142030Y409247D01*
X1141958Y409235D01*
X1141884Y409228D01*
X1141577Y409167D01*
X1141268Y409112D01*
X1141197Y409092D01*
X1141125Y409078D01*
X1140983Y409031D01*
X1140523Y408899D01*
X1140232Y408782D01*
X1140086Y408734D01*
X1133272Y405911D01*
X1127240Y405911D01*
X1120426Y408734D01*
X1120356Y408759D01*
X1120289Y408789D01*
X1119992Y408888D01*
X1119696Y408993D01*
X1119625Y409010D01*
X1119555Y409034D01*
X1119248Y409101D01*
X1118944Y409175D01*
X1118871Y409185D01*
X1118799Y409201D01*
X1118488Y409237D01*
X1118176Y409279D01*
X1118103Y409281D01*
X1118030Y409290D01*
X1117717Y409293D01*
X1117402Y409303D01*
X1117329Y409298D01*
X1117255Y409299D01*
X1116943Y409270D01*
X1116630Y409247D01*
X1116558Y409235D01*
X1116484Y409228D01*
X1116177Y409167D01*
X1115868Y409112D01*
X1115797Y409092D01*
X1115725Y409078D01*
X1115583Y409031D01*
X1115123Y408899D01*
X1114832Y408782D01*
X1114686Y408734D01*
X1107872Y405911D01*
X1101840Y405911D01*
X1095026Y408734D01*
X1094956Y408759D01*
X1094889Y408789D01*
X1094592Y408888D01*
X1094296Y408993D01*
X1094225Y409010D01*
X1094155Y409034D01*
X1093848Y409101D01*
X1093544Y409175D01*
X1093471Y409185D01*
X1093399Y409201D01*
X1093088Y409237D01*
X1092776Y409279D01*
X1092703Y409281D01*
X1092630Y409290D01*
X1092317Y409293D01*
X1092002Y409303D01*
X1091929Y409298D01*
X1091855Y409299D01*
X1091543Y409270D01*
X1091230Y409247D01*
X1091158Y409235D01*
X1091084Y409228D01*
X1090777Y409167D01*
X1090468Y409112D01*
X1090397Y409092D01*
X1090325Y409078D01*
X1090183Y409031D01*
X1089723Y408899D01*
X1089432Y408782D01*
X1089286Y408734D01*
X1082472Y405911D01*
X1076440Y405911D01*
X1069626Y408734D01*
X1069556Y408759D01*
X1069489Y408789D01*
X1069192Y408888D01*
X1068896Y408993D01*
X1068825Y409010D01*
X1068755Y409034D01*
X1068448Y409101D01*
X1068144Y409175D01*
X1068071Y409185D01*
X1067999Y409201D01*
X1067688Y409237D01*
X1067376Y409279D01*
X1067303Y409281D01*
X1067230Y409290D01*
X1066917Y409293D01*
X1066602Y409303D01*
X1066529Y409298D01*
X1066455Y409299D01*
X1066143Y409270D01*
X1065830Y409247D01*
X1065758Y409235D01*
X1065684Y409228D01*
X1065377Y409167D01*
X1065068Y409112D01*
X1064997Y409092D01*
X1064925Y409078D01*
X1064783Y409031D01*
X1064323Y408899D01*
X1064032Y408782D01*
X1063886Y408734D01*
X1057072Y405911D01*
X1051040Y405911D01*
X1044226Y408734D01*
X1044156Y408759D01*
X1044089Y408789D01*
X1043792Y408888D01*
X1043496Y408993D01*
X1043425Y409010D01*
X1043355Y409034D01*
X1043048Y409101D01*
X1042744Y409175D01*
X1042671Y409185D01*
X1042599Y409201D01*
X1042288Y409237D01*
X1041976Y409279D01*
X1041903Y409281D01*
X1041830Y409290D01*
X1041517Y409293D01*
X1041202Y409303D01*
X1041129Y409298D01*
X1041055Y409299D01*
X1040743Y409270D01*
X1040430Y409247D01*
X1040358Y409235D01*
X1040284Y409228D01*
X1039977Y409167D01*
X1039668Y409112D01*
X1039597Y409092D01*
X1039525Y409078D01*
X1039383Y409031D01*
X1038923Y408899D01*
X1038632Y408782D01*
X1038486Y408734D01*
X1031672Y405911D01*
X1025640Y405911D01*
X1018826Y408734D01*
X1018756Y408759D01*
X1018689Y408789D01*
X1018392Y408888D01*
X1018096Y408993D01*
X1018025Y409010D01*
X1017955Y409034D01*
X1017648Y409101D01*
X1017344Y409175D01*
X1017271Y409185D01*
X1017199Y409201D01*
X1016888Y409237D01*
X1016576Y409279D01*
X1016503Y409281D01*
X1016430Y409290D01*
X1016117Y409293D01*
X1015802Y409303D01*
X1015729Y409298D01*
X1015655Y409299D01*
X1015343Y409270D01*
X1015030Y409247D01*
X1014958Y409235D01*
X1014884Y409228D01*
X1014577Y409167D01*
X1014268Y409112D01*
X1014197Y409092D01*
X1014125Y409078D01*
X1013983Y409031D01*
X1013523Y408899D01*
X1013232Y408782D01*
X1013086Y408734D01*
X1006272Y405911D01*
X1000240Y405911D01*
X993426Y408734D01*
X993356Y408759D01*
X993289Y408789D01*
X992992Y408888D01*
X992696Y408993D01*
X992625Y409010D01*
X992555Y409034D01*
X992248Y409101D01*
X991944Y409175D01*
X991871Y409185D01*
X991799Y409201D01*
X991488Y409237D01*
X991176Y409279D01*
X991103Y409281D01*
X991030Y409290D01*
X990717Y409293D01*
X990402Y409303D01*
X990329Y409298D01*
X990255Y409299D01*
X989943Y409270D01*
X989630Y409247D01*
X989558Y409235D01*
X989484Y409228D01*
X989177Y409167D01*
X988868Y409112D01*
X988797Y409092D01*
X988725Y409078D01*
X988583Y409031D01*
X988123Y408899D01*
X987832Y408782D01*
X987686Y408734D01*
X980872Y405911D01*
X974840Y405911D01*
X968026Y408734D01*
X967956Y408759D01*
X967889Y408789D01*
X967592Y408888D01*
X967296Y408993D01*
X967225Y409010D01*
X967155Y409034D01*
X966848Y409101D01*
X966544Y409175D01*
X966471Y409185D01*
X966399Y409201D01*
X966088Y409237D01*
X965776Y409279D01*
X965703Y409281D01*
X965630Y409290D01*
X965317Y409293D01*
X965002Y409303D01*
X964929Y409298D01*
X964855Y409299D01*
X964543Y409270D01*
X964230Y409247D01*
X964158Y409235D01*
X964084Y409228D01*
X963777Y409167D01*
X963468Y409112D01*
X963397Y409092D01*
X963325Y409078D01*
X963183Y409031D01*
X962723Y408899D01*
X962432Y408782D01*
X962286Y408734D01*
X955472Y405911D01*
X949440Y405911D01*
X942626Y408734D01*
X942556Y408759D01*
X942489Y408789D01*
X942192Y408888D01*
X941896Y408993D01*
X941825Y409010D01*
X941755Y409034D01*
X941448Y409101D01*
X941144Y409175D01*
X941071Y409185D01*
X940999Y409201D01*
X940688Y409237D01*
X940376Y409279D01*
X940303Y409281D01*
X940230Y409290D01*
X939917Y409293D01*
X939602Y409303D01*
X939529Y409298D01*
X939455Y409299D01*
X939143Y409270D01*
X938830Y409247D01*
X938758Y409235D01*
X938684Y409228D01*
X938377Y409167D01*
X938068Y409112D01*
X937997Y409092D01*
X937925Y409078D01*
X937783Y409031D01*
X937323Y408899D01*
X937032Y408782D01*
X936886Y408734D01*
X930072Y405911D01*
X924040Y405911D01*
G37*
%LPD*%
%LPC*%
G36*
X1126739Y472103D02*
X1126739Y472103D01*
X1120980Y474489D01*
X1116573Y478896D01*
X1114187Y484655D01*
X1114187Y490889D01*
X1116573Y496648D01*
X1119982Y500057D01*
X1120137Y500228D01*
X1120299Y500394D01*
X1120396Y500516D01*
X1120500Y500632D01*
X1120637Y500819D01*
X1120781Y501000D01*
X1120865Y501131D01*
X1120957Y501257D01*
X1121073Y501457D01*
X1121198Y501652D01*
X1121268Y501791D01*
X1121346Y501926D01*
X1121442Y502137D01*
X1121545Y502344D01*
X1121601Y502490D01*
X1121665Y502632D01*
X1121738Y502852D01*
X1121820Y503068D01*
X1121860Y503219D01*
X1121909Y503367D01*
X1121959Y503593D01*
X1122018Y503817D01*
X1122042Y503971D01*
X1122076Y504123D01*
X1122102Y504353D01*
X1122138Y504582D01*
X1122146Y504738D01*
X1122164Y504892D01*
X1122166Y505124D01*
X1122178Y505355D01*
X1122170Y505511D01*
X1122172Y505667D01*
X1122151Y505897D01*
X1122139Y506128D01*
X1122115Y506282D01*
X1122100Y506438D01*
X1122055Y506665D01*
X1122020Y506893D01*
X1121980Y507044D01*
X1121950Y507197D01*
X1121881Y507419D01*
X1121822Y507642D01*
X1121767Y507788D01*
X1121721Y507937D01*
X1121631Y508150D01*
X1121549Y508366D01*
X1121479Y508506D01*
X1121418Y508649D01*
X1121306Y508852D01*
X1121202Y509059D01*
X1121118Y509190D01*
X1121043Y509327D01*
X1120911Y509516D01*
X1120786Y509712D01*
X1120689Y509834D01*
X1120600Y509962D01*
X1120449Y510137D01*
X1120305Y510318D01*
X1120196Y510430D01*
X1120094Y510548D01*
X1119925Y510706D01*
X1119764Y510872D01*
X1119667Y510952D01*
X1114477Y516142D01*
X1112091Y521901D01*
X1112091Y528135D01*
X1114477Y533894D01*
X1118884Y538301D01*
X1124643Y540687D01*
X1130886Y540687D01*
X1130963Y540659D01*
X1131102Y540600D01*
X1131328Y540530D01*
X1131551Y540451D01*
X1131698Y540415D01*
X1131841Y540371D01*
X1132073Y540324D01*
X1132304Y540268D01*
X1132453Y540248D01*
X1132600Y540219D01*
X1132755Y540207D01*
X1133071Y540164D01*
X1133540Y540150D01*
X1133691Y540139D01*
X1189442Y540139D01*
X1194999Y537837D01*
X1211982Y520854D01*
X1212094Y520753D01*
X1212199Y520646D01*
X1212381Y520494D01*
X1212557Y520336D01*
X1212678Y520247D01*
X1212794Y520151D01*
X1212991Y520019D01*
X1213182Y519879D01*
X1213313Y519803D01*
X1213437Y519720D01*
X1213575Y519650D01*
X1213852Y519490D01*
X1214279Y519297D01*
X1214350Y519261D01*
X1218767Y514844D01*
X1221153Y509085D01*
X1221153Y502851D01*
X1218767Y497092D01*
X1214360Y492685D01*
X1208601Y490299D01*
X1202873Y490299D01*
X1202483Y490279D01*
X1202107Y490260D01*
X1202104Y490259D01*
X1202100Y490259D01*
X1201718Y490200D01*
X1201341Y490141D01*
X1201338Y490140D01*
X1201335Y490140D01*
X1200981Y490046D01*
X1200593Y489944D01*
X1200589Y489943D01*
X1200586Y489942D01*
X1200245Y489813D01*
X1199868Y489671D01*
X1199865Y489669D01*
X1199862Y489668D01*
X1199521Y489497D01*
X1199176Y489324D01*
X1199173Y489323D01*
X1199170Y489321D01*
X1198840Y489111D01*
X1198523Y488908D01*
X1198520Y488906D01*
X1198517Y488904D01*
X1198207Y488658D01*
X1197916Y488427D01*
X1197914Y488425D01*
X1197911Y488423D01*
X1197633Y488150D01*
X1197362Y487886D01*
X1197360Y487884D01*
X1197358Y487881D01*
X1197103Y487574D01*
X1196867Y487291D01*
X1196865Y487288D01*
X1196863Y487285D01*
X1196647Y486961D01*
X1196436Y486647D01*
X1196435Y486645D01*
X1196433Y486642D01*
X1196071Y485957D01*
X1195997Y485774D01*
X1195945Y485670D01*
X1193139Y478896D01*
X1188732Y474489D01*
X1182973Y472103D01*
X1176730Y472103D01*
X1176653Y472131D01*
X1176514Y472190D01*
X1176288Y472260D01*
X1176065Y472339D01*
X1175918Y472375D01*
X1175775Y472419D01*
X1175543Y472466D01*
X1175312Y472522D01*
X1175163Y472542D01*
X1175016Y472571D01*
X1174861Y472583D01*
X1174545Y472626D01*
X1174076Y472640D01*
X1173925Y472651D01*
X1135787Y472651D01*
X1135637Y472643D01*
X1135487Y472645D01*
X1135251Y472624D01*
X1135014Y472611D01*
X1134866Y472588D01*
X1134716Y472574D01*
X1134483Y472528D01*
X1134249Y472492D01*
X1134104Y472453D01*
X1133956Y472424D01*
X1133809Y472376D01*
X1133500Y472294D01*
X1133062Y472128D01*
X1132987Y472103D01*
X1126739Y472103D01*
G37*
%LPD*%
%LPC*%
G36*
X1379572Y525731D02*
X1379572Y525731D01*
X1373448Y528268D01*
X1368762Y532954D01*
X1366225Y539078D01*
X1366225Y545706D01*
X1368924Y552222D01*
X1368949Y552292D01*
X1368979Y552359D01*
X1369078Y552656D01*
X1369183Y552952D01*
X1369201Y553023D01*
X1369224Y553093D01*
X1369292Y553400D01*
X1369366Y553704D01*
X1369376Y553777D01*
X1369391Y553849D01*
X1369427Y554161D01*
X1369469Y554472D01*
X1369472Y554545D01*
X1369480Y554618D01*
X1369484Y554932D01*
X1369494Y555246D01*
X1369488Y555319D01*
X1369489Y555393D01*
X1369460Y555705D01*
X1369438Y556018D01*
X1369425Y556090D01*
X1369418Y556164D01*
X1369357Y556472D01*
X1369303Y556780D01*
X1369282Y556851D01*
X1369268Y556923D01*
X1369221Y557067D01*
X1369090Y557525D01*
X1368973Y557816D01*
X1368924Y557962D01*
X1366225Y564478D01*
X1366225Y571106D01*
X1368924Y577622D01*
X1368949Y577692D01*
X1368979Y577759D01*
X1369078Y578056D01*
X1369183Y578352D01*
X1369201Y578423D01*
X1369224Y578493D01*
X1369292Y578800D01*
X1369366Y579104D01*
X1369376Y579177D01*
X1369391Y579249D01*
X1369427Y579561D01*
X1369469Y579872D01*
X1369472Y579945D01*
X1369480Y580018D01*
X1369484Y580332D01*
X1369494Y580646D01*
X1369488Y580719D01*
X1369489Y580793D01*
X1369460Y581105D01*
X1369438Y581418D01*
X1369425Y581490D01*
X1369418Y581564D01*
X1369357Y581872D01*
X1369303Y582180D01*
X1369282Y582251D01*
X1369268Y582323D01*
X1369221Y582467D01*
X1369090Y582925D01*
X1368973Y583216D01*
X1368924Y583362D01*
X1366225Y589878D01*
X1366225Y596506D01*
X1368924Y603022D01*
X1368949Y603092D01*
X1368979Y603159D01*
X1369078Y603456D01*
X1369183Y603752D01*
X1369201Y603823D01*
X1369224Y603893D01*
X1369292Y604200D01*
X1369366Y604504D01*
X1369376Y604577D01*
X1369391Y604649D01*
X1369427Y604961D01*
X1369469Y605272D01*
X1369472Y605345D01*
X1369480Y605418D01*
X1369484Y605732D01*
X1369494Y606046D01*
X1369488Y606119D01*
X1369489Y606193D01*
X1369460Y606505D01*
X1369438Y606818D01*
X1369425Y606890D01*
X1369418Y606964D01*
X1369357Y607272D01*
X1369303Y607580D01*
X1369282Y607651D01*
X1369268Y607723D01*
X1369221Y607867D01*
X1369090Y608325D01*
X1368973Y608616D01*
X1368924Y608762D01*
X1366225Y615278D01*
X1366225Y621906D01*
X1368924Y628422D01*
X1368949Y628491D01*
X1368979Y628559D01*
X1369079Y628857D01*
X1369183Y629152D01*
X1369201Y629223D01*
X1369224Y629293D01*
X1369292Y629600D01*
X1369366Y629904D01*
X1369376Y629977D01*
X1369391Y630049D01*
X1369427Y630361D01*
X1369469Y630672D01*
X1369472Y630745D01*
X1369480Y630818D01*
X1369484Y631131D01*
X1369494Y631446D01*
X1369488Y631519D01*
X1369489Y631593D01*
X1369460Y631905D01*
X1369438Y632218D01*
X1369425Y632290D01*
X1369418Y632364D01*
X1369357Y632672D01*
X1369303Y632980D01*
X1369282Y633051D01*
X1369268Y633123D01*
X1369221Y633266D01*
X1369090Y633725D01*
X1368973Y634016D01*
X1368924Y634162D01*
X1366225Y640678D01*
X1366225Y647306D01*
X1368924Y653822D01*
X1368949Y653891D01*
X1368979Y653959D01*
X1369079Y654257D01*
X1369183Y654552D01*
X1369201Y654623D01*
X1369224Y654693D01*
X1369292Y655000D01*
X1369366Y655304D01*
X1369376Y655377D01*
X1369391Y655449D01*
X1369427Y655761D01*
X1369469Y656072D01*
X1369472Y656145D01*
X1369480Y656218D01*
X1369484Y656531D01*
X1369494Y656846D01*
X1369488Y656919D01*
X1369489Y656993D01*
X1369460Y657305D01*
X1369438Y657618D01*
X1369425Y657690D01*
X1369418Y657764D01*
X1369357Y658072D01*
X1369303Y658380D01*
X1369282Y658451D01*
X1369268Y658523D01*
X1369221Y658666D01*
X1369090Y659125D01*
X1368973Y659416D01*
X1368924Y659562D01*
X1366225Y666078D01*
X1366225Y672706D01*
X1368924Y679222D01*
X1368949Y679291D01*
X1368979Y679359D01*
X1369079Y679657D01*
X1369183Y679952D01*
X1369201Y680023D01*
X1369224Y680093D01*
X1369292Y680400D01*
X1369366Y680704D01*
X1369376Y680777D01*
X1369391Y680849D01*
X1369427Y681161D01*
X1369469Y681472D01*
X1369472Y681545D01*
X1369480Y681618D01*
X1369484Y681931D01*
X1369494Y682246D01*
X1369488Y682319D01*
X1369489Y682393D01*
X1369460Y682705D01*
X1369438Y683018D01*
X1369425Y683090D01*
X1369418Y683164D01*
X1369357Y683472D01*
X1369303Y683780D01*
X1369282Y683851D01*
X1369268Y683923D01*
X1369221Y684066D01*
X1369090Y684525D01*
X1368973Y684816D01*
X1368924Y684962D01*
X1366225Y691478D01*
X1366225Y698106D01*
X1368762Y704230D01*
X1373448Y708916D01*
X1379572Y711453D01*
X1386200Y711453D01*
X1392324Y708916D01*
X1397010Y704230D01*
X1399547Y698106D01*
X1399547Y691478D01*
X1396848Y684962D01*
X1396823Y684892D01*
X1396793Y684825D01*
X1396694Y684528D01*
X1396589Y684232D01*
X1396571Y684161D01*
X1396548Y684091D01*
X1396480Y683784D01*
X1396406Y683480D01*
X1396396Y683407D01*
X1396381Y683335D01*
X1396345Y683023D01*
X1396303Y682712D01*
X1396300Y682639D01*
X1396292Y682566D01*
X1396288Y682252D01*
X1396278Y681938D01*
X1396284Y681865D01*
X1396283Y681791D01*
X1396312Y681479D01*
X1396334Y681166D01*
X1396347Y681094D01*
X1396354Y681020D01*
X1396415Y680712D01*
X1396469Y680404D01*
X1396490Y680333D01*
X1396504Y680261D01*
X1396551Y680117D01*
X1396682Y679659D01*
X1396799Y679368D01*
X1396848Y679222D01*
X1399547Y672706D01*
X1399547Y666078D01*
X1396848Y659562D01*
X1396823Y659492D01*
X1396793Y659425D01*
X1396694Y659128D01*
X1396589Y658832D01*
X1396571Y658761D01*
X1396548Y658691D01*
X1396480Y658384D01*
X1396406Y658080D01*
X1396396Y658007D01*
X1396381Y657935D01*
X1396345Y657623D01*
X1396303Y657312D01*
X1396300Y657239D01*
X1396292Y657166D01*
X1396288Y656852D01*
X1396278Y656538D01*
X1396284Y656465D01*
X1396283Y656391D01*
X1396312Y656079D01*
X1396334Y655766D01*
X1396347Y655694D01*
X1396354Y655620D01*
X1396415Y655312D01*
X1396469Y655004D01*
X1396490Y654933D01*
X1396504Y654861D01*
X1396551Y654717D01*
X1396682Y654259D01*
X1396799Y653968D01*
X1396848Y653822D01*
X1399547Y647306D01*
X1399547Y640678D01*
X1396848Y634162D01*
X1396823Y634092D01*
X1396793Y634025D01*
X1396694Y633728D01*
X1396589Y633432D01*
X1396571Y633361D01*
X1396548Y633291D01*
X1396480Y632984D01*
X1396406Y632680D01*
X1396396Y632607D01*
X1396381Y632535D01*
X1396345Y632223D01*
X1396303Y631912D01*
X1396300Y631839D01*
X1396292Y631766D01*
X1396288Y631452D01*
X1396278Y631138D01*
X1396284Y631065D01*
X1396283Y630991D01*
X1396312Y630679D01*
X1396334Y630366D01*
X1396347Y630294D01*
X1396354Y630220D01*
X1396415Y629912D01*
X1396469Y629604D01*
X1396490Y629533D01*
X1396504Y629461D01*
X1396551Y629317D01*
X1396682Y628859D01*
X1396799Y628568D01*
X1396848Y628422D01*
X1399547Y621906D01*
X1399547Y615278D01*
X1396848Y608762D01*
X1396823Y608693D01*
X1396793Y608625D01*
X1396693Y608327D01*
X1396589Y608032D01*
X1396571Y607961D01*
X1396548Y607891D01*
X1396480Y607584D01*
X1396406Y607280D01*
X1396396Y607207D01*
X1396381Y607135D01*
X1396345Y606823D01*
X1396303Y606512D01*
X1396300Y606439D01*
X1396292Y606366D01*
X1396288Y606053D01*
X1396278Y605738D01*
X1396284Y605665D01*
X1396283Y605591D01*
X1396312Y605279D01*
X1396334Y604966D01*
X1396347Y604894D01*
X1396354Y604820D01*
X1396415Y604512D01*
X1396469Y604204D01*
X1396490Y604133D01*
X1396504Y604061D01*
X1396551Y603918D01*
X1396682Y603459D01*
X1396799Y603168D01*
X1396848Y603022D01*
X1399547Y596506D01*
X1399547Y589878D01*
X1396848Y583362D01*
X1396823Y583293D01*
X1396793Y583225D01*
X1396693Y582927D01*
X1396589Y582632D01*
X1396571Y582561D01*
X1396548Y582491D01*
X1396480Y582184D01*
X1396406Y581880D01*
X1396396Y581807D01*
X1396381Y581735D01*
X1396345Y581423D01*
X1396303Y581112D01*
X1396300Y581039D01*
X1396292Y580966D01*
X1396288Y580653D01*
X1396278Y580338D01*
X1396284Y580265D01*
X1396283Y580191D01*
X1396312Y579879D01*
X1396334Y579566D01*
X1396347Y579494D01*
X1396354Y579420D01*
X1396415Y579112D01*
X1396469Y578804D01*
X1396490Y578733D01*
X1396504Y578661D01*
X1396551Y578518D01*
X1396682Y578059D01*
X1396799Y577768D01*
X1396848Y577622D01*
X1399547Y571106D01*
X1399547Y564478D01*
X1396848Y557962D01*
X1396823Y557893D01*
X1396793Y557825D01*
X1396693Y557527D01*
X1396589Y557232D01*
X1396571Y557161D01*
X1396548Y557091D01*
X1396480Y556784D01*
X1396406Y556480D01*
X1396396Y556407D01*
X1396381Y556335D01*
X1396345Y556023D01*
X1396303Y555712D01*
X1396300Y555639D01*
X1396292Y555566D01*
X1396288Y555253D01*
X1396278Y554938D01*
X1396284Y554865D01*
X1396283Y554791D01*
X1396312Y554479D01*
X1396334Y554166D01*
X1396347Y554094D01*
X1396354Y554020D01*
X1396415Y553712D01*
X1396469Y553404D01*
X1396490Y553333D01*
X1396504Y553261D01*
X1396551Y553118D01*
X1396682Y552659D01*
X1396799Y552368D01*
X1396848Y552222D01*
X1399547Y545706D01*
X1399547Y539078D01*
X1397010Y532954D01*
X1392324Y528268D01*
X1386200Y525731D01*
X1379572Y525731D01*
G37*
%LPD*%
%LPC*%
G36*
X399325Y314336D02*
X399325Y314336D01*
X393201Y316873D01*
X390731Y319343D01*
X390657Y319410D01*
X390587Y319483D01*
X390370Y319669D01*
X390156Y319861D01*
X390075Y319921D01*
X389999Y319986D01*
X389763Y320149D01*
X389531Y320318D01*
X389444Y320368D01*
X389361Y320425D01*
X389109Y320563D01*
X388862Y320707D01*
X388770Y320748D01*
X388682Y320797D01*
X388417Y320908D01*
X388156Y321026D01*
X388061Y321057D01*
X387968Y321096D01*
X387693Y321179D01*
X387421Y321270D01*
X387323Y321291D01*
X387227Y321321D01*
X386945Y321375D01*
X386665Y321437D01*
X386565Y321448D01*
X386466Y321467D01*
X386181Y321492D01*
X385896Y321525D01*
X385795Y321526D01*
X385695Y321535D01*
X385409Y321530D01*
X385121Y321533D01*
X385021Y321524D01*
X384921Y321522D01*
X384636Y321488D01*
X384350Y321461D01*
X384252Y321442D01*
X384152Y321430D01*
X384138Y321427D01*
X384138Y330997D01*
X384138Y340571D01*
X384319Y340547D01*
X384602Y340500D01*
X384702Y340495D01*
X384802Y340481D01*
X385088Y340472D01*
X385375Y340455D01*
X385475Y340459D01*
X385576Y340456D01*
X385862Y340477D01*
X386148Y340489D01*
X386248Y340504D01*
X386348Y340511D01*
X386630Y340561D01*
X386914Y340603D01*
X387012Y340628D01*
X387111Y340646D01*
X387386Y340724D01*
X387664Y340796D01*
X387759Y340831D01*
X387855Y340858D01*
X388121Y340965D01*
X388390Y341064D01*
X388481Y341109D01*
X388574Y341146D01*
X388828Y341280D01*
X389085Y341407D01*
X389170Y341460D01*
X389259Y341507D01*
X389498Y341666D01*
X389741Y341818D01*
X389820Y341880D01*
X389904Y341936D01*
X390024Y342041D01*
X390350Y342296D01*
X390610Y342547D01*
X390731Y342651D01*
X393201Y345121D01*
X399325Y347658D01*
X405953Y347658D01*
X412769Y344834D01*
X412838Y344810D01*
X412906Y344779D01*
X413204Y344680D01*
X413499Y344575D01*
X413570Y344558D01*
X413640Y344535D01*
X413947Y344467D01*
X414251Y344393D01*
X414324Y344383D01*
X414396Y344367D01*
X414708Y344331D01*
X415019Y344289D01*
X415092Y344287D01*
X415165Y344279D01*
X415478Y344275D01*
X415793Y344265D01*
X415866Y344270D01*
X415940Y344270D01*
X416252Y344298D01*
X416565Y344321D01*
X416637Y344334D01*
X416711Y344341D01*
X417018Y344401D01*
X417327Y344456D01*
X417398Y344476D01*
X417470Y344491D01*
X417613Y344538D01*
X418072Y344669D01*
X418363Y344786D01*
X418509Y344834D01*
X425325Y347658D01*
X431953Y347658D01*
X438769Y344834D01*
X438838Y344810D01*
X438906Y344779D01*
X439204Y344680D01*
X439499Y344575D01*
X439570Y344558D01*
X439640Y344535D01*
X439947Y344467D01*
X440251Y344393D01*
X440324Y344383D01*
X440396Y344367D01*
X440708Y344331D01*
X441019Y344289D01*
X441092Y344287D01*
X441165Y344279D01*
X441478Y344275D01*
X441793Y344265D01*
X441866Y344270D01*
X441940Y344270D01*
X442252Y344298D01*
X442565Y344321D01*
X442637Y344334D01*
X442711Y344341D01*
X443018Y344401D01*
X443327Y344456D01*
X443398Y344476D01*
X443470Y344491D01*
X443613Y344538D01*
X444072Y344669D01*
X444363Y344786D01*
X444509Y344834D01*
X451325Y347658D01*
X457953Y347658D01*
X464769Y344834D01*
X464838Y344810D01*
X464906Y344779D01*
X465204Y344680D01*
X465499Y344575D01*
X465570Y344558D01*
X465640Y344535D01*
X465947Y344467D01*
X466251Y344393D01*
X466324Y344383D01*
X466396Y344367D01*
X466708Y344331D01*
X467019Y344289D01*
X467092Y344287D01*
X467165Y344279D01*
X467478Y344275D01*
X467793Y344265D01*
X467866Y344270D01*
X467940Y344270D01*
X468252Y344298D01*
X468565Y344321D01*
X468637Y344334D01*
X468711Y344341D01*
X469018Y344401D01*
X469327Y344456D01*
X469398Y344476D01*
X469470Y344491D01*
X469613Y344538D01*
X470072Y344669D01*
X470363Y344786D01*
X470509Y344834D01*
X477325Y347658D01*
X483953Y347658D01*
X490769Y344834D01*
X490838Y344810D01*
X490906Y344779D01*
X491204Y344680D01*
X491499Y344575D01*
X491570Y344558D01*
X491640Y344535D01*
X491947Y344467D01*
X492251Y344393D01*
X492324Y344383D01*
X492396Y344367D01*
X492708Y344331D01*
X493019Y344289D01*
X493092Y344287D01*
X493165Y344279D01*
X493478Y344275D01*
X493793Y344265D01*
X493866Y344270D01*
X493940Y344270D01*
X494252Y344298D01*
X494565Y344321D01*
X494637Y344334D01*
X494711Y344341D01*
X495018Y344401D01*
X495327Y344456D01*
X495398Y344476D01*
X495470Y344491D01*
X495613Y344538D01*
X496072Y344669D01*
X496363Y344786D01*
X496509Y344834D01*
X503325Y347658D01*
X509953Y347658D01*
X516769Y344834D01*
X516838Y344810D01*
X516906Y344779D01*
X517204Y344680D01*
X517499Y344575D01*
X517570Y344558D01*
X517640Y344535D01*
X517947Y344467D01*
X518251Y344393D01*
X518324Y344383D01*
X518396Y344367D01*
X518708Y344331D01*
X519019Y344289D01*
X519092Y344287D01*
X519165Y344279D01*
X519478Y344275D01*
X519793Y344265D01*
X519866Y344270D01*
X519940Y344270D01*
X520252Y344298D01*
X520565Y344321D01*
X520637Y344334D01*
X520711Y344341D01*
X521018Y344401D01*
X521327Y344456D01*
X521398Y344476D01*
X521470Y344491D01*
X521613Y344538D01*
X522072Y344669D01*
X522363Y344786D01*
X522509Y344834D01*
X529325Y347658D01*
X535953Y347658D01*
X542077Y345121D01*
X546763Y340435D01*
X549300Y334311D01*
X549300Y327683D01*
X546763Y321559D01*
X542077Y316873D01*
X535953Y314336D01*
X529325Y314336D01*
X522509Y317160D01*
X522440Y317184D01*
X522372Y317215D01*
X522074Y317314D01*
X521779Y317419D01*
X521708Y317436D01*
X521638Y317459D01*
X521331Y317527D01*
X521027Y317601D01*
X520954Y317611D01*
X520882Y317627D01*
X520570Y317663D01*
X520259Y317705D01*
X520186Y317707D01*
X520113Y317715D01*
X519800Y317719D01*
X519485Y317729D01*
X519412Y317724D01*
X519338Y317724D01*
X519026Y317696D01*
X518713Y317673D01*
X518641Y317660D01*
X518567Y317653D01*
X518259Y317593D01*
X517951Y317538D01*
X517880Y317518D01*
X517808Y317503D01*
X517665Y317456D01*
X517206Y317325D01*
X516915Y317208D01*
X516769Y317160D01*
X509953Y314336D01*
X503325Y314336D01*
X496509Y317160D01*
X496440Y317184D01*
X496372Y317215D01*
X496074Y317314D01*
X495779Y317419D01*
X495708Y317436D01*
X495638Y317459D01*
X495331Y317527D01*
X495027Y317601D01*
X494954Y317611D01*
X494882Y317627D01*
X494570Y317663D01*
X494259Y317705D01*
X494186Y317707D01*
X494113Y317715D01*
X493800Y317719D01*
X493485Y317729D01*
X493412Y317724D01*
X493338Y317724D01*
X493026Y317696D01*
X492713Y317673D01*
X492641Y317660D01*
X492567Y317653D01*
X492259Y317593D01*
X491951Y317538D01*
X491880Y317518D01*
X491808Y317503D01*
X491665Y317456D01*
X491206Y317325D01*
X490915Y317208D01*
X490769Y317160D01*
X483953Y314336D01*
X477325Y314336D01*
X470509Y317160D01*
X470440Y317184D01*
X470372Y317215D01*
X470074Y317314D01*
X469779Y317419D01*
X469708Y317436D01*
X469638Y317459D01*
X469331Y317527D01*
X469027Y317601D01*
X468954Y317611D01*
X468882Y317627D01*
X468570Y317663D01*
X468259Y317705D01*
X468186Y317707D01*
X468113Y317715D01*
X467800Y317719D01*
X467485Y317729D01*
X467412Y317724D01*
X467338Y317724D01*
X467026Y317696D01*
X466713Y317673D01*
X466641Y317660D01*
X466567Y317653D01*
X466259Y317593D01*
X465951Y317538D01*
X465880Y317518D01*
X465808Y317503D01*
X465665Y317456D01*
X465206Y317325D01*
X464915Y317208D01*
X464769Y317160D01*
X457953Y314336D01*
X451325Y314336D01*
X444509Y317160D01*
X444440Y317184D01*
X444372Y317215D01*
X444074Y317314D01*
X443779Y317419D01*
X443708Y317436D01*
X443638Y317459D01*
X443331Y317527D01*
X443027Y317601D01*
X442954Y317611D01*
X442882Y317627D01*
X442570Y317663D01*
X442259Y317705D01*
X442186Y317707D01*
X442113Y317715D01*
X441800Y317719D01*
X441485Y317729D01*
X441412Y317724D01*
X441338Y317724D01*
X441026Y317696D01*
X440713Y317673D01*
X440641Y317660D01*
X440567Y317653D01*
X440259Y317593D01*
X439951Y317538D01*
X439880Y317518D01*
X439808Y317503D01*
X439665Y317456D01*
X439206Y317325D01*
X438915Y317208D01*
X438769Y317160D01*
X431953Y314336D01*
X425325Y314336D01*
X418509Y317160D01*
X418440Y317184D01*
X418372Y317215D01*
X418074Y317314D01*
X417779Y317419D01*
X417708Y317436D01*
X417638Y317459D01*
X417331Y317527D01*
X417027Y317601D01*
X416954Y317611D01*
X416882Y317627D01*
X416570Y317663D01*
X416259Y317705D01*
X416186Y317707D01*
X416113Y317715D01*
X415800Y317719D01*
X415485Y317729D01*
X415412Y317724D01*
X415338Y317724D01*
X415026Y317696D01*
X414713Y317673D01*
X414641Y317660D01*
X414567Y317653D01*
X414259Y317593D01*
X413951Y317538D01*
X413880Y317518D01*
X413808Y317503D01*
X413665Y317456D01*
X413206Y317325D01*
X412915Y317208D01*
X412769Y317160D01*
X405953Y314336D01*
X399325Y314336D01*
G37*
%LPD*%
%LPC*%
G36*
X446310Y91211D02*
X446310Y91211D01*
X440186Y93748D01*
X437930Y96004D01*
X437652Y96255D01*
X437361Y96518D01*
X437358Y96520D01*
X437355Y96522D01*
X437050Y96745D01*
X436735Y96975D01*
X436733Y96977D01*
X436730Y96979D01*
X436395Y97174D01*
X436067Y97365D01*
X436064Y97367D01*
X436061Y97368D01*
X435701Y97530D01*
X435361Y97684D01*
X435358Y97685D01*
X435355Y97687D01*
X434969Y97815D01*
X434626Y97929D01*
X434623Y97930D01*
X434620Y97931D01*
X434246Y98013D01*
X433871Y98096D01*
X433867Y98097D01*
X433864Y98098D01*
X433495Y98140D01*
X433101Y98185D01*
X433098Y98185D01*
X433095Y98186D01*
X432704Y98190D01*
X432327Y98194D01*
X432324Y98194D01*
X432321Y98194D01*
X431930Y98158D01*
X431723Y98139D01*
X431723Y107872D01*
X431723Y117608D01*
X432001Y117570D01*
X432004Y117570D01*
X432007Y117570D01*
X432405Y117557D01*
X432775Y117545D01*
X432778Y117546D01*
X432781Y117545D01*
X433163Y117573D01*
X433547Y117600D01*
X433550Y117601D01*
X433554Y117601D01*
X433929Y117668D01*
X434310Y117735D01*
X434313Y117736D01*
X434316Y117736D01*
X434683Y117841D01*
X435054Y117947D01*
X435057Y117949D01*
X435060Y117949D01*
X435412Y118091D01*
X435773Y118235D01*
X435776Y118237D01*
X435779Y118238D01*
X436118Y118417D01*
X436458Y118596D01*
X436461Y118598D01*
X436464Y118599D01*
X436784Y118813D01*
X437103Y119025D01*
X437105Y119027D01*
X437108Y119029D01*
X437704Y119523D01*
X437842Y119664D01*
X437930Y119740D01*
X440186Y121996D01*
X446310Y124533D01*
X452938Y124533D01*
X459454Y121834D01*
X459523Y121809D01*
X459591Y121779D01*
X459889Y121679D01*
X460184Y121575D01*
X460255Y121557D01*
X460325Y121534D01*
X460632Y121466D01*
X460936Y121392D01*
X461009Y121382D01*
X461081Y121367D01*
X461393Y121331D01*
X461704Y121289D01*
X461777Y121286D01*
X461850Y121278D01*
X462163Y121274D01*
X462478Y121264D01*
X462551Y121270D01*
X462625Y121269D01*
X462937Y121298D01*
X463250Y121320D01*
X463322Y121333D01*
X463396Y121340D01*
X463704Y121401D01*
X464012Y121455D01*
X464083Y121476D01*
X464155Y121490D01*
X464298Y121537D01*
X464757Y121668D01*
X465048Y121785D01*
X465194Y121834D01*
X471710Y124533D01*
X478338Y124533D01*
X484854Y121834D01*
X484923Y121809D01*
X484991Y121779D01*
X485289Y121679D01*
X485584Y121575D01*
X485655Y121557D01*
X485725Y121534D01*
X486032Y121466D01*
X486336Y121392D01*
X486409Y121382D01*
X486481Y121367D01*
X486793Y121331D01*
X487104Y121289D01*
X487177Y121286D01*
X487250Y121278D01*
X487563Y121274D01*
X487878Y121264D01*
X487951Y121270D01*
X488025Y121269D01*
X488337Y121298D01*
X488650Y121320D01*
X488722Y121333D01*
X488796Y121340D01*
X489104Y121401D01*
X489412Y121455D01*
X489483Y121476D01*
X489555Y121490D01*
X489698Y121537D01*
X490157Y121668D01*
X490448Y121785D01*
X490594Y121834D01*
X497110Y124533D01*
X503738Y124533D01*
X510254Y121834D01*
X510323Y121809D01*
X510391Y121779D01*
X510689Y121679D01*
X510984Y121575D01*
X511055Y121557D01*
X511125Y121534D01*
X511432Y121466D01*
X511736Y121392D01*
X511809Y121382D01*
X511881Y121367D01*
X512193Y121331D01*
X512504Y121289D01*
X512577Y121286D01*
X512650Y121278D01*
X512963Y121274D01*
X513278Y121264D01*
X513351Y121270D01*
X513425Y121269D01*
X513737Y121298D01*
X514050Y121320D01*
X514122Y121333D01*
X514196Y121340D01*
X514504Y121401D01*
X514812Y121455D01*
X514883Y121476D01*
X514955Y121490D01*
X515098Y121537D01*
X515557Y121668D01*
X515848Y121785D01*
X515994Y121834D01*
X522510Y124533D01*
X529138Y124533D01*
X535654Y121834D01*
X535723Y121809D01*
X535791Y121779D01*
X536089Y121679D01*
X536384Y121575D01*
X536455Y121557D01*
X536525Y121534D01*
X536832Y121466D01*
X537136Y121392D01*
X537209Y121382D01*
X537281Y121367D01*
X537593Y121331D01*
X537904Y121289D01*
X537977Y121286D01*
X538050Y121278D01*
X538363Y121274D01*
X538678Y121264D01*
X538751Y121270D01*
X538825Y121269D01*
X539137Y121298D01*
X539450Y121320D01*
X539522Y121333D01*
X539596Y121340D01*
X539904Y121401D01*
X540212Y121455D01*
X540283Y121476D01*
X540355Y121490D01*
X540498Y121537D01*
X540957Y121668D01*
X541248Y121785D01*
X541394Y121834D01*
X547910Y124533D01*
X554538Y124533D01*
X560662Y121996D01*
X565348Y117310D01*
X567885Y111186D01*
X567885Y104558D01*
X565348Y98434D01*
X560662Y93748D01*
X554538Y91211D01*
X547910Y91211D01*
X541394Y93910D01*
X541324Y93935D01*
X541257Y93965D01*
X540960Y94064D01*
X540664Y94169D01*
X540593Y94187D01*
X540523Y94210D01*
X540216Y94278D01*
X539912Y94352D01*
X539839Y94362D01*
X539767Y94377D01*
X539455Y94413D01*
X539144Y94455D01*
X539071Y94458D01*
X538998Y94466D01*
X538684Y94470D01*
X538370Y94480D01*
X538297Y94474D01*
X538223Y94475D01*
X537911Y94446D01*
X537598Y94424D01*
X537526Y94411D01*
X537452Y94404D01*
X537144Y94343D01*
X536836Y94289D01*
X536765Y94268D01*
X536693Y94254D01*
X536549Y94207D01*
X536091Y94076D01*
X535800Y93959D01*
X535654Y93910D01*
X529138Y91211D01*
X522510Y91211D01*
X515994Y93910D01*
X515924Y93935D01*
X515857Y93965D01*
X515560Y94064D01*
X515264Y94169D01*
X515193Y94187D01*
X515123Y94210D01*
X514816Y94278D01*
X514512Y94352D01*
X514439Y94362D01*
X514367Y94377D01*
X514055Y94413D01*
X513744Y94455D01*
X513671Y94458D01*
X513598Y94466D01*
X513284Y94470D01*
X512970Y94480D01*
X512897Y94474D01*
X512823Y94475D01*
X512511Y94446D01*
X512198Y94424D01*
X512126Y94411D01*
X512052Y94404D01*
X511744Y94343D01*
X511436Y94289D01*
X511365Y94268D01*
X511293Y94254D01*
X511149Y94207D01*
X510691Y94076D01*
X510400Y93959D01*
X510254Y93910D01*
X503738Y91211D01*
X497110Y91211D01*
X490594Y93910D01*
X490524Y93935D01*
X490457Y93965D01*
X490160Y94064D01*
X489864Y94169D01*
X489793Y94187D01*
X489723Y94210D01*
X489416Y94278D01*
X489112Y94352D01*
X489039Y94362D01*
X488967Y94377D01*
X488655Y94413D01*
X488344Y94455D01*
X488271Y94458D01*
X488198Y94466D01*
X487884Y94470D01*
X487570Y94480D01*
X487497Y94474D01*
X487423Y94475D01*
X487111Y94446D01*
X486798Y94424D01*
X486726Y94411D01*
X486652Y94404D01*
X486344Y94343D01*
X486036Y94289D01*
X485965Y94268D01*
X485893Y94254D01*
X485749Y94207D01*
X485291Y94076D01*
X485000Y93959D01*
X484854Y93910D01*
X478338Y91211D01*
X471710Y91211D01*
X465194Y93910D01*
X465124Y93935D01*
X465057Y93965D01*
X464760Y94064D01*
X464464Y94169D01*
X464393Y94187D01*
X464323Y94210D01*
X464016Y94278D01*
X463712Y94352D01*
X463639Y94362D01*
X463567Y94377D01*
X463255Y94413D01*
X462944Y94455D01*
X462871Y94458D01*
X462798Y94466D01*
X462484Y94470D01*
X462170Y94480D01*
X462097Y94474D01*
X462023Y94475D01*
X461711Y94446D01*
X461398Y94424D01*
X461326Y94411D01*
X461252Y94404D01*
X460944Y94343D01*
X460636Y94289D01*
X460565Y94268D01*
X460493Y94254D01*
X460349Y94207D01*
X459891Y94076D01*
X459600Y93959D01*
X459454Y93910D01*
X452938Y91211D01*
X446310Y91211D01*
G37*
%LPD*%
%LPC*%
G36*
X281121Y445279D02*
X281121Y445279D01*
X275182Y447740D01*
X270636Y452286D01*
X268175Y458225D01*
X268175Y464655D01*
X270916Y471270D01*
X270940Y471340D01*
X270971Y471407D01*
X271070Y471704D01*
X271175Y472000D01*
X271192Y472071D01*
X271215Y472141D01*
X271283Y472447D01*
X271357Y472752D01*
X271367Y472825D01*
X271383Y472897D01*
X271419Y473208D01*
X271461Y473520D01*
X271463Y473594D01*
X271471Y473666D01*
X271475Y473979D01*
X271485Y474294D01*
X271480Y474367D01*
X271480Y474441D01*
X271452Y474753D01*
X271429Y475066D01*
X271416Y475138D01*
X271409Y475212D01*
X271349Y475519D01*
X271294Y475828D01*
X271274Y475899D01*
X271259Y475971D01*
X271212Y476114D01*
X271081Y476573D01*
X270964Y476864D01*
X270916Y477010D01*
X268175Y483625D01*
X268175Y490055D01*
X270916Y496670D01*
X270940Y496740D01*
X270971Y496807D01*
X271070Y497104D01*
X271175Y497400D01*
X271192Y497471D01*
X271215Y497541D01*
X271283Y497848D01*
X271357Y498152D01*
X271367Y498225D01*
X271383Y498297D01*
X271419Y498608D01*
X271461Y498920D01*
X271463Y498994D01*
X271471Y499066D01*
X271475Y499379D01*
X271485Y499694D01*
X271480Y499767D01*
X271480Y499841D01*
X271452Y500153D01*
X271429Y500466D01*
X271416Y500538D01*
X271409Y500612D01*
X271349Y500919D01*
X271294Y501228D01*
X271274Y501299D01*
X271259Y501371D01*
X271212Y501514D01*
X271081Y501973D01*
X270964Y502264D01*
X270916Y502410D01*
X268175Y509025D01*
X268175Y515455D01*
X270916Y522070D01*
X270940Y522140D01*
X270971Y522207D01*
X271070Y522504D01*
X271175Y522800D01*
X271192Y522871D01*
X271215Y522941D01*
X271283Y523248D01*
X271357Y523552D01*
X271367Y523625D01*
X271383Y523697D01*
X271419Y524008D01*
X271461Y524320D01*
X271463Y524394D01*
X271471Y524466D01*
X271475Y524779D01*
X271485Y525094D01*
X271480Y525167D01*
X271480Y525241D01*
X271452Y525553D01*
X271429Y525866D01*
X271416Y525938D01*
X271409Y526012D01*
X271349Y526319D01*
X271294Y526628D01*
X271274Y526699D01*
X271259Y526771D01*
X271212Y526914D01*
X271081Y527373D01*
X270964Y527664D01*
X270916Y527810D01*
X268175Y534425D01*
X268175Y540855D01*
X270916Y547470D01*
X270940Y547540D01*
X270971Y547607D01*
X271070Y547904D01*
X271175Y548200D01*
X271192Y548271D01*
X271215Y548341D01*
X271283Y548647D01*
X271357Y548952D01*
X271367Y549025D01*
X271383Y549097D01*
X271419Y549408D01*
X271461Y549720D01*
X271463Y549794D01*
X271471Y549866D01*
X271475Y550179D01*
X271485Y550494D01*
X271480Y550567D01*
X271480Y550641D01*
X271452Y550953D01*
X271429Y551266D01*
X271416Y551338D01*
X271409Y551412D01*
X271349Y551719D01*
X271294Y552028D01*
X271274Y552099D01*
X271259Y552171D01*
X271212Y552314D01*
X271081Y552773D01*
X270964Y553064D01*
X270916Y553210D01*
X268175Y559825D01*
X268175Y566255D01*
X270636Y572194D01*
X273087Y574646D01*
X273154Y574720D01*
X273227Y574790D01*
X273413Y575007D01*
X273606Y575221D01*
X273665Y575302D01*
X273730Y575378D01*
X273893Y575614D01*
X274062Y575846D01*
X274112Y575933D01*
X274170Y576016D01*
X274307Y576268D01*
X274452Y576515D01*
X274493Y576607D01*
X274541Y576695D01*
X274652Y576960D01*
X274770Y577221D01*
X274802Y577317D01*
X274841Y577409D01*
X274923Y577683D01*
X275014Y577956D01*
X275036Y578054D01*
X275065Y578150D01*
X275119Y578432D01*
X275181Y578712D01*
X275192Y578812D01*
X275211Y578911D01*
X275236Y579196D01*
X275269Y579481D01*
X275270Y579582D01*
X275279Y579682D01*
X275274Y579968D01*
X275277Y580256D01*
X275268Y580356D01*
X275266Y580456D01*
X275232Y580741D01*
X275214Y580941D01*
X284336Y580941D01*
X293461Y580941D01*
X293434Y580775D01*
X293428Y580675D01*
X293415Y580575D01*
X293406Y580289D01*
X293389Y580002D01*
X293393Y579902D01*
X293390Y579801D01*
X293410Y579515D01*
X293423Y579229D01*
X293438Y579129D01*
X293445Y579029D01*
X293495Y578747D01*
X293537Y578463D01*
X293562Y578366D01*
X293580Y578266D01*
X293658Y577990D01*
X293730Y577713D01*
X293764Y577619D01*
X293792Y577522D01*
X293899Y577255D01*
X293998Y576987D01*
X294043Y576896D01*
X294080Y576803D01*
X294214Y576549D01*
X294340Y576292D01*
X294394Y576207D01*
X294441Y576118D01*
X294600Y575879D01*
X294752Y575636D01*
X294814Y575557D01*
X294870Y575474D01*
X294974Y575353D01*
X295230Y575027D01*
X295481Y574767D01*
X295585Y574646D01*
X298036Y572194D01*
X300497Y566255D01*
X300497Y559825D01*
X297756Y553210D01*
X297732Y553141D01*
X297701Y553073D01*
X297602Y552776D01*
X297497Y552480D01*
X297480Y552409D01*
X297457Y552339D01*
X297389Y552033D01*
X297315Y551728D01*
X297305Y551655D01*
X297289Y551583D01*
X297253Y551272D01*
X297211Y550960D01*
X297209Y550887D01*
X297201Y550814D01*
X297197Y550501D01*
X297187Y550186D01*
X297192Y550113D01*
X297192Y550039D01*
X297220Y549727D01*
X297243Y549414D01*
X297256Y549342D01*
X297263Y549268D01*
X297323Y548961D01*
X297378Y548652D01*
X297398Y548581D01*
X297413Y548509D01*
X297460Y548366D01*
X297591Y547907D01*
X297708Y547616D01*
X297756Y547470D01*
X300497Y540855D01*
X300497Y534425D01*
X297756Y527810D01*
X297732Y527741D01*
X297701Y527673D01*
X297602Y527376D01*
X297497Y527080D01*
X297480Y527009D01*
X297457Y526939D01*
X297389Y526633D01*
X297315Y526328D01*
X297305Y526255D01*
X297289Y526183D01*
X297253Y525872D01*
X297211Y525560D01*
X297209Y525487D01*
X297201Y525414D01*
X297197Y525100D01*
X297187Y524786D01*
X297192Y524713D01*
X297192Y524639D01*
X297220Y524327D01*
X297243Y524014D01*
X297256Y523942D01*
X297263Y523868D01*
X297323Y523561D01*
X297378Y523252D01*
X297398Y523181D01*
X297413Y523109D01*
X297460Y522966D01*
X297591Y522507D01*
X297708Y522216D01*
X297756Y522070D01*
X300497Y515455D01*
X300497Y509025D01*
X297756Y502410D01*
X297732Y502341D01*
X297701Y502273D01*
X297602Y501976D01*
X297497Y501680D01*
X297480Y501609D01*
X297457Y501539D01*
X297389Y501233D01*
X297315Y500928D01*
X297305Y500855D01*
X297289Y500783D01*
X297253Y500472D01*
X297211Y500160D01*
X297209Y500087D01*
X297201Y500014D01*
X297197Y499701D01*
X297187Y499386D01*
X297192Y499313D01*
X297192Y499239D01*
X297220Y498927D01*
X297243Y498614D01*
X297256Y498542D01*
X297263Y498468D01*
X297323Y498161D01*
X297378Y497852D01*
X297398Y497781D01*
X297413Y497709D01*
X297460Y497566D01*
X297591Y497107D01*
X297708Y496816D01*
X297756Y496670D01*
X300497Y490055D01*
X300497Y483625D01*
X297756Y477010D01*
X297732Y476941D01*
X297701Y476873D01*
X297602Y476576D01*
X297497Y476280D01*
X297480Y476209D01*
X297457Y476139D01*
X297389Y475833D01*
X297315Y475528D01*
X297305Y475455D01*
X297289Y475383D01*
X297253Y475072D01*
X297211Y474760D01*
X297209Y474687D01*
X297201Y474614D01*
X297197Y474301D01*
X297187Y473986D01*
X297192Y473913D01*
X297192Y473839D01*
X297220Y473527D01*
X297243Y473214D01*
X297256Y473142D01*
X297263Y473068D01*
X297323Y472761D01*
X297378Y472452D01*
X297398Y472381D01*
X297413Y472309D01*
X297460Y472166D01*
X297591Y471707D01*
X297708Y471416D01*
X297756Y471270D01*
X300497Y464655D01*
X300497Y458225D01*
X298036Y452286D01*
X293490Y447740D01*
X287551Y445279D01*
X281121Y445279D01*
G37*
%LPD*%
%LPC*%
G36*
X682642Y84711D02*
X682642Y84711D01*
X676518Y87248D01*
X671832Y91934D01*
X669295Y98058D01*
X669295Y104686D01*
X671832Y110810D01*
X676518Y115496D01*
X682642Y118033D01*
X689270Y118033D01*
X695786Y115334D01*
X695856Y115309D01*
X695923Y115279D01*
X696220Y115180D01*
X696516Y115075D01*
X696587Y115057D01*
X696657Y115034D01*
X696964Y114966D01*
X697268Y114892D01*
X697341Y114882D01*
X697413Y114867D01*
X697725Y114831D01*
X698036Y114789D01*
X698109Y114786D01*
X698182Y114778D01*
X698496Y114774D01*
X698810Y114764D01*
X698883Y114770D01*
X698957Y114769D01*
X699269Y114798D01*
X699582Y114820D01*
X699654Y114833D01*
X699728Y114840D01*
X700036Y114901D01*
X700344Y114955D01*
X700415Y114976D01*
X700487Y114990D01*
X700631Y115037D01*
X701089Y115168D01*
X701380Y115285D01*
X701526Y115334D01*
X708042Y118033D01*
X714670Y118033D01*
X721186Y115334D01*
X721256Y115309D01*
X721323Y115279D01*
X721620Y115180D01*
X721916Y115075D01*
X721987Y115057D01*
X722057Y115034D01*
X722364Y114966D01*
X722668Y114892D01*
X722741Y114882D01*
X722813Y114867D01*
X723125Y114831D01*
X723436Y114789D01*
X723509Y114786D01*
X723582Y114778D01*
X723896Y114774D01*
X724210Y114764D01*
X724283Y114770D01*
X724357Y114769D01*
X724669Y114798D01*
X724982Y114820D01*
X725054Y114833D01*
X725128Y114840D01*
X725436Y114901D01*
X725744Y114955D01*
X725815Y114976D01*
X725887Y114990D01*
X726031Y115037D01*
X726489Y115168D01*
X726780Y115285D01*
X726926Y115334D01*
X733442Y118033D01*
X740070Y118033D01*
X746194Y115496D01*
X748450Y113240D01*
X748728Y112989D01*
X749019Y112726D01*
X749022Y112724D01*
X749025Y112722D01*
X749336Y112495D01*
X749645Y112269D01*
X749647Y112267D01*
X749650Y112265D01*
X749997Y112064D01*
X750313Y111879D01*
X750316Y111877D01*
X750319Y111876D01*
X750683Y111712D01*
X751019Y111560D01*
X751022Y111559D01*
X751025Y111557D01*
X751417Y111427D01*
X751754Y111315D01*
X751757Y111314D01*
X751760Y111313D01*
X752134Y111231D01*
X752509Y111148D01*
X752513Y111147D01*
X752516Y111146D01*
X752885Y111104D01*
X753279Y111059D01*
X753282Y111059D01*
X753285Y111058D01*
X753676Y111054D01*
X754053Y111050D01*
X754056Y111050D01*
X754059Y111050D01*
X754450Y111086D01*
X754657Y111105D01*
X754657Y101372D01*
X754657Y91636D01*
X754379Y91674D01*
X754376Y91674D01*
X754373Y91674D01*
X753975Y91687D01*
X753605Y91699D01*
X753602Y91698D01*
X753599Y91699D01*
X753217Y91671D01*
X752833Y91644D01*
X752830Y91643D01*
X752826Y91643D01*
X752451Y91576D01*
X752070Y91509D01*
X752067Y91508D01*
X752064Y91508D01*
X751697Y91403D01*
X751326Y91297D01*
X751323Y91295D01*
X751320Y91295D01*
X750963Y91151D01*
X750607Y91009D01*
X750604Y91007D01*
X750601Y91006D01*
X750262Y90827D01*
X749922Y90648D01*
X749919Y90646D01*
X749916Y90645D01*
X749593Y90429D01*
X749277Y90219D01*
X749275Y90217D01*
X749272Y90215D01*
X748676Y89721D01*
X748538Y89580D01*
X748450Y89504D01*
X746194Y87248D01*
X740070Y84711D01*
X733442Y84711D01*
X726926Y87410D01*
X726857Y87435D01*
X726789Y87465D01*
X726491Y87565D01*
X726196Y87669D01*
X726125Y87687D01*
X726055Y87710D01*
X725748Y87778D01*
X725444Y87852D01*
X725371Y87862D01*
X725299Y87877D01*
X724987Y87913D01*
X724676Y87955D01*
X724603Y87958D01*
X724530Y87966D01*
X724217Y87970D01*
X723902Y87980D01*
X723829Y87974D01*
X723755Y87975D01*
X723443Y87946D01*
X723130Y87924D01*
X723058Y87911D01*
X722984Y87904D01*
X722676Y87843D01*
X722368Y87789D01*
X722297Y87768D01*
X722225Y87754D01*
X722082Y87707D01*
X721623Y87576D01*
X721332Y87459D01*
X721186Y87410D01*
X714670Y84711D01*
X708042Y84711D01*
X701526Y87410D01*
X701457Y87435D01*
X701389Y87465D01*
X701091Y87565D01*
X700796Y87669D01*
X700725Y87687D01*
X700655Y87710D01*
X700348Y87778D01*
X700044Y87852D01*
X699971Y87862D01*
X699899Y87877D01*
X699587Y87913D01*
X699276Y87955D01*
X699203Y87958D01*
X699130Y87966D01*
X698817Y87970D01*
X698502Y87980D01*
X698429Y87974D01*
X698355Y87975D01*
X698043Y87946D01*
X697730Y87924D01*
X697658Y87911D01*
X697584Y87904D01*
X697276Y87843D01*
X696968Y87789D01*
X696897Y87768D01*
X696825Y87754D01*
X696682Y87707D01*
X696223Y87576D01*
X695932Y87459D01*
X695786Y87410D01*
X689270Y84711D01*
X682642Y84711D01*
G37*
%LPD*%
%LPC*%
G36*
X260297Y306055D02*
X260297Y306055D01*
X253513Y307873D01*
X247432Y311384D01*
X242466Y316350D01*
X238955Y322431D01*
X237137Y329215D01*
X237137Y336237D01*
X238955Y343021D01*
X242466Y349102D01*
X247432Y354068D01*
X253513Y357579D01*
X260297Y359397D01*
X267319Y359397D01*
X274103Y357579D01*
X280184Y354068D01*
X285150Y349102D01*
X288661Y343021D01*
X290479Y336237D01*
X290479Y329215D01*
X288661Y322431D01*
X285150Y316350D01*
X280184Y311384D01*
X274103Y307873D01*
X267319Y306055D01*
X260297Y306055D01*
G37*
%LPD*%
%LPC*%
G36*
X207727Y196623D02*
X207727Y196623D01*
X200943Y198441D01*
X194862Y201952D01*
X189896Y206918D01*
X186385Y212999D01*
X184567Y219783D01*
X184567Y226805D01*
X186385Y233589D01*
X189896Y239670D01*
X194862Y244636D01*
X200943Y248147D01*
X207727Y249965D01*
X214749Y249965D01*
X221533Y248147D01*
X227614Y244636D01*
X232580Y239670D01*
X236091Y233589D01*
X237909Y226805D01*
X237909Y219783D01*
X236091Y212999D01*
X232580Y206918D01*
X227614Y201952D01*
X221533Y198441D01*
X214749Y196623D01*
X207727Y196623D01*
G37*
%LPD*%
%LPC*%
G36*
X1026739Y472103D02*
X1026739Y472103D01*
X1020980Y474489D01*
X1016573Y478896D01*
X1014187Y484655D01*
X1014187Y490889D01*
X1016573Y496648D01*
X1020980Y501055D01*
X1026739Y503441D01*
X1032982Y503441D01*
X1033059Y503413D01*
X1033198Y503354D01*
X1033424Y503284D01*
X1033647Y503205D01*
X1033794Y503169D01*
X1033937Y503125D01*
X1034169Y503078D01*
X1034400Y503022D01*
X1034549Y503002D01*
X1034696Y502973D01*
X1034851Y502961D01*
X1035167Y502918D01*
X1035636Y502904D01*
X1035787Y502893D01*
X1071925Y502893D01*
X1072075Y502901D01*
X1072225Y502899D01*
X1072461Y502920D01*
X1072698Y502933D01*
X1072846Y502956D01*
X1072996Y502970D01*
X1073229Y503016D01*
X1073463Y503052D01*
X1073608Y503091D01*
X1073756Y503120D01*
X1073903Y503168D01*
X1074212Y503250D01*
X1074650Y503416D01*
X1074725Y503441D01*
X1080973Y503441D01*
X1086732Y501055D01*
X1091139Y496648D01*
X1093525Y490889D01*
X1093525Y484655D01*
X1091139Y478896D01*
X1086732Y474489D01*
X1080973Y472103D01*
X1074730Y472103D01*
X1074653Y472131D01*
X1074514Y472190D01*
X1074288Y472260D01*
X1074065Y472339D01*
X1073918Y472375D01*
X1073775Y472419D01*
X1073543Y472466D01*
X1073312Y472522D01*
X1073163Y472542D01*
X1073016Y472571D01*
X1072861Y472583D01*
X1072545Y472626D01*
X1072076Y472640D01*
X1071925Y472651D01*
X1035787Y472651D01*
X1035637Y472643D01*
X1035487Y472645D01*
X1035251Y472624D01*
X1035014Y472611D01*
X1034866Y472588D01*
X1034716Y472574D01*
X1034483Y472528D01*
X1034249Y472492D01*
X1034104Y472453D01*
X1033956Y472424D01*
X1033809Y472376D01*
X1033500Y472294D01*
X1033062Y472128D01*
X1032987Y472103D01*
X1026739Y472103D01*
G37*
%LPD*%
%LPC*%
G36*
X370110Y91211D02*
X370110Y91211D01*
X363986Y93748D01*
X359300Y98434D01*
X356763Y104558D01*
X356763Y111186D01*
X359300Y117310D01*
X363986Y121996D01*
X370110Y124533D01*
X376738Y124533D01*
X383254Y121834D01*
X383324Y121809D01*
X383391Y121779D01*
X383688Y121680D01*
X383984Y121575D01*
X384055Y121557D01*
X384125Y121534D01*
X384432Y121466D01*
X384736Y121392D01*
X384809Y121382D01*
X384881Y121367D01*
X385193Y121331D01*
X385504Y121289D01*
X385577Y121286D01*
X385650Y121278D01*
X385964Y121274D01*
X386278Y121264D01*
X386351Y121270D01*
X386425Y121269D01*
X386737Y121298D01*
X387050Y121320D01*
X387122Y121333D01*
X387196Y121340D01*
X387504Y121401D01*
X387812Y121455D01*
X387883Y121476D01*
X387955Y121490D01*
X388099Y121537D01*
X388557Y121668D01*
X388848Y121785D01*
X388994Y121834D01*
X395510Y124533D01*
X402138Y124533D01*
X408262Y121996D01*
X410518Y119740D01*
X410796Y119489D01*
X411087Y119226D01*
X411090Y119224D01*
X411093Y119222D01*
X411413Y118988D01*
X411713Y118769D01*
X411715Y118767D01*
X411718Y118765D01*
X412066Y118563D01*
X412381Y118379D01*
X412384Y118377D01*
X412387Y118376D01*
X412751Y118212D01*
X413087Y118060D01*
X413090Y118059D01*
X413093Y118057D01*
X413479Y117929D01*
X413822Y117815D01*
X413825Y117814D01*
X413828Y117813D01*
X414202Y117731D01*
X414577Y117648D01*
X414581Y117647D01*
X414584Y117646D01*
X414953Y117604D01*
X415347Y117559D01*
X415350Y117559D01*
X415353Y117558D01*
X415744Y117554D01*
X416121Y117550D01*
X416124Y117550D01*
X416127Y117550D01*
X416518Y117586D01*
X416725Y117605D01*
X416725Y107872D01*
X416725Y98136D01*
X416447Y98174D01*
X416444Y98174D01*
X416441Y98174D01*
X416043Y98187D01*
X415673Y98199D01*
X415670Y98198D01*
X415667Y98199D01*
X415285Y98171D01*
X414901Y98144D01*
X414898Y98143D01*
X414894Y98143D01*
X414519Y98076D01*
X414138Y98009D01*
X414135Y98008D01*
X414132Y98008D01*
X413765Y97903D01*
X413394Y97797D01*
X413391Y97795D01*
X413388Y97795D01*
X413036Y97653D01*
X412675Y97509D01*
X412672Y97507D01*
X412669Y97506D01*
X412330Y97327D01*
X411990Y97148D01*
X411987Y97146D01*
X411984Y97145D01*
X411664Y96931D01*
X411345Y96719D01*
X411343Y96717D01*
X411340Y96715D01*
X410744Y96221D01*
X410606Y96080D01*
X410518Y96004D01*
X408262Y93748D01*
X402138Y91211D01*
X395510Y91211D01*
X388994Y93910D01*
X388925Y93935D01*
X388857Y93965D01*
X388559Y94065D01*
X388264Y94169D01*
X388193Y94187D01*
X388123Y94210D01*
X387816Y94278D01*
X387512Y94352D01*
X387439Y94362D01*
X387367Y94377D01*
X387055Y94413D01*
X386744Y94455D01*
X386671Y94458D01*
X386598Y94466D01*
X386285Y94470D01*
X385970Y94480D01*
X385897Y94474D01*
X385823Y94475D01*
X385511Y94446D01*
X385198Y94424D01*
X385126Y94411D01*
X385052Y94404D01*
X384744Y94343D01*
X384436Y94289D01*
X384365Y94268D01*
X384293Y94254D01*
X384150Y94207D01*
X383691Y94076D01*
X383400Y93959D01*
X383254Y93910D01*
X376738Y91211D01*
X370110Y91211D01*
G37*
%LPD*%
%LPC*%
G36*
X233606Y48033D02*
X233606Y48033D01*
X228005Y50354D01*
X225184Y53175D01*
X225109Y53242D01*
X225040Y53315D01*
X224822Y53501D01*
X224609Y53693D01*
X224527Y53753D01*
X224451Y53818D01*
X224215Y53980D01*
X223983Y54150D01*
X223896Y54200D01*
X223814Y54257D01*
X223562Y54395D01*
X223314Y54539D01*
X223222Y54581D01*
X223134Y54629D01*
X222870Y54740D01*
X222608Y54858D01*
X222513Y54889D01*
X222420Y54928D01*
X222146Y55011D01*
X221873Y55102D01*
X221775Y55123D01*
X221679Y55152D01*
X221397Y55207D01*
X221117Y55269D01*
X221018Y55280D01*
X220919Y55299D01*
X220633Y55324D01*
X220348Y55357D01*
X220248Y55358D01*
X220148Y55366D01*
X219861Y55362D01*
X219574Y55365D01*
X219474Y55356D01*
X219373Y55354D01*
X219089Y55320D01*
X218803Y55293D01*
X218737Y55280D01*
X218737Y73434D01*
X218737Y91593D01*
X218771Y91589D01*
X219054Y91542D01*
X219155Y91537D01*
X219254Y91523D01*
X219541Y91514D01*
X219827Y91497D01*
X219928Y91501D01*
X220028Y91498D01*
X220314Y91519D01*
X220601Y91531D01*
X220700Y91546D01*
X220800Y91553D01*
X221083Y91603D01*
X221367Y91645D01*
X221464Y91670D01*
X221563Y91688D01*
X221839Y91767D01*
X222117Y91838D01*
X222211Y91873D01*
X222307Y91900D01*
X222574Y92007D01*
X222843Y92107D01*
X222933Y92151D01*
X223026Y92188D01*
X223280Y92322D01*
X223538Y92449D01*
X223622Y92502D01*
X223711Y92549D01*
X223950Y92708D01*
X224193Y92861D01*
X224272Y92923D01*
X224356Y92978D01*
X224477Y93083D01*
X224803Y93338D01*
X225063Y93589D01*
X225184Y93693D01*
X228005Y96514D01*
X233606Y98835D01*
X239670Y98835D01*
X245271Y96514D01*
X249558Y92227D01*
X251879Y86626D01*
X251879Y60242D01*
X249558Y54641D01*
X245271Y50354D01*
X239670Y48033D01*
X233606Y48033D01*
G37*
%LPD*%
%LPC*%
G36*
X113948Y340225D02*
X113948Y340225D01*
X95789Y340225D01*
X95793Y340259D01*
X95840Y340542D01*
X95845Y340643D01*
X95859Y340742D01*
X95868Y341028D01*
X95885Y341315D01*
X95881Y341416D01*
X95884Y341516D01*
X95863Y341802D01*
X95851Y342089D01*
X95836Y342188D01*
X95829Y342288D01*
X95779Y342571D01*
X95737Y342855D01*
X95712Y342952D01*
X95694Y343051D01*
X95615Y343327D01*
X95544Y343605D01*
X95509Y343699D01*
X95482Y343795D01*
X95375Y344062D01*
X95275Y344331D01*
X95231Y344421D01*
X95194Y344514D01*
X95060Y344768D01*
X94933Y345026D01*
X94880Y345110D01*
X94833Y345199D01*
X94674Y345438D01*
X94521Y345681D01*
X94459Y345760D01*
X94404Y345844D01*
X94299Y345965D01*
X94044Y346291D01*
X93793Y346551D01*
X93689Y346672D01*
X90868Y349493D01*
X88547Y355094D01*
X88547Y361158D01*
X90868Y366759D01*
X95155Y371046D01*
X100756Y373367D01*
X127140Y373367D01*
X132741Y371046D01*
X137028Y366759D01*
X139349Y361158D01*
X139349Y355094D01*
X137028Y349493D01*
X134207Y346672D01*
X134140Y346597D01*
X134067Y346528D01*
X133881Y346310D01*
X133689Y346097D01*
X133629Y346015D01*
X133564Y345939D01*
X133402Y345703D01*
X133232Y345471D01*
X133182Y345384D01*
X133125Y345302D01*
X132987Y345050D01*
X132843Y344802D01*
X132801Y344710D01*
X132753Y344622D01*
X132642Y344358D01*
X132524Y344096D01*
X132493Y344001D01*
X132454Y343908D01*
X132371Y343634D01*
X132280Y343361D01*
X132259Y343263D01*
X132230Y343167D01*
X132175Y342885D01*
X132113Y342605D01*
X132102Y342506D01*
X132083Y342407D01*
X132058Y342121D01*
X132025Y341836D01*
X132024Y341736D01*
X132016Y341636D01*
X132020Y341349D01*
X132017Y341062D01*
X132026Y340962D01*
X132028Y340861D01*
X132062Y340577D01*
X132089Y340291D01*
X132102Y340225D01*
X113948Y340225D01*
X113948Y340225D01*
G37*
%LPD*%
%LPC*%
G36*
X100756Y292085D02*
X100756Y292085D01*
X95155Y294406D01*
X90868Y298693D01*
X88547Y304294D01*
X88547Y310358D01*
X90868Y315959D01*
X93689Y318780D01*
X93756Y318855D01*
X93829Y318924D01*
X94015Y319142D01*
X94207Y319355D01*
X94267Y319437D01*
X94332Y319513D01*
X94494Y319749D01*
X94664Y319981D01*
X94714Y320068D01*
X94771Y320150D01*
X94909Y320402D01*
X95053Y320650D01*
X95095Y320742D01*
X95143Y320830D01*
X95254Y321094D01*
X95372Y321356D01*
X95403Y321451D01*
X95442Y321544D01*
X95525Y321818D01*
X95616Y322091D01*
X95637Y322189D01*
X95666Y322285D01*
X95721Y322567D01*
X95783Y322847D01*
X95794Y322946D01*
X95813Y323045D01*
X95838Y323331D01*
X95871Y323616D01*
X95872Y323716D01*
X95880Y323816D01*
X95876Y324103D01*
X95879Y324390D01*
X95870Y324490D01*
X95868Y324591D01*
X95834Y324875D01*
X95807Y325161D01*
X95794Y325227D01*
X113948Y325227D01*
X132107Y325227D01*
X132103Y325193D01*
X132056Y324910D01*
X132051Y324809D01*
X132037Y324710D01*
X132028Y324423D01*
X132011Y324137D01*
X132015Y324036D01*
X132012Y323936D01*
X132033Y323650D01*
X132045Y323363D01*
X132060Y323264D01*
X132067Y323164D01*
X132117Y322881D01*
X132159Y322597D01*
X132184Y322500D01*
X132202Y322401D01*
X132281Y322125D01*
X132352Y321847D01*
X132387Y321753D01*
X132414Y321657D01*
X132521Y321390D01*
X132621Y321121D01*
X132665Y321031D01*
X132702Y320938D01*
X132836Y320684D01*
X132963Y320426D01*
X133016Y320342D01*
X133063Y320253D01*
X133222Y320014D01*
X133375Y319771D01*
X133437Y319692D01*
X133492Y319608D01*
X133597Y319487D01*
X133852Y319161D01*
X134103Y318901D01*
X134207Y318780D01*
X137028Y315959D01*
X139349Y310358D01*
X139349Y304294D01*
X137028Y298693D01*
X132741Y294406D01*
X127140Y292085D01*
X100756Y292085D01*
G37*
%LPD*%
%LPC*%
G36*
X182806Y48033D02*
X182806Y48033D01*
X177205Y50354D01*
X172918Y54641D01*
X170597Y60242D01*
X170597Y86626D01*
X172918Y92227D01*
X177205Y96514D01*
X182806Y98835D01*
X188870Y98835D01*
X194471Y96514D01*
X197292Y93693D01*
X197367Y93626D01*
X197436Y93553D01*
X197654Y93367D01*
X197867Y93175D01*
X197948Y93116D01*
X198025Y93050D01*
X198261Y92887D01*
X198493Y92718D01*
X198580Y92668D01*
X198662Y92611D01*
X198914Y92473D01*
X199162Y92329D01*
X199254Y92287D01*
X199342Y92239D01*
X199606Y92128D01*
X199868Y92010D01*
X199963Y91979D01*
X200056Y91940D01*
X200330Y91857D01*
X200603Y91766D01*
X200701Y91745D01*
X200797Y91716D01*
X201079Y91661D01*
X201359Y91599D01*
X201459Y91588D01*
X201557Y91569D01*
X201843Y91544D01*
X202128Y91511D01*
X202229Y91510D01*
X202329Y91502D01*
X202615Y91506D01*
X202902Y91503D01*
X203002Y91512D01*
X203103Y91514D01*
X203388Y91548D01*
X203673Y91575D01*
X203739Y91588D01*
X203739Y73434D01*
X203739Y55275D01*
X203705Y55279D01*
X203422Y55326D01*
X203321Y55331D01*
X203222Y55345D01*
X202936Y55354D01*
X202649Y55371D01*
X202548Y55367D01*
X202448Y55370D01*
X202162Y55349D01*
X201875Y55337D01*
X201776Y55322D01*
X201676Y55315D01*
X201393Y55265D01*
X201109Y55223D01*
X201012Y55198D01*
X200913Y55180D01*
X200638Y55102D01*
X200359Y55030D01*
X200265Y54995D01*
X200169Y54968D01*
X199902Y54861D01*
X199633Y54761D01*
X199543Y54717D01*
X199450Y54680D01*
X199196Y54546D01*
X198939Y54419D01*
X198853Y54366D01*
X198765Y54319D01*
X198526Y54160D01*
X198283Y54007D01*
X198204Y53945D01*
X198120Y53890D01*
X198000Y53786D01*
X197673Y53530D01*
X197413Y53279D01*
X197292Y53175D01*
X194471Y50354D01*
X188870Y48033D01*
X182806Y48033D01*
G37*
%LPD*%
%LPC*%
G36*
X1206240Y63311D02*
X1206240Y63311D01*
X1200851Y65543D01*
X1196727Y69667D01*
X1194495Y75056D01*
X1194495Y80888D01*
X1196727Y86277D01*
X1200851Y90401D01*
X1206240Y92633D01*
X1212072Y92633D01*
X1218066Y90150D01*
X1218282Y90018D01*
X1218354Y89984D01*
X1218423Y89944D01*
X1218703Y89817D01*
X1218981Y89685D01*
X1219056Y89658D01*
X1219129Y89625D01*
X1219421Y89528D01*
X1219710Y89425D01*
X1219788Y89406D01*
X1219864Y89381D01*
X1220164Y89315D01*
X1220463Y89242D01*
X1220542Y89232D01*
X1220620Y89214D01*
X1220926Y89179D01*
X1221230Y89138D01*
X1221310Y89135D01*
X1221389Y89126D01*
X1221697Y89123D01*
X1222004Y89113D01*
X1222083Y89119D01*
X1222163Y89118D01*
X1222470Y89147D01*
X1222776Y89168D01*
X1222855Y89182D01*
X1222934Y89190D01*
X1223237Y89250D01*
X1223539Y89303D01*
X1223615Y89325D01*
X1223694Y89340D01*
X1223988Y89431D01*
X1224283Y89515D01*
X1224358Y89545D01*
X1224434Y89569D01*
X1224716Y89689D01*
X1225002Y89804D01*
X1225073Y89841D01*
X1225146Y89872D01*
X1225415Y90021D01*
X1225687Y90164D01*
X1225699Y90172D01*
X1231640Y92633D01*
X1237472Y92633D01*
X1242861Y90401D01*
X1246985Y86277D01*
X1249217Y80888D01*
X1249217Y75056D01*
X1246985Y69667D01*
X1242861Y65543D01*
X1237472Y63311D01*
X1231640Y63311D01*
X1225646Y65794D01*
X1225431Y65926D01*
X1225359Y65960D01*
X1225290Y66000D01*
X1225010Y66126D01*
X1224732Y66259D01*
X1224657Y66286D01*
X1224584Y66318D01*
X1224292Y66415D01*
X1224002Y66519D01*
X1223925Y66537D01*
X1223849Y66563D01*
X1223550Y66629D01*
X1223250Y66702D01*
X1223171Y66712D01*
X1223093Y66730D01*
X1222788Y66765D01*
X1222483Y66806D01*
X1222403Y66809D01*
X1222324Y66818D01*
X1222017Y66821D01*
X1221709Y66831D01*
X1221629Y66825D01*
X1221550Y66826D01*
X1221243Y66798D01*
X1220937Y66776D01*
X1220858Y66762D01*
X1220779Y66755D01*
X1220477Y66695D01*
X1220174Y66641D01*
X1220098Y66619D01*
X1220019Y66604D01*
X1219725Y66513D01*
X1219429Y66429D01*
X1219355Y66399D01*
X1219279Y66376D01*
X1218997Y66255D01*
X1218711Y66141D01*
X1218640Y66104D01*
X1218567Y66072D01*
X1218298Y65923D01*
X1218026Y65780D01*
X1218014Y65772D01*
X1212072Y63311D01*
X1206240Y63311D01*
G37*
%LPD*%
%LPC*%
G36*
X1300240Y62911D02*
X1300240Y62911D01*
X1294851Y65143D01*
X1290727Y69267D01*
X1288495Y74656D01*
X1288495Y80488D01*
X1290727Y85877D01*
X1294851Y90001D01*
X1300240Y92233D01*
X1306072Y92233D01*
X1312066Y89750D01*
X1312282Y89618D01*
X1312354Y89584D01*
X1312423Y89544D01*
X1312703Y89417D01*
X1312981Y89285D01*
X1313056Y89258D01*
X1313129Y89225D01*
X1313421Y89128D01*
X1313710Y89025D01*
X1313788Y89006D01*
X1313864Y88981D01*
X1314164Y88915D01*
X1314463Y88842D01*
X1314542Y88832D01*
X1314620Y88814D01*
X1314926Y88779D01*
X1315230Y88738D01*
X1315310Y88735D01*
X1315389Y88726D01*
X1315697Y88723D01*
X1316004Y88713D01*
X1316083Y88719D01*
X1316163Y88718D01*
X1316470Y88747D01*
X1316776Y88768D01*
X1316855Y88782D01*
X1316934Y88790D01*
X1317237Y88850D01*
X1317539Y88903D01*
X1317615Y88925D01*
X1317694Y88940D01*
X1317988Y89031D01*
X1318283Y89115D01*
X1318358Y89145D01*
X1318434Y89169D01*
X1318716Y89289D01*
X1319002Y89404D01*
X1319073Y89441D01*
X1319146Y89472D01*
X1319415Y89621D01*
X1319687Y89764D01*
X1319699Y89772D01*
X1325640Y92233D01*
X1331472Y92233D01*
X1336861Y90001D01*
X1340985Y85877D01*
X1343217Y80488D01*
X1343217Y74656D01*
X1340985Y69267D01*
X1336861Y65143D01*
X1331472Y62911D01*
X1325640Y62911D01*
X1319646Y65394D01*
X1319431Y65526D01*
X1319359Y65560D01*
X1319290Y65600D01*
X1319010Y65726D01*
X1318732Y65859D01*
X1318657Y65886D01*
X1318584Y65918D01*
X1318292Y66015D01*
X1318002Y66119D01*
X1317925Y66137D01*
X1317849Y66163D01*
X1317550Y66229D01*
X1317250Y66302D01*
X1317171Y66312D01*
X1317093Y66330D01*
X1316788Y66365D01*
X1316483Y66406D01*
X1316403Y66409D01*
X1316324Y66418D01*
X1316017Y66421D01*
X1315709Y66431D01*
X1315629Y66425D01*
X1315550Y66426D01*
X1315243Y66398D01*
X1314937Y66376D01*
X1314858Y66362D01*
X1314779Y66355D01*
X1314477Y66295D01*
X1314174Y66241D01*
X1314098Y66219D01*
X1314019Y66204D01*
X1313725Y66113D01*
X1313429Y66029D01*
X1313355Y65999D01*
X1313279Y65976D01*
X1312997Y65855D01*
X1312711Y65741D01*
X1312640Y65704D01*
X1312567Y65672D01*
X1312298Y65523D01*
X1312026Y65380D01*
X1312014Y65372D01*
X1306072Y62911D01*
X1300240Y62911D01*
G37*
%LPD*%
%LPC*%
G36*
X297036Y183937D02*
X297036Y183937D01*
X291647Y186169D01*
X287523Y190293D01*
X285291Y195682D01*
X285291Y201514D01*
X287774Y207508D01*
X287906Y207724D01*
X287940Y207796D01*
X287980Y207865D01*
X288107Y208145D01*
X288239Y208423D01*
X288266Y208498D01*
X288299Y208571D01*
X288396Y208863D01*
X288499Y209152D01*
X288518Y209230D01*
X288543Y209306D01*
X288609Y209606D01*
X288682Y209905D01*
X288692Y209984D01*
X288710Y210062D01*
X288745Y210368D01*
X288786Y210672D01*
X288789Y210752D01*
X288798Y210831D01*
X288801Y211139D01*
X288811Y211446D01*
X288805Y211525D01*
X288806Y211605D01*
X288777Y211912D01*
X288756Y212218D01*
X288742Y212297D01*
X288734Y212376D01*
X288674Y212679D01*
X288621Y212981D01*
X288599Y213057D01*
X288584Y213136D01*
X288493Y213430D01*
X288409Y213725D01*
X288379Y213800D01*
X288355Y213876D01*
X288235Y214158D01*
X288120Y214444D01*
X288083Y214515D01*
X288052Y214588D01*
X287903Y214857D01*
X287760Y215129D01*
X287752Y215141D01*
X285291Y221082D01*
X285291Y226914D01*
X287523Y232303D01*
X291647Y236427D01*
X297036Y238659D01*
X302868Y238659D01*
X308257Y236427D01*
X312381Y232303D01*
X314613Y226914D01*
X314613Y221082D01*
X312130Y215088D01*
X311998Y214873D01*
X311964Y214801D01*
X311924Y214732D01*
X311798Y214452D01*
X311665Y214174D01*
X311638Y214099D01*
X311606Y214026D01*
X311509Y213734D01*
X311405Y213444D01*
X311387Y213367D01*
X311361Y213291D01*
X311295Y212991D01*
X311222Y212692D01*
X311212Y212613D01*
X311194Y212535D01*
X311159Y212230D01*
X311118Y211925D01*
X311115Y211845D01*
X311106Y211766D01*
X311103Y211459D01*
X311093Y211151D01*
X311099Y211071D01*
X311098Y210992D01*
X311126Y210685D01*
X311148Y210379D01*
X311162Y210300D01*
X311169Y210221D01*
X311229Y209919D01*
X311283Y209616D01*
X311305Y209540D01*
X311320Y209461D01*
X311411Y209167D01*
X311495Y208871D01*
X311525Y208797D01*
X311548Y208721D01*
X311669Y208439D01*
X311783Y208153D01*
X311820Y208082D01*
X311852Y208009D01*
X312001Y207740D01*
X312144Y207468D01*
X312152Y207456D01*
X314613Y201514D01*
X314613Y195682D01*
X312381Y190293D01*
X308257Y186169D01*
X302868Y183937D01*
X297036Y183937D01*
G37*
%LPD*%
%LPC*%
G36*
X1001003Y71991D02*
X1001003Y71991D01*
X990587Y82407D01*
X990587Y97137D01*
X1001003Y107553D01*
X1015733Y107553D01*
X1026149Y97137D01*
X1026149Y82407D01*
X1015733Y71991D01*
X1001003Y71991D01*
G37*
%LPD*%
%LPC*%
G36*
X347325Y314336D02*
X347325Y314336D01*
X341201Y316873D01*
X336515Y321559D01*
X333978Y327683D01*
X333978Y334311D01*
X336515Y340435D01*
X341201Y345121D01*
X347325Y347658D01*
X353953Y347658D01*
X360077Y345121D01*
X362547Y342651D01*
X362621Y342584D01*
X362691Y342511D01*
X362908Y342325D01*
X363122Y342133D01*
X363203Y342073D01*
X363279Y342008D01*
X363515Y341845D01*
X363747Y341676D01*
X363834Y341626D01*
X363917Y341569D01*
X364169Y341431D01*
X364416Y341287D01*
X364508Y341246D01*
X364596Y341197D01*
X364861Y341086D01*
X365122Y340968D01*
X365217Y340937D01*
X365310Y340898D01*
X365585Y340815D01*
X365857Y340724D01*
X365955Y340703D01*
X366051Y340673D01*
X366333Y340619D01*
X366613Y340557D01*
X366713Y340546D01*
X366812Y340527D01*
X367097Y340502D01*
X367382Y340469D01*
X367483Y340468D01*
X367583Y340459D01*
X367869Y340464D01*
X368157Y340461D01*
X368257Y340470D01*
X368357Y340472D01*
X368642Y340506D01*
X368928Y340533D01*
X369026Y340552D01*
X369126Y340564D01*
X369140Y340567D01*
X369140Y330997D01*
X369140Y321423D01*
X368959Y321447D01*
X368676Y321494D01*
X368576Y321499D01*
X368476Y321513D01*
X368190Y321522D01*
X367903Y321539D01*
X367803Y321535D01*
X367702Y321538D01*
X367416Y321517D01*
X367130Y321505D01*
X367030Y321490D01*
X366930Y321483D01*
X366648Y321433D01*
X366364Y321391D01*
X366266Y321366D01*
X366167Y321348D01*
X365892Y321270D01*
X365614Y321198D01*
X365519Y321163D01*
X365423Y321136D01*
X365157Y321029D01*
X364888Y320930D01*
X364797Y320885D01*
X364704Y320848D01*
X364450Y320714D01*
X364193Y320587D01*
X364108Y320534D01*
X364019Y320487D01*
X363780Y320328D01*
X363537Y320176D01*
X363458Y320114D01*
X363374Y320058D01*
X363254Y319953D01*
X362928Y319698D01*
X362668Y319447D01*
X362547Y319343D01*
X360077Y316873D01*
X353953Y314336D01*
X347325Y314336D01*
G37*
%LPD*%
%LPC*%
G36*
X1279640Y158211D02*
X1279640Y158211D01*
X1274068Y160519D01*
X1271215Y163373D01*
X1271140Y163440D01*
X1271071Y163513D01*
X1270853Y163699D01*
X1270640Y163891D01*
X1270559Y163950D01*
X1270482Y164016D01*
X1270246Y164179D01*
X1270014Y164348D01*
X1269928Y164398D01*
X1269845Y164455D01*
X1269593Y164593D01*
X1269345Y164737D01*
X1269253Y164779D01*
X1269166Y164827D01*
X1268901Y164938D01*
X1268639Y165056D01*
X1268544Y165087D01*
X1268452Y165126D01*
X1268177Y165209D01*
X1267905Y165300D01*
X1267806Y165321D01*
X1267710Y165350D01*
X1267429Y165405D01*
X1267148Y165467D01*
X1267049Y165478D01*
X1266950Y165497D01*
X1266665Y165522D01*
X1266379Y165555D01*
X1266279Y165556D01*
X1266179Y165564D01*
X1265892Y165560D01*
X1265605Y165563D01*
X1265505Y165554D01*
X1265405Y165552D01*
X1265120Y165518D01*
X1264834Y165491D01*
X1264755Y165476D01*
X1264755Y173372D01*
X1264755Y181273D01*
X1264802Y181267D01*
X1265086Y181220D01*
X1265186Y181215D01*
X1265285Y181201D01*
X1265572Y181192D01*
X1265859Y181175D01*
X1265959Y181179D01*
X1266059Y181176D01*
X1266345Y181197D01*
X1266632Y181209D01*
X1266732Y181224D01*
X1266831Y181231D01*
X1267114Y181281D01*
X1267398Y181323D01*
X1267495Y181348D01*
X1267594Y181366D01*
X1267869Y181444D01*
X1268148Y181516D01*
X1268242Y181551D01*
X1268339Y181578D01*
X1268604Y181685D01*
X1268874Y181785D01*
X1268964Y181829D01*
X1269057Y181866D01*
X1269311Y182000D01*
X1269569Y182127D01*
X1269654Y182180D01*
X1269743Y182227D01*
X1269982Y182386D01*
X1270224Y182539D01*
X1270303Y182600D01*
X1270387Y182656D01*
X1270508Y182761D01*
X1270834Y183016D01*
X1271094Y183267D01*
X1271215Y183371D01*
X1274068Y186225D01*
X1279640Y188533D01*
X1285672Y188533D01*
X1291244Y186225D01*
X1295509Y181960D01*
X1297817Y176388D01*
X1297817Y170356D01*
X1295509Y164784D01*
X1291244Y160519D01*
X1285672Y158211D01*
X1279640Y158211D01*
G37*
%LPD*%
%LPC*%
G36*
X1279640Y405911D02*
X1279640Y405911D01*
X1274068Y408219D01*
X1271215Y411073D01*
X1271140Y411140D01*
X1271071Y411213D01*
X1270853Y411399D01*
X1270640Y411591D01*
X1270559Y411650D01*
X1270482Y411716D01*
X1270246Y411878D01*
X1270014Y412048D01*
X1269928Y412098D01*
X1269845Y412155D01*
X1269593Y412293D01*
X1269345Y412437D01*
X1269254Y412478D01*
X1269165Y412527D01*
X1268901Y412638D01*
X1268639Y412756D01*
X1268544Y412787D01*
X1268451Y412826D01*
X1268177Y412909D01*
X1267904Y413000D01*
X1267806Y413021D01*
X1267710Y413050D01*
X1267428Y413105D01*
X1267148Y413167D01*
X1267049Y413178D01*
X1266950Y413197D01*
X1266664Y413222D01*
X1266379Y413255D01*
X1266279Y413256D01*
X1266179Y413264D01*
X1265892Y413260D01*
X1265605Y413263D01*
X1265505Y413254D01*
X1265404Y413252D01*
X1265120Y413218D01*
X1264834Y413191D01*
X1264755Y413176D01*
X1264755Y421072D01*
X1264755Y428973D01*
X1264802Y428967D01*
X1265085Y428920D01*
X1265186Y428915D01*
X1265285Y428901D01*
X1265572Y428892D01*
X1265858Y428875D01*
X1265959Y428879D01*
X1266059Y428876D01*
X1266346Y428897D01*
X1266632Y428909D01*
X1266731Y428924D01*
X1266831Y428931D01*
X1267115Y428981D01*
X1267398Y429023D01*
X1267495Y429048D01*
X1267594Y429066D01*
X1267870Y429145D01*
X1268148Y429216D01*
X1268242Y429251D01*
X1268339Y429278D01*
X1268605Y429385D01*
X1268874Y429485D01*
X1268964Y429529D01*
X1269057Y429566D01*
X1269311Y429700D01*
X1269569Y429827D01*
X1269654Y429880D01*
X1269742Y429927D01*
X1269981Y430086D01*
X1270224Y430239D01*
X1270303Y430301D01*
X1270387Y430356D01*
X1270508Y430461D01*
X1270834Y430716D01*
X1271094Y430967D01*
X1271215Y431071D01*
X1274068Y433925D01*
X1279640Y436233D01*
X1285672Y436233D01*
X1291244Y433925D01*
X1295509Y429660D01*
X1297817Y424088D01*
X1297817Y418056D01*
X1295509Y412484D01*
X1291244Y408219D01*
X1285672Y405911D01*
X1279640Y405911D01*
G37*
%LPD*%
%LPC*%
G36*
X297036Y81411D02*
X297036Y81411D01*
X291647Y83643D01*
X287523Y87767D01*
X285291Y93156D01*
X285291Y98988D01*
X287523Y104377D01*
X290578Y107431D01*
X290645Y107506D01*
X290718Y107575D01*
X290904Y107793D01*
X291096Y108006D01*
X291155Y108087D01*
X291221Y108164D01*
X291383Y108400D01*
X291553Y108631D01*
X291603Y108718D01*
X291660Y108801D01*
X291797Y109052D01*
X291942Y109301D01*
X291983Y109392D01*
X292032Y109480D01*
X292142Y109744D01*
X292261Y110006D01*
X292292Y110102D01*
X292331Y110194D01*
X292414Y110469D01*
X292505Y110741D01*
X292526Y110839D01*
X292555Y110935D01*
X292610Y111217D01*
X292671Y111497D01*
X292683Y111597D01*
X292702Y111696D01*
X292727Y111981D01*
X292759Y112267D01*
X292761Y112367D01*
X292769Y112467D01*
X292765Y112754D01*
X292768Y113041D01*
X292758Y113141D01*
X292757Y113241D01*
X292723Y113527D01*
X292696Y113812D01*
X292677Y113910D01*
X292669Y113973D01*
X299952Y113973D01*
X307240Y113973D01*
X307222Y113843D01*
X307176Y113560D01*
X307170Y113460D01*
X307156Y113360D01*
X307147Y113074D01*
X307130Y112787D01*
X307135Y112687D01*
X307131Y112587D01*
X307152Y112301D01*
X307165Y112014D01*
X307179Y111914D01*
X307187Y111814D01*
X307236Y111532D01*
X307279Y111248D01*
X307304Y111151D01*
X307321Y111052D01*
X307400Y110776D01*
X307471Y110498D01*
X307506Y110404D01*
X307533Y110307D01*
X307640Y110041D01*
X307740Y109772D01*
X307784Y109682D01*
X307821Y109588D01*
X307955Y109334D01*
X308082Y109077D01*
X308135Y108992D01*
X308182Y108903D01*
X308341Y108664D01*
X308494Y108422D01*
X308556Y108342D01*
X308611Y108259D01*
X308716Y108138D01*
X308971Y107812D01*
X309222Y107552D01*
X309326Y107431D01*
X312381Y104377D01*
X314613Y98988D01*
X314613Y93156D01*
X312381Y87767D01*
X308257Y83643D01*
X302868Y81411D01*
X297036Y81411D01*
G37*
%LPD*%
%LPC*%
G36*
X55964Y392847D02*
X55964Y392847D01*
X47631Y401180D01*
X47631Y412964D01*
X52729Y418061D01*
X52934Y418290D01*
X53145Y418513D01*
X53193Y418577D01*
X53247Y418636D01*
X53429Y418885D01*
X53614Y419129D01*
X53656Y419197D01*
X53704Y419262D01*
X53858Y419528D01*
X54018Y419789D01*
X54053Y419862D01*
X54093Y419931D01*
X54219Y420211D01*
X54352Y420488D01*
X54379Y420564D01*
X54411Y420637D01*
X54508Y420928D01*
X54611Y421218D01*
X54630Y421296D01*
X54655Y421372D01*
X54722Y421671D01*
X54794Y421970D01*
X54805Y422050D01*
X54822Y422128D01*
X54857Y422433D01*
X54899Y422737D01*
X54901Y422817D01*
X54910Y422897D01*
X54914Y423204D01*
X54924Y423511D01*
X54918Y423591D01*
X54919Y423671D01*
X54890Y423977D01*
X54868Y424284D01*
X54855Y424363D01*
X54847Y424442D01*
X54787Y424744D01*
X54747Y424973D01*
X61856Y424973D01*
X68970Y424973D01*
X68918Y424758D01*
X68907Y424679D01*
X68890Y424600D01*
X68855Y424295D01*
X68813Y423991D01*
X68811Y423911D01*
X68802Y423831D01*
X68798Y423524D01*
X68788Y423217D01*
X68794Y423137D01*
X68793Y423057D01*
X68822Y422750D01*
X68844Y422445D01*
X68857Y422366D01*
X68865Y422286D01*
X68925Y421984D01*
X68978Y421682D01*
X69000Y421605D01*
X69016Y421526D01*
X69106Y421232D01*
X69190Y420937D01*
X69220Y420863D01*
X69244Y420787D01*
X69364Y420504D01*
X69478Y420219D01*
X69516Y420148D01*
X69547Y420074D01*
X69696Y419805D01*
X69839Y419534D01*
X69883Y419467D01*
X69922Y419397D01*
X70098Y419145D01*
X70268Y418889D01*
X70310Y418841D01*
X70365Y418762D01*
X70871Y418176D01*
X70942Y418109D01*
X70983Y418061D01*
X76081Y412964D01*
X76081Y401180D01*
X67748Y392847D01*
X55964Y392847D01*
G37*
%LPD*%
%LPC*%
G36*
X1317464Y741547D02*
X1317464Y741547D01*
X1309131Y749880D01*
X1309131Y761664D01*
X1317464Y769997D01*
X1329248Y769997D01*
X1337581Y761664D01*
X1337581Y749880D01*
X1329248Y741547D01*
X1317464Y741547D01*
G37*
%LPD*%
%LPC*%
G36*
X237464Y398501D02*
X237464Y398501D01*
X229131Y406834D01*
X229131Y418618D01*
X237464Y426951D01*
X249248Y426951D01*
X257581Y418618D01*
X257581Y406834D01*
X249248Y398501D01*
X237464Y398501D01*
G37*
%LPD*%
%LPC*%
G36*
X110464Y398501D02*
X110464Y398501D01*
X102131Y406834D01*
X102131Y418618D01*
X110464Y426951D01*
X122248Y426951D01*
X130581Y418618D01*
X130581Y406834D01*
X122248Y398501D01*
X110464Y398501D01*
G37*
%LPD*%
%LPC*%
G36*
X950843Y97271D02*
X950843Y97271D01*
X950843Y100234D01*
X953806Y97271D01*
X950843Y97271D01*
G37*
%LPD*%
%LPC*%
G36*
X932882Y97271D02*
X932882Y97271D01*
X935845Y100234D01*
X935845Y97271D01*
X932882Y97271D01*
G37*
%LPD*%
%LPC*%
G36*
X950843Y82273D02*
X950843Y82273D01*
X953806Y82273D01*
X950843Y79310D01*
X950843Y82273D01*
G37*
%LPD*%
%LPC*%
G36*
X932882Y82273D02*
X932882Y82273D01*
X935845Y82273D01*
X935845Y79310D01*
X932882Y82273D01*
G37*
%LPD*%
%LPC*%
G36*
X769655Y108871D02*
X769655Y108871D01*
X769655Y110215D01*
X769808Y110098D01*
X770882Y109024D01*
X770999Y108871D01*
X769655Y108871D01*
G37*
%LPD*%
%LPC*%
G36*
X769655Y93873D02*
X769655Y93873D01*
X770999Y93873D01*
X770882Y93720D01*
X769808Y92646D01*
X769655Y92529D01*
X769655Y93873D01*
G37*
%LPD*%
%LPC*%
G36*
X291835Y595939D02*
X291835Y595939D01*
X291835Y596611D01*
X292507Y595939D01*
X291835Y595939D01*
G37*
%LPD*%
%LPC*%
G36*
X276165Y595939D02*
X276165Y595939D01*
X276837Y596611D01*
X276837Y595939D01*
X276165Y595939D01*
G37*
%LPD*%
D10*
X424224Y107872D03*
X398824Y107872D03*
X449624Y107872D03*
X475024Y107872D03*
X500424Y107872D03*
X525824Y107872D03*
X551224Y107872D03*
X373424Y107872D03*
X1382886Y618592D03*
X1382886Y593192D03*
X1382886Y567792D03*
X1382886Y542392D03*
X1382886Y643992D03*
X1382886Y669392D03*
X1382886Y694792D03*
X762156Y101372D03*
X736756Y101372D03*
X711356Y101372D03*
X685956Y101372D03*
D11*
X299952Y198598D03*
X299952Y223998D03*
X1234556Y77972D03*
X1209156Y77972D03*
X1328556Y77572D03*
X1303156Y77572D03*
X299952Y96072D03*
X299952Y121472D03*
D12*
X284336Y588440D03*
X284336Y563040D03*
X284336Y537640D03*
X284336Y512240D03*
X284336Y486840D03*
X284336Y461440D03*
D10*
X350639Y330997D03*
X376639Y330997D03*
X402639Y330997D03*
X428639Y330997D03*
X454639Y330997D03*
X480639Y330997D03*
X506639Y330997D03*
X532639Y330997D03*
D13*
X1282656Y421072D03*
X1257256Y421072D03*
X1231856Y421072D03*
X1206456Y421072D03*
X1181056Y421072D03*
X1155656Y421072D03*
X1130256Y421072D03*
X1104856Y421072D03*
X1079456Y421072D03*
X1054056Y421072D03*
X1028656Y421072D03*
X1003256Y421072D03*
X977856Y421072D03*
X952456Y421072D03*
X927056Y421072D03*
X1282656Y173372D03*
X1257256Y173372D03*
X1231856Y173372D03*
X1206456Y173372D03*
X1181056Y173372D03*
X1155656Y173372D03*
X1130256Y173372D03*
X1104856Y173372D03*
X1079456Y173372D03*
X1054056Y173372D03*
X1028656Y173372D03*
X1003256Y173372D03*
X977856Y173372D03*
X952456Y173372D03*
X927056Y173372D03*
D14*
X185838Y83594D02*
X185838Y63274D01*
X211238Y63274D02*
X211238Y83594D01*
X236638Y83594D02*
X236638Y63274D01*
D15*
X61856Y407072D03*
X61856Y432472D03*
D16*
X243356Y412726D03*
X116356Y412726D03*
D17*
X108856Y78332D02*
X55616Y78332D01*
X55616Y163422D02*
X108856Y163422D01*
X108856Y242162D02*
X55616Y242162D01*
D18*
X1196356Y755772D03*
X1323356Y755772D03*
D19*
X943344Y89772D03*
X1008368Y89772D03*
D14*
X124108Y358126D02*
X103788Y358126D01*
X103788Y332726D02*
X124108Y332726D01*
X124108Y307326D02*
X103788Y307326D01*
D20*
X909856Y139772D03*
D21*
X849856Y139772D01*
D20*
X849856Y139772D03*
X568856Y432438D03*
D21*
X569618Y433200D02*
X569618Y534200D01*
X569618Y433200D02*
X568856Y432438D01*
X569618Y534200D02*
X569094Y534724D01*
X569094Y535200D01*
D20*
X569094Y535200D03*
D21*
X569856Y535962D02*
X569856Y605294D01*
X569856Y535962D02*
X569094Y535200D01*
D20*
X569856Y605294D03*
X1369856Y452772D03*
D21*
X1280856Y452772D01*
D20*
X1280856Y452772D03*
D21*
X1369856Y452772D02*
X1429856Y452772D01*
D20*
X1429856Y452772D03*
X1179856Y487772D03*
D21*
X1129856Y487772D01*
D20*
X1129856Y487772D03*
X1127760Y525018D03*
D21*
X1186434Y525018D01*
X1205484Y505968D01*
D20*
X1205484Y505968D03*
X1029856Y487772D03*
D21*
X1077856Y487772D01*
D20*
X1077856Y487772D03*
X1105856Y63772D03*
D21*
X1105856Y142534D01*
D20*
X1105856Y142534D03*
M02*
