G04 EAGLE Gerber RS-274X export*
G75*
%MOMM*%
%FSLAX34Y34*%
%LPD*%
%IN*%
%IPPOS*%
%AMOC8*
5,1,8,0,0,1.08239X$1,22.5*%
G01*
%ADD10C,0.254000*%


D10*
X-144Y-228D02*
X1451266Y-228D01*
X1451266Y798172D01*
X-144Y798172D01*
X-144Y-228D01*
X1434856Y769236D02*
X1434780Y768168D01*
X1434627Y767107D01*
X1434399Y766060D01*
X1434097Y765032D01*
X1433723Y764028D01*
X1433278Y763053D01*
X1432764Y762113D01*
X1432185Y761212D01*
X1431543Y760354D01*
X1430841Y759544D01*
X1430084Y758787D01*
X1429274Y758085D01*
X1428416Y757443D01*
X1427515Y756864D01*
X1426575Y756350D01*
X1425600Y755905D01*
X1424596Y755531D01*
X1423568Y755229D01*
X1422521Y755001D01*
X1421460Y754848D01*
X1420392Y754772D01*
X1419320Y754772D01*
X1418252Y754848D01*
X1417191Y755001D01*
X1416144Y755229D01*
X1415116Y755531D01*
X1414112Y755905D01*
X1413137Y756350D01*
X1412197Y756864D01*
X1411296Y757443D01*
X1410438Y758085D01*
X1409628Y758787D01*
X1408871Y759544D01*
X1408169Y760354D01*
X1407527Y761212D01*
X1406948Y762113D01*
X1406434Y763053D01*
X1405989Y764028D01*
X1405615Y765032D01*
X1405313Y766060D01*
X1405085Y767107D01*
X1404932Y768168D01*
X1404856Y769236D01*
X1404856Y770308D01*
X1404932Y771376D01*
X1405085Y772437D01*
X1405313Y773484D01*
X1405615Y774512D01*
X1405989Y775516D01*
X1406434Y776491D01*
X1406948Y777431D01*
X1407527Y778332D01*
X1408169Y779190D01*
X1408871Y780000D01*
X1409628Y780757D01*
X1410438Y781459D01*
X1411296Y782101D01*
X1412197Y782680D01*
X1413137Y783194D01*
X1414112Y783639D01*
X1415116Y784013D01*
X1416144Y784315D01*
X1417191Y784543D01*
X1418252Y784696D01*
X1419320Y784772D01*
X1420392Y784772D01*
X1421460Y784696D01*
X1422521Y784543D01*
X1423568Y784315D01*
X1424596Y784013D01*
X1425600Y783639D01*
X1426575Y783194D01*
X1427515Y782680D01*
X1428416Y782101D01*
X1429274Y781459D01*
X1430084Y780757D01*
X1430841Y780000D01*
X1431543Y779190D01*
X1432185Y778332D01*
X1432764Y777431D01*
X1433278Y776491D01*
X1433723Y775516D01*
X1434097Y774512D01*
X1434399Y773484D01*
X1434627Y772437D01*
X1434780Y771376D01*
X1434856Y770308D01*
X1434856Y769236D01*
X1434856Y29236D02*
X1434780Y28168D01*
X1434627Y27107D01*
X1434399Y26060D01*
X1434097Y25032D01*
X1433723Y24028D01*
X1433278Y23053D01*
X1432764Y22113D01*
X1432185Y21212D01*
X1431543Y20354D01*
X1430841Y19544D01*
X1430084Y18787D01*
X1429274Y18085D01*
X1428416Y17443D01*
X1427515Y16864D01*
X1426575Y16350D01*
X1425600Y15905D01*
X1424596Y15531D01*
X1423568Y15229D01*
X1422521Y15001D01*
X1421460Y14848D01*
X1420392Y14772D01*
X1419320Y14772D01*
X1418252Y14848D01*
X1417191Y15001D01*
X1416144Y15229D01*
X1415116Y15531D01*
X1414112Y15905D01*
X1413137Y16350D01*
X1412197Y16864D01*
X1411296Y17443D01*
X1410438Y18085D01*
X1409628Y18787D01*
X1408871Y19544D01*
X1408169Y20354D01*
X1407527Y21212D01*
X1406948Y22113D01*
X1406434Y23053D01*
X1405989Y24028D01*
X1405615Y25032D01*
X1405313Y26060D01*
X1405085Y27107D01*
X1404932Y28168D01*
X1404856Y29236D01*
X1404856Y30308D01*
X1404932Y31376D01*
X1405085Y32437D01*
X1405313Y33484D01*
X1405615Y34512D01*
X1405989Y35516D01*
X1406434Y36491D01*
X1406948Y37431D01*
X1407527Y38332D01*
X1408169Y39190D01*
X1408871Y40000D01*
X1409628Y40757D01*
X1410438Y41459D01*
X1411296Y42101D01*
X1412197Y42680D01*
X1413137Y43194D01*
X1414112Y43639D01*
X1415116Y44013D01*
X1416144Y44315D01*
X1417191Y44543D01*
X1418252Y44696D01*
X1419320Y44772D01*
X1420392Y44772D01*
X1421460Y44696D01*
X1422521Y44543D01*
X1423568Y44315D01*
X1424596Y44013D01*
X1425600Y43639D01*
X1426575Y43194D01*
X1427515Y42680D01*
X1428416Y42101D01*
X1429274Y41459D01*
X1430084Y40757D01*
X1430841Y40000D01*
X1431543Y39190D01*
X1432185Y38332D01*
X1432764Y37431D01*
X1433278Y36491D01*
X1433723Y35516D01*
X1434097Y34512D01*
X1434399Y33484D01*
X1434627Y32437D01*
X1434780Y31376D01*
X1434856Y30308D01*
X1434856Y29236D01*
X44856Y29236D02*
X44780Y28168D01*
X44627Y27107D01*
X44399Y26060D01*
X44097Y25032D01*
X43723Y24028D01*
X43278Y23053D01*
X42764Y22113D01*
X42185Y21212D01*
X41543Y20354D01*
X40841Y19544D01*
X40084Y18787D01*
X39274Y18085D01*
X38416Y17443D01*
X37515Y16864D01*
X36575Y16350D01*
X35600Y15905D01*
X34596Y15531D01*
X33568Y15229D01*
X32521Y15001D01*
X31460Y14848D01*
X30392Y14772D01*
X29320Y14772D01*
X28252Y14848D01*
X27191Y15001D01*
X26144Y15229D01*
X25116Y15531D01*
X24112Y15905D01*
X23137Y16350D01*
X22197Y16864D01*
X21296Y17443D01*
X20438Y18085D01*
X19628Y18787D01*
X18871Y19544D01*
X18169Y20354D01*
X17527Y21212D01*
X16948Y22113D01*
X16434Y23053D01*
X15989Y24028D01*
X15615Y25032D01*
X15313Y26060D01*
X15085Y27107D01*
X14932Y28168D01*
X14856Y29236D01*
X14856Y30308D01*
X14932Y31376D01*
X15085Y32437D01*
X15313Y33484D01*
X15615Y34512D01*
X15989Y35516D01*
X16434Y36491D01*
X16948Y37431D01*
X17527Y38332D01*
X18169Y39190D01*
X18871Y40000D01*
X19628Y40757D01*
X20438Y41459D01*
X21296Y42101D01*
X22197Y42680D01*
X23137Y43194D01*
X24112Y43639D01*
X25116Y44013D01*
X26144Y44315D01*
X27191Y44543D01*
X28252Y44696D01*
X29320Y44772D01*
X30392Y44772D01*
X31460Y44696D01*
X32521Y44543D01*
X33568Y44315D01*
X34596Y44013D01*
X35600Y43639D01*
X36575Y43194D01*
X37515Y42680D01*
X38416Y42101D01*
X39274Y41459D01*
X40084Y40757D01*
X40841Y40000D01*
X41543Y39190D01*
X42185Y38332D01*
X42764Y37431D01*
X43278Y36491D01*
X43723Y35516D01*
X44097Y34512D01*
X44399Y33484D01*
X44627Y32437D01*
X44780Y31376D01*
X44856Y30308D01*
X44856Y29236D01*
X44856Y769236D02*
X44780Y768168D01*
X44627Y767107D01*
X44399Y766060D01*
X44097Y765032D01*
X43723Y764028D01*
X43278Y763053D01*
X42764Y762113D01*
X42185Y761212D01*
X41543Y760354D01*
X40841Y759544D01*
X40084Y758787D01*
X39274Y758085D01*
X38416Y757443D01*
X37515Y756864D01*
X36575Y756350D01*
X35600Y755905D01*
X34596Y755531D01*
X33568Y755229D01*
X32521Y755001D01*
X31460Y754848D01*
X30392Y754772D01*
X29320Y754772D01*
X28252Y754848D01*
X27191Y755001D01*
X26144Y755229D01*
X25116Y755531D01*
X24112Y755905D01*
X23137Y756350D01*
X22197Y756864D01*
X21296Y757443D01*
X20438Y758085D01*
X19628Y758787D01*
X18871Y759544D01*
X18169Y760354D01*
X17527Y761212D01*
X16948Y762113D01*
X16434Y763053D01*
X15989Y764028D01*
X15615Y765032D01*
X15313Y766060D01*
X15085Y767107D01*
X14932Y768168D01*
X14856Y769236D01*
X14856Y770308D01*
X14932Y771376D01*
X15085Y772437D01*
X15313Y773484D01*
X15615Y774512D01*
X15989Y775516D01*
X16434Y776491D01*
X16948Y777431D01*
X17527Y778332D01*
X18169Y779190D01*
X18871Y780000D01*
X19628Y780757D01*
X20438Y781459D01*
X21296Y782101D01*
X22197Y782680D01*
X23137Y783194D01*
X24112Y783639D01*
X25116Y784013D01*
X26144Y784315D01*
X27191Y784543D01*
X28252Y784696D01*
X29320Y784772D01*
X30392Y784772D01*
X31460Y784696D01*
X32521Y784543D01*
X33568Y784315D01*
X34596Y784013D01*
X35600Y783639D01*
X36575Y783194D01*
X37515Y782680D01*
X38416Y782101D01*
X39274Y781459D01*
X40084Y780757D01*
X40841Y780000D01*
X41543Y779190D01*
X42185Y778332D01*
X42764Y777431D01*
X43278Y776491D01*
X43723Y775516D01*
X44097Y774512D01*
X44399Y773484D01*
X44627Y772437D01*
X44780Y771376D01*
X44856Y770308D01*
X44856Y769236D01*
X714856Y769236D02*
X714780Y768168D01*
X714627Y767107D01*
X714399Y766060D01*
X714097Y765032D01*
X713723Y764028D01*
X713278Y763053D01*
X712764Y762113D01*
X712185Y761212D01*
X711543Y760354D01*
X710841Y759544D01*
X710084Y758787D01*
X709274Y758085D01*
X708416Y757443D01*
X707515Y756864D01*
X706575Y756350D01*
X705600Y755905D01*
X704596Y755531D01*
X703568Y755229D01*
X702521Y755001D01*
X701460Y754848D01*
X700392Y754772D01*
X699320Y754772D01*
X698252Y754848D01*
X697191Y755001D01*
X696144Y755229D01*
X695116Y755531D01*
X694112Y755905D01*
X693137Y756350D01*
X692197Y756864D01*
X691296Y757443D01*
X690438Y758085D01*
X689628Y758787D01*
X688871Y759544D01*
X688169Y760354D01*
X687527Y761212D01*
X686948Y762113D01*
X686434Y763053D01*
X685989Y764028D01*
X685615Y765032D01*
X685313Y766060D01*
X685085Y767107D01*
X684932Y768168D01*
X684856Y769236D01*
X684856Y770308D01*
X684932Y771376D01*
X685085Y772437D01*
X685313Y773484D01*
X685615Y774512D01*
X685989Y775516D01*
X686434Y776491D01*
X686948Y777431D01*
X687527Y778332D01*
X688169Y779190D01*
X688871Y780000D01*
X689628Y780757D01*
X690438Y781459D01*
X691296Y782101D01*
X692197Y782680D01*
X693137Y783194D01*
X694112Y783639D01*
X695116Y784013D01*
X696144Y784315D01*
X697191Y784543D01*
X698252Y784696D01*
X699320Y784772D01*
X700392Y784772D01*
X701460Y784696D01*
X702521Y784543D01*
X703568Y784315D01*
X704596Y784013D01*
X705600Y783639D01*
X706575Y783194D01*
X707515Y782680D01*
X708416Y782101D01*
X709274Y781459D01*
X710084Y780757D01*
X710841Y780000D01*
X711543Y779190D01*
X712185Y778332D01*
X712764Y777431D01*
X713278Y776491D01*
X713723Y775516D01*
X714097Y774512D01*
X714399Y773484D01*
X714627Y772437D01*
X714780Y771376D01*
X714856Y770308D01*
X714856Y769236D01*
X227748Y222754D02*
X227677Y221675D01*
X227536Y220603D01*
X227325Y219543D01*
X227046Y218499D01*
X226698Y217475D01*
X226284Y216477D01*
X225806Y215507D01*
X225266Y214571D01*
X224665Y213672D01*
X224007Y212815D01*
X223295Y212002D01*
X222530Y211238D01*
X221717Y210525D01*
X220860Y209867D01*
X219961Y209266D01*
X219025Y208726D01*
X218055Y208248D01*
X217057Y207834D01*
X216033Y207486D01*
X214989Y207207D01*
X213929Y206996D01*
X212857Y206855D01*
X211778Y206784D01*
X210698Y206784D01*
X209619Y206855D01*
X208547Y206996D01*
X207487Y207207D01*
X206443Y207486D01*
X205419Y207834D01*
X204421Y208248D01*
X203451Y208726D01*
X202515Y209266D01*
X201616Y209867D01*
X200759Y210525D01*
X199946Y211238D01*
X199182Y212002D01*
X198469Y212815D01*
X197811Y213672D01*
X197210Y214571D01*
X196670Y215507D01*
X196192Y216477D01*
X195778Y217475D01*
X195430Y218499D01*
X195151Y219543D01*
X194940Y220603D01*
X194799Y221675D01*
X194728Y222754D01*
X194728Y223834D01*
X194799Y224913D01*
X194940Y225985D01*
X195151Y227045D01*
X195430Y228089D01*
X195778Y229113D01*
X196192Y230111D01*
X196670Y231081D01*
X197210Y232017D01*
X197811Y232916D01*
X198469Y233773D01*
X199182Y234586D01*
X199946Y235351D01*
X200759Y236063D01*
X201616Y236721D01*
X202515Y237322D01*
X203451Y237862D01*
X204421Y238340D01*
X205419Y238754D01*
X206443Y239102D01*
X207487Y239381D01*
X208547Y239592D01*
X209619Y239733D01*
X210698Y239804D01*
X211778Y239804D01*
X212857Y239733D01*
X213929Y239592D01*
X214989Y239381D01*
X216033Y239102D01*
X217057Y238754D01*
X218055Y238340D01*
X219025Y237862D01*
X219961Y237322D01*
X220860Y236721D01*
X221717Y236063D01*
X222530Y235351D01*
X223295Y234586D01*
X224007Y233773D01*
X224665Y232916D01*
X225266Y232017D01*
X225806Y231081D01*
X226284Y230111D01*
X226698Y229113D01*
X227046Y228089D01*
X227325Y227045D01*
X227536Y225985D01*
X227677Y224913D01*
X227748Y223834D01*
X227748Y222754D01*
X263268Y316216D02*
X262189Y316287D01*
X261117Y316428D01*
X260057Y316639D01*
X259013Y316918D01*
X257989Y317266D01*
X256991Y317680D01*
X256021Y318158D01*
X255085Y318698D01*
X254186Y319299D01*
X253329Y319957D01*
X252516Y320670D01*
X251752Y321434D01*
X251039Y322247D01*
X250381Y323104D01*
X249780Y324003D01*
X249240Y324939D01*
X248762Y325909D01*
X248348Y326907D01*
X248000Y327931D01*
X247721Y328975D01*
X247510Y330035D01*
X247369Y331107D01*
X247298Y332186D01*
X247298Y333266D01*
X247369Y334345D01*
X247510Y335417D01*
X247721Y336477D01*
X248000Y337521D01*
X248348Y338545D01*
X248762Y339543D01*
X249240Y340513D01*
X249780Y341449D01*
X250381Y342348D01*
X251039Y343205D01*
X251752Y344018D01*
X252516Y344783D01*
X253329Y345495D01*
X254186Y346153D01*
X255085Y346754D01*
X256021Y347294D01*
X256991Y347772D01*
X257989Y348186D01*
X259013Y348534D01*
X260057Y348813D01*
X261117Y349024D01*
X262189Y349165D01*
X263268Y349236D01*
X264348Y349236D01*
X265427Y349165D01*
X266499Y349024D01*
X267559Y348813D01*
X268603Y348534D01*
X269627Y348186D01*
X270625Y347772D01*
X271595Y347294D01*
X272531Y346754D01*
X273430Y346153D01*
X274287Y345495D01*
X275100Y344783D01*
X275865Y344018D01*
X276577Y343205D01*
X277235Y342348D01*
X277836Y341449D01*
X278376Y340513D01*
X278854Y339543D01*
X279268Y338545D01*
X279616Y337521D01*
X279895Y336477D01*
X280106Y335417D01*
X280247Y334345D01*
X280318Y333266D01*
X280318Y332186D01*
X280247Y331107D01*
X280106Y330035D01*
X279895Y328975D01*
X279616Y327931D01*
X279268Y326907D01*
X278854Y325909D01*
X278376Y324939D01*
X277836Y324003D01*
X277235Y323104D01*
X276577Y322247D01*
X275865Y321434D01*
X275100Y320670D01*
X274287Y319957D01*
X273430Y319299D01*
X272531Y318698D01*
X271595Y318158D01*
X270625Y317680D01*
X269627Y317266D01*
X268603Y316918D01*
X267559Y316639D01*
X266499Y316428D01*
X265427Y316287D01*
X264348Y316216D01*
X263268Y316216D01*
M02*
