G04 EAGLE Gerber RS-274X export*
G75*
%MOMM*%
%FSLAX34Y34*%
%LPD*%
%INSoldermask Top*%
%IPPOS*%
%AMOC8*
5,1,8,0,0,1.08239X$1,22.5*%
G01*
%ADD10C,3.203200*%
%ADD11C,2.519200*%
%ADD12C,2.119200*%
%ADD13C,2.419200*%
%ADD14C,2.219200*%
%ADD15C,2.235200*%
%ADD16C,3.505200*%
%ADD17P,2.199416X8X112.500000*%
%ADD18P,2.199416X8X202.500000*%
%ADD19C,5.527200*%
%ADD20P,2.199416X8X22.500000*%
%ADD21P,2.969212X8X22.500000*%
%ADD22C,2.320800*%


D10*
X1419856Y769772D03*
X1419856Y29772D03*
X29856Y29772D03*
X29856Y769772D03*
X699856Y769772D03*
D11*
X424224Y107872D03*
X398824Y107872D03*
X449624Y107872D03*
X475024Y107872D03*
X500424Y107872D03*
X525824Y107872D03*
X551224Y107872D03*
X373424Y107872D03*
X1382886Y618592D03*
X1382886Y593192D03*
X1382886Y567792D03*
X1382886Y542392D03*
X1382886Y643992D03*
X1382886Y669392D03*
X1382886Y694792D03*
X762156Y101372D03*
X736756Y101372D03*
X711356Y101372D03*
X685956Y101372D03*
D12*
X299952Y198598D03*
X299952Y223998D03*
X1234556Y77972D03*
X1209156Y77972D03*
X1328556Y77572D03*
X1303156Y77572D03*
X299952Y96072D03*
X299952Y121472D03*
D13*
X284336Y588440D03*
X284336Y563040D03*
X284336Y537640D03*
X284336Y512240D03*
X284336Y486840D03*
X284336Y461440D03*
D11*
X350639Y330997D03*
X376639Y330997D03*
X402639Y330997D03*
X428639Y330997D03*
X454639Y330997D03*
X480639Y330997D03*
X506639Y330997D03*
X532639Y330997D03*
D14*
X1282656Y421072D03*
X1257256Y421072D03*
X1231856Y421072D03*
X1206456Y421072D03*
X1181056Y421072D03*
X1155656Y421072D03*
X1130256Y421072D03*
X1104856Y421072D03*
X1079456Y421072D03*
X1054056Y421072D03*
X1028656Y421072D03*
X1003256Y421072D03*
X977856Y421072D03*
X952456Y421072D03*
X927056Y421072D03*
X1282656Y173372D03*
X1257256Y173372D03*
X1231856Y173372D03*
X1206456Y173372D03*
X1181056Y173372D03*
X1155656Y173372D03*
X1130256Y173372D03*
X1104856Y173372D03*
X1079456Y173372D03*
X1054056Y173372D03*
X1028656Y173372D03*
X1003256Y173372D03*
X977856Y173372D03*
X952456Y173372D03*
X927056Y173372D03*
D15*
X185838Y83594D02*
X185838Y63274D01*
X211238Y63274D02*
X211238Y83594D01*
X236638Y83594D02*
X236638Y63274D01*
D16*
X211238Y223294D03*
D17*
X61856Y407072D03*
X61856Y432472D03*
D18*
X243356Y412726D03*
X116356Y412726D03*
D19*
X108856Y78332D02*
X55616Y78332D01*
X55616Y163422D02*
X108856Y163422D01*
X108856Y242162D02*
X55616Y242162D01*
D20*
X1196356Y755772D03*
X1323356Y755772D03*
D21*
X943344Y89772D03*
X1008368Y89772D03*
D15*
X124108Y358126D02*
X103788Y358126D01*
X103788Y332726D02*
X124108Y332726D01*
X124108Y307326D02*
X103788Y307326D01*
D16*
X263808Y332726D03*
D22*
X909856Y139772D03*
X849856Y139772D03*
X568856Y432438D03*
X569094Y535200D03*
X569856Y605294D03*
X1369856Y452772D03*
X1280856Y452772D03*
X1429856Y452772D03*
X1179856Y487772D03*
X1129856Y487772D03*
X1127760Y525018D03*
X1205484Y505968D03*
X1029856Y487772D03*
X1077856Y487772D03*
X1105856Y63772D03*
X1105856Y142534D03*
M02*
