M48
;GenerationSoftware,Autodesk,EAGLE,9.6.2*%
;CreationDate,2025-09-04T23:33:35Z*%
FMAT,2
ICI,OFF
METRIC,TZ,000.000
T9C0.813
T8C0.900
T7C1.000
T6C1.016
T5C1.200
T4C1.300
T3C3.000
T2C3.302
T1C3.800
%
G90
M71
T1
X8224Y24216
X8224Y16342
X8224Y7833
T2
X21124Y22329
X26381Y33273
T3
X2986Y2977
X2986Y76977
X69986Y76977
X141986Y76977
X141986Y2977
T4
X47502Y10787
X73676Y10137
X71136Y10137
X68596Y10137
X53264Y33100
X50664Y33100
X48064Y33100
X45464Y33100
X42864Y33100
X40264Y33100
X37664Y33100
X35064Y33100
X76216Y10137
X42422Y10787
X39882Y10787
X44962Y10787
X50042Y10787
X52582Y10787
X55122Y10787
X37342Y10787
X138289Y61859
X138289Y59319
X138289Y56779
X138289Y54239
X138289Y64399
X138289Y66939
X138289Y69479
T5
X28434Y46144
X28434Y58844
X28434Y48684
X28434Y51224
X28434Y53764
X28434Y56304
T6
X11395Y30733
X18584Y7343
X21124Y7343
X23664Y7343
X94334Y8977
X100837Y8977
X11395Y35813
X11395Y33273
T7
X90986Y13977
X110586Y6377
X110586Y14253
X107786Y48777
X118106Y42107
X84986Y13977
X128266Y42107
X125726Y42107
X123186Y42107
X120646Y42107
X115566Y42107
X113026Y42107
X110486Y42107
X107946Y42107
X105406Y42107
X102866Y42107
X100326Y42107
X97786Y42107
X95246Y42107
X92706Y42107
X128266Y17337
X125726Y17337
X123186Y17337
X120646Y17337
X118106Y17337
X56886Y43244
X113026Y17337
X110486Y17337
X107946Y17337
X105406Y17337
X102866Y17337
X100326Y17337
X97786Y17337
X95246Y17337
X92706Y17337
X56909Y53520
X56986Y60529
X136986Y45277
X115566Y17337
X128086Y45277
X142986Y45277
X117986Y48777
X112986Y48777
X112776Y52502
X120548Y50597
X102986Y48777
T8
X130316Y7757
X132856Y7757
X120916Y7797
X29995Y19860
X123456Y7797
X29995Y22400
X29995Y12147
X29995Y9607
T9
X6186Y43247
X24336Y41273
X11636Y41273
X119636Y75577
X132336Y75577
X6186Y40707
M30