M48
;GenerationSoftware,Autodesk,EAGLE,9.6.2*%
;CreationDate,2024-12-29T18:20:21Z*%
FMAT,2
ICI,OFF
METRIC,TZ,000.000
T6C0.813
T5C1.000
T4C1.016
T3C1.118
T2C3.000
T1C3.302
%
G90
M71
T1
X46990Y37846
X59690Y37846
X34290Y37846
T2
X3175Y55245
X66929Y55499
X3175Y43815
X66929Y44069
X2540Y4318
X67056Y4191
T3
X62230Y20320
X34290Y20320
X31750Y20320
X44450Y20320
X46990Y20320
X49530Y20320
X57150Y20320
X59690Y20320
X36830Y20320
T4
X30480Y7620
X27940Y7620
X49530Y7620
X46990Y7620
X12700Y7620
X10160Y7620
X31750Y50673
X31750Y46101
X21590Y7620
X19050Y7620
X54610Y7620
X57150Y7620
X55880Y48260
X58420Y48260
X40640Y48260
X43180Y48260
X48260Y48260
X50800Y48260
T5
X38100Y16510
X45720Y16510
X7620Y15240
X20320Y15240
X19050Y53340
X53340Y52856
X46990Y43180
X59690Y43180
X62230Y19050
T6
X34290Y3810
X34290Y13970
X22860Y49530
X22860Y39370
X8890Y31115
X19050Y31115
X22733Y30861
X22733Y20701
X16510Y45720
X16510Y43180
X8890Y43180
X8890Y45720
X14478Y18288
X17018Y18288
X14478Y37211
X17018Y37211
X16510Y26670
X8890Y24130
X16510Y24130
X8890Y26670
X8890Y49530
X19050Y49530
X41910Y3810
X41910Y13970
X38100Y3810
X38100Y13970
M30