G04 EAGLE Gerber RS-274X export*
G75*
%MOMM*%
%FSLAX34Y34*%
%LPD*%
%INBottom Copper*%
%IPPOS*%
%AMOC8*
5,1,8,0,0,1.08239X$1,22.5*%
G01*
%ADD10C,2.006600*%
%ADD11C,1.930400*%
%ADD12C,2.235200*%
%ADD13C,2.133600*%
%ADD14C,1.700000*%
%ADD15C,2.117600*%
%ADD16C,1.400000*%

G36*
X314950Y10164D02*
X314950Y10164D01*
X315016Y10162D01*
X315361Y10184D01*
X315707Y10201D01*
X315773Y10210D01*
X315839Y10215D01*
X316180Y10270D01*
X316523Y10320D01*
X316587Y10336D01*
X316652Y10347D01*
X316986Y10435D01*
X317323Y10518D01*
X317386Y10540D01*
X317449Y10557D01*
X317773Y10677D01*
X318100Y10793D01*
X318160Y10821D01*
X318222Y10844D01*
X318533Y10995D01*
X318847Y11141D01*
X318904Y11175D01*
X318964Y11204D01*
X319259Y11384D01*
X319557Y11561D01*
X319611Y11600D01*
X319667Y11634D01*
X319943Y11843D01*
X320223Y12047D01*
X320272Y12091D01*
X320325Y12131D01*
X320580Y12365D01*
X320839Y12595D01*
X320883Y12644D01*
X320932Y12688D01*
X321163Y12946D01*
X321398Y13201D01*
X321438Y13253D01*
X321482Y13302D01*
X321687Y13582D01*
X321896Y13857D01*
X321931Y13913D01*
X321970Y13967D01*
X322147Y14265D01*
X322329Y14559D01*
X322358Y14619D01*
X322391Y14675D01*
X322539Y14989D01*
X322691Y15300D01*
X322714Y15361D01*
X322742Y15421D01*
X322859Y15748D01*
X322980Y16072D01*
X322997Y16135D01*
X323019Y16198D01*
X323103Y16534D01*
X323192Y16868D01*
X323203Y16933D01*
X323219Y16997D01*
X323270Y17339D01*
X323327Y17682D01*
X323331Y17748D01*
X323341Y17813D01*
X323359Y18158D01*
X323382Y18504D01*
X323380Y18570D01*
X323383Y18636D01*
X323373Y18795D01*
X323357Y19328D01*
X323321Y19612D01*
X323311Y19769D01*
X323087Y21465D01*
X323087Y23251D01*
X332740Y23251D01*
X342393Y23251D01*
X342393Y21465D01*
X342169Y19769D01*
X342164Y19704D01*
X342153Y19638D01*
X342130Y19292D01*
X342102Y18948D01*
X342103Y18882D01*
X342098Y18816D01*
X342109Y18470D01*
X342114Y18124D01*
X342121Y18058D01*
X342123Y17992D01*
X342167Y17648D01*
X342206Y17304D01*
X342219Y17240D01*
X342228Y17174D01*
X342305Y16837D01*
X342376Y16498D01*
X342396Y16435D01*
X342411Y16371D01*
X342520Y16042D01*
X342624Y15712D01*
X342650Y15651D01*
X342671Y15588D01*
X342812Y15271D01*
X342948Y14953D01*
X342979Y14896D01*
X343006Y14835D01*
X343177Y14534D01*
X343343Y14230D01*
X343380Y14175D01*
X343412Y14118D01*
X343610Y13836D01*
X343806Y13548D01*
X343848Y13497D01*
X343886Y13443D01*
X344111Y13182D01*
X344333Y12914D01*
X344380Y12868D01*
X344423Y12818D01*
X344672Y12579D01*
X344919Y12335D01*
X344970Y12293D01*
X345018Y12247D01*
X345290Y12033D01*
X345559Y11814D01*
X345614Y11778D01*
X345665Y11737D01*
X345957Y11550D01*
X346245Y11359D01*
X346304Y11328D01*
X346359Y11292D01*
X346668Y11134D01*
X346973Y10971D01*
X347034Y10946D01*
X347093Y10916D01*
X347415Y10789D01*
X347735Y10657D01*
X347798Y10638D01*
X347860Y10613D01*
X348193Y10518D01*
X348524Y10417D01*
X348589Y10404D01*
X348652Y10386D01*
X348993Y10323D01*
X349332Y10255D01*
X349398Y10249D01*
X349463Y10237D01*
X349622Y10226D01*
X350152Y10172D01*
X350439Y10171D01*
X350596Y10161D01*
X370597Y10161D01*
X370663Y10164D01*
X370729Y10162D01*
X371074Y10184D01*
X371420Y10201D01*
X371486Y10210D01*
X371552Y10215D01*
X371892Y10270D01*
X372236Y10320D01*
X372300Y10336D01*
X372365Y10347D01*
X372700Y10435D01*
X373036Y10518D01*
X373098Y10540D01*
X373162Y10557D01*
X373487Y10677D01*
X373813Y10793D01*
X373873Y10821D01*
X373935Y10844D01*
X374246Y10995D01*
X374560Y11141D01*
X374617Y11175D01*
X374677Y11204D01*
X374972Y11385D01*
X375270Y11561D01*
X375323Y11600D01*
X375380Y11634D01*
X375657Y11843D01*
X375936Y12047D01*
X375985Y12091D01*
X376038Y12131D01*
X376293Y12365D01*
X376551Y12595D01*
X376596Y12644D01*
X376645Y12689D01*
X376876Y12946D01*
X377111Y13201D01*
X377151Y13253D01*
X377195Y13303D01*
X377400Y13581D01*
X377609Y13857D01*
X377644Y13914D01*
X377683Y13967D01*
X377860Y14265D01*
X378041Y14559D01*
X378070Y14619D01*
X378104Y14675D01*
X378252Y14990D01*
X378404Y15300D01*
X378427Y15361D01*
X378455Y15421D01*
X378571Y15748D01*
X378692Y16072D01*
X378709Y16136D01*
X378732Y16198D01*
X378816Y16533D01*
X378905Y16868D01*
X378916Y16934D01*
X378932Y16998D01*
X378983Y17340D01*
X379040Y17682D01*
X379044Y17748D01*
X379054Y17813D01*
X379072Y18159D01*
X379095Y18504D01*
X379093Y18570D01*
X379096Y18636D01*
X379086Y18795D01*
X379070Y19328D01*
X379033Y19613D01*
X379023Y19770D01*
X378967Y20195D01*
X378967Y21981D01*
X388620Y21981D01*
X416560Y21981D01*
X426213Y21981D01*
X426213Y20195D01*
X426157Y19770D01*
X426151Y19704D01*
X426140Y19638D01*
X426117Y19292D01*
X426089Y18948D01*
X426090Y18882D01*
X426085Y18816D01*
X426096Y18470D01*
X426101Y18124D01*
X426108Y18058D01*
X426110Y17992D01*
X426154Y17648D01*
X426193Y17305D01*
X426206Y17240D01*
X426215Y17174D01*
X426292Y16837D01*
X426363Y16498D01*
X426383Y16435D01*
X426398Y16371D01*
X426508Y16042D01*
X426612Y15712D01*
X426637Y15651D01*
X426658Y15588D01*
X426799Y15272D01*
X426935Y14954D01*
X426966Y14895D01*
X426993Y14835D01*
X427164Y14534D01*
X427330Y14230D01*
X427367Y14175D01*
X427399Y14118D01*
X427598Y13835D01*
X427793Y13548D01*
X427835Y13497D01*
X427873Y13443D01*
X428098Y13181D01*
X428320Y12914D01*
X428367Y12868D01*
X428410Y12818D01*
X428660Y12578D01*
X428906Y12335D01*
X428957Y12293D01*
X429005Y12247D01*
X429277Y12033D01*
X429546Y11815D01*
X429601Y11778D01*
X429653Y11737D01*
X429944Y11550D01*
X430232Y11359D01*
X430291Y11328D01*
X430347Y11292D01*
X430654Y11134D01*
X430960Y10972D01*
X431022Y10946D01*
X431080Y10916D01*
X431402Y10789D01*
X431722Y10657D01*
X431785Y10638D01*
X431847Y10613D01*
X432180Y10518D01*
X432511Y10417D01*
X432576Y10404D01*
X432639Y10386D01*
X432979Y10323D01*
X433319Y10255D01*
X433385Y10249D01*
X433450Y10237D01*
X433608Y10226D01*
X434139Y10172D01*
X434426Y10171D01*
X434583Y10161D01*
X646208Y10161D01*
X646580Y10179D01*
X646953Y10194D01*
X646992Y10199D01*
X647031Y10201D01*
X647400Y10255D01*
X647770Y10306D01*
X647808Y10315D01*
X647847Y10320D01*
X648210Y10410D01*
X648572Y10496D01*
X648609Y10509D01*
X648647Y10518D01*
X649000Y10643D01*
X649352Y10764D01*
X649387Y10780D01*
X649424Y10793D01*
X649763Y10951D01*
X650102Y11105D01*
X650136Y11125D01*
X650171Y11141D01*
X650494Y11332D01*
X650816Y11518D01*
X650847Y11541D01*
X650881Y11561D01*
X651183Y11781D01*
X651486Y11998D01*
X651515Y12024D01*
X651547Y12047D01*
X651825Y12295D01*
X652106Y12541D01*
X652133Y12569D01*
X652162Y12595D01*
X652415Y12868D01*
X652671Y13141D01*
X652695Y13172D01*
X652722Y13201D01*
X652946Y13497D01*
X653176Y13793D01*
X653196Y13826D01*
X653220Y13857D01*
X653415Y14175D01*
X653614Y14491D01*
X653632Y14526D01*
X653652Y14559D01*
X653816Y14894D01*
X653983Y15228D01*
X653997Y15265D01*
X654014Y15300D01*
X654145Y15648D01*
X654279Y15998D01*
X654290Y16035D01*
X654303Y16072D01*
X654399Y16432D01*
X654499Y16792D01*
X654506Y16831D01*
X654516Y16868D01*
X654577Y17238D01*
X654641Y17604D01*
X654644Y17643D01*
X654650Y17682D01*
X654675Y18055D01*
X654704Y18426D01*
X654703Y18465D01*
X654705Y18504D01*
X654694Y18878D01*
X654686Y19250D01*
X654682Y19289D01*
X654681Y19328D01*
X654633Y19699D01*
X654589Y20069D01*
X654581Y20107D01*
X654576Y20146D01*
X654493Y20509D01*
X654413Y20874D01*
X654401Y20911D01*
X654393Y20949D01*
X654275Y21304D01*
X654160Y21659D01*
X654145Y21694D01*
X654132Y21732D01*
X653981Y22073D01*
X653832Y22415D01*
X653813Y22449D01*
X653798Y22485D01*
X653614Y22809D01*
X653433Y23136D01*
X653410Y23168D01*
X653391Y23202D01*
X653178Y23506D01*
X652965Y23815D01*
X652944Y23839D01*
X652918Y23877D01*
X652381Y24502D01*
X652279Y24600D01*
X652217Y24670D01*
X650426Y26461D01*
X647114Y32198D01*
X645399Y38598D01*
X645399Y45222D01*
X647114Y51622D01*
X650426Y57359D01*
X651337Y58270D01*
X651589Y58548D01*
X651842Y58821D01*
X651865Y58851D01*
X651891Y58881D01*
X652114Y59180D01*
X652340Y59477D01*
X652360Y59511D01*
X652384Y59542D01*
X652576Y59862D01*
X652772Y60179D01*
X652789Y60214D01*
X652809Y60248D01*
X652971Y60585D01*
X653134Y60920D01*
X653148Y60956D01*
X653165Y60991D01*
X653292Y61342D01*
X653423Y61692D01*
X653433Y61729D01*
X653447Y61766D01*
X653539Y62127D01*
X653636Y62488D01*
X653642Y62527D01*
X653652Y62565D01*
X653709Y62932D01*
X653770Y63302D01*
X653773Y63341D01*
X653779Y63379D01*
X653800Y63751D01*
X653825Y64124D01*
X653824Y64163D01*
X653827Y64202D01*
X653812Y64575D01*
X653801Y64948D01*
X653796Y64987D01*
X653794Y65026D01*
X653744Y65394D01*
X653696Y65766D01*
X653687Y65804D01*
X653682Y65842D01*
X653596Y66206D01*
X653513Y66569D01*
X653500Y66606D01*
X653491Y66644D01*
X653370Y66997D01*
X653252Y67352D01*
X653237Y67387D01*
X653224Y67424D01*
X653070Y67763D01*
X652918Y68105D01*
X652898Y68139D01*
X652882Y68174D01*
X652695Y68499D01*
X652511Y68822D01*
X652489Y68854D01*
X652469Y68888D01*
X652251Y69193D01*
X652038Y69497D01*
X652012Y69526D01*
X651989Y69558D01*
X651743Y69840D01*
X651501Y70122D01*
X651473Y70149D01*
X651447Y70179D01*
X651174Y70435D01*
X650906Y70693D01*
X650875Y70717D01*
X650847Y70744D01*
X650553Y70971D01*
X650258Y71203D01*
X650225Y71224D01*
X650194Y71248D01*
X649880Y71446D01*
X649564Y71648D01*
X649529Y71666D01*
X649497Y71687D01*
X649163Y71853D01*
X648831Y72024D01*
X648794Y72038D01*
X648759Y72056D01*
X648410Y72190D01*
X648064Y72327D01*
X648027Y72337D01*
X647990Y72352D01*
X647629Y72451D01*
X647271Y72554D01*
X647233Y72561D01*
X647196Y72571D01*
X646828Y72636D01*
X646461Y72703D01*
X646429Y72706D01*
X646384Y72713D01*
X645562Y72776D01*
X645420Y72773D01*
X645328Y72779D01*
X604540Y72779D01*
X604245Y72765D01*
X603950Y72759D01*
X603834Y72745D01*
X603716Y72739D01*
X603424Y72696D01*
X603131Y72662D01*
X603017Y72637D01*
X602901Y72620D01*
X602614Y72549D01*
X602326Y72486D01*
X602214Y72450D01*
X602101Y72422D01*
X601822Y72323D01*
X601541Y72233D01*
X601434Y72186D01*
X601323Y72147D01*
X601055Y72022D01*
X600785Y71905D01*
X600683Y71848D01*
X600576Y71799D01*
X600322Y71648D01*
X600064Y71505D01*
X599967Y71439D01*
X599867Y71379D01*
X599628Y71205D01*
X599385Y71037D01*
X599315Y70977D01*
X599201Y70893D01*
X598585Y70345D01*
X598554Y70311D01*
X598530Y70290D01*
X593121Y64881D01*
X587333Y62483D01*
X581067Y62483D01*
X575279Y64881D01*
X573193Y66967D01*
X572960Y67179D01*
X572732Y67395D01*
X572655Y67455D01*
X572583Y67521D01*
X572330Y67709D01*
X572082Y67903D01*
X571999Y67955D01*
X571921Y68013D01*
X571652Y68176D01*
X571386Y68345D01*
X571299Y68389D01*
X571215Y68439D01*
X570932Y68574D01*
X570650Y68717D01*
X570560Y68752D01*
X570472Y68794D01*
X570176Y68902D01*
X569882Y69016D01*
X569788Y69043D01*
X569697Y69076D01*
X569392Y69154D01*
X569089Y69240D01*
X568993Y69257D01*
X568899Y69281D01*
X568588Y69330D01*
X568278Y69386D01*
X568180Y69393D01*
X568084Y69408D01*
X567769Y69427D01*
X567456Y69452D01*
X567359Y69450D01*
X567299Y69454D01*
X567299Y88900D01*
X567299Y108351D01*
X567459Y108358D01*
X567773Y108364D01*
X567870Y108376D01*
X567968Y108380D01*
X568279Y108424D01*
X568592Y108461D01*
X568687Y108482D01*
X568784Y108496D01*
X569089Y108570D01*
X569397Y108637D01*
X569490Y108667D01*
X569585Y108690D01*
X569882Y108794D01*
X570182Y108890D01*
X570271Y108929D01*
X570363Y108961D01*
X570649Y109093D01*
X570938Y109218D01*
X571023Y109265D01*
X571112Y109306D01*
X571384Y109465D01*
X571659Y109618D01*
X571739Y109673D01*
X571824Y109722D01*
X572079Y109907D01*
X572338Y110085D01*
X572397Y110137D01*
X572492Y110205D01*
X573110Y110751D01*
X573157Y110801D01*
X573193Y110833D01*
X575279Y112919D01*
X581067Y115317D01*
X587333Y115317D01*
X593121Y112919D01*
X598530Y107510D01*
X598749Y107311D01*
X598962Y107107D01*
X599054Y107035D01*
X599140Y106956D01*
X599377Y106780D01*
X599609Y106597D01*
X599708Y106534D01*
X599802Y106464D01*
X600055Y106311D01*
X600303Y106152D01*
X600407Y106099D01*
X600508Y106038D01*
X600774Y105911D01*
X601037Y105776D01*
X601146Y105733D01*
X601251Y105683D01*
X601529Y105582D01*
X601804Y105473D01*
X601916Y105441D01*
X602026Y105401D01*
X602313Y105327D01*
X602596Y105246D01*
X602711Y105225D01*
X602824Y105196D01*
X603117Y105150D01*
X603407Y105097D01*
X603499Y105090D01*
X603639Y105069D01*
X604462Y105021D01*
X604508Y105023D01*
X604540Y105021D01*
X632422Y105021D01*
X632717Y105035D01*
X633012Y105041D01*
X633128Y105055D01*
X633245Y105061D01*
X633538Y105104D01*
X633831Y105138D01*
X633945Y105163D01*
X634061Y105180D01*
X634348Y105251D01*
X634636Y105314D01*
X634748Y105350D01*
X634861Y105378D01*
X635140Y105477D01*
X635421Y105567D01*
X635528Y105614D01*
X635639Y105653D01*
X635906Y105778D01*
X636177Y105895D01*
X636280Y105952D01*
X636386Y106001D01*
X636640Y106152D01*
X636898Y106295D01*
X636994Y106361D01*
X637095Y106421D01*
X637333Y106595D01*
X637577Y106762D01*
X637647Y106824D01*
X637761Y106907D01*
X638377Y107455D01*
X638408Y107489D01*
X638432Y107510D01*
X639250Y108328D01*
X639449Y108547D01*
X639653Y108760D01*
X639725Y108852D01*
X639804Y108939D01*
X639980Y109176D01*
X640163Y109407D01*
X640226Y109506D01*
X640296Y109600D01*
X640449Y109853D01*
X640608Y110101D01*
X640661Y110205D01*
X640722Y110306D01*
X640849Y110572D01*
X640984Y110835D01*
X641027Y110944D01*
X641077Y111049D01*
X641178Y111327D01*
X641287Y111602D01*
X641319Y111714D01*
X641359Y111824D01*
X641433Y112111D01*
X641514Y112394D01*
X641535Y112509D01*
X641564Y112623D01*
X641610Y112915D01*
X641663Y113205D01*
X641670Y113297D01*
X641691Y113437D01*
X641739Y114260D01*
X641737Y114306D01*
X641739Y114338D01*
X641739Y175620D01*
X641735Y175706D01*
X641738Y175791D01*
X641715Y176117D01*
X641699Y176444D01*
X641687Y176528D01*
X641681Y176614D01*
X641627Y176936D01*
X641580Y177259D01*
X641559Y177342D01*
X641545Y177427D01*
X641460Y177742D01*
X641382Y178060D01*
X641353Y178140D01*
X641331Y178223D01*
X641216Y178528D01*
X641107Y178837D01*
X641071Y178914D01*
X641041Y178994D01*
X640897Y179287D01*
X640759Y179584D01*
X640715Y179658D01*
X640677Y179734D01*
X640505Y180012D01*
X640339Y180294D01*
X640289Y180363D01*
X640244Y180435D01*
X640045Y180696D01*
X639853Y180959D01*
X639796Y181023D01*
X639744Y181091D01*
X639522Y181331D01*
X639305Y181575D01*
X639242Y181633D01*
X639184Y181696D01*
X638939Y181913D01*
X638699Y182134D01*
X638631Y182186D01*
X638567Y182243D01*
X638303Y182435D01*
X638043Y182633D01*
X637970Y182677D01*
X637901Y182728D01*
X637619Y182894D01*
X637341Y183065D01*
X637264Y183102D01*
X637190Y183146D01*
X636893Y183284D01*
X636600Y183427D01*
X636520Y183457D01*
X636443Y183493D01*
X636134Y183602D01*
X635828Y183716D01*
X635746Y183738D01*
X635665Y183766D01*
X635347Y183844D01*
X635032Y183929D01*
X634947Y183943D01*
X634864Y183963D01*
X634541Y184010D01*
X634218Y184063D01*
X634133Y184069D01*
X634048Y184081D01*
X633722Y184096D01*
X633396Y184118D01*
X633311Y184116D01*
X633225Y184120D01*
X632898Y184103D01*
X632572Y184093D01*
X632487Y184082D01*
X632402Y184078D01*
X632078Y184030D01*
X631754Y183989D01*
X631671Y183970D01*
X631586Y183957D01*
X631269Y183878D01*
X630951Y183805D01*
X630869Y183778D01*
X630799Y183761D01*
X630799Y203200D01*
X630799Y222645D01*
X630968Y222600D01*
X631282Y222509D01*
X631366Y222493D01*
X631448Y222471D01*
X631771Y222418D01*
X632092Y222358D01*
X632177Y222351D01*
X632262Y222337D01*
X632588Y222315D01*
X632913Y222287D01*
X632999Y222288D01*
X633084Y222282D01*
X633410Y222292D01*
X633737Y222295D01*
X633822Y222304D01*
X633908Y222307D01*
X634232Y222348D01*
X634557Y222383D01*
X634641Y222400D01*
X634726Y222411D01*
X635044Y222484D01*
X635364Y222550D01*
X635446Y222576D01*
X635529Y222595D01*
X635840Y222698D01*
X636152Y222795D01*
X636230Y222828D01*
X636312Y222855D01*
X636611Y222988D01*
X636911Y223114D01*
X636987Y223155D01*
X637065Y223190D01*
X637349Y223351D01*
X637637Y223506D01*
X637708Y223554D01*
X637782Y223596D01*
X638049Y223783D01*
X638321Y223966D01*
X638387Y224021D01*
X638457Y224070D01*
X638704Y224282D01*
X638957Y224490D01*
X639017Y224551D01*
X639082Y224607D01*
X639308Y224842D01*
X639539Y225074D01*
X639594Y225140D01*
X639653Y225202D01*
X639855Y225458D01*
X640062Y225711D01*
X640110Y225782D01*
X640163Y225849D01*
X640340Y226125D01*
X640521Y226396D01*
X640562Y226471D01*
X640608Y226543D01*
X640757Y226834D01*
X640912Y227122D01*
X640945Y227201D01*
X640984Y227277D01*
X641104Y227581D01*
X641230Y227882D01*
X641255Y227964D01*
X641287Y228043D01*
X641377Y228358D01*
X641473Y228670D01*
X641490Y228754D01*
X641514Y228836D01*
X641573Y229157D01*
X641639Y229477D01*
X641648Y229562D01*
X641663Y229646D01*
X641675Y229817D01*
X641726Y230297D01*
X641728Y230614D01*
X641739Y230780D01*
X641739Y343510D01*
X641721Y343882D01*
X641706Y344255D01*
X641701Y344294D01*
X641699Y344333D01*
X641645Y344702D01*
X641594Y345072D01*
X641585Y345110D01*
X641580Y345149D01*
X641490Y345511D01*
X641404Y345874D01*
X641391Y345911D01*
X641382Y345949D01*
X641257Y346301D01*
X641136Y346654D01*
X641120Y346689D01*
X641107Y346726D01*
X640949Y347065D01*
X640795Y347404D01*
X640775Y347438D01*
X640759Y347473D01*
X640569Y347794D01*
X640382Y348117D01*
X640359Y348149D01*
X640339Y348183D01*
X640120Y348484D01*
X639902Y348788D01*
X639876Y348817D01*
X639853Y348849D01*
X639604Y349128D01*
X639359Y349408D01*
X639331Y349435D01*
X639305Y349464D01*
X639032Y349716D01*
X638759Y349973D01*
X638728Y349997D01*
X638699Y350024D01*
X638403Y350248D01*
X638107Y350477D01*
X638074Y350498D01*
X638043Y350522D01*
X637725Y350718D01*
X637409Y350916D01*
X637374Y350934D01*
X637341Y350954D01*
X637006Y351118D01*
X636672Y351285D01*
X636635Y351299D01*
X636600Y351316D01*
X636252Y351447D01*
X635902Y351581D01*
X635865Y351592D01*
X635828Y351605D01*
X635469Y351701D01*
X635108Y351801D01*
X635069Y351808D01*
X635032Y351818D01*
X634663Y351879D01*
X634296Y351943D01*
X634257Y351946D01*
X634218Y351952D01*
X633845Y351977D01*
X633474Y352006D01*
X633435Y352005D01*
X633396Y352007D01*
X633022Y351996D01*
X632650Y351988D01*
X632611Y351984D01*
X632572Y351983D01*
X632201Y351935D01*
X631831Y351891D01*
X631793Y351883D01*
X631754Y351878D01*
X631391Y351795D01*
X631026Y351715D01*
X630989Y351703D01*
X630951Y351695D01*
X630597Y351577D01*
X630241Y351462D01*
X630205Y351447D01*
X630168Y351434D01*
X629827Y351283D01*
X629485Y351134D01*
X629451Y351115D01*
X629415Y351100D01*
X629091Y350916D01*
X628764Y350735D01*
X628732Y350712D01*
X628698Y350693D01*
X628394Y350480D01*
X628085Y350267D01*
X628061Y350246D01*
X628023Y350219D01*
X627398Y349683D01*
X627300Y349581D01*
X627230Y349519D01*
X622634Y344923D01*
X613077Y339405D01*
X602418Y336549D01*
X591382Y336549D01*
X582634Y338893D01*
X582391Y338946D01*
X582150Y339008D01*
X581988Y339033D01*
X581828Y339068D01*
X581581Y339097D01*
X581335Y339135D01*
X581172Y339145D01*
X581009Y339164D01*
X580761Y339168D01*
X580512Y339183D01*
X580348Y339176D01*
X580185Y339179D01*
X579937Y339160D01*
X579688Y339150D01*
X579526Y339128D01*
X579363Y339115D01*
X579118Y339072D01*
X578872Y339038D01*
X578713Y339000D01*
X578552Y338972D01*
X578312Y338905D01*
X578070Y338848D01*
X577915Y338795D01*
X577758Y338751D01*
X577525Y338661D01*
X577290Y338580D01*
X577141Y338512D01*
X576989Y338453D01*
X576766Y338342D01*
X576540Y338238D01*
X576398Y338156D01*
X576252Y338083D01*
X576042Y337950D01*
X575826Y337826D01*
X575693Y337730D01*
X575555Y337643D01*
X575359Y337491D01*
X575156Y337346D01*
X575033Y337238D01*
X574904Y337138D01*
X574723Y336967D01*
X574536Y336803D01*
X574423Y336684D01*
X574305Y336572D01*
X574141Y336384D01*
X573970Y336203D01*
X573870Y336073D01*
X573763Y335950D01*
X573619Y335748D01*
X573466Y335551D01*
X573379Y335412D01*
X573284Y335279D01*
X573160Y335063D01*
X573028Y334853D01*
X572954Y334707D01*
X572873Y334565D01*
X572770Y334338D01*
X572659Y334116D01*
X572600Y333963D01*
X572532Y333814D01*
X572452Y333578D01*
X572363Y333346D01*
X572319Y333189D01*
X572266Y333034D01*
X572209Y332791D01*
X572143Y332552D01*
X572115Y332391D01*
X572077Y332231D01*
X572044Y331985D01*
X572001Y331740D01*
X571988Y331577D01*
X571966Y331415D01*
X571957Y331166D01*
X571938Y330918D01*
X571942Y330754D01*
X571935Y330591D01*
X571950Y330342D01*
X571955Y330093D01*
X571975Y329931D01*
X571984Y329768D01*
X572023Y329522D01*
X572052Y329275D01*
X572087Y329115D01*
X572113Y328954D01*
X572175Y328712D01*
X572228Y328470D01*
X572279Y328314D01*
X572320Y328156D01*
X572405Y327922D01*
X572481Y327685D01*
X572547Y327535D01*
X572603Y327381D01*
X572710Y327157D01*
X572809Y326929D01*
X572889Y326785D01*
X572959Y326638D01*
X573088Y326425D01*
X573209Y326208D01*
X573302Y326073D01*
X573386Y325933D01*
X573535Y325734D01*
X573677Y325529D01*
X573759Y325435D01*
X573880Y325273D01*
X574401Y324700D01*
X574424Y324674D01*
X604836Y294262D01*
X604837Y294262D01*
X610567Y288532D01*
X613021Y282607D01*
X613021Y234052D01*
X613037Y233718D01*
X613047Y233384D01*
X613057Y233307D01*
X613061Y233229D01*
X613109Y232898D01*
X613152Y232566D01*
X613169Y232490D01*
X613180Y232413D01*
X613261Y232088D01*
X613335Y231763D01*
X613360Y231689D01*
X613378Y231613D01*
X613490Y231297D01*
X613595Y230980D01*
X613627Y230909D01*
X613653Y230836D01*
X613794Y230532D01*
X613801Y230518D01*
X613801Y203200D01*
X613801Y182637D01*
X613761Y182635D01*
X613446Y182629D01*
X613349Y182617D01*
X613252Y182613D01*
X612940Y182569D01*
X612627Y182532D01*
X612532Y182511D01*
X612435Y182497D01*
X612130Y182423D01*
X611822Y182356D01*
X611729Y182326D01*
X611634Y182303D01*
X611337Y182199D01*
X611037Y182103D01*
X610948Y182064D01*
X610856Y182032D01*
X610570Y181900D01*
X610281Y181775D01*
X610196Y181727D01*
X610107Y181687D01*
X609835Y181527D01*
X609560Y181375D01*
X609480Y181320D01*
X609396Y181270D01*
X609140Y181086D01*
X608881Y180907D01*
X608822Y180856D01*
X608728Y180787D01*
X608110Y180242D01*
X608062Y180191D01*
X608026Y180160D01*
X606109Y178242D01*
X600134Y175767D01*
X593786Y175767D01*
X593472Y175752D01*
X593157Y175744D01*
X593060Y175732D01*
X592963Y175727D01*
X592651Y175682D01*
X592339Y175643D01*
X592244Y175622D01*
X592147Y175608D01*
X591841Y175532D01*
X591534Y175464D01*
X591441Y175433D01*
X591347Y175410D01*
X591049Y175305D01*
X590751Y175207D01*
X590662Y175168D01*
X590570Y175135D01*
X590284Y175002D01*
X589996Y174875D01*
X589911Y174828D01*
X589823Y174787D01*
X589551Y174626D01*
X589277Y174472D01*
X589197Y174417D01*
X589113Y174367D01*
X588859Y174182D01*
X588600Y174002D01*
X588526Y173939D01*
X588447Y173881D01*
X588212Y173672D01*
X587972Y173468D01*
X587904Y173398D01*
X587831Y173333D01*
X587618Y173102D01*
X587399Y172875D01*
X587338Y172799D01*
X587272Y172727D01*
X587082Y172477D01*
X586886Y172230D01*
X586833Y172148D01*
X586774Y172071D01*
X586609Y171802D01*
X586437Y171538D01*
X586403Y171468D01*
X586341Y171369D01*
X585979Y170628D01*
X585955Y170564D01*
X585934Y170520D01*
X585166Y168668D01*
X543120Y126622D01*
X542921Y126403D01*
X542717Y126190D01*
X542645Y126098D01*
X542566Y126011D01*
X542390Y125774D01*
X542207Y125543D01*
X542144Y125444D01*
X542074Y125350D01*
X541921Y125097D01*
X541762Y124849D01*
X541709Y124745D01*
X541648Y124644D01*
X541521Y124378D01*
X541386Y124115D01*
X541343Y124006D01*
X541293Y123901D01*
X541192Y123623D01*
X541083Y123348D01*
X541051Y123236D01*
X541011Y123126D01*
X540937Y122839D01*
X540856Y122556D01*
X540835Y122441D01*
X540806Y122328D01*
X540760Y122035D01*
X540707Y121745D01*
X540700Y121653D01*
X540679Y121513D01*
X540631Y120690D01*
X540633Y120644D01*
X540631Y120612D01*
X540631Y116118D01*
X540635Y116033D01*
X540632Y115947D01*
X540655Y115621D01*
X540671Y115295D01*
X540683Y115210D01*
X540689Y115125D01*
X540743Y114803D01*
X540790Y114479D01*
X540811Y114396D01*
X540825Y114312D01*
X540910Y113996D01*
X540988Y113679D01*
X541017Y113598D01*
X541039Y113516D01*
X541154Y113210D01*
X541263Y112902D01*
X541299Y112824D01*
X541329Y112744D01*
X541473Y112451D01*
X541611Y112155D01*
X541655Y112081D01*
X541693Y112004D01*
X541864Y111727D01*
X542031Y111445D01*
X542081Y111376D01*
X542126Y111303D01*
X542324Y111043D01*
X542517Y110779D01*
X542574Y110715D01*
X542626Y110647D01*
X542848Y110408D01*
X543065Y110164D01*
X543128Y110106D01*
X543186Y110043D01*
X543431Y109825D01*
X543671Y109604D01*
X543739Y109553D01*
X543803Y109496D01*
X544068Y109303D01*
X544327Y109106D01*
X544400Y109061D01*
X544470Y109011D01*
X544752Y108845D01*
X545029Y108674D01*
X545106Y108636D01*
X545180Y108593D01*
X545477Y108455D01*
X545770Y108311D01*
X545850Y108281D01*
X545928Y108245D01*
X546236Y108137D01*
X546542Y108023D01*
X546625Y108001D01*
X546705Y107972D01*
X547022Y107894D01*
X547338Y107810D01*
X547423Y107796D01*
X547506Y107776D01*
X547829Y107729D01*
X548152Y107676D01*
X548237Y107670D01*
X548322Y107658D01*
X548649Y107642D01*
X548974Y107620D01*
X549059Y107623D01*
X549145Y107619D01*
X549472Y107635D01*
X549798Y107645D01*
X549883Y107656D01*
X549969Y107660D01*
X550292Y107708D01*
X550301Y107710D01*
X550301Y88900D01*
X550301Y70099D01*
X550278Y70103D01*
X550193Y70110D01*
X550108Y70124D01*
X549783Y70146D01*
X549457Y70175D01*
X549371Y70174D01*
X549286Y70180D01*
X548959Y70170D01*
X548633Y70166D01*
X548548Y70157D01*
X548462Y70155D01*
X548138Y70113D01*
X547813Y70078D01*
X547729Y70061D01*
X547644Y70050D01*
X547326Y69978D01*
X547006Y69911D01*
X546924Y69886D01*
X546841Y69867D01*
X546530Y69764D01*
X546219Y69667D01*
X546140Y69634D01*
X546058Y69607D01*
X545760Y69474D01*
X545459Y69347D01*
X545383Y69307D01*
X545305Y69272D01*
X545021Y69111D01*
X544733Y68955D01*
X544662Y68908D01*
X544588Y68865D01*
X544321Y68678D01*
X544049Y68495D01*
X543983Y68441D01*
X543913Y68392D01*
X543666Y68180D01*
X543413Y67971D01*
X543353Y67910D01*
X543288Y67855D01*
X543062Y67620D01*
X542831Y67388D01*
X542776Y67321D01*
X542717Y67260D01*
X542515Y67003D01*
X542308Y66751D01*
X542260Y66680D01*
X542207Y66612D01*
X542030Y66336D01*
X541849Y66066D01*
X541808Y65991D01*
X541762Y65918D01*
X541613Y65627D01*
X541458Y65340D01*
X541425Y65261D01*
X541386Y65185D01*
X541266Y64881D01*
X541140Y64580D01*
X541115Y64498D01*
X541083Y64418D01*
X540993Y64104D01*
X540897Y63792D01*
X540880Y63708D01*
X540856Y63626D01*
X540797Y63305D01*
X540731Y62984D01*
X540722Y62899D01*
X540707Y62815D01*
X540695Y62644D01*
X540644Y62165D01*
X540642Y61847D01*
X540631Y61682D01*
X540631Y59023D01*
X538177Y53098D01*
X522212Y37133D01*
X516287Y34679D01*
X481933Y34679D01*
X476008Y37133D01*
X458773Y54368D01*
X456319Y60293D01*
X456319Y64280D01*
X456303Y64614D01*
X456293Y64948D01*
X456283Y65025D01*
X456279Y65103D01*
X456231Y65434D01*
X456188Y65766D01*
X456171Y65842D01*
X456160Y65919D01*
X456079Y66244D01*
X456005Y66569D01*
X455980Y66643D01*
X455962Y66719D01*
X455850Y67035D01*
X455745Y67352D01*
X455713Y67423D01*
X455687Y67496D01*
X455546Y67800D01*
X455410Y68105D01*
X455372Y68173D01*
X455339Y68243D01*
X455168Y68532D01*
X455004Y68822D01*
X454959Y68886D01*
X454919Y68953D01*
X454722Y69224D01*
X454530Y69497D01*
X454479Y69556D01*
X454433Y69619D01*
X454210Y69869D01*
X453993Y70122D01*
X453937Y70176D01*
X453885Y70235D01*
X453639Y70462D01*
X453398Y70693D01*
X453337Y70741D01*
X453279Y70794D01*
X453014Y70996D01*
X452751Y71203D01*
X452685Y71245D01*
X452623Y71292D01*
X452338Y71467D01*
X452057Y71648D01*
X451987Y71684D01*
X451921Y71725D01*
X451621Y71871D01*
X451323Y72024D01*
X451250Y72053D01*
X451180Y72087D01*
X450867Y72204D01*
X450556Y72327D01*
X450481Y72348D01*
X450408Y72376D01*
X450085Y72462D01*
X449764Y72554D01*
X449687Y72568D01*
X449612Y72588D01*
X449282Y72643D01*
X448953Y72703D01*
X448890Y72708D01*
X448798Y72723D01*
X447976Y72778D01*
X447883Y72775D01*
X447820Y72779D01*
X404463Y72779D01*
X398538Y75233D01*
X374953Y98818D01*
X372499Y104743D01*
X372499Y135287D01*
X373240Y137076D01*
X373333Y137335D01*
X373435Y137592D01*
X373472Y137723D01*
X373518Y137852D01*
X373586Y138119D01*
X373662Y138384D01*
X373687Y138518D01*
X373720Y138651D01*
X373761Y138924D01*
X373811Y139195D01*
X373819Y139301D01*
X373843Y139466D01*
X373887Y140289D01*
X373886Y140312D01*
X373887Y140328D01*
X373887Y144663D01*
X376130Y150077D01*
X380275Y154222D01*
X385689Y156465D01*
X391940Y156465D01*
X392274Y156481D01*
X392608Y156491D01*
X392685Y156501D01*
X392763Y156505D01*
X393094Y156553D01*
X393426Y156596D01*
X393502Y156613D01*
X393579Y156624D01*
X393904Y156705D01*
X394229Y156779D01*
X394303Y156804D01*
X394379Y156822D01*
X394695Y156934D01*
X395012Y157039D01*
X395083Y157071D01*
X395156Y157097D01*
X395460Y157238D01*
X395765Y157374D01*
X395833Y157412D01*
X395903Y157445D01*
X396192Y157616D01*
X396482Y157780D01*
X396546Y157825D01*
X396613Y157865D01*
X396884Y158062D01*
X397157Y158254D01*
X397216Y158305D01*
X397279Y158351D01*
X397529Y158574D01*
X397782Y158791D01*
X397836Y158847D01*
X397895Y158899D01*
X398122Y159145D01*
X398353Y159386D01*
X398401Y159447D01*
X398454Y159505D01*
X398656Y159770D01*
X398863Y160033D01*
X398905Y160099D01*
X398952Y160161D01*
X399127Y160446D01*
X399308Y160727D01*
X399344Y160797D01*
X399385Y160863D01*
X399531Y161163D01*
X399684Y161461D01*
X399713Y161534D01*
X399747Y161604D01*
X399864Y161917D01*
X399987Y162228D01*
X400008Y162303D01*
X400036Y162376D01*
X400122Y162699D01*
X400214Y163020D01*
X400228Y163097D01*
X400248Y163172D01*
X400303Y163502D01*
X400363Y163831D01*
X400368Y163894D01*
X400383Y163986D01*
X400438Y164808D01*
X400435Y164901D01*
X400439Y164964D01*
X400439Y178467D01*
X402893Y184392D01*
X425754Y207252D01*
X425953Y207471D01*
X426157Y207684D01*
X426229Y207776D01*
X426308Y207863D01*
X426484Y208100D01*
X426667Y208331D01*
X426730Y208430D01*
X426800Y208524D01*
X426953Y208777D01*
X427112Y209025D01*
X427165Y209129D01*
X427226Y209230D01*
X427353Y209496D01*
X427488Y209759D01*
X427531Y209868D01*
X427581Y209973D01*
X427682Y210251D01*
X427791Y210526D01*
X427823Y210638D01*
X427863Y210748D01*
X427937Y211035D01*
X428018Y211318D01*
X428039Y211433D01*
X428068Y211547D01*
X428114Y211839D01*
X428167Y212129D01*
X428174Y212221D01*
X428195Y212361D01*
X428243Y213184D01*
X428241Y213230D01*
X428243Y213262D01*
X428243Y217610D01*
X430718Y223585D01*
X435291Y228158D01*
X441266Y230633D01*
X445280Y230633D01*
X445614Y230649D01*
X445948Y230659D01*
X446025Y230669D01*
X446103Y230673D01*
X446434Y230721D01*
X446766Y230764D01*
X446842Y230781D01*
X446919Y230792D01*
X447244Y230873D01*
X447569Y230947D01*
X447643Y230972D01*
X447719Y230990D01*
X448035Y231102D01*
X448352Y231207D01*
X448423Y231239D01*
X448496Y231265D01*
X448800Y231406D01*
X449105Y231542D01*
X449173Y231580D01*
X449243Y231613D01*
X449532Y231784D01*
X449822Y231948D01*
X449886Y231993D01*
X449953Y232033D01*
X450224Y232230D01*
X450497Y232422D01*
X450556Y232473D01*
X450619Y232519D01*
X450869Y232742D01*
X451122Y232959D01*
X451176Y233015D01*
X451235Y233067D01*
X451462Y233313D01*
X451693Y233554D01*
X451741Y233615D01*
X451794Y233673D01*
X451996Y233938D01*
X452203Y234201D01*
X452245Y234267D01*
X452292Y234329D01*
X452467Y234614D01*
X452648Y234895D01*
X452684Y234965D01*
X452725Y235031D01*
X452871Y235331D01*
X453024Y235629D01*
X453053Y235702D01*
X453087Y235772D01*
X453204Y236085D01*
X453327Y236396D01*
X453348Y236471D01*
X453376Y236544D01*
X453462Y236867D01*
X453554Y237188D01*
X453568Y237265D01*
X453588Y237340D01*
X453643Y237670D01*
X453703Y237999D01*
X453708Y238062D01*
X453723Y238154D01*
X453778Y238976D01*
X453775Y239069D01*
X453779Y239132D01*
X453779Y288584D01*
X456233Y294509D01*
X484211Y322486D01*
X484378Y322670D01*
X484552Y322848D01*
X484655Y322976D01*
X484765Y323097D01*
X484913Y323296D01*
X485070Y323490D01*
X485159Y323627D01*
X485257Y323758D01*
X485386Y323971D01*
X485522Y324179D01*
X485598Y324324D01*
X485683Y324464D01*
X485790Y324688D01*
X485906Y324909D01*
X485968Y325060D01*
X486038Y325207D01*
X486123Y325441D01*
X486217Y325672D01*
X486264Y325829D01*
X486320Y325982D01*
X486382Y326223D01*
X486453Y326462D01*
X486485Y326622D01*
X486525Y326781D01*
X486564Y327027D01*
X486611Y327271D01*
X486627Y327434D01*
X486652Y327595D01*
X486667Y327844D01*
X486691Y328091D01*
X486690Y328255D01*
X486700Y328418D01*
X486690Y328667D01*
X486690Y328916D01*
X486674Y329078D01*
X486667Y329242D01*
X486634Y329488D01*
X486609Y329736D01*
X486578Y329896D01*
X486555Y330058D01*
X486498Y330301D01*
X486450Y330545D01*
X486402Y330701D01*
X486365Y330860D01*
X486284Y331096D01*
X486212Y331334D01*
X486150Y331485D01*
X486097Y331640D01*
X485994Y331867D01*
X485900Y332097D01*
X485823Y332242D01*
X485755Y332390D01*
X485631Y332606D01*
X485515Y332826D01*
X485425Y332962D01*
X485343Y333104D01*
X485198Y333306D01*
X485061Y333514D01*
X484958Y333641D01*
X484863Y333774D01*
X484699Y333961D01*
X484542Y334155D01*
X484428Y334272D01*
X484320Y334395D01*
X484139Y334565D01*
X483964Y334743D01*
X483839Y334848D01*
X483720Y334960D01*
X483523Y335112D01*
X483332Y335272D01*
X483197Y335364D01*
X483068Y335464D01*
X482857Y335596D01*
X482651Y335737D01*
X482508Y335816D01*
X482370Y335903D01*
X482147Y336014D01*
X481929Y336134D01*
X481779Y336198D01*
X481633Y336272D01*
X481401Y336361D01*
X481172Y336459D01*
X481016Y336509D01*
X480863Y336567D01*
X480623Y336634D01*
X480386Y336710D01*
X480226Y336744D01*
X480069Y336787D01*
X479823Y336830D01*
X479580Y336883D01*
X479418Y336901D01*
X479257Y336929D01*
X479008Y336948D01*
X478761Y336977D01*
X478598Y336980D01*
X478435Y336992D01*
X478186Y336987D01*
X477937Y336991D01*
X477774Y336978D01*
X477611Y336975D01*
X477364Y336945D01*
X477115Y336926D01*
X476993Y336901D01*
X476792Y336878D01*
X476036Y336712D01*
X476001Y336706D01*
X475418Y336549D01*
X464382Y336549D01*
X453723Y339405D01*
X444166Y344923D01*
X436363Y352726D01*
X434571Y355831D01*
X434436Y356040D01*
X434309Y356255D01*
X434213Y356386D01*
X434124Y356524D01*
X433970Y356720D01*
X433823Y356920D01*
X433714Y357042D01*
X433613Y357171D01*
X433440Y357350D01*
X433275Y357536D01*
X433155Y357647D01*
X433041Y357765D01*
X432852Y357927D01*
X432669Y358095D01*
X432539Y358194D01*
X432415Y358300D01*
X432211Y358443D01*
X432013Y358594D01*
X431873Y358679D01*
X431739Y358773D01*
X431523Y358895D01*
X431311Y359026D01*
X431164Y359098D01*
X431021Y359178D01*
X430794Y359279D01*
X430570Y359388D01*
X430417Y359445D01*
X430268Y359512D01*
X430031Y359590D01*
X429798Y359677D01*
X429640Y359719D01*
X429485Y359770D01*
X429242Y359825D01*
X429002Y359890D01*
X428841Y359916D01*
X428681Y359952D01*
X428434Y359984D01*
X428188Y360024D01*
X428025Y360035D01*
X427863Y360055D01*
X427614Y360063D01*
X427366Y360079D01*
X427203Y360074D01*
X427039Y360079D01*
X426791Y360062D01*
X426542Y360054D01*
X426380Y360034D01*
X426217Y360022D01*
X425971Y359981D01*
X425724Y359950D01*
X425565Y359913D01*
X425404Y359886D01*
X425163Y359822D01*
X424921Y359766D01*
X424765Y359715D01*
X424608Y359672D01*
X424375Y359585D01*
X424138Y359506D01*
X423989Y359440D01*
X423836Y359382D01*
X423613Y359273D01*
X423385Y359171D01*
X423243Y359091D01*
X423096Y359019D01*
X422884Y358888D01*
X422668Y358765D01*
X422534Y358671D01*
X422395Y358585D01*
X422197Y358434D01*
X421993Y358291D01*
X421870Y358185D01*
X421739Y358086D01*
X421556Y357916D01*
X421368Y357754D01*
X421255Y357636D01*
X421135Y357525D01*
X420969Y357339D01*
X420797Y357159D01*
X420696Y357031D01*
X420588Y356909D01*
X420441Y356707D01*
X420287Y356512D01*
X420199Y356374D01*
X420103Y356242D01*
X419976Y356028D01*
X419842Y355818D01*
X419767Y355672D01*
X419685Y355532D01*
X419580Y355306D01*
X419466Y355084D01*
X419406Y354932D01*
X419337Y354784D01*
X419255Y354549D01*
X419163Y354318D01*
X419118Y354161D01*
X419064Y354006D01*
X419005Y353764D01*
X418936Y353525D01*
X418906Y353365D01*
X418867Y353206D01*
X418832Y352959D01*
X418787Y352715D01*
X418778Y352590D01*
X418749Y352390D01*
X418713Y351616D01*
X418711Y351581D01*
X418711Y348583D01*
X416257Y342658D01*
X361510Y287912D01*
X361311Y287693D01*
X361107Y287480D01*
X361035Y287388D01*
X360956Y287301D01*
X360780Y287064D01*
X360597Y286833D01*
X360534Y286734D01*
X360464Y286640D01*
X360311Y286387D01*
X360152Y286139D01*
X360099Y286035D01*
X360038Y285934D01*
X359911Y285668D01*
X359776Y285405D01*
X359733Y285296D01*
X359683Y285191D01*
X359582Y284913D01*
X359473Y284638D01*
X359441Y284526D01*
X359401Y284416D01*
X359327Y284129D01*
X359246Y283846D01*
X359225Y283731D01*
X359196Y283617D01*
X359150Y283325D01*
X359097Y283035D01*
X359090Y282943D01*
X359069Y282803D01*
X359021Y281980D01*
X359023Y281934D01*
X359021Y281902D01*
X359021Y234052D01*
X359037Y233718D01*
X359047Y233384D01*
X359057Y233307D01*
X359061Y233229D01*
X359109Y232898D01*
X359152Y232566D01*
X359169Y232490D01*
X359180Y232413D01*
X359261Y232088D01*
X359335Y231763D01*
X359360Y231689D01*
X359378Y231613D01*
X359490Y231297D01*
X359595Y230980D01*
X359627Y230909D01*
X359653Y230836D01*
X359794Y230532D01*
X359801Y230518D01*
X359801Y203200D01*
X359801Y182637D01*
X359761Y182635D01*
X359446Y182629D01*
X359349Y182617D01*
X359252Y182613D01*
X358940Y182569D01*
X358627Y182532D01*
X358532Y182511D01*
X358435Y182497D01*
X358130Y182423D01*
X357822Y182356D01*
X357729Y182326D01*
X357634Y182303D01*
X357337Y182199D01*
X357037Y182103D01*
X356948Y182064D01*
X356856Y182032D01*
X356570Y181900D01*
X356281Y181775D01*
X356196Y181727D01*
X356107Y181687D01*
X355835Y181527D01*
X355560Y181375D01*
X355480Y181320D01*
X355396Y181270D01*
X355140Y181086D01*
X354881Y180907D01*
X354822Y180856D01*
X354728Y180787D01*
X354110Y180242D01*
X354062Y180191D01*
X354026Y180160D01*
X352109Y178242D01*
X346134Y175767D01*
X342120Y175767D01*
X341786Y175751D01*
X341452Y175741D01*
X341375Y175731D01*
X341297Y175727D01*
X340966Y175679D01*
X340634Y175636D01*
X340558Y175619D01*
X340481Y175608D01*
X340156Y175527D01*
X339831Y175453D01*
X339757Y175428D01*
X339681Y175410D01*
X339365Y175298D01*
X339048Y175193D01*
X338977Y175161D01*
X338904Y175135D01*
X338600Y174994D01*
X338295Y174858D01*
X338227Y174820D01*
X338157Y174787D01*
X337868Y174616D01*
X337578Y174452D01*
X337514Y174407D01*
X337447Y174367D01*
X337176Y174170D01*
X336903Y173978D01*
X336844Y173927D01*
X336781Y173881D01*
X336531Y173658D01*
X336278Y173441D01*
X336224Y173385D01*
X336165Y173333D01*
X335938Y173087D01*
X335707Y172846D01*
X335659Y172785D01*
X335606Y172727D01*
X335404Y172462D01*
X335197Y172199D01*
X335155Y172133D01*
X335108Y172071D01*
X334933Y171786D01*
X334752Y171505D01*
X334716Y171435D01*
X334675Y171369D01*
X334529Y171069D01*
X334376Y170771D01*
X334347Y170698D01*
X334313Y170628D01*
X334196Y170315D01*
X334073Y170004D01*
X334052Y169929D01*
X334024Y169856D01*
X333938Y169533D01*
X333846Y169212D01*
X333832Y169135D01*
X333812Y169060D01*
X333757Y168730D01*
X333697Y168401D01*
X333692Y168338D01*
X333677Y168246D01*
X333622Y167424D01*
X333625Y167331D01*
X333621Y167268D01*
X333621Y164263D01*
X333636Y163949D01*
X333644Y163634D01*
X333656Y163537D01*
X333661Y163439D01*
X333706Y163127D01*
X333745Y162815D01*
X333766Y162720D01*
X333780Y162624D01*
X333856Y162318D01*
X333924Y162011D01*
X333955Y161918D01*
X333978Y161824D01*
X334083Y161527D01*
X334181Y161228D01*
X334220Y161138D01*
X334253Y161046D01*
X334386Y160761D01*
X334513Y160473D01*
X334560Y160388D01*
X334601Y160299D01*
X334762Y160028D01*
X334916Y159754D01*
X334971Y159674D01*
X335021Y159590D01*
X335206Y159336D01*
X335386Y159077D01*
X335449Y159002D01*
X335507Y158924D01*
X335716Y158689D01*
X335920Y158449D01*
X335990Y158381D01*
X336055Y158308D01*
X336286Y158095D01*
X336513Y157876D01*
X336589Y157815D01*
X336661Y157749D01*
X336911Y157559D01*
X337158Y157362D01*
X337240Y157309D01*
X337317Y157251D01*
X337585Y157086D01*
X337850Y156914D01*
X337920Y156880D01*
X338019Y156818D01*
X338760Y156456D01*
X338824Y156432D01*
X338867Y156410D01*
X341085Y155492D01*
X345230Y151347D01*
X347473Y145933D01*
X347473Y141598D01*
X347486Y141323D01*
X347491Y141047D01*
X347506Y140911D01*
X347513Y140775D01*
X347553Y140501D01*
X347584Y140228D01*
X347612Y140094D01*
X347632Y139959D01*
X347699Y139691D01*
X347756Y139422D01*
X347790Y139321D01*
X347830Y139159D01*
X348105Y138382D01*
X348115Y138361D01*
X348120Y138346D01*
X348861Y136557D01*
X348861Y130143D01*
X348120Y128354D01*
X348027Y128095D01*
X347925Y127838D01*
X347888Y127707D01*
X347842Y127578D01*
X347774Y127311D01*
X347698Y127046D01*
X347673Y126912D01*
X347640Y126779D01*
X347599Y126506D01*
X347549Y126235D01*
X347541Y126129D01*
X347517Y125964D01*
X347473Y125141D01*
X347474Y125118D01*
X347473Y125102D01*
X347473Y120767D01*
X345230Y115353D01*
X341085Y111208D01*
X335671Y108965D01*
X329809Y108965D01*
X324395Y111208D01*
X322730Y112873D01*
X322453Y113124D01*
X322179Y113377D01*
X322148Y113401D01*
X322119Y113427D01*
X321819Y113650D01*
X321523Y113875D01*
X321489Y113896D01*
X321458Y113919D01*
X321139Y114112D01*
X320821Y114308D01*
X320786Y114325D01*
X320752Y114345D01*
X320416Y114506D01*
X320080Y114670D01*
X320044Y114683D01*
X320009Y114700D01*
X319658Y114828D01*
X319308Y114959D01*
X319270Y114969D01*
X319234Y114982D01*
X318874Y115075D01*
X318512Y115171D01*
X318473Y115178D01*
X318435Y115187D01*
X318069Y115245D01*
X317698Y115306D01*
X317659Y115308D01*
X317621Y115314D01*
X317248Y115336D01*
X316876Y115361D01*
X316837Y115360D01*
X316798Y115362D01*
X316425Y115347D01*
X316052Y115336D01*
X316013Y115331D01*
X315974Y115330D01*
X315605Y115279D01*
X315234Y115231D01*
X315196Y115223D01*
X315158Y115217D01*
X314795Y115131D01*
X314431Y115048D01*
X314393Y115036D01*
X314356Y115027D01*
X314003Y114906D01*
X313648Y114788D01*
X313613Y114772D01*
X313576Y114759D01*
X313236Y114605D01*
X312895Y114453D01*
X312861Y114434D01*
X312826Y114418D01*
X312502Y114230D01*
X312178Y114047D01*
X312146Y114024D01*
X312112Y114005D01*
X311807Y113786D01*
X311503Y113573D01*
X311474Y113548D01*
X311442Y113525D01*
X311160Y113278D01*
X310878Y113036D01*
X310851Y113008D01*
X310821Y112982D01*
X310565Y112710D01*
X310307Y112441D01*
X310283Y112410D01*
X310256Y112382D01*
X310028Y112087D01*
X309797Y111794D01*
X309776Y111761D01*
X309752Y111730D01*
X309554Y111414D01*
X309352Y111100D01*
X309334Y111065D01*
X309313Y111032D01*
X309146Y110697D01*
X308976Y110366D01*
X308962Y110330D01*
X308944Y110295D01*
X308810Y109945D01*
X308673Y109599D01*
X308663Y109562D01*
X308648Y109525D01*
X308549Y109165D01*
X308446Y108807D01*
X308439Y108768D01*
X308429Y108731D01*
X308364Y108364D01*
X308297Y107996D01*
X308294Y107964D01*
X308287Y107919D01*
X308224Y107097D01*
X308227Y106956D01*
X308221Y106863D01*
X308221Y72890D01*
X308218Y72881D01*
X308150Y72614D01*
X308074Y72349D01*
X308049Y72214D01*
X308016Y72082D01*
X307975Y71809D01*
X307925Y71538D01*
X307917Y71432D01*
X307893Y71267D01*
X307849Y70444D01*
X307850Y70421D01*
X307849Y70405D01*
X307849Y62399D01*
X305451Y56611D01*
X301021Y52181D01*
X295233Y49783D01*
X288967Y49783D01*
X282653Y52399D01*
X282375Y52498D01*
X282099Y52606D01*
X281987Y52638D01*
X281877Y52677D01*
X281590Y52749D01*
X281306Y52829D01*
X281191Y52850D01*
X281077Y52879D01*
X280785Y52923D01*
X280495Y52975D01*
X280378Y52985D01*
X280262Y53002D01*
X279967Y53018D01*
X279673Y53042D01*
X279556Y53040D01*
X279439Y53046D01*
X279144Y53033D01*
X278849Y53028D01*
X278733Y53015D01*
X278615Y53010D01*
X278323Y52968D01*
X278030Y52935D01*
X277915Y52910D01*
X277799Y52894D01*
X277512Y52824D01*
X277223Y52762D01*
X277136Y52733D01*
X276998Y52699D01*
X276220Y52428D01*
X276178Y52409D01*
X276148Y52399D01*
X269833Y49783D01*
X263567Y49783D01*
X257779Y52181D01*
X253349Y56611D01*
X250951Y62399D01*
X250951Y70405D01*
X250938Y70680D01*
X250933Y70956D01*
X250918Y71092D01*
X250911Y71228D01*
X250871Y71501D01*
X250840Y71775D01*
X250812Y71909D01*
X250792Y72044D01*
X250726Y72311D01*
X250668Y72581D01*
X250634Y72682D01*
X250594Y72844D01*
X250579Y72885D01*
X250579Y179253D01*
X250561Y179625D01*
X250546Y179999D01*
X250541Y180037D01*
X250539Y180076D01*
X250485Y180447D01*
X250434Y180816D01*
X250425Y180853D01*
X250420Y180892D01*
X250330Y181253D01*
X250244Y181618D01*
X250231Y181654D01*
X250222Y181692D01*
X250097Y182046D01*
X249976Y182397D01*
X249960Y182433D01*
X249947Y182470D01*
X249789Y182809D01*
X249635Y183147D01*
X249615Y183181D01*
X249599Y183217D01*
X249409Y183538D01*
X249222Y183861D01*
X249199Y183893D01*
X249179Y183926D01*
X248959Y184228D01*
X248742Y184531D01*
X248716Y184560D01*
X248693Y184592D01*
X248444Y184871D01*
X248199Y185152D01*
X248171Y185178D01*
X248145Y185208D01*
X247871Y185461D01*
X247599Y185717D01*
X247568Y185741D01*
X247539Y185767D01*
X247243Y185992D01*
X246947Y186221D01*
X246914Y186242D01*
X246883Y186265D01*
X246565Y186461D01*
X246249Y186660D01*
X246214Y186677D01*
X246181Y186698D01*
X245846Y186862D01*
X245512Y187029D01*
X245475Y187043D01*
X245440Y187060D01*
X245091Y187191D01*
X244742Y187325D01*
X244705Y187335D01*
X244668Y187349D01*
X244307Y187445D01*
X243948Y187545D01*
X243910Y187551D01*
X243872Y187561D01*
X243503Y187622D01*
X243136Y187686D01*
X243097Y187689D01*
X243058Y187696D01*
X242687Y187721D01*
X242314Y187749D01*
X242275Y187748D01*
X242236Y187751D01*
X241862Y187740D01*
X241490Y187732D01*
X241451Y187727D01*
X241412Y187726D01*
X241042Y187679D01*
X240671Y187635D01*
X240633Y187626D01*
X240594Y187621D01*
X240230Y187538D01*
X239866Y187459D01*
X239829Y187447D01*
X239791Y187438D01*
X239436Y187320D01*
X239081Y187206D01*
X239045Y187190D01*
X239008Y187178D01*
X238666Y187026D01*
X238325Y186878D01*
X238291Y186859D01*
X238255Y186843D01*
X237931Y186659D01*
X237604Y186478D01*
X237571Y186456D01*
X237538Y186437D01*
X237234Y186224D01*
X236925Y186010D01*
X236901Y185989D01*
X236863Y185963D01*
X236238Y185426D01*
X236140Y185324D01*
X236070Y185263D01*
X235675Y184868D01*
X230261Y182625D01*
X224399Y182625D01*
X218985Y184868D01*
X215453Y188400D01*
X215234Y188599D01*
X215021Y188803D01*
X214929Y188875D01*
X214842Y188954D01*
X214605Y189130D01*
X214373Y189313D01*
X214275Y189376D01*
X214181Y189446D01*
X213928Y189599D01*
X213680Y189758D01*
X213575Y189811D01*
X213475Y189872D01*
X213209Y189999D01*
X212946Y190134D01*
X212837Y190177D01*
X212731Y190227D01*
X212454Y190328D01*
X212179Y190437D01*
X212067Y190469D01*
X211957Y190509D01*
X211670Y190583D01*
X211387Y190664D01*
X211272Y190685D01*
X211158Y190714D01*
X210866Y190760D01*
X210576Y190813D01*
X210484Y190820D01*
X210344Y190841D01*
X209521Y190889D01*
X209475Y190887D01*
X209443Y190889D01*
X204508Y190889D01*
X204213Y190875D01*
X203918Y190869D01*
X203802Y190855D01*
X203685Y190849D01*
X203392Y190806D01*
X203099Y190772D01*
X202985Y190747D01*
X202869Y190730D01*
X202582Y190659D01*
X202294Y190596D01*
X202182Y190560D01*
X202069Y190532D01*
X201790Y190433D01*
X201509Y190343D01*
X201402Y190296D01*
X201291Y190257D01*
X201024Y190132D01*
X200753Y190015D01*
X200650Y189958D01*
X200544Y189909D01*
X200290Y189758D01*
X200032Y189615D01*
X199936Y189549D01*
X199835Y189489D01*
X199597Y189315D01*
X199353Y189148D01*
X199283Y189086D01*
X199169Y189003D01*
X198553Y188455D01*
X198522Y188421D01*
X198498Y188400D01*
X187783Y177685D01*
X187584Y177466D01*
X187380Y177253D01*
X187308Y177161D01*
X187229Y177074D01*
X187053Y176837D01*
X186870Y176606D01*
X186807Y176507D01*
X186737Y176413D01*
X186584Y176160D01*
X186425Y175912D01*
X186372Y175808D01*
X186311Y175707D01*
X186184Y175441D01*
X186049Y175178D01*
X186006Y175069D01*
X185956Y174964D01*
X185855Y174686D01*
X185746Y174411D01*
X185714Y174299D01*
X185674Y174189D01*
X185600Y173902D01*
X185519Y173619D01*
X185498Y173504D01*
X185469Y173390D01*
X185423Y173098D01*
X185370Y172808D01*
X185363Y172716D01*
X185342Y172576D01*
X185308Y171993D01*
X185295Y171802D01*
X185296Y171782D01*
X185294Y171753D01*
X185296Y171707D01*
X185294Y171675D01*
X185294Y169841D01*
X182993Y164286D01*
X178741Y160034D01*
X173186Y157733D01*
X167174Y157733D01*
X161619Y160034D01*
X159289Y162364D01*
X159255Y162395D01*
X159223Y162429D01*
X158950Y162672D01*
X158679Y162918D01*
X158641Y162946D01*
X158606Y162977D01*
X158311Y163191D01*
X158017Y163410D01*
X157977Y163434D01*
X157940Y163462D01*
X157625Y163646D01*
X157311Y163836D01*
X157269Y163856D01*
X157229Y163880D01*
X156898Y164034D01*
X156568Y164191D01*
X156524Y164207D01*
X156482Y164227D01*
X156136Y164348D01*
X155793Y164473D01*
X155748Y164485D01*
X155704Y164500D01*
X155349Y164587D01*
X154995Y164678D01*
X154949Y164686D01*
X154903Y164697D01*
X154541Y164749D01*
X154180Y164805D01*
X154134Y164808D01*
X154087Y164815D01*
X153722Y164832D01*
X153357Y164853D01*
X153311Y164851D01*
X153279Y164853D01*
X153279Y182880D01*
X153263Y183213D01*
X153253Y183548D01*
X153243Y183625D01*
X153239Y183703D01*
X153191Y184034D01*
X153149Y184365D01*
X153131Y184441D01*
X153120Y184519D01*
X153039Y184843D01*
X152965Y185169D01*
X152941Y185243D01*
X152922Y185319D01*
X152810Y185634D01*
X152705Y185951D01*
X152673Y186023D01*
X152647Y186096D01*
X152506Y186399D01*
X152370Y186705D01*
X152332Y186772D01*
X152299Y186843D01*
X152128Y187131D01*
X151964Y187422D01*
X151919Y187486D01*
X151879Y187553D01*
X151682Y187823D01*
X151490Y188096D01*
X151439Y188156D01*
X151393Y188219D01*
X151170Y188469D01*
X150953Y188722D01*
X150897Y188776D01*
X150845Y188834D01*
X150599Y189061D01*
X150358Y189292D01*
X150297Y189341D01*
X150240Y189394D01*
X149974Y189595D01*
X149711Y189803D01*
X149645Y189845D01*
X149583Y189892D01*
X149299Y190067D01*
X149017Y190248D01*
X148947Y190283D01*
X148881Y190324D01*
X148581Y190471D01*
X148283Y190623D01*
X148210Y190652D01*
X148140Y190686D01*
X147828Y190803D01*
X147516Y190926D01*
X147441Y190948D01*
X147368Y190975D01*
X147045Y191062D01*
X146724Y191154D01*
X146647Y191168D01*
X146572Y191188D01*
X146242Y191243D01*
X145913Y191303D01*
X145850Y191307D01*
X145759Y191322D01*
X144936Y191377D01*
X144843Y191375D01*
X144780Y191379D01*
X144446Y191363D01*
X144112Y191353D01*
X144034Y191343D01*
X143956Y191339D01*
X143625Y191290D01*
X143294Y191248D01*
X143218Y191231D01*
X143141Y191219D01*
X142816Y191139D01*
X142490Y191065D01*
X142416Y191040D01*
X142341Y191021D01*
X142025Y190910D01*
X141708Y190804D01*
X141637Y190773D01*
X141563Y190747D01*
X141260Y190605D01*
X140955Y190470D01*
X140887Y190431D01*
X140816Y190398D01*
X140528Y190228D01*
X140238Y190063D01*
X140174Y190019D01*
X140107Y189979D01*
X139836Y189781D01*
X139563Y189590D01*
X139504Y189539D01*
X139441Y189493D01*
X139191Y189270D01*
X138938Y189053D01*
X138884Y188996D01*
X138825Y188944D01*
X138598Y188699D01*
X138367Y188458D01*
X138319Y188396D01*
X138266Y188339D01*
X138064Y188073D01*
X137857Y187810D01*
X137815Y187744D01*
X137768Y187682D01*
X137593Y187398D01*
X137412Y187116D01*
X137376Y187047D01*
X137335Y186980D01*
X137189Y186680D01*
X137036Y186383D01*
X137007Y186310D01*
X136973Y186240D01*
X136856Y185927D01*
X136733Y185616D01*
X136712Y185541D01*
X136684Y185468D01*
X136598Y185145D01*
X136506Y184824D01*
X136492Y184747D01*
X136472Y184671D01*
X136417Y184341D01*
X136356Y184013D01*
X136352Y183950D01*
X136337Y183858D01*
X136282Y183036D01*
X136285Y182943D01*
X136281Y182880D01*
X136281Y167501D01*
X135762Y168400D01*
X135258Y169615D01*
X134918Y170885D01*
X134746Y172189D01*
X134746Y180329D01*
X134728Y180705D01*
X134713Y181080D01*
X134708Y181116D01*
X134706Y181152D01*
X134652Y181522D01*
X134601Y181896D01*
X134592Y181932D01*
X134587Y181968D01*
X134496Y182334D01*
X134409Y182698D01*
X134398Y182733D01*
X134389Y182768D01*
X134263Y183124D01*
X134141Y183478D01*
X134126Y183511D01*
X134114Y183546D01*
X133955Y183887D01*
X133799Y184228D01*
X133781Y184259D01*
X133766Y184293D01*
X133574Y184617D01*
X133386Y184941D01*
X133365Y184971D01*
X133346Y185002D01*
X133125Y185306D01*
X132906Y185611D01*
X132882Y185638D01*
X132860Y185668D01*
X132610Y185949D01*
X132363Y186231D01*
X132336Y186256D01*
X132312Y186284D01*
X132036Y186538D01*
X131762Y186796D01*
X131733Y186818D01*
X131706Y186843D01*
X131409Y187069D01*
X131110Y187300D01*
X131079Y187319D01*
X131050Y187341D01*
X130730Y187538D01*
X130412Y187738D01*
X130379Y187754D01*
X130348Y187774D01*
X130011Y187938D01*
X129674Y188107D01*
X129640Y188120D01*
X129607Y188136D01*
X129256Y188267D01*
X128905Y188402D01*
X128870Y188412D01*
X128835Y188425D01*
X128471Y188522D01*
X128110Y188622D01*
X128074Y188628D01*
X128039Y188637D01*
X127668Y188699D01*
X127298Y188763D01*
X127261Y188766D01*
X127225Y188772D01*
X126850Y188797D01*
X126476Y188825D01*
X126439Y188824D01*
X126403Y188827D01*
X126026Y188816D01*
X125652Y188807D01*
X125616Y188803D01*
X125579Y188802D01*
X125205Y188754D01*
X124833Y188710D01*
X124798Y188702D01*
X124761Y188697D01*
X124395Y188614D01*
X124028Y188534D01*
X123993Y188522D01*
X123958Y188514D01*
X123599Y188395D01*
X123244Y188280D01*
X123210Y188266D01*
X123175Y188254D01*
X122831Y188101D01*
X122488Y187952D01*
X122456Y187934D01*
X122422Y187919D01*
X122096Y187734D01*
X121767Y187552D01*
X121737Y187531D01*
X121705Y187513D01*
X121398Y187297D01*
X121088Y187084D01*
X121065Y187064D01*
X121030Y187039D01*
X120405Y186502D01*
X120384Y186480D01*
X120378Y186475D01*
X120298Y186392D01*
X120234Y186336D01*
X120207Y186308D01*
X120010Y186091D01*
X119807Y185880D01*
X119733Y185786D01*
X119653Y185698D01*
X119478Y185463D01*
X119297Y185233D01*
X119232Y185132D01*
X119161Y185036D01*
X119010Y184785D01*
X118852Y184539D01*
X118797Y184432D01*
X118736Y184330D01*
X118610Y184066D01*
X118476Y183805D01*
X118432Y183694D01*
X118381Y183586D01*
X118281Y183311D01*
X118173Y183038D01*
X118140Y182923D01*
X118100Y182811D01*
X118027Y182528D01*
X117946Y182246D01*
X117924Y182128D01*
X117895Y182013D01*
X117850Y181724D01*
X117797Y181435D01*
X117790Y181341D01*
X117768Y181198D01*
X117721Y180375D01*
X117723Y180332D01*
X117721Y180302D01*
X117721Y119418D01*
X117735Y119123D01*
X117741Y118828D01*
X117755Y118712D01*
X117761Y118595D01*
X117804Y118302D01*
X117838Y118009D01*
X117863Y117895D01*
X117880Y117779D01*
X117951Y117492D01*
X118014Y117204D01*
X118050Y117092D01*
X118078Y116979D01*
X118177Y116700D01*
X118267Y116419D01*
X118314Y116312D01*
X118353Y116201D01*
X118478Y115934D01*
X118595Y115663D01*
X118652Y115560D01*
X118701Y115454D01*
X118852Y115200D01*
X118995Y114942D01*
X119061Y114846D01*
X119121Y114745D01*
X119295Y114507D01*
X119462Y114263D01*
X119524Y114193D01*
X119607Y114079D01*
X120155Y113463D01*
X120189Y113432D01*
X120210Y113408D01*
X127967Y105652D01*
X130421Y99727D01*
X130421Y72890D01*
X130418Y72881D01*
X130350Y72614D01*
X130274Y72349D01*
X130249Y72214D01*
X130216Y72082D01*
X130175Y71809D01*
X130125Y71538D01*
X130117Y71432D01*
X130093Y71267D01*
X130049Y70444D01*
X130050Y70421D01*
X130049Y70405D01*
X130049Y62399D01*
X127651Y56611D01*
X123221Y52181D01*
X117433Y49783D01*
X111167Y49783D01*
X104853Y52399D01*
X104574Y52499D01*
X104299Y52606D01*
X104187Y52638D01*
X104077Y52677D01*
X103790Y52749D01*
X103506Y52830D01*
X103390Y52850D01*
X103277Y52879D01*
X102985Y52923D01*
X102695Y52975D01*
X102578Y52985D01*
X102462Y53002D01*
X102167Y53018D01*
X101873Y53042D01*
X101756Y53040D01*
X101639Y53046D01*
X101344Y53033D01*
X101049Y53028D01*
X100932Y53015D01*
X100815Y53010D01*
X100523Y52968D01*
X100230Y52935D01*
X100115Y52910D01*
X99999Y52894D01*
X99712Y52824D01*
X99423Y52763D01*
X99336Y52733D01*
X99198Y52700D01*
X98420Y52429D01*
X98378Y52409D01*
X98347Y52399D01*
X92033Y49783D01*
X85767Y49783D01*
X79979Y52181D01*
X75549Y56611D01*
X73151Y62399D01*
X73151Y67099D01*
X73140Y67336D01*
X73138Y67573D01*
X73120Y67748D01*
X73111Y67922D01*
X73077Y68157D01*
X73052Y68393D01*
X73017Y68565D01*
X72992Y68738D01*
X72935Y68969D01*
X72887Y69201D01*
X72836Y69368D01*
X72794Y69538D01*
X72715Y69762D01*
X72645Y69989D01*
X72577Y70150D01*
X72519Y70315D01*
X72419Y70530D01*
X72327Y70750D01*
X72245Y70904D01*
X72171Y71062D01*
X72050Y71267D01*
X71937Y71476D01*
X71862Y71584D01*
X71751Y71772D01*
X71333Y72345D01*
X71289Y72408D01*
X33984Y119040D01*
X33438Y119657D01*
X33388Y119704D01*
X33357Y119740D01*
X32034Y121063D01*
X31987Y121175D01*
X31895Y121346D01*
X31812Y121522D01*
X31700Y121710D01*
X31597Y121902D01*
X31515Y122019D01*
X31389Y122230D01*
X31141Y122567D01*
X30616Y124378D01*
X30348Y125158D01*
X30320Y125221D01*
X30305Y125266D01*
X29588Y126995D01*
X29588Y127116D01*
X29569Y127309D01*
X29559Y127503D01*
X29528Y127719D01*
X29506Y127936D01*
X29475Y128076D01*
X29440Y128319D01*
X29339Y128726D01*
X29547Y130600D01*
X29598Y131423D01*
X29596Y131491D01*
X29599Y131539D01*
X29599Y330587D01*
X32053Y336512D01*
X37784Y342242D01*
X37784Y342243D01*
X135277Y439736D01*
X135278Y439737D01*
X141008Y445466D01*
X143732Y446595D01*
X144017Y446730D01*
X144305Y446857D01*
X144390Y446906D01*
X144478Y446947D01*
X144749Y447109D01*
X145022Y447264D01*
X145102Y447320D01*
X145186Y447370D01*
X145440Y447557D01*
X145697Y447738D01*
X145771Y447801D01*
X145849Y447859D01*
X146084Y448070D01*
X146322Y448274D01*
X146389Y448345D01*
X146462Y448410D01*
X146675Y448643D01*
X146893Y448869D01*
X146953Y448946D01*
X147019Y449018D01*
X147208Y449270D01*
X147403Y449517D01*
X147456Y449599D01*
X147514Y449677D01*
X147678Y449946D01*
X147848Y450211D01*
X147892Y450297D01*
X147943Y450381D01*
X148080Y450665D01*
X148224Y450944D01*
X148260Y451035D01*
X148302Y451123D01*
X148411Y451419D01*
X148527Y451711D01*
X148554Y451805D01*
X148587Y451896D01*
X148667Y452202D01*
X148754Y452504D01*
X148772Y452599D01*
X148796Y452694D01*
X148846Y453005D01*
X148903Y453314D01*
X148909Y453392D01*
X148927Y453508D01*
X148978Y454330D01*
X148976Y454399D01*
X148979Y454447D01*
X148979Y460407D01*
X151433Y466332D01*
X156026Y470924D01*
X156066Y470947D01*
X156119Y470972D01*
X156423Y471154D01*
X156729Y471331D01*
X156776Y471365D01*
X156826Y471395D01*
X157111Y471604D01*
X157399Y471811D01*
X157443Y471849D01*
X157490Y471884D01*
X157753Y472120D01*
X158019Y472353D01*
X158059Y472396D01*
X158103Y472435D01*
X158342Y472696D01*
X158584Y472953D01*
X158620Y473000D01*
X158660Y473043D01*
X158872Y473325D01*
X159089Y473606D01*
X159120Y473655D01*
X159155Y473702D01*
X159338Y474003D01*
X159527Y474303D01*
X159554Y474356D01*
X159584Y474406D01*
X159738Y474723D01*
X159896Y475041D01*
X159917Y475095D01*
X159943Y475148D01*
X160065Y475479D01*
X160192Y475810D01*
X160208Y475867D01*
X160228Y475921D01*
X160318Y476263D01*
X160412Y476604D01*
X160422Y476662D01*
X160437Y476719D01*
X160493Y477069D01*
X160554Y477416D01*
X160559Y477475D01*
X160568Y477533D01*
X160590Y477885D01*
X160617Y478238D01*
X160616Y478297D01*
X160619Y478355D01*
X160607Y478709D01*
X160599Y479063D01*
X160593Y479121D01*
X160591Y479179D01*
X160544Y479530D01*
X160502Y479881D01*
X160490Y479938D01*
X160482Y479996D01*
X160402Y480341D01*
X160326Y480687D01*
X160309Y480742D01*
X160295Y480799D01*
X160182Y481134D01*
X160073Y481471D01*
X160050Y481525D01*
X160031Y481580D01*
X159886Y481902D01*
X159745Y482227D01*
X159717Y482279D01*
X159693Y482332D01*
X159518Y482638D01*
X159346Y482948D01*
X159313Y482997D01*
X159284Y483047D01*
X159079Y483336D01*
X158878Y483627D01*
X158847Y483663D01*
X158807Y483720D01*
X158267Y484343D01*
X158182Y484423D01*
X158131Y484482D01*
X155658Y486955D01*
X153415Y492369D01*
X153415Y498231D01*
X155658Y503645D01*
X159190Y507177D01*
X159389Y507396D01*
X159593Y507609D01*
X159665Y507701D01*
X159744Y507788D01*
X159920Y508025D01*
X160103Y508257D01*
X160166Y508355D01*
X160236Y508449D01*
X160389Y508702D01*
X160548Y508950D01*
X160601Y509055D01*
X160662Y509155D01*
X160789Y509421D01*
X160924Y509684D01*
X160967Y509793D01*
X161017Y509899D01*
X161118Y510176D01*
X161227Y510451D01*
X161259Y510563D01*
X161299Y510673D01*
X161373Y510960D01*
X161454Y511243D01*
X161475Y511358D01*
X161504Y511472D01*
X161550Y511764D01*
X161603Y512054D01*
X161610Y512146D01*
X161631Y512286D01*
X161679Y513109D01*
X161677Y513155D01*
X161679Y513187D01*
X161679Y523907D01*
X164133Y529832D01*
X181368Y547067D01*
X187293Y549521D01*
X193707Y549521D01*
X199632Y547067D01*
X204167Y542532D01*
X206621Y536607D01*
X206621Y530193D01*
X206589Y530116D01*
X206463Y529766D01*
X206334Y529415D01*
X206324Y529377D01*
X206311Y529340D01*
X206219Y528978D01*
X206125Y528617D01*
X206118Y528579D01*
X206109Y528541D01*
X206053Y528172D01*
X205994Y527803D01*
X205991Y527764D01*
X205986Y527726D01*
X205966Y527353D01*
X205943Y526980D01*
X205944Y526942D01*
X205942Y526903D01*
X205958Y526528D01*
X205971Y526157D01*
X205976Y526118D01*
X205978Y526079D01*
X206030Y525710D01*
X206079Y525339D01*
X206088Y525302D01*
X206094Y525263D01*
X206182Y524900D01*
X206266Y524537D01*
X206279Y524500D01*
X206288Y524462D01*
X206411Y524109D01*
X206530Y523756D01*
X206546Y523720D01*
X206559Y523683D01*
X206716Y523343D01*
X206869Y523004D01*
X206888Y522970D01*
X206904Y522935D01*
X207093Y522612D01*
X207278Y522288D01*
X207301Y522257D01*
X207320Y522223D01*
X207539Y521920D01*
X207755Y521616D01*
X207780Y521587D01*
X207803Y521555D01*
X208050Y521275D01*
X208295Y520993D01*
X208323Y520966D01*
X208349Y520937D01*
X208621Y520683D01*
X208892Y520425D01*
X208923Y520401D01*
X208952Y520375D01*
X209248Y520148D01*
X209542Y519918D01*
X209575Y519897D01*
X209606Y519873D01*
X209922Y519677D01*
X210238Y519476D01*
X210273Y519459D01*
X210306Y519438D01*
X210640Y519273D01*
X210974Y519104D01*
X211010Y519089D01*
X211045Y519072D01*
X211392Y518941D01*
X211742Y518804D01*
X211779Y518794D01*
X211816Y518780D01*
X212174Y518682D01*
X212535Y518581D01*
X212574Y518574D01*
X212611Y518564D01*
X212979Y518501D01*
X213346Y518435D01*
X213385Y518432D01*
X213424Y518425D01*
X213796Y518399D01*
X214168Y518369D01*
X214207Y518369D01*
X214246Y518367D01*
X214618Y518376D01*
X214992Y518382D01*
X215031Y518387D01*
X215070Y518388D01*
X215440Y518433D01*
X215811Y518475D01*
X215849Y518484D01*
X215888Y518488D01*
X216254Y518570D01*
X216618Y518648D01*
X216648Y518658D01*
X216693Y518668D01*
X217476Y518925D01*
X217606Y518982D01*
X217693Y519011D01*
X219319Y519685D01*
X225181Y519685D01*
X230595Y517442D01*
X234740Y513297D01*
X236983Y507883D01*
X236983Y503548D01*
X236996Y503273D01*
X237001Y502997D01*
X237016Y502861D01*
X237023Y502725D01*
X237063Y502452D01*
X237094Y502178D01*
X237122Y502044D01*
X237142Y501909D01*
X237209Y501641D01*
X237266Y501372D01*
X237300Y501271D01*
X237340Y501109D01*
X237615Y500332D01*
X237624Y500311D01*
X237630Y500296D01*
X238371Y498507D01*
X238371Y492093D01*
X237630Y490304D01*
X237537Y490045D01*
X237435Y489788D01*
X237398Y489657D01*
X237352Y489528D01*
X237284Y489261D01*
X237208Y488996D01*
X237183Y488862D01*
X237150Y488729D01*
X237109Y488456D01*
X237059Y488185D01*
X237051Y488079D01*
X237027Y487914D01*
X236983Y487091D01*
X236984Y487068D01*
X236983Y487052D01*
X236983Y482717D01*
X235904Y480114D01*
X235798Y479817D01*
X235685Y479524D01*
X235659Y479430D01*
X235626Y479338D01*
X235549Y479033D01*
X235465Y478729D01*
X235448Y478633D01*
X235424Y478539D01*
X235377Y478227D01*
X235323Y477917D01*
X235316Y477820D01*
X235301Y477724D01*
X235284Y477409D01*
X235261Y477095D01*
X235263Y476998D01*
X235257Y476900D01*
X235271Y476586D01*
X235278Y476271D01*
X235289Y476174D01*
X235294Y476077D01*
X235338Y475764D01*
X235375Y475452D01*
X235396Y475357D01*
X235409Y475261D01*
X235484Y474954D01*
X235551Y474647D01*
X235581Y474554D01*
X235604Y474460D01*
X235707Y474162D01*
X235804Y473863D01*
X235843Y473773D01*
X235875Y473681D01*
X236006Y473396D01*
X236132Y473106D01*
X236179Y473021D01*
X236220Y472932D01*
X236379Y472660D01*
X236531Y472385D01*
X236587Y472305D01*
X236636Y472221D01*
X236821Y471966D01*
X236999Y471706D01*
X237051Y471647D01*
X237119Y471553D01*
X237665Y470935D01*
X237715Y470888D01*
X237747Y470851D01*
X243462Y465136D01*
X243690Y464908D01*
X243966Y464657D01*
X244241Y464404D01*
X244271Y464381D01*
X244300Y464354D01*
X244599Y464132D01*
X244897Y463906D01*
X244930Y463885D01*
X244961Y463862D01*
X245280Y463670D01*
X245599Y463473D01*
X245634Y463456D01*
X245667Y463436D01*
X246004Y463275D01*
X246340Y463111D01*
X246376Y463098D01*
X246411Y463081D01*
X246762Y462953D01*
X247112Y462822D01*
X247149Y462812D01*
X247186Y462799D01*
X247547Y462706D01*
X247908Y462610D01*
X247947Y462603D01*
X247984Y462594D01*
X248353Y462536D01*
X248722Y462475D01*
X248760Y462473D01*
X248798Y462467D01*
X249172Y462445D01*
X249544Y462420D01*
X249583Y462421D01*
X249621Y462419D01*
X249994Y462434D01*
X250368Y462445D01*
X250407Y462450D01*
X250445Y462451D01*
X250815Y462502D01*
X251186Y462550D01*
X251224Y462558D01*
X251262Y462563D01*
X251625Y462650D01*
X251989Y462733D01*
X252026Y462745D01*
X252064Y462754D01*
X252416Y462875D01*
X252772Y462993D01*
X252807Y463009D01*
X252844Y463021D01*
X253182Y463175D01*
X253525Y463328D01*
X253559Y463347D01*
X253594Y463363D01*
X253916Y463550D01*
X254242Y463734D01*
X254274Y463756D01*
X254307Y463776D01*
X254611Y463993D01*
X254917Y464208D01*
X254946Y464233D01*
X254978Y464256D01*
X255259Y464502D01*
X255542Y464745D01*
X255569Y464773D01*
X255598Y464798D01*
X255855Y465071D01*
X256113Y465340D01*
X256137Y465370D01*
X256163Y465399D01*
X256391Y465693D01*
X256623Y465987D01*
X256644Y466020D01*
X256668Y466051D01*
X256866Y466366D01*
X257068Y466681D01*
X257086Y466716D01*
X257106Y466749D01*
X257274Y467083D01*
X257444Y467415D01*
X257458Y467451D01*
X257475Y467486D01*
X257610Y467835D01*
X257747Y468182D01*
X257757Y468219D01*
X257771Y468255D01*
X257871Y468615D01*
X257974Y468974D01*
X257981Y469012D01*
X257991Y469049D01*
X258056Y469418D01*
X258123Y469785D01*
X258126Y469817D01*
X258133Y469861D01*
X258196Y470683D01*
X258193Y470825D01*
X258199Y470918D01*
X258199Y474377D01*
X260653Y480302D01*
X276378Y496027D01*
X278217Y496788D01*
X278501Y496922D01*
X278789Y497050D01*
X278874Y497098D01*
X278962Y497140D01*
X279232Y497301D01*
X279506Y497456D01*
X279586Y497512D01*
X279670Y497563D01*
X279924Y497750D01*
X280181Y497930D01*
X280255Y497994D01*
X280333Y498052D01*
X280568Y498262D01*
X280806Y498467D01*
X280874Y498538D01*
X280946Y498603D01*
X281159Y498835D01*
X281377Y499062D01*
X281437Y499139D01*
X281503Y499211D01*
X281692Y499462D01*
X281887Y499710D01*
X281940Y499792D01*
X281998Y499870D01*
X282162Y500138D01*
X282332Y500404D01*
X282377Y500491D01*
X282427Y500574D01*
X282564Y500857D01*
X282708Y501137D01*
X282744Y501228D01*
X282786Y501316D01*
X282895Y501611D01*
X283011Y501904D01*
X283038Y501998D01*
X283071Y502089D01*
X283151Y502394D01*
X283238Y502696D01*
X283256Y502792D01*
X283280Y502887D01*
X283330Y503198D01*
X283387Y503507D01*
X283393Y503585D01*
X283411Y503701D01*
X283462Y504523D01*
X283460Y504592D01*
X283463Y504640D01*
X283463Y512403D01*
X285861Y518191D01*
X290291Y522621D01*
X296079Y525019D01*
X303959Y525019D01*
X304286Y525035D01*
X304613Y525044D01*
X304697Y525055D01*
X304782Y525059D01*
X305106Y525106D01*
X305431Y525147D01*
X305514Y525166D01*
X305598Y525178D01*
X305916Y525257D01*
X306235Y525329D01*
X306289Y525348D01*
X308661Y525377D01*
X308905Y525392D01*
X309148Y525397D01*
X309316Y525417D01*
X309484Y525427D01*
X309725Y525465D01*
X309967Y525494D01*
X310131Y525530D01*
X310298Y525557D01*
X310534Y525618D01*
X310772Y525670D01*
X310933Y525722D01*
X311096Y525764D01*
X311325Y525848D01*
X311557Y525923D01*
X311711Y525990D01*
X311870Y526048D01*
X312089Y526154D01*
X312313Y526251D01*
X312461Y526333D01*
X312613Y526406D01*
X312821Y526532D01*
X313034Y526651D01*
X313173Y526746D01*
X313317Y526834D01*
X313512Y526980D01*
X313713Y527118D01*
X313809Y527202D01*
X313977Y527328D01*
X314525Y527829D01*
X314568Y527866D01*
X346742Y560040D01*
X346993Y560317D01*
X347246Y560591D01*
X347270Y560622D01*
X347296Y560651D01*
X347520Y560951D01*
X347744Y561247D01*
X347765Y561280D01*
X347788Y561312D01*
X347981Y561631D01*
X348177Y561949D01*
X348194Y561984D01*
X348214Y562018D01*
X348375Y562355D01*
X348539Y562690D01*
X348553Y562726D01*
X348569Y562762D01*
X348697Y563113D01*
X348828Y563462D01*
X348838Y563499D01*
X348851Y563536D01*
X348944Y563899D01*
X349040Y564258D01*
X349047Y564297D01*
X349056Y564335D01*
X349114Y564704D01*
X349175Y565072D01*
X349177Y565110D01*
X349183Y565149D01*
X349205Y565523D01*
X349230Y565894D01*
X349229Y565933D01*
X349231Y565972D01*
X349216Y566345D01*
X349205Y566718D01*
X349200Y566757D01*
X349199Y566796D01*
X349148Y567165D01*
X349100Y567536D01*
X349092Y567574D01*
X349087Y567612D01*
X349000Y567976D01*
X348917Y568339D01*
X348905Y568377D01*
X348896Y568414D01*
X348775Y568766D01*
X348657Y569122D01*
X348641Y569157D01*
X348628Y569194D01*
X348474Y569533D01*
X348322Y569875D01*
X348303Y569909D01*
X348287Y569944D01*
X348099Y570268D01*
X347916Y570592D01*
X347893Y570624D01*
X347874Y570658D01*
X347656Y570962D01*
X347442Y571267D01*
X347417Y571296D01*
X347394Y571328D01*
X347147Y571610D01*
X346905Y571892D01*
X346877Y571919D01*
X346851Y571949D01*
X346579Y572205D01*
X346310Y572463D01*
X346279Y572487D01*
X346251Y572514D01*
X345956Y572742D01*
X345663Y572973D01*
X345630Y572994D01*
X345599Y573018D01*
X345283Y573216D01*
X344969Y573418D01*
X344934Y573436D01*
X344901Y573457D01*
X344568Y573623D01*
X344235Y573794D01*
X344199Y573808D01*
X344164Y573826D01*
X343815Y573960D01*
X343468Y574097D01*
X343431Y574108D01*
X343394Y574122D01*
X343034Y574221D01*
X342676Y574324D01*
X342638Y574331D01*
X342600Y574341D01*
X342232Y574406D01*
X341865Y574473D01*
X341833Y574476D01*
X341788Y574483D01*
X340966Y574546D01*
X340825Y574543D01*
X340732Y574549D01*
X62765Y574549D01*
X62680Y574545D01*
X62594Y574548D01*
X62268Y574525D01*
X61942Y574509D01*
X61857Y574497D01*
X61772Y574491D01*
X61450Y574437D01*
X61126Y574390D01*
X61043Y574369D01*
X60959Y574355D01*
X60643Y574270D01*
X60326Y574192D01*
X60245Y574163D01*
X60163Y574141D01*
X59858Y574026D01*
X59549Y573917D01*
X59471Y573881D01*
X59391Y573851D01*
X59098Y573707D01*
X58802Y573569D01*
X58728Y573525D01*
X58651Y573487D01*
X58373Y573315D01*
X58092Y573149D01*
X58023Y573099D01*
X57950Y573054D01*
X57690Y572856D01*
X57426Y572663D01*
X57362Y572606D01*
X57294Y572554D01*
X57055Y572332D01*
X56811Y572115D01*
X56753Y572052D01*
X56690Y571994D01*
X56472Y571749D01*
X56251Y571509D01*
X56200Y571441D01*
X56143Y571377D01*
X55950Y571113D01*
X55753Y570853D01*
X55708Y570780D01*
X55658Y570710D01*
X55492Y570429D01*
X55321Y570151D01*
X55283Y570074D01*
X55240Y570000D01*
X55102Y569704D01*
X54958Y569410D01*
X54928Y569330D01*
X54892Y569252D01*
X54784Y568944D01*
X54670Y568638D01*
X54648Y568555D01*
X54619Y568475D01*
X54541Y568157D01*
X54457Y567842D01*
X54443Y567757D01*
X54423Y567674D01*
X54376Y567351D01*
X54322Y567028D01*
X54317Y566943D01*
X54304Y566858D01*
X54289Y566532D01*
X54267Y566206D01*
X54270Y566121D01*
X54266Y566035D01*
X54282Y565708D01*
X54292Y565382D01*
X54303Y565297D01*
X54307Y565212D01*
X54355Y564888D01*
X54397Y564564D01*
X54416Y564481D01*
X54428Y564396D01*
X54508Y564078D01*
X54580Y563761D01*
X54607Y563679D01*
X54628Y563596D01*
X54737Y563288D01*
X54840Y562978D01*
X54875Y562900D01*
X54904Y562819D01*
X54979Y562666D01*
X55175Y562225D01*
X55182Y562212D01*
X56911Y555762D01*
X56911Y549138D01*
X55196Y542738D01*
X51884Y537001D01*
X47199Y532316D01*
X41462Y529004D01*
X35062Y527289D01*
X28438Y527289D01*
X21489Y529151D01*
X21412Y529182D01*
X21329Y529206D01*
X21248Y529236D01*
X20933Y529320D01*
X20621Y529410D01*
X20536Y529426D01*
X20452Y529449D01*
X20130Y529502D01*
X19810Y529561D01*
X19724Y529569D01*
X19638Y529583D01*
X19313Y529605D01*
X18989Y529633D01*
X18902Y529632D01*
X18816Y529638D01*
X18490Y529628D01*
X18165Y529625D01*
X18079Y529616D01*
X17992Y529613D01*
X17669Y529572D01*
X17345Y529537D01*
X17260Y529520D01*
X17174Y529509D01*
X16857Y529436D01*
X16538Y529370D01*
X16455Y529345D01*
X16371Y529325D01*
X16061Y529223D01*
X15750Y529126D01*
X15670Y529092D01*
X15588Y529065D01*
X15291Y528933D01*
X14990Y528807D01*
X14914Y528765D01*
X14835Y528730D01*
X14552Y528570D01*
X14265Y528415D01*
X14193Y528367D01*
X14118Y528324D01*
X13852Y528137D01*
X13581Y527955D01*
X13514Y527900D01*
X13443Y527850D01*
X13197Y527639D01*
X12945Y527431D01*
X12883Y527370D01*
X12818Y527313D01*
X12592Y527078D01*
X12362Y526848D01*
X12307Y526781D01*
X12247Y526718D01*
X12045Y526462D01*
X11839Y526211D01*
X11791Y526139D01*
X11737Y526071D01*
X11561Y525796D01*
X11380Y525526D01*
X11339Y525450D01*
X11292Y525377D01*
X11144Y525087D01*
X10989Y524800D01*
X10956Y524720D01*
X10916Y524643D01*
X10797Y524341D01*
X10671Y524040D01*
X10645Y523957D01*
X10613Y523877D01*
X10524Y523564D01*
X10427Y523252D01*
X10410Y523167D01*
X10386Y523084D01*
X10327Y522764D01*
X10261Y522445D01*
X10252Y522359D01*
X10237Y522274D01*
X10225Y522102D01*
X10175Y521625D01*
X10172Y521306D01*
X10161Y521140D01*
X10161Y469460D01*
X10165Y469373D01*
X10162Y469287D01*
X10185Y468962D01*
X10201Y468636D01*
X10213Y468550D01*
X10219Y468464D01*
X10273Y468143D01*
X10320Y467821D01*
X10341Y467737D01*
X10355Y467651D01*
X10440Y467336D01*
X10518Y467020D01*
X10547Y466939D01*
X10570Y466855D01*
X10684Y466550D01*
X10793Y466243D01*
X10829Y466165D01*
X10860Y466084D01*
X11004Y465792D01*
X11141Y465496D01*
X11186Y465422D01*
X11224Y465344D01*
X11395Y465067D01*
X11561Y464786D01*
X11612Y464717D01*
X11657Y464643D01*
X11855Y464384D01*
X12047Y464121D01*
X12104Y464056D01*
X12157Y463987D01*
X12379Y463748D01*
X12595Y463505D01*
X12659Y463446D01*
X12718Y463383D01*
X12962Y463166D01*
X13201Y462946D01*
X13269Y462893D01*
X13334Y462836D01*
X13598Y462644D01*
X13857Y462447D01*
X13931Y462402D01*
X14001Y462351D01*
X14282Y462186D01*
X14559Y462015D01*
X14637Y461977D01*
X14712Y461933D01*
X15008Y461796D01*
X15300Y461653D01*
X15381Y461623D01*
X15459Y461586D01*
X15768Y461478D01*
X16072Y461364D01*
X16155Y461342D01*
X16237Y461313D01*
X16554Y461235D01*
X16868Y461151D01*
X16954Y461137D01*
X17038Y461117D01*
X17360Y461070D01*
X17682Y461017D01*
X17768Y461011D01*
X17854Y460999D01*
X18179Y460984D01*
X18504Y460962D01*
X18591Y460964D01*
X18677Y460960D01*
X19002Y460977D01*
X19328Y460987D01*
X19414Y460998D01*
X19500Y461002D01*
X19823Y461050D01*
X20146Y461091D01*
X20230Y461110D01*
X20316Y461123D01*
X20632Y461202D01*
X20949Y461275D01*
X21032Y461302D01*
X21116Y461323D01*
X21412Y461428D01*
X28438Y463311D01*
X35062Y463311D01*
X41462Y461596D01*
X44374Y459915D01*
X44432Y459885D01*
X44488Y459850D01*
X44800Y459695D01*
X45107Y459538D01*
X45168Y459514D01*
X45227Y459484D01*
X45552Y459361D01*
X45873Y459234D01*
X45936Y459215D01*
X45998Y459192D01*
X46332Y459101D01*
X46665Y459005D01*
X46730Y458993D01*
X46793Y458975D01*
X47134Y458917D01*
X47475Y458854D01*
X47541Y458848D01*
X47606Y458837D01*
X47952Y458812D01*
X48296Y458782D01*
X48362Y458783D01*
X48428Y458778D01*
X48775Y458787D01*
X49121Y458791D01*
X49186Y458798D01*
X49252Y458799D01*
X49596Y458842D01*
X49940Y458879D01*
X50005Y458892D01*
X50071Y458900D01*
X50409Y458976D01*
X50748Y459046D01*
X50811Y459066D01*
X50875Y459080D01*
X51204Y459188D01*
X51535Y459290D01*
X51596Y459316D01*
X51659Y459337D01*
X51975Y459476D01*
X52295Y459610D01*
X52353Y459641D01*
X52413Y459668D01*
X52716Y459837D01*
X53020Y460002D01*
X53075Y460039D01*
X53132Y460071D01*
X53417Y460269D01*
X53704Y460462D01*
X53755Y460504D01*
X53809Y460542D01*
X54073Y460766D01*
X54340Y460986D01*
X54387Y461033D01*
X54437Y461076D01*
X54678Y461324D01*
X54923Y461570D01*
X54965Y461621D01*
X55010Y461668D01*
X55225Y461938D01*
X55446Y462207D01*
X55483Y462262D01*
X55524Y462313D01*
X55711Y462603D01*
X55905Y462891D01*
X55936Y462950D01*
X55972Y463005D01*
X56042Y463147D01*
X56295Y463617D01*
X56406Y463882D01*
X56476Y464023D01*
X57106Y465545D01*
X57590Y466029D01*
X57789Y466248D01*
X57993Y466461D01*
X58065Y466553D01*
X58144Y466640D01*
X58320Y466877D01*
X58503Y467109D01*
X58566Y467207D01*
X58636Y467301D01*
X58789Y467554D01*
X58948Y467802D01*
X59001Y467907D01*
X59062Y468007D01*
X59189Y468273D01*
X59324Y468536D01*
X59367Y468645D01*
X59417Y468751D01*
X59518Y469028D01*
X59627Y469303D01*
X59659Y469415D01*
X59699Y469525D01*
X59773Y469812D01*
X59854Y470095D01*
X59875Y470210D01*
X59904Y470324D01*
X59950Y470616D01*
X60003Y470906D01*
X60010Y470998D01*
X60031Y471138D01*
X60079Y471961D01*
X60077Y472007D01*
X60079Y472039D01*
X60079Y477413D01*
X60065Y477708D01*
X60059Y478003D01*
X60045Y478119D01*
X60039Y478236D01*
X59996Y478529D01*
X59962Y478822D01*
X59937Y478936D01*
X59920Y479052D01*
X59849Y479339D01*
X59786Y479627D01*
X59750Y479738D01*
X59722Y479852D01*
X59623Y480131D01*
X59533Y480412D01*
X59486Y480519D01*
X59447Y480629D01*
X59322Y480897D01*
X59205Y481168D01*
X59148Y481270D01*
X59099Y481376D01*
X58948Y481631D01*
X58805Y481889D01*
X58739Y481985D01*
X58679Y482086D01*
X58505Y482324D01*
X58338Y482568D01*
X58276Y482638D01*
X58193Y482752D01*
X57645Y483367D01*
X57611Y483399D01*
X57590Y483423D01*
X54058Y486955D01*
X51815Y492369D01*
X51815Y498231D01*
X54058Y503645D01*
X58203Y507790D01*
X63617Y510033D01*
X67952Y510033D01*
X68227Y510046D01*
X68503Y510051D01*
X68639Y510066D01*
X68775Y510073D01*
X69048Y510113D01*
X69322Y510144D01*
X69456Y510172D01*
X69591Y510192D01*
X69859Y510259D01*
X70128Y510316D01*
X70229Y510350D01*
X70391Y510390D01*
X71168Y510665D01*
X71189Y510674D01*
X71204Y510680D01*
X72993Y511421D01*
X79407Y511421D01*
X81196Y510680D01*
X81455Y510587D01*
X81712Y510485D01*
X81843Y510448D01*
X81972Y510402D01*
X82239Y510334D01*
X82504Y510258D01*
X82638Y510233D01*
X82771Y510200D01*
X83044Y510159D01*
X83315Y510109D01*
X83421Y510101D01*
X83586Y510077D01*
X84409Y510033D01*
X84432Y510034D01*
X84448Y510033D01*
X88783Y510033D01*
X94197Y507790D01*
X98342Y503645D01*
X100585Y498231D01*
X100585Y492369D01*
X98342Y486955D01*
X96153Y484765D01*
X95928Y484518D01*
X95699Y484274D01*
X95651Y484213D01*
X95599Y484155D01*
X95399Y483887D01*
X95195Y483622D01*
X95153Y483556D01*
X95106Y483494D01*
X94934Y483207D01*
X94756Y482924D01*
X94721Y482855D01*
X94681Y482788D01*
X94536Y482486D01*
X94387Y482187D01*
X94359Y482114D01*
X94325Y482044D01*
X94211Y481729D01*
X94091Y481418D01*
X94070Y481343D01*
X94043Y481269D01*
X93960Y480945D01*
X93871Y480623D01*
X93858Y480547D01*
X93838Y480471D01*
X93786Y480140D01*
X93729Y479811D01*
X93723Y479734D01*
X93711Y479656D01*
X93692Y479321D01*
X93666Y478989D01*
X93668Y478912D01*
X93664Y478833D01*
X93677Y478499D01*
X93684Y478165D01*
X93693Y478088D01*
X93696Y478010D01*
X93741Y477678D01*
X93781Y477347D01*
X93797Y477270D01*
X93808Y477193D01*
X93885Y476868D01*
X93957Y476541D01*
X93981Y476467D01*
X93999Y476391D01*
X94107Y476076D01*
X94210Y475757D01*
X94241Y475685D01*
X94266Y475611D01*
X94405Y475307D01*
X94538Y475000D01*
X94575Y474932D01*
X94608Y474861D01*
X94775Y474572D01*
X94937Y474279D01*
X94982Y474215D01*
X95021Y474148D01*
X95215Y473876D01*
X95405Y473600D01*
X95447Y473553D01*
X95501Y473477D01*
X96043Y472857D01*
X96111Y472793D01*
X96153Y472746D01*
X102567Y466332D01*
X105021Y460407D01*
X105021Y453993D01*
X102567Y448068D01*
X99542Y445043D01*
X99330Y444810D01*
X99113Y444582D01*
X99053Y444505D01*
X98988Y444433D01*
X98799Y444180D01*
X98606Y443932D01*
X98554Y443850D01*
X98495Y443772D01*
X98333Y443502D01*
X98164Y443236D01*
X98120Y443149D01*
X98070Y443066D01*
X97934Y442781D01*
X97792Y442501D01*
X97756Y442410D01*
X97714Y442322D01*
X97606Y442026D01*
X97492Y441733D01*
X97466Y441639D01*
X97432Y441547D01*
X97354Y441243D01*
X97269Y440939D01*
X97251Y440843D01*
X97227Y440749D01*
X97179Y440438D01*
X97154Y440299D01*
X88900Y440299D01*
X88567Y440283D01*
X88232Y440273D01*
X88155Y440263D01*
X88077Y440259D01*
X87746Y440211D01*
X87415Y440169D01*
X87339Y440151D01*
X87261Y440140D01*
X86937Y440059D01*
X86611Y439985D01*
X86537Y439961D01*
X86461Y439942D01*
X86146Y439830D01*
X85829Y439725D01*
X85757Y439693D01*
X85684Y439667D01*
X85381Y439526D01*
X85075Y439390D01*
X85008Y439352D01*
X84937Y439319D01*
X84649Y439148D01*
X84358Y438984D01*
X84294Y438939D01*
X84227Y438899D01*
X83957Y438702D01*
X83684Y438510D01*
X83624Y438459D01*
X83561Y438413D01*
X83311Y438190D01*
X83058Y437973D01*
X83004Y437917D01*
X82946Y437865D01*
X82945Y437864D01*
X82718Y437619D01*
X82487Y437378D01*
X82439Y437316D01*
X82386Y437259D01*
X82184Y436993D01*
X81977Y436730D01*
X81935Y436664D01*
X81888Y436602D01*
X81713Y436318D01*
X81532Y436036D01*
X81496Y435967D01*
X81455Y435900D01*
X81309Y435600D01*
X81156Y435303D01*
X81127Y435230D01*
X81093Y435160D01*
X80976Y434847D01*
X80853Y434536D01*
X80832Y434461D01*
X80804Y434388D01*
X80718Y434065D01*
X80626Y433744D01*
X80612Y433667D01*
X80592Y433591D01*
X80537Y433261D01*
X80476Y432933D01*
X80472Y432870D01*
X80457Y432778D01*
X80402Y431956D01*
X80405Y431863D01*
X80401Y431800D01*
X80401Y422147D01*
X68963Y422147D01*
X67709Y422312D01*
X66487Y422640D01*
X65317Y423124D01*
X64222Y423757D01*
X63751Y424118D01*
X63594Y424226D01*
X63444Y424343D01*
X63256Y424461D01*
X63074Y424587D01*
X62907Y424680D01*
X62746Y424782D01*
X62548Y424881D01*
X62354Y424989D01*
X62179Y425065D01*
X62009Y425151D01*
X61802Y425230D01*
X61599Y425319D01*
X61418Y425378D01*
X61240Y425446D01*
X61026Y425506D01*
X60815Y425574D01*
X60629Y425616D01*
X60445Y425666D01*
X60227Y425705D01*
X60010Y425753D01*
X59821Y425775D01*
X59633Y425808D01*
X59412Y425825D01*
X59192Y425852D01*
X59001Y425856D01*
X58811Y425871D01*
X58589Y425866D01*
X58368Y425872D01*
X58178Y425858D01*
X57987Y425854D01*
X57767Y425827D01*
X57545Y425811D01*
X57358Y425779D01*
X57168Y425757D01*
X56952Y425709D01*
X56733Y425672D01*
X56549Y425621D01*
X56363Y425581D01*
X56152Y425512D01*
X55938Y425454D01*
X55760Y425386D01*
X55579Y425328D01*
X55375Y425239D01*
X55168Y425160D01*
X54997Y425075D01*
X54822Y425000D01*
X54628Y424892D01*
X54429Y424793D01*
X54268Y424692D01*
X54101Y424600D01*
X53919Y424474D01*
X53730Y424357D01*
X53579Y424240D01*
X53422Y424132D01*
X53304Y424029D01*
X53077Y423854D01*
X52687Y423489D01*
X52567Y423385D01*
X47199Y418016D01*
X41462Y414704D01*
X35062Y412989D01*
X28438Y412989D01*
X21489Y414851D01*
X21412Y414882D01*
X21329Y414906D01*
X21248Y414936D01*
X20933Y415020D01*
X20621Y415110D01*
X20536Y415126D01*
X20452Y415149D01*
X20130Y415202D01*
X19810Y415261D01*
X19724Y415269D01*
X19638Y415283D01*
X19313Y415305D01*
X18989Y415333D01*
X18902Y415332D01*
X18816Y415338D01*
X18490Y415328D01*
X18165Y415325D01*
X18079Y415316D01*
X17992Y415313D01*
X17669Y415272D01*
X17345Y415237D01*
X17260Y415220D01*
X17174Y415209D01*
X16857Y415136D01*
X16538Y415070D01*
X16455Y415045D01*
X16371Y415025D01*
X16061Y414923D01*
X15750Y414826D01*
X15670Y414792D01*
X15588Y414765D01*
X15291Y414633D01*
X14990Y414507D01*
X14914Y414465D01*
X14835Y414430D01*
X14552Y414270D01*
X14265Y414115D01*
X14193Y414067D01*
X14118Y414024D01*
X13852Y413837D01*
X13581Y413655D01*
X13514Y413600D01*
X13443Y413550D01*
X13197Y413339D01*
X12945Y413131D01*
X12883Y413070D01*
X12818Y413013D01*
X12592Y412778D01*
X12362Y412548D01*
X12307Y412481D01*
X12247Y412418D01*
X12045Y412162D01*
X11839Y411911D01*
X11791Y411839D01*
X11737Y411771D01*
X11561Y411496D01*
X11380Y411226D01*
X11339Y411150D01*
X11292Y411077D01*
X11143Y410787D01*
X10989Y410500D01*
X10956Y410420D01*
X10916Y410343D01*
X10797Y410041D01*
X10671Y409740D01*
X10645Y409657D01*
X10613Y409577D01*
X10524Y409264D01*
X10427Y408952D01*
X10410Y408867D01*
X10386Y408784D01*
X10327Y408464D01*
X10261Y408145D01*
X10252Y408059D01*
X10237Y407974D01*
X10225Y407802D01*
X10175Y407325D01*
X10172Y407006D01*
X10161Y406840D01*
X10161Y76221D01*
X10171Y76012D01*
X10171Y75802D01*
X10191Y75600D01*
X10201Y75398D01*
X10231Y75190D01*
X10252Y74981D01*
X10291Y74782D01*
X10320Y74582D01*
X10371Y74379D01*
X10411Y74173D01*
X10470Y73979D01*
X10518Y73782D01*
X10588Y73584D01*
X10649Y73383D01*
X10725Y73196D01*
X10793Y73005D01*
X10882Y72815D01*
X10961Y72620D01*
X11056Y72442D01*
X11141Y72258D01*
X11248Y72077D01*
X11346Y71891D01*
X11458Y71722D01*
X11561Y71548D01*
X11685Y71379D01*
X11800Y71203D01*
X11928Y71046D01*
X12047Y70882D01*
X12187Y70726D01*
X12319Y70562D01*
X12461Y70418D01*
X12595Y70267D01*
X12749Y70124D01*
X12897Y69975D01*
X13052Y69845D01*
X13201Y69707D01*
X13368Y69581D01*
X13529Y69446D01*
X13696Y69331D01*
X13857Y69209D01*
X14036Y69099D01*
X14209Y68981D01*
X14387Y68883D01*
X14559Y68777D01*
X14748Y68685D01*
X14932Y68583D01*
X15118Y68504D01*
X15300Y68415D01*
X15496Y68341D01*
X15689Y68258D01*
X15882Y68197D01*
X16072Y68126D01*
X16274Y68072D01*
X16475Y68008D01*
X16673Y67965D01*
X16868Y67913D01*
X17075Y67879D01*
X17281Y67835D01*
X17482Y67812D01*
X17682Y67779D01*
X17891Y67765D01*
X18100Y67741D01*
X18302Y67737D01*
X18504Y67724D01*
X18714Y67730D01*
X18924Y67726D01*
X19126Y67742D01*
X19328Y67748D01*
X19537Y67775D01*
X19746Y67792D01*
X19890Y67820D01*
X20146Y67853D01*
X20726Y67985D01*
X20860Y68012D01*
X22087Y68341D01*
X28712Y68341D01*
X35112Y66626D01*
X40849Y63314D01*
X45534Y58629D01*
X48846Y52892D01*
X50561Y46492D01*
X50561Y39868D01*
X48846Y33468D01*
X45534Y27731D01*
X42473Y24670D01*
X42221Y24392D01*
X41968Y24119D01*
X41945Y24089D01*
X41919Y24059D01*
X41694Y23758D01*
X41470Y23463D01*
X41450Y23429D01*
X41426Y23398D01*
X41234Y23079D01*
X41038Y22761D01*
X41021Y22726D01*
X41001Y22692D01*
X40839Y22355D01*
X40676Y22020D01*
X40662Y21984D01*
X40645Y21949D01*
X40517Y21596D01*
X40387Y21248D01*
X40377Y21211D01*
X40363Y21174D01*
X40270Y20812D01*
X40174Y20452D01*
X40168Y20413D01*
X40158Y20375D01*
X40101Y20007D01*
X40040Y19638D01*
X40037Y19600D01*
X40031Y19561D01*
X40009Y19187D01*
X39985Y18816D01*
X39986Y18777D01*
X39983Y18738D01*
X39998Y18365D01*
X40009Y17992D01*
X40014Y17953D01*
X40016Y17914D01*
X40067Y17545D01*
X40114Y17174D01*
X40123Y17136D01*
X40128Y17098D01*
X40214Y16735D01*
X40297Y16371D01*
X40310Y16333D01*
X40319Y16296D01*
X40439Y15943D01*
X40558Y15588D01*
X40573Y15553D01*
X40586Y15516D01*
X40740Y15177D01*
X40892Y14835D01*
X40912Y14801D01*
X40928Y14766D01*
X41115Y14442D01*
X41299Y14118D01*
X41321Y14086D01*
X41341Y14052D01*
X41559Y13747D01*
X41772Y13443D01*
X41798Y13414D01*
X41821Y13382D01*
X42068Y13099D01*
X42309Y12818D01*
X42337Y12791D01*
X42363Y12761D01*
X42636Y12505D01*
X42904Y12247D01*
X42935Y12223D01*
X42963Y12196D01*
X43258Y11968D01*
X43552Y11737D01*
X43585Y11716D01*
X43616Y11692D01*
X43931Y11494D01*
X44246Y11292D01*
X44280Y11274D01*
X44313Y11253D01*
X44648Y11086D01*
X44979Y10916D01*
X45016Y10902D01*
X45051Y10884D01*
X45400Y10750D01*
X45746Y10613D01*
X45784Y10603D01*
X45820Y10588D01*
X46180Y10489D01*
X46539Y10386D01*
X46577Y10379D01*
X46614Y10369D01*
X46982Y10304D01*
X47349Y10237D01*
X47381Y10234D01*
X47427Y10227D01*
X48248Y10164D01*
X48390Y10167D01*
X48482Y10161D01*
X314884Y10161D01*
X314950Y10164D01*
G37*
G36*
X503494Y135255D02*
X503494Y135255D01*
X503847Y135265D01*
X503905Y135272D01*
X503963Y135274D01*
X504313Y135322D01*
X504665Y135365D01*
X504722Y135378D01*
X504780Y135386D01*
X505123Y135468D01*
X505470Y135545D01*
X505525Y135563D01*
X505582Y135577D01*
X505916Y135691D01*
X506253Y135802D01*
X506306Y135825D01*
X506362Y135844D01*
X506684Y135991D01*
X507008Y136133D01*
X507058Y136162D01*
X507112Y136186D01*
X507418Y136363D01*
X507727Y136536D01*
X507775Y136570D01*
X507825Y136599D01*
X508113Y136805D01*
X508404Y137007D01*
X508448Y137044D01*
X508496Y137079D01*
X508762Y137312D01*
X509031Y137541D01*
X509072Y137583D01*
X509116Y137621D01*
X509359Y137879D01*
X509605Y138133D01*
X509641Y138179D01*
X509681Y138221D01*
X509898Y138502D01*
X510118Y138778D01*
X510150Y138827D01*
X510185Y138874D01*
X510374Y139173D01*
X510566Y139470D01*
X510587Y139513D01*
X510624Y139572D01*
X510775Y139873D01*
X516574Y145672D01*
X552754Y181852D01*
X552953Y182071D01*
X553157Y182284D01*
X553229Y182376D01*
X553308Y182463D01*
X553484Y182700D01*
X553667Y182931D01*
X553730Y183030D01*
X553800Y183124D01*
X553953Y183377D01*
X554112Y183625D01*
X554165Y183729D01*
X554226Y183830D01*
X554353Y184096D01*
X554488Y184359D01*
X554531Y184468D01*
X554581Y184573D01*
X554682Y184851D01*
X554791Y185126D01*
X554823Y185238D01*
X554863Y185348D01*
X554937Y185635D01*
X555018Y185918D01*
X555039Y186033D01*
X555068Y186146D01*
X555114Y186439D01*
X555167Y186729D01*
X555174Y186821D01*
X555195Y186961D01*
X555243Y187784D01*
X555241Y187830D01*
X555243Y187862D01*
X555243Y217610D01*
X557718Y223585D01*
X562291Y228158D01*
X568266Y230633D01*
X572280Y230633D01*
X572614Y230649D01*
X572948Y230659D01*
X573025Y230669D01*
X573103Y230673D01*
X573434Y230721D01*
X573766Y230764D01*
X573842Y230781D01*
X573919Y230792D01*
X574244Y230873D01*
X574569Y230947D01*
X574643Y230972D01*
X574719Y230990D01*
X575035Y231102D01*
X575352Y231207D01*
X575423Y231239D01*
X575496Y231265D01*
X575800Y231406D01*
X576105Y231542D01*
X576173Y231580D01*
X576243Y231613D01*
X576532Y231784D01*
X576822Y231948D01*
X576886Y231993D01*
X576953Y232033D01*
X577224Y232230D01*
X577497Y232422D01*
X577556Y232473D01*
X577619Y232519D01*
X577869Y232742D01*
X578122Y232959D01*
X578176Y233015D01*
X578235Y233067D01*
X578462Y233313D01*
X578693Y233554D01*
X578741Y233615D01*
X578794Y233673D01*
X578996Y233938D01*
X579203Y234201D01*
X579245Y234267D01*
X579292Y234329D01*
X579467Y234614D01*
X579648Y234895D01*
X579684Y234965D01*
X579725Y235031D01*
X579871Y235331D01*
X580024Y235629D01*
X580053Y235702D01*
X580087Y235772D01*
X580204Y236085D01*
X580327Y236396D01*
X580348Y236471D01*
X580376Y236544D01*
X580462Y236867D01*
X580554Y237188D01*
X580568Y237265D01*
X580588Y237340D01*
X580643Y237670D01*
X580703Y237999D01*
X580708Y238062D01*
X580723Y238154D01*
X580778Y238976D01*
X580775Y239069D01*
X580779Y239132D01*
X580779Y269202D01*
X580765Y269497D01*
X580759Y269792D01*
X580745Y269908D01*
X580739Y270025D01*
X580696Y270318D01*
X580662Y270611D01*
X580637Y270725D01*
X580620Y270841D01*
X580549Y271128D01*
X580486Y271416D01*
X580450Y271528D01*
X580422Y271641D01*
X580323Y271920D01*
X580233Y272201D01*
X580186Y272308D01*
X580147Y272419D01*
X580022Y272686D01*
X579905Y272957D01*
X579848Y273060D01*
X579799Y273166D01*
X579648Y273420D01*
X579505Y273678D01*
X579439Y273775D01*
X579379Y273875D01*
X579205Y274113D01*
X579038Y274357D01*
X578976Y274427D01*
X578893Y274541D01*
X578345Y275157D01*
X578311Y275188D01*
X578290Y275212D01*
X538164Y315338D01*
X536421Y317080D01*
X536173Y317306D01*
X535930Y317534D01*
X535869Y317582D01*
X535811Y317634D01*
X535542Y317834D01*
X535278Y318039D01*
X535212Y318080D01*
X535150Y318127D01*
X534863Y318299D01*
X534580Y318477D01*
X534511Y318512D01*
X534444Y318552D01*
X534142Y318697D01*
X533843Y318846D01*
X533770Y318874D01*
X533700Y318908D01*
X533386Y319022D01*
X533074Y319142D01*
X532999Y319163D01*
X532925Y319190D01*
X532602Y319273D01*
X532279Y319362D01*
X532202Y319376D01*
X532127Y319395D01*
X531797Y319446D01*
X531467Y319504D01*
X531389Y319510D01*
X531312Y319522D01*
X530979Y319541D01*
X530645Y319567D01*
X530567Y319565D01*
X530489Y319570D01*
X530155Y319556D01*
X529821Y319549D01*
X529744Y319540D01*
X529666Y319537D01*
X529335Y319492D01*
X529003Y319452D01*
X528926Y319436D01*
X528849Y319425D01*
X528524Y319348D01*
X528197Y319276D01*
X528123Y319253D01*
X528047Y319234D01*
X527731Y319126D01*
X527413Y319023D01*
X527341Y318992D01*
X527267Y318967D01*
X526964Y318829D01*
X526656Y318695D01*
X526588Y318658D01*
X526517Y318625D01*
X526228Y318458D01*
X525935Y318296D01*
X525871Y318252D01*
X525804Y318212D01*
X525532Y318018D01*
X525256Y317828D01*
X525209Y317786D01*
X525133Y317732D01*
X524513Y317190D01*
X524449Y317122D01*
X524402Y317081D01*
X488510Y281189D01*
X488311Y280970D01*
X488107Y280757D01*
X488035Y280665D01*
X487956Y280579D01*
X487780Y280342D01*
X487597Y280110D01*
X487534Y280011D01*
X487464Y279917D01*
X487311Y279664D01*
X487152Y279416D01*
X487099Y279312D01*
X487038Y279211D01*
X486911Y278945D01*
X486776Y278682D01*
X486733Y278573D01*
X486683Y278468D01*
X486582Y278190D01*
X486473Y277915D01*
X486441Y277803D01*
X486401Y277693D01*
X486327Y277407D01*
X486246Y277123D01*
X486225Y277008D01*
X486196Y276895D01*
X486150Y276602D01*
X486097Y276312D01*
X486090Y276220D01*
X486069Y276080D01*
X486021Y275257D01*
X486023Y275211D01*
X486021Y275179D01*
X486021Y234052D01*
X486037Y233718D01*
X486047Y233384D01*
X486057Y233307D01*
X486061Y233229D01*
X486109Y232898D01*
X486152Y232566D01*
X486169Y232490D01*
X486180Y232413D01*
X486261Y232088D01*
X486335Y231763D01*
X486360Y231689D01*
X486378Y231613D01*
X486490Y231297D01*
X486595Y230980D01*
X486627Y230909D01*
X486653Y230836D01*
X486794Y230532D01*
X486801Y230518D01*
X486801Y203200D01*
X486801Y182637D01*
X486761Y182635D01*
X486446Y182629D01*
X486349Y182617D01*
X486252Y182613D01*
X485940Y182569D01*
X485627Y182532D01*
X485532Y182511D01*
X485435Y182497D01*
X485130Y182423D01*
X484822Y182356D01*
X484729Y182326D01*
X484634Y182303D01*
X484337Y182199D01*
X484037Y182103D01*
X483948Y182064D01*
X483856Y182032D01*
X483570Y181900D01*
X483281Y181775D01*
X483196Y181727D01*
X483107Y181687D01*
X482835Y181527D01*
X482560Y181375D01*
X482480Y181320D01*
X482396Y181270D01*
X482140Y181086D01*
X481881Y180907D01*
X481822Y180856D01*
X481728Y180787D01*
X481110Y180242D01*
X481062Y180191D01*
X481026Y180160D01*
X479109Y178242D01*
X473134Y175767D01*
X466666Y175767D01*
X460453Y178341D01*
X460174Y178441D01*
X459899Y178548D01*
X459787Y178580D01*
X459677Y178619D01*
X459390Y178692D01*
X459106Y178772D01*
X458991Y178792D01*
X458877Y178821D01*
X458586Y178865D01*
X458294Y178917D01*
X458178Y178927D01*
X458062Y178944D01*
X457768Y178960D01*
X457473Y178984D01*
X457356Y178982D01*
X457239Y178988D01*
X456944Y178975D01*
X456649Y178970D01*
X456532Y178957D01*
X456415Y178952D01*
X456123Y178910D01*
X455830Y178877D01*
X455715Y178852D01*
X455599Y178836D01*
X455312Y178766D01*
X455023Y178705D01*
X454935Y178675D01*
X454798Y178642D01*
X454020Y178371D01*
X453978Y178352D01*
X453947Y178341D01*
X447734Y175767D01*
X443386Y175767D01*
X443091Y175753D01*
X442796Y175747D01*
X442680Y175733D01*
X442563Y175727D01*
X442270Y175684D01*
X441977Y175650D01*
X441863Y175625D01*
X441747Y175608D01*
X441460Y175537D01*
X441172Y175474D01*
X441060Y175438D01*
X440947Y175410D01*
X440668Y175311D01*
X440387Y175221D01*
X440280Y175174D01*
X440169Y175135D01*
X439902Y175010D01*
X439631Y174893D01*
X439528Y174836D01*
X439422Y174787D01*
X439168Y174636D01*
X438910Y174493D01*
X438814Y174427D01*
X438713Y174367D01*
X438475Y174193D01*
X438231Y174026D01*
X438161Y173964D01*
X438047Y173881D01*
X437431Y173333D01*
X437400Y173299D01*
X437376Y173278D01*
X435170Y171072D01*
X434971Y170853D01*
X434767Y170640D01*
X434695Y170548D01*
X434616Y170461D01*
X434440Y170224D01*
X434257Y169993D01*
X434194Y169894D01*
X434124Y169800D01*
X433971Y169547D01*
X433812Y169299D01*
X433759Y169195D01*
X433698Y169094D01*
X433571Y168828D01*
X433436Y168565D01*
X433393Y168456D01*
X433343Y168351D01*
X433242Y168073D01*
X433133Y167798D01*
X433101Y167686D01*
X433061Y167576D01*
X432987Y167289D01*
X432906Y167006D01*
X432885Y166891D01*
X432856Y166777D01*
X432810Y166485D01*
X432757Y166195D01*
X432750Y166103D01*
X432729Y165963D01*
X432681Y165140D01*
X432683Y165094D01*
X432681Y165062D01*
X432681Y156700D01*
X432697Y156366D01*
X432707Y156032D01*
X432717Y155955D01*
X432721Y155877D01*
X432769Y155546D01*
X432812Y155214D01*
X432829Y155138D01*
X432840Y155061D01*
X432921Y154736D01*
X432995Y154411D01*
X433020Y154337D01*
X433038Y154261D01*
X433150Y153945D01*
X433255Y153628D01*
X433287Y153557D01*
X433313Y153484D01*
X433454Y153180D01*
X433590Y152875D01*
X433628Y152807D01*
X433661Y152737D01*
X433832Y152448D01*
X433996Y152158D01*
X434041Y152094D01*
X434081Y152027D01*
X434278Y151756D01*
X434470Y151483D01*
X434521Y151424D01*
X434567Y151361D01*
X434790Y151111D01*
X435007Y150858D01*
X435063Y150804D01*
X435115Y150745D01*
X435361Y150518D01*
X435602Y150287D01*
X435663Y150239D01*
X435721Y150186D01*
X435986Y149984D01*
X436249Y149777D01*
X436315Y149735D01*
X436377Y149688D01*
X436662Y149513D01*
X436943Y149332D01*
X437013Y149296D01*
X437079Y149255D01*
X437379Y149109D01*
X437677Y148956D01*
X437750Y148927D01*
X437820Y148893D01*
X438133Y148776D01*
X438444Y148653D01*
X438519Y148632D01*
X438592Y148604D01*
X438915Y148518D01*
X439236Y148426D01*
X439313Y148412D01*
X439388Y148392D01*
X439718Y148337D01*
X440047Y148277D01*
X440110Y148272D01*
X440202Y148257D01*
X441024Y148202D01*
X441117Y148205D01*
X441180Y148201D01*
X483267Y148201D01*
X489192Y145747D01*
X494922Y140016D01*
X497208Y137731D01*
X497470Y137492D01*
X497728Y137251D01*
X497775Y137216D01*
X497818Y137177D01*
X498103Y136965D01*
X498383Y136750D01*
X498432Y136719D01*
X498479Y136684D01*
X498784Y136501D01*
X499083Y136315D01*
X499135Y136289D01*
X499185Y136259D01*
X499505Y136106D01*
X499822Y135949D01*
X499876Y135928D01*
X499929Y135903D01*
X500261Y135782D01*
X500592Y135657D01*
X500649Y135641D01*
X500704Y135621D01*
X501046Y135533D01*
X501388Y135440D01*
X501445Y135431D01*
X501502Y135416D01*
X501851Y135362D01*
X502201Y135302D01*
X502259Y135298D01*
X502316Y135289D01*
X502669Y135269D01*
X503023Y135243D01*
X503081Y135245D01*
X503139Y135242D01*
X503494Y135255D01*
G37*
G36*
X77219Y122025D02*
X77219Y122025D01*
X77610Y122035D01*
X77629Y122038D01*
X77648Y122038D01*
X78037Y122088D01*
X78428Y122136D01*
X78447Y122140D01*
X78466Y122143D01*
X78846Y122230D01*
X79233Y122316D01*
X79251Y122322D01*
X79269Y122326D01*
X79644Y122451D01*
X80016Y122573D01*
X80033Y122580D01*
X80052Y122586D01*
X80413Y122747D01*
X80771Y122904D01*
X80787Y122913D01*
X80805Y122921D01*
X81145Y123114D01*
X81490Y123307D01*
X81506Y123318D01*
X81522Y123327D01*
X81842Y123552D01*
X82167Y123778D01*
X82181Y123790D01*
X82197Y123801D01*
X82492Y124055D01*
X82795Y124312D01*
X82808Y124326D01*
X82822Y124338D01*
X83091Y124619D01*
X83368Y124905D01*
X83380Y124920D01*
X83393Y124933D01*
X83634Y125239D01*
X83881Y125550D01*
X83891Y125566D01*
X83903Y125581D01*
X84113Y125908D01*
X84329Y126242D01*
X84338Y126259D01*
X84348Y126275D01*
X84528Y126625D01*
X84708Y126974D01*
X84715Y126991D01*
X84724Y127008D01*
X84869Y127374D01*
X85014Y127739D01*
X85020Y127757D01*
X85027Y127775D01*
X85135Y128153D01*
X85245Y128530D01*
X85249Y128549D01*
X85254Y128567D01*
X85325Y128953D01*
X85398Y129340D01*
X85400Y129359D01*
X85403Y129378D01*
X85409Y129454D01*
X85472Y130161D01*
X85470Y130380D01*
X85479Y130511D01*
X85479Y193707D01*
X87933Y199632D01*
X93664Y205362D01*
X142642Y254340D01*
X142867Y254588D01*
X143096Y254831D01*
X143143Y254893D01*
X143196Y254951D01*
X143396Y255219D01*
X143600Y255483D01*
X143641Y255549D01*
X143688Y255612D01*
X143861Y255898D01*
X144039Y256181D01*
X144074Y256251D01*
X144114Y256318D01*
X144258Y256619D01*
X144408Y256918D01*
X144436Y256991D01*
X144469Y257061D01*
X144584Y257376D01*
X144704Y257688D01*
X144724Y257763D01*
X144751Y257836D01*
X144834Y258160D01*
X144924Y258482D01*
X144937Y258559D01*
X144956Y258635D01*
X145008Y258965D01*
X145065Y259294D01*
X145071Y259372D01*
X145083Y259449D01*
X145103Y259784D01*
X145128Y260116D01*
X145126Y260194D01*
X145131Y260272D01*
X145118Y260607D01*
X145111Y260940D01*
X145102Y261018D01*
X145099Y261096D01*
X145053Y261427D01*
X145014Y261759D01*
X144997Y261835D01*
X144986Y261912D01*
X144909Y262238D01*
X144838Y262564D01*
X144814Y262638D01*
X144796Y262714D01*
X144687Y263030D01*
X144585Y263349D01*
X144554Y263421D01*
X144528Y263494D01*
X144390Y263797D01*
X144257Y264105D01*
X144219Y264173D01*
X144187Y264244D01*
X144019Y264534D01*
X143857Y264826D01*
X143813Y264890D01*
X143774Y264958D01*
X143580Y265229D01*
X143390Y265505D01*
X143348Y265553D01*
X143294Y265628D01*
X142751Y266249D01*
X142684Y266312D01*
X142642Y266360D01*
X138733Y270268D01*
X136279Y276193D01*
X136279Y320707D01*
X138733Y326632D01*
X149636Y337534D01*
X149887Y337811D01*
X150140Y338085D01*
X150164Y338116D01*
X150190Y338145D01*
X150413Y338444D01*
X150638Y338741D01*
X150659Y338775D01*
X150682Y338806D01*
X150875Y339125D01*
X151071Y339443D01*
X151088Y339478D01*
X151108Y339512D01*
X151269Y339849D01*
X151433Y340184D01*
X151447Y340220D01*
X151463Y340256D01*
X151591Y340607D01*
X151722Y340956D01*
X151732Y340993D01*
X151745Y341030D01*
X151838Y341393D01*
X151934Y341752D01*
X151941Y341791D01*
X151950Y341829D01*
X152008Y342198D01*
X152069Y342566D01*
X152071Y342604D01*
X152077Y342643D01*
X152099Y343017D01*
X152124Y343388D01*
X152123Y343427D01*
X152125Y343466D01*
X152110Y343839D01*
X152099Y344212D01*
X152094Y344251D01*
X152093Y344290D01*
X152042Y344659D01*
X151994Y345030D01*
X151986Y345068D01*
X151981Y345106D01*
X151894Y345470D01*
X151811Y345833D01*
X151799Y345871D01*
X151790Y345908D01*
X151669Y346262D01*
X151551Y346616D01*
X151535Y346651D01*
X151522Y346688D01*
X151368Y347028D01*
X151216Y347369D01*
X151197Y347403D01*
X151181Y347438D01*
X150993Y347762D01*
X150810Y348086D01*
X150788Y348118D01*
X150768Y348152D01*
X150549Y348458D01*
X150336Y348761D01*
X150311Y348790D01*
X150288Y348822D01*
X150041Y349104D01*
X149799Y349386D01*
X149771Y349413D01*
X149745Y349443D01*
X149473Y349699D01*
X149204Y349957D01*
X149173Y349981D01*
X149145Y350008D01*
X148850Y350236D01*
X148557Y350467D01*
X148524Y350488D01*
X148493Y350512D01*
X148177Y350710D01*
X147863Y350912D01*
X147828Y350930D01*
X147795Y350951D01*
X147462Y351117D01*
X147129Y351288D01*
X147093Y351302D01*
X147058Y351320D01*
X146709Y351454D01*
X146362Y351591D01*
X146325Y351602D01*
X146288Y351616D01*
X145928Y351715D01*
X145570Y351818D01*
X145532Y351825D01*
X145494Y351835D01*
X145126Y351900D01*
X144759Y351967D01*
X144727Y351970D01*
X144682Y351977D01*
X144541Y351988D01*
X142818Y352215D01*
X141548Y352555D01*
X140333Y353059D01*
X139193Y353716D01*
X138150Y354517D01*
X137220Y355447D01*
X136419Y356490D01*
X135762Y357630D01*
X135258Y358845D01*
X134918Y360115D01*
X134746Y361419D01*
X134746Y363611D01*
X144780Y363611D01*
X145113Y363627D01*
X145448Y363637D01*
X145525Y363647D01*
X145603Y363651D01*
X145934Y363699D01*
X146265Y363741D01*
X146341Y363759D01*
X146419Y363770D01*
X146743Y363850D01*
X147069Y363925D01*
X147143Y363949D01*
X147219Y363968D01*
X147534Y364080D01*
X147851Y364185D01*
X147923Y364217D01*
X147996Y364243D01*
X148299Y364384D01*
X148605Y364520D01*
X148672Y364558D01*
X148743Y364591D01*
X149031Y364762D01*
X149322Y364926D01*
X149386Y364971D01*
X149453Y365011D01*
X149723Y365208D01*
X149996Y365400D01*
X150056Y365451D01*
X150119Y365497D01*
X150369Y365720D01*
X150622Y365937D01*
X150676Y365993D01*
X150734Y366045D01*
X150961Y366291D01*
X151192Y366532D01*
X151241Y366593D01*
X151294Y366650D01*
X151495Y366916D01*
X151703Y367179D01*
X151745Y367245D01*
X151792Y367307D01*
X151967Y367591D01*
X152148Y367873D01*
X152183Y367943D01*
X152224Y368009D01*
X152371Y368309D01*
X152523Y368607D01*
X152552Y368680D01*
X152586Y368750D01*
X152703Y369062D01*
X152826Y369374D01*
X152848Y369449D01*
X152875Y369522D01*
X152962Y369845D01*
X153054Y370166D01*
X153068Y370243D01*
X153088Y370318D01*
X153143Y370648D01*
X153203Y370977D01*
X153207Y371040D01*
X153222Y371131D01*
X153277Y371954D01*
X153275Y372047D01*
X153279Y372110D01*
X153263Y372444D01*
X153253Y372778D01*
X153243Y372856D01*
X153239Y372934D01*
X153190Y373265D01*
X153148Y373596D01*
X153131Y373672D01*
X153119Y373749D01*
X153039Y374074D01*
X152965Y374400D01*
X152940Y374474D01*
X152921Y374549D01*
X152810Y374865D01*
X152704Y375182D01*
X152673Y375253D01*
X152647Y375327D01*
X152505Y375630D01*
X152370Y375935D01*
X152331Y376003D01*
X152298Y376074D01*
X152128Y376362D01*
X151963Y376652D01*
X151919Y376716D01*
X151879Y376783D01*
X151682Y377053D01*
X151490Y377327D01*
X151439Y377386D01*
X151393Y377449D01*
X151170Y377699D01*
X150953Y377952D01*
X150896Y378006D01*
X150844Y378065D01*
X150599Y378292D01*
X150358Y378523D01*
X150296Y378571D01*
X150239Y378624D01*
X149973Y378826D01*
X149710Y379033D01*
X149644Y379075D01*
X149582Y379122D01*
X149298Y379297D01*
X149016Y379478D01*
X148947Y379514D01*
X148880Y379555D01*
X148580Y379701D01*
X148283Y379854D01*
X148210Y379883D01*
X148140Y379917D01*
X147827Y380034D01*
X147516Y380157D01*
X147441Y380178D01*
X147368Y380206D01*
X147045Y380292D01*
X146724Y380384D01*
X146647Y380398D01*
X146571Y380418D01*
X146241Y380473D01*
X145913Y380534D01*
X145850Y380538D01*
X145758Y380553D01*
X144936Y380608D01*
X144843Y380605D01*
X144780Y380609D01*
X130194Y380609D01*
X130013Y380698D01*
X129679Y380865D01*
X129642Y380879D01*
X129607Y380896D01*
X129257Y381027D01*
X128909Y381161D01*
X128872Y381172D01*
X128835Y381185D01*
X128475Y381282D01*
X128115Y381381D01*
X128076Y381388D01*
X128039Y381398D01*
X127670Y381459D01*
X127303Y381523D01*
X127264Y381526D01*
X127225Y381532D01*
X126853Y381557D01*
X126481Y381586D01*
X126442Y381585D01*
X126403Y381588D01*
X126029Y381576D01*
X125657Y381568D01*
X125618Y381564D01*
X125579Y381563D01*
X125208Y381515D01*
X124838Y381471D01*
X124800Y381463D01*
X124761Y381458D01*
X124397Y381375D01*
X124033Y381295D01*
X123996Y381283D01*
X123958Y381275D01*
X123603Y381157D01*
X123248Y381042D01*
X123212Y381027D01*
X123175Y381015D01*
X122835Y380863D01*
X122492Y380714D01*
X122458Y380695D01*
X122422Y380680D01*
X122098Y380496D01*
X121771Y380315D01*
X121739Y380293D01*
X121705Y380273D01*
X121401Y380060D01*
X121092Y379847D01*
X121067Y379826D01*
X121030Y379800D01*
X120405Y379263D01*
X120307Y379161D01*
X120237Y379100D01*
X82917Y341780D01*
X82666Y341503D01*
X82413Y341229D01*
X82390Y341198D01*
X82363Y341169D01*
X82140Y340869D01*
X81915Y340573D01*
X81895Y340540D01*
X81871Y340508D01*
X81678Y340188D01*
X81483Y339871D01*
X81466Y339836D01*
X81445Y339802D01*
X81284Y339465D01*
X81120Y339130D01*
X81107Y339094D01*
X81090Y339058D01*
X80962Y338707D01*
X80832Y338358D01*
X80822Y338320D01*
X80808Y338284D01*
X80715Y337922D01*
X80619Y337562D01*
X80613Y337523D01*
X80603Y337485D01*
X80545Y337116D01*
X80485Y336748D01*
X80482Y336710D01*
X80476Y336671D01*
X80454Y336297D01*
X80429Y335926D01*
X80431Y335887D01*
X80428Y335848D01*
X80443Y335475D01*
X80454Y335102D01*
X80459Y335063D01*
X80461Y335024D01*
X80512Y334654D01*
X80559Y334284D01*
X80568Y334246D01*
X80573Y334208D01*
X80659Y333844D01*
X80742Y333481D01*
X80755Y333443D01*
X80764Y333406D01*
X80884Y333054D01*
X81002Y332698D01*
X81018Y332663D01*
X81031Y332626D01*
X81185Y332287D01*
X81337Y331945D01*
X81357Y331911D01*
X81373Y331876D01*
X81560Y331552D01*
X81744Y331228D01*
X81766Y331196D01*
X81786Y331162D01*
X82004Y330858D01*
X82217Y330553D01*
X82243Y330524D01*
X82265Y330492D01*
X82512Y330210D01*
X82754Y329928D01*
X82782Y329901D01*
X82808Y329871D01*
X83080Y329615D01*
X83349Y329357D01*
X83380Y329333D01*
X83408Y329306D01*
X83704Y329078D01*
X83997Y328847D01*
X84030Y328826D01*
X84060Y328802D01*
X84376Y328604D01*
X84691Y328402D01*
X84725Y328384D01*
X84758Y328363D01*
X85092Y328197D01*
X85424Y328026D01*
X85461Y328012D01*
X85496Y327994D01*
X85843Y327861D01*
X86191Y327723D01*
X86229Y327712D01*
X86265Y327698D01*
X86625Y327599D01*
X86983Y327496D01*
X87022Y327489D01*
X87059Y327479D01*
X87428Y327414D01*
X87794Y327347D01*
X87826Y327344D01*
X87871Y327337D01*
X88693Y327274D01*
X88835Y327277D01*
X88927Y327271D01*
X92107Y327271D01*
X93896Y326530D01*
X94155Y326437D01*
X94412Y326335D01*
X94543Y326298D01*
X94672Y326252D01*
X94939Y326184D01*
X95204Y326108D01*
X95338Y326083D01*
X95471Y326050D01*
X95744Y326009D01*
X96015Y325959D01*
X96121Y325951D01*
X96286Y325927D01*
X97109Y325883D01*
X97132Y325884D01*
X97148Y325883D01*
X101483Y325883D01*
X106897Y323640D01*
X111042Y319495D01*
X113285Y314081D01*
X113285Y308219D01*
X111042Y302805D01*
X107510Y299273D01*
X107312Y299054D01*
X107107Y298841D01*
X107035Y298749D01*
X106956Y298662D01*
X106780Y298425D01*
X106597Y298194D01*
X106534Y298095D01*
X106464Y298001D01*
X106311Y297748D01*
X106152Y297500D01*
X106099Y297396D01*
X106038Y297295D01*
X105911Y297028D01*
X105776Y296766D01*
X105733Y296657D01*
X105683Y296552D01*
X105582Y296274D01*
X105473Y295999D01*
X105441Y295887D01*
X105401Y295777D01*
X105327Y295491D01*
X105246Y295207D01*
X105225Y295092D01*
X105196Y294978D01*
X105150Y294687D01*
X105097Y294396D01*
X105090Y294304D01*
X105069Y294164D01*
X105021Y293341D01*
X105023Y293295D01*
X105021Y293263D01*
X105021Y263493D01*
X102567Y257568D01*
X99542Y254543D01*
X99330Y254310D01*
X99113Y254082D01*
X99053Y254005D01*
X98988Y253933D01*
X98799Y253680D01*
X98606Y253432D01*
X98554Y253350D01*
X98495Y253272D01*
X98333Y253002D01*
X98164Y252736D01*
X98120Y252649D01*
X98070Y252566D01*
X97934Y252281D01*
X97792Y252001D01*
X97756Y251910D01*
X97714Y251822D01*
X97606Y251526D01*
X97492Y251233D01*
X97466Y251139D01*
X97432Y251047D01*
X97354Y250743D01*
X97269Y250439D01*
X97251Y250343D01*
X97227Y250249D01*
X97179Y249938D01*
X97154Y249799D01*
X88900Y249799D01*
X88567Y249783D01*
X88232Y249773D01*
X88155Y249763D01*
X88077Y249759D01*
X87746Y249711D01*
X87415Y249669D01*
X87339Y249651D01*
X87261Y249640D01*
X86937Y249559D01*
X86611Y249485D01*
X86537Y249461D01*
X86461Y249442D01*
X86146Y249330D01*
X85829Y249225D01*
X85757Y249193D01*
X85684Y249167D01*
X85381Y249026D01*
X85075Y248890D01*
X85008Y248852D01*
X84937Y248819D01*
X84649Y248648D01*
X84358Y248484D01*
X84294Y248439D01*
X84227Y248399D01*
X83957Y248202D01*
X83684Y248010D01*
X83624Y247959D01*
X83561Y247913D01*
X83311Y247690D01*
X83058Y247473D01*
X83004Y247417D01*
X82946Y247365D01*
X82945Y247364D01*
X82718Y247119D01*
X82487Y246878D01*
X82439Y246816D01*
X82386Y246759D01*
X82184Y246493D01*
X81977Y246230D01*
X81935Y246164D01*
X81888Y246102D01*
X81713Y245818D01*
X81532Y245536D01*
X81496Y245467D01*
X81455Y245400D01*
X81309Y245100D01*
X81156Y244803D01*
X81127Y244730D01*
X81093Y244660D01*
X80976Y244347D01*
X80853Y244036D01*
X80832Y243961D01*
X80804Y243888D01*
X80718Y243565D01*
X80626Y243244D01*
X80612Y243167D01*
X80592Y243091D01*
X80537Y242761D01*
X80476Y242433D01*
X80472Y242370D01*
X80457Y242278D01*
X80402Y241456D01*
X80405Y241363D01*
X80401Y241300D01*
X80401Y231647D01*
X70340Y231647D01*
X70006Y231631D01*
X69672Y231621D01*
X69595Y231611D01*
X69517Y231607D01*
X69186Y231559D01*
X68854Y231516D01*
X68778Y231499D01*
X68701Y231488D01*
X68376Y231407D01*
X68051Y231333D01*
X67977Y231308D01*
X67901Y231290D01*
X67585Y231178D01*
X67268Y231073D01*
X67197Y231041D01*
X67124Y231015D01*
X66820Y230874D01*
X66515Y230738D01*
X66447Y230700D01*
X66377Y230667D01*
X66088Y230496D01*
X65798Y230332D01*
X65734Y230287D01*
X65667Y230247D01*
X65396Y230050D01*
X65123Y229858D01*
X65064Y229807D01*
X65001Y229761D01*
X64751Y229538D01*
X64498Y229321D01*
X64444Y229265D01*
X64385Y229213D01*
X64158Y228966D01*
X63927Y228726D01*
X63879Y228665D01*
X63826Y228607D01*
X63624Y228342D01*
X63417Y228079D01*
X63375Y228013D01*
X63328Y227951D01*
X63153Y227666D01*
X62972Y227385D01*
X62936Y227315D01*
X62895Y227249D01*
X62749Y226949D01*
X62596Y226651D01*
X62567Y226578D01*
X62533Y226508D01*
X62416Y226195D01*
X62293Y225884D01*
X62272Y225809D01*
X62244Y225736D01*
X62158Y225413D01*
X62066Y225092D01*
X62052Y225015D01*
X62032Y224940D01*
X61977Y224610D01*
X61917Y224281D01*
X61912Y224218D01*
X61897Y224126D01*
X61842Y223304D01*
X61845Y223211D01*
X61841Y223148D01*
X61841Y138811D01*
X61852Y138574D01*
X61854Y138337D01*
X61872Y138162D01*
X61881Y137988D01*
X61915Y137753D01*
X61940Y137517D01*
X61975Y137345D01*
X62000Y137172D01*
X62057Y136941D01*
X62105Y136709D01*
X62156Y136542D01*
X62198Y136372D01*
X62277Y136148D01*
X62347Y135921D01*
X62415Y135760D01*
X62473Y135595D01*
X62573Y135380D01*
X62665Y135160D01*
X62747Y135006D01*
X62821Y134848D01*
X62942Y134643D01*
X63055Y134434D01*
X63130Y134326D01*
X63241Y134138D01*
X63659Y133565D01*
X63703Y133502D01*
X70343Y125202D01*
X70356Y125187D01*
X70367Y125172D01*
X70627Y124881D01*
X70889Y124584D01*
X70903Y124571D01*
X70915Y124557D01*
X71201Y124293D01*
X71492Y124022D01*
X71507Y124010D01*
X71521Y123997D01*
X71830Y123762D01*
X72146Y123520D01*
X72162Y123510D01*
X72177Y123499D01*
X72511Y123293D01*
X72846Y123085D01*
X72863Y123077D01*
X72879Y123067D01*
X73232Y122894D01*
X73585Y122719D01*
X73603Y122713D01*
X73620Y122704D01*
X73989Y122566D01*
X74356Y122427D01*
X74374Y122422D01*
X74392Y122416D01*
X74771Y122314D01*
X75151Y122211D01*
X75170Y122208D01*
X75188Y122203D01*
X75574Y122139D01*
X75964Y122073D01*
X75983Y122071D01*
X76002Y122068D01*
X76393Y122042D01*
X76786Y122014D01*
X76805Y122015D01*
X76824Y122013D01*
X77219Y122025D01*
G37*
%LPC*%
G36*
X186299Y84699D02*
X186299Y84699D01*
X186299Y93889D01*
X186331Y93869D01*
X186399Y93835D01*
X186464Y93796D01*
X186768Y93650D01*
X187068Y93500D01*
X187139Y93473D01*
X187208Y93440D01*
X187524Y93325D01*
X187838Y93204D01*
X187911Y93184D01*
X187983Y93158D01*
X188308Y93074D01*
X188632Y92984D01*
X188707Y92971D01*
X188781Y92952D01*
X189113Y92900D01*
X189444Y92842D01*
X189520Y92836D01*
X189595Y92825D01*
X189931Y92805D01*
X190266Y92780D01*
X190342Y92781D01*
X190418Y92777D01*
X190754Y92790D01*
X191090Y92797D01*
X191166Y92806D01*
X191242Y92809D01*
X191576Y92854D01*
X191909Y92894D01*
X191983Y92910D01*
X192059Y92920D01*
X192386Y92998D01*
X192714Y93070D01*
X192787Y93093D01*
X192861Y93111D01*
X193179Y93220D01*
X193499Y93323D01*
X193569Y93353D01*
X193641Y93378D01*
X193946Y93517D01*
X194255Y93651D01*
X194322Y93688D01*
X194391Y93719D01*
X194682Y93887D01*
X194701Y93898D01*
X194701Y84699D01*
X186299Y84699D01*
G37*
%LPD*%
%LPC*%
G36*
X186299Y67701D02*
X186299Y67701D01*
X194701Y67701D01*
X194701Y58511D01*
X194666Y58533D01*
X194597Y58567D01*
X194532Y58606D01*
X194229Y58751D01*
X193928Y58902D01*
X193857Y58929D01*
X193788Y58962D01*
X193473Y59076D01*
X193159Y59197D01*
X193085Y59217D01*
X193014Y59243D01*
X192688Y59327D01*
X192364Y59417D01*
X192289Y59430D01*
X192215Y59449D01*
X191882Y59501D01*
X191552Y59558D01*
X191476Y59564D01*
X191401Y59576D01*
X191064Y59595D01*
X190730Y59621D01*
X190654Y59619D01*
X190578Y59623D01*
X190242Y59610D01*
X189906Y59603D01*
X189830Y59594D01*
X189754Y59591D01*
X189422Y59545D01*
X189087Y59505D01*
X189013Y59489D01*
X188938Y59479D01*
X188610Y59401D01*
X188282Y59329D01*
X188210Y59306D01*
X188136Y59288D01*
X187818Y59179D01*
X187498Y59076D01*
X187428Y59045D01*
X187356Y59021D01*
X187050Y58881D01*
X186741Y58747D01*
X186675Y58711D01*
X186606Y58679D01*
X186314Y58510D01*
X186299Y58502D01*
X186299Y67701D01*
G37*
%LPD*%
%LPC*%
G36*
X397119Y38979D02*
X397119Y38979D01*
X397119Y45248D01*
X397135Y45236D01*
X397293Y45097D01*
X397457Y44979D01*
X397615Y44852D01*
X397792Y44738D01*
X397962Y44615D01*
X398136Y44513D01*
X398306Y44403D01*
X398493Y44306D01*
X398674Y44200D01*
X398858Y44116D01*
X399038Y44023D01*
X399232Y43944D01*
X399423Y43856D01*
X399615Y43790D01*
X399802Y43715D01*
X400004Y43656D01*
X400202Y43587D01*
X400399Y43539D01*
X400593Y43482D01*
X400800Y43443D01*
X401004Y43394D01*
X401204Y43366D01*
X401403Y43328D01*
X401613Y43309D01*
X401820Y43280D01*
X402022Y43271D01*
X402224Y43252D01*
X402434Y43254D01*
X402644Y43245D01*
X402846Y43256D01*
X403048Y43257D01*
X403257Y43278D01*
X403467Y43290D01*
X403667Y43321D01*
X403868Y43341D01*
X404074Y43383D01*
X404282Y43415D01*
X404478Y43464D01*
X404676Y43505D01*
X404877Y43566D01*
X405081Y43618D01*
X405271Y43686D01*
X405465Y43745D01*
X405658Y43826D01*
X405856Y43897D01*
X406039Y43984D01*
X406226Y44062D01*
X406411Y44161D01*
X406601Y44251D01*
X406775Y44355D01*
X406953Y44450D01*
X407128Y44566D01*
X407308Y44674D01*
X407471Y44795D01*
X407639Y44907D01*
X407802Y45040D01*
X407971Y45165D01*
X408061Y45246D01*
X408061Y38979D01*
X397119Y38979D01*
G37*
%LPD*%
%LPC*%
G36*
X376799Y211699D02*
X376799Y211699D01*
X376799Y221659D01*
X377613Y220599D01*
X378346Y219330D01*
X378906Y217976D01*
X379286Y216561D01*
X379477Y215109D01*
X379477Y211699D01*
X376799Y211699D01*
G37*
%LPD*%
%LPC*%
G36*
X503799Y211699D02*
X503799Y211699D01*
X503799Y221659D01*
X504613Y220599D01*
X505346Y219330D01*
X505906Y217976D01*
X506286Y216561D01*
X506477Y215109D01*
X506477Y211699D01*
X503799Y211699D01*
G37*
%LPD*%
%LPC*%
G36*
X503799Y194701D02*
X503799Y194701D01*
X506477Y194701D01*
X506477Y191291D01*
X506286Y189839D01*
X505906Y188424D01*
X505346Y187070D01*
X504613Y185801D01*
X503799Y184741D01*
X503799Y194701D01*
G37*
%LPD*%
%LPC*%
G36*
X376799Y194701D02*
X376799Y194701D01*
X379477Y194701D01*
X379477Y191291D01*
X379286Y189839D01*
X378906Y188424D01*
X378346Y187070D01*
X377613Y185801D01*
X376799Y184741D01*
X376799Y194701D01*
G37*
%LPD*%
%LPC*%
G36*
X211699Y84699D02*
X211699Y84699D01*
X211699Y93317D01*
X212090Y92808D01*
X212789Y91597D01*
X213324Y90305D01*
X213686Y88954D01*
X213869Y87567D01*
X213869Y84699D01*
X211699Y84699D01*
G37*
%LPD*%
%LPC*%
G36*
X211699Y67701D02*
X211699Y67701D01*
X213869Y67701D01*
X213869Y64833D01*
X213686Y63446D01*
X213324Y62095D01*
X212789Y60803D01*
X212090Y59592D01*
X211699Y59083D01*
X211699Y67701D01*
G37*
%LPD*%
%LPC*%
G36*
X167131Y84699D02*
X167131Y84699D01*
X167131Y87567D01*
X167314Y88954D01*
X167676Y90305D01*
X168211Y91597D01*
X168910Y92808D01*
X169301Y93317D01*
X169301Y84699D01*
X167131Y84699D01*
G37*
%LPD*%
%LPC*%
G36*
X168910Y59592D02*
X168910Y59592D01*
X168211Y60803D01*
X167676Y62095D01*
X167314Y63446D01*
X167131Y64833D01*
X167131Y67701D01*
X169301Y67701D01*
X169301Y59083D01*
X168910Y59592D01*
G37*
%LPD*%
%LPC*%
G36*
X341239Y40249D02*
X341239Y40249D01*
X341239Y45986D01*
X341416Y45681D01*
X341900Y44511D01*
X342228Y43289D01*
X342393Y42035D01*
X342393Y40249D01*
X341239Y40249D01*
G37*
%LPD*%
%LPC*%
G36*
X425059Y38979D02*
X425059Y38979D01*
X425059Y44716D01*
X425236Y44411D01*
X425720Y43241D01*
X426048Y42019D01*
X426213Y40765D01*
X426213Y38979D01*
X425059Y38979D01*
G37*
%LPD*%
%LPC*%
G36*
X323087Y40249D02*
X323087Y40249D01*
X323087Y42035D01*
X323252Y43289D01*
X323580Y44511D01*
X324064Y45681D01*
X324241Y45986D01*
X324241Y40249D01*
X323087Y40249D01*
G37*
%LPD*%
%LPC*%
G36*
X378967Y38979D02*
X378967Y38979D01*
X378967Y40765D01*
X379132Y42019D01*
X379460Y43241D01*
X379944Y44411D01*
X380121Y44716D01*
X380121Y38979D01*
X378967Y38979D01*
G37*
%LPD*%
D10*
X170180Y382143D02*
X170180Y362077D01*
X144780Y362077D02*
X144780Y382143D01*
X170180Y192913D02*
X170180Y172847D01*
X144780Y172847D02*
X144780Y192913D01*
D11*
X88900Y457200D02*
X69596Y457200D01*
X69596Y431800D02*
X88900Y431800D01*
X165100Y431800D02*
X184404Y431800D01*
X184404Y457200D02*
X165100Y457200D01*
X88900Y266700D02*
X69596Y266700D01*
X69596Y241300D02*
X88900Y241300D01*
X165100Y241300D02*
X184404Y241300D01*
X184404Y266700D02*
X165100Y266700D01*
D12*
X444500Y214376D02*
X444500Y192024D01*
X469900Y192024D02*
X469900Y214376D01*
X495300Y214376D02*
X495300Y192024D01*
X571500Y192024D02*
X571500Y214376D01*
X596900Y214376D02*
X596900Y192024D01*
X622300Y192024D02*
X622300Y214376D01*
X317500Y214376D02*
X317500Y192024D01*
X342900Y192024D02*
X342900Y214376D01*
X368300Y214376D02*
X368300Y192024D01*
D11*
X85852Y495300D02*
X66548Y495300D01*
X168148Y495300D02*
X187452Y495300D01*
X416560Y40132D02*
X416560Y20828D01*
X416560Y122428D02*
X416560Y141732D01*
X388620Y40132D02*
X388620Y20828D01*
X388620Y122428D02*
X388620Y141732D01*
X332740Y41402D02*
X332740Y22098D01*
X332740Y123698D02*
X332740Y143002D01*
X222250Y485648D02*
X222250Y504952D01*
X222250Y403352D02*
X222250Y384048D01*
X98552Y311150D02*
X79248Y311150D01*
X180848Y311150D02*
X200152Y311150D01*
X227330Y318262D02*
X227330Y298958D01*
X227330Y216662D02*
X227330Y197358D01*
D13*
X299212Y458470D02*
X320548Y458470D01*
X320548Y509270D02*
X299212Y509270D01*
X114300Y86868D02*
X114300Y65532D01*
X88900Y65532D02*
X88900Y86868D01*
X472440Y78232D02*
X472440Y99568D01*
X497840Y99568D02*
X497840Y78232D01*
X292100Y86868D02*
X292100Y65532D01*
X266700Y65532D02*
X266700Y86868D01*
X177800Y86868D02*
X177800Y65532D01*
X203200Y65532D02*
X203200Y86868D01*
X558800Y78232D02*
X558800Y99568D01*
X584200Y99568D02*
X584200Y78232D01*
X584200Y471932D02*
X584200Y493268D01*
X609600Y493268D02*
X609600Y471932D01*
X406400Y471932D02*
X406400Y493268D01*
X431800Y493268D02*
X431800Y471932D01*
X519430Y471932D02*
X519430Y493268D01*
X494030Y493268D02*
X494030Y471932D01*
D14*
X317500Y203200D02*
X317500Y165100D01*
X309245Y156845D02*
X332740Y133350D01*
X292100Y139700D02*
X292100Y76200D01*
X292100Y139700D02*
X309245Y156845D01*
X317500Y165100D01*
D15*
X381000Y165100D03*
X457200Y165100D03*
X76200Y152400D03*
X203200Y152400D03*
D14*
X497840Y114300D02*
X497840Y88900D01*
X497840Y114300D02*
X480060Y132080D01*
X416560Y132080D01*
X416560Y175260D02*
X444500Y203200D01*
X416560Y175260D02*
X416560Y132080D01*
X316230Y506730D02*
X365760Y556260D01*
X316230Y506730D02*
X309880Y509270D01*
X584200Y556260D02*
X625368Y556260D01*
X584200Y556260D02*
X518160Y556260D01*
X454660Y556260D01*
X365760Y556260D01*
X635490Y546138D02*
X635490Y416241D01*
X635490Y546138D02*
X625368Y556260D01*
X657860Y393871D02*
X657860Y104140D01*
X657860Y393871D02*
X635490Y416241D01*
X642620Y88900D02*
X584200Y88900D01*
X642620Y88900D02*
X657860Y104140D01*
X494030Y532130D02*
X518160Y556260D01*
X431800Y533400D02*
X431800Y482600D01*
X431800Y533400D02*
X454660Y556260D01*
X609600Y530860D02*
X609600Y482600D01*
X494030Y482600D02*
X494030Y532130D01*
X584200Y556260D02*
X609600Y530860D01*
X571500Y203200D02*
X571500Y177800D01*
X524510Y130810D01*
X472440Y88900D02*
X472440Y63500D01*
X388620Y107950D02*
X388620Y132080D01*
X388620Y107950D02*
X407670Y88900D01*
X472440Y88900D01*
X472440Y63500D02*
X485140Y50800D01*
X513080Y50800D01*
X524510Y62230D01*
X524510Y130810D01*
X342900Y203200D02*
X342900Y292100D01*
X402590Y351790D01*
X364490Y430530D02*
X331470Y430530D01*
X309880Y452120D01*
X309880Y458470D01*
X402590Y392430D02*
X402590Y351790D01*
X402590Y392430D02*
X364490Y430530D01*
X191770Y393700D02*
X170180Y372110D01*
X191770Y393700D02*
X222250Y393700D01*
X76200Y469900D02*
X76200Y495300D01*
X76200Y469900D02*
X88900Y457200D01*
X228600Y457200D02*
X248920Y436880D01*
X228600Y457200D02*
X165100Y457200D01*
X266700Y213120D02*
X266700Y76200D01*
X165100Y266700D02*
X152400Y279400D01*
X152400Y317500D01*
X213120Y266700D02*
X266700Y213120D01*
X213120Y266700D02*
X165100Y266700D01*
X248920Y373620D02*
X248920Y436880D01*
X171450Y336550D02*
X152400Y317500D01*
X171450Y336550D02*
X173364Y338464D01*
X177800Y338464D01*
X213764Y338464D01*
X248920Y373620D01*
X150139Y431800D02*
X45720Y327381D01*
X45720Y130175D01*
X88900Y76200D01*
X150139Y431800D02*
X165100Y431800D01*
X469900Y285377D02*
X469900Y203200D01*
X469900Y285377D02*
X520700Y336177D01*
X222250Y495300D02*
X177800Y495300D01*
D15*
X190500Y533400D03*
D14*
X177800Y520700D02*
X177800Y495300D01*
X177800Y520700D02*
X190500Y533400D01*
D15*
X533400Y528560D03*
D14*
X520700Y419100D02*
X520700Y336177D01*
X520700Y419100D02*
X558800Y457200D01*
X571500Y457200D01*
X584200Y469900D01*
X584200Y482600D01*
X584200Y509270D01*
X564910Y528560D01*
X533400Y528560D01*
X520700Y515860D01*
X519430Y514590D01*
X519430Y482600D01*
X227330Y207010D02*
X194310Y207010D01*
X170180Y182880D01*
X88900Y266700D02*
X88900Y311150D01*
X596900Y279400D02*
X596900Y203200D01*
X228600Y311150D02*
X190500Y311150D01*
X228600Y311150D02*
X274320Y356870D01*
X274320Y471170D01*
D16*
X285510Y482360D02*
X334267Y482360D01*
D14*
X285510Y482360D02*
X274320Y471170D01*
X381000Y449340D02*
X409970Y449340D01*
X224790Y311150D02*
X190500Y311150D01*
X224790Y311150D02*
X227330Y308610D01*
X409970Y449340D02*
X427510Y431800D01*
X469900Y431800D01*
D15*
X469900Y431800D03*
X596900Y431800D03*
D14*
X546100Y330200D02*
X596900Y279400D01*
X546100Y330200D02*
X546100Y398252D01*
X406400Y452910D02*
X406400Y482600D01*
X406400Y452910D02*
X409970Y449340D01*
X381000Y449340D02*
X347980Y482360D01*
X334267Y482360D01*
X546100Y398951D02*
X546100Y398252D01*
X546100Y398951D02*
X546100Y406400D01*
X571500Y431800D01*
X596900Y431800D01*
X165100Y241300D02*
X152400Y241300D01*
X101600Y190500D01*
X101600Y109220D01*
X114300Y96520D02*
X114300Y76200D01*
X114300Y96520D02*
X101600Y109220D01*
M02*
