G04 EAGLE Gerber RS-274X export*
G75*
%MOMM*%
%FSLAX34Y34*%
%LPD*%
%INBottom Copper*%
%IPPOS*%
%AMOC8*
5,1,8,0,0,1.08239X$1,22.5*%
G01*
%ADD10C,1.530000*%
%ADD11C,1.700000*%
%ADD12C,1.500000*%


D10*
X279400Y50800D03*
X254000Y50800D03*
X190500Y50800D03*
X165100Y50800D03*
X101600Y50800D03*
X76200Y50800D03*
X241300Y120650D03*
X215900Y120650D03*
X140970Y120650D03*
X115570Y120650D03*
D11*
X139700Y179460D02*
X139700Y196460D01*
X165100Y196460D02*
X165100Y179460D01*
X190500Y179460D02*
X190500Y196460D01*
X215900Y196460D02*
X215900Y179460D01*
D12*
X260350Y120650D02*
X279400Y101600D01*
X260350Y120650D02*
X241300Y120650D01*
X279400Y101600D02*
X279400Y50800D01*
X279400Y38100D01*
X267850Y26550D01*
X227450Y26550D02*
X215900Y38100D01*
X215900Y75721D02*
X190500Y101121D01*
X190500Y187960D01*
X227450Y26550D02*
X267850Y26550D01*
X215900Y38100D02*
X215900Y75721D01*
X215900Y107710D02*
X215900Y120650D01*
X215900Y107710D02*
X254000Y69610D01*
X254000Y50800D01*
X215900Y120650D02*
X215900Y187960D01*
X190500Y67310D02*
X190500Y50800D01*
X190500Y67310D02*
X140970Y116840D01*
X140970Y120650D01*
X190500Y43820D02*
X172720Y26040D01*
X113660Y26040D01*
X101600Y38100D01*
X101600Y50800D01*
X190500Y50800D02*
X190500Y43820D01*
X140970Y120650D02*
X140970Y137160D01*
X165100Y161290D01*
X165100Y187960D01*
X115570Y120650D02*
X115570Y100330D01*
X165100Y50800D01*
X115570Y100330D02*
X114300Y101600D01*
X76200Y63500D01*
X76200Y50800D01*
X115570Y120650D02*
X115570Y163830D01*
X139700Y187960D01*
M02*
