G04 EAGLE Gerber RS-274X export*
G75*
%MOMM*%
%FSLAX34Y34*%
%LPD*%
%IN*%
%IPPOS*%
%AMOC8*
5,1,8,0,0,1.08239X$1,22.5*%
G01*
%ADD10C,0.254000*%


D10*
X0Y0D02*
X355600Y0D01*
X355600Y177800D01*
X343855Y192813D01*
X330846Y206745D01*
X316672Y219491D01*
X301441Y230952D01*
X285269Y241043D01*
X268279Y249685D01*
X250601Y256814D01*
X232369Y262375D01*
X213721Y266326D01*
X194800Y268637D01*
X175750Y269289D01*
X156715Y268279D01*
X137840Y265614D01*
X119270Y261314D01*
X101145Y255412D01*
X83604Y247952D01*
X66780Y238992D01*
X50800Y228600D01*
X35787Y216855D01*
X21855Y203845D01*
X9109Y189672D01*
X0Y177800D01*
X0Y0D01*
X345200Y151864D02*
X345124Y150796D01*
X344971Y149735D01*
X344743Y148688D01*
X344441Y147660D01*
X344067Y146656D01*
X343622Y145681D01*
X343108Y144741D01*
X342529Y143840D01*
X341887Y142982D01*
X341185Y142172D01*
X340428Y141415D01*
X339618Y140713D01*
X338760Y140071D01*
X337859Y139492D01*
X336919Y138978D01*
X335944Y138533D01*
X334940Y138159D01*
X333912Y137857D01*
X332865Y137629D01*
X331804Y137476D01*
X330736Y137400D01*
X329664Y137400D01*
X328596Y137476D01*
X327535Y137629D01*
X326488Y137857D01*
X325460Y138159D01*
X324456Y138533D01*
X323481Y138978D01*
X322541Y139492D01*
X321640Y140071D01*
X320782Y140713D01*
X319972Y141415D01*
X319215Y142172D01*
X318513Y142982D01*
X317871Y143840D01*
X317292Y144741D01*
X316778Y145681D01*
X316333Y146656D01*
X315959Y147660D01*
X315657Y148688D01*
X315429Y149735D01*
X315276Y150796D01*
X315200Y151864D01*
X315200Y152936D01*
X315276Y154004D01*
X315429Y155065D01*
X315657Y156112D01*
X315959Y157140D01*
X316333Y158144D01*
X316778Y159119D01*
X317292Y160059D01*
X317871Y160960D01*
X318513Y161818D01*
X319215Y162628D01*
X319972Y163385D01*
X320782Y164087D01*
X321640Y164729D01*
X322541Y165308D01*
X323481Y165822D01*
X324456Y166267D01*
X325460Y166641D01*
X326488Y166943D01*
X327535Y167171D01*
X328596Y167324D01*
X329664Y167400D01*
X330736Y167400D01*
X331804Y167324D01*
X332865Y167171D01*
X333912Y166943D01*
X334940Y166641D01*
X335944Y166267D01*
X336919Y165822D01*
X337859Y165308D01*
X338760Y164729D01*
X339618Y164087D01*
X340428Y163385D01*
X341185Y162628D01*
X341887Y161818D01*
X342529Y160960D01*
X343108Y160059D01*
X343622Y159119D01*
X344067Y158144D01*
X344441Y157140D01*
X344743Y156112D01*
X344971Y155065D01*
X345124Y154004D01*
X345200Y152936D01*
X345200Y151864D01*
X345200Y24864D02*
X345124Y23796D01*
X344971Y22735D01*
X344743Y21688D01*
X344441Y20660D01*
X344067Y19656D01*
X343622Y18681D01*
X343108Y17741D01*
X342529Y16840D01*
X341887Y15982D01*
X341185Y15172D01*
X340428Y14415D01*
X339618Y13713D01*
X338760Y13071D01*
X337859Y12492D01*
X336919Y11978D01*
X335944Y11533D01*
X334940Y11159D01*
X333912Y10857D01*
X332865Y10629D01*
X331804Y10476D01*
X330736Y10400D01*
X329664Y10400D01*
X328596Y10476D01*
X327535Y10629D01*
X326488Y10857D01*
X325460Y11159D01*
X324456Y11533D01*
X323481Y11978D01*
X322541Y12492D01*
X321640Y13071D01*
X320782Y13713D01*
X319972Y14415D01*
X319215Y15172D01*
X318513Y15982D01*
X317871Y16840D01*
X317292Y17741D01*
X316778Y18681D01*
X316333Y19656D01*
X315959Y20660D01*
X315657Y21688D01*
X315429Y22735D01*
X315276Y23796D01*
X315200Y24864D01*
X315200Y25936D01*
X315276Y27004D01*
X315429Y28065D01*
X315657Y29112D01*
X315959Y30140D01*
X316333Y31144D01*
X316778Y32119D01*
X317292Y33059D01*
X317871Y33960D01*
X318513Y34818D01*
X319215Y35628D01*
X319972Y36385D01*
X320782Y37087D01*
X321640Y37729D01*
X322541Y38308D01*
X323481Y38822D01*
X324456Y39267D01*
X325460Y39641D01*
X326488Y39943D01*
X327535Y40171D01*
X328596Y40324D01*
X329664Y40400D01*
X330736Y40400D01*
X331804Y40324D01*
X332865Y40171D01*
X333912Y39943D01*
X334940Y39641D01*
X335944Y39267D01*
X336919Y38822D01*
X337859Y38308D01*
X338760Y37729D01*
X339618Y37087D01*
X340428Y36385D01*
X341185Y35628D01*
X341887Y34818D01*
X342529Y33960D01*
X343108Y33059D01*
X343622Y32119D01*
X344067Y31144D01*
X344441Y30140D01*
X344743Y29112D01*
X344971Y28065D01*
X345124Y27004D01*
X345200Y25936D01*
X345200Y24864D01*
X40400Y24864D02*
X40324Y23796D01*
X40171Y22735D01*
X39943Y21688D01*
X39641Y20660D01*
X39267Y19656D01*
X38822Y18681D01*
X38308Y17741D01*
X37729Y16840D01*
X37087Y15982D01*
X36385Y15172D01*
X35628Y14415D01*
X34818Y13713D01*
X33960Y13071D01*
X33059Y12492D01*
X32119Y11978D01*
X31144Y11533D01*
X30140Y11159D01*
X29112Y10857D01*
X28065Y10629D01*
X27004Y10476D01*
X25936Y10400D01*
X24864Y10400D01*
X23796Y10476D01*
X22735Y10629D01*
X21688Y10857D01*
X20660Y11159D01*
X19656Y11533D01*
X18681Y11978D01*
X17741Y12492D01*
X16840Y13071D01*
X15982Y13713D01*
X15172Y14415D01*
X14415Y15172D01*
X13713Y15982D01*
X13071Y16840D01*
X12492Y17741D01*
X11978Y18681D01*
X11533Y19656D01*
X11159Y20660D01*
X10857Y21688D01*
X10629Y22735D01*
X10476Y23796D01*
X10400Y24864D01*
X10400Y25936D01*
X10476Y27004D01*
X10629Y28065D01*
X10857Y29112D01*
X11159Y30140D01*
X11533Y31144D01*
X11978Y32119D01*
X12492Y33059D01*
X13071Y33960D01*
X13713Y34818D01*
X14415Y35628D01*
X15172Y36385D01*
X15982Y37087D01*
X16840Y37729D01*
X17741Y38308D01*
X18681Y38822D01*
X19656Y39267D01*
X20660Y39641D01*
X21688Y39943D01*
X22735Y40171D01*
X23796Y40324D01*
X24864Y40400D01*
X25936Y40400D01*
X27004Y40324D01*
X28065Y40171D01*
X29112Y39943D01*
X30140Y39641D01*
X31144Y39267D01*
X32119Y38822D01*
X33059Y38308D01*
X33960Y37729D01*
X34818Y37087D01*
X35628Y36385D01*
X36385Y35628D01*
X37087Y34818D01*
X37729Y33960D01*
X38308Y33059D01*
X38822Y32119D01*
X39267Y31144D01*
X39641Y30140D01*
X39943Y29112D01*
X40171Y28065D01*
X40324Y27004D01*
X40400Y25936D01*
X40400Y24864D01*
X40400Y151864D02*
X40324Y150796D01*
X40171Y149735D01*
X39943Y148688D01*
X39641Y147660D01*
X39267Y146656D01*
X38822Y145681D01*
X38308Y144741D01*
X37729Y143840D01*
X37087Y142982D01*
X36385Y142172D01*
X35628Y141415D01*
X34818Y140713D01*
X33960Y140071D01*
X33059Y139492D01*
X32119Y138978D01*
X31144Y138533D01*
X30140Y138159D01*
X29112Y137857D01*
X28065Y137629D01*
X27004Y137476D01*
X25936Y137400D01*
X24864Y137400D01*
X23796Y137476D01*
X22735Y137629D01*
X21688Y137857D01*
X20660Y138159D01*
X19656Y138533D01*
X18681Y138978D01*
X17741Y139492D01*
X16840Y140071D01*
X15982Y140713D01*
X15172Y141415D01*
X14415Y142172D01*
X13713Y142982D01*
X13071Y143840D01*
X12492Y144741D01*
X11978Y145681D01*
X11533Y146656D01*
X11159Y147660D01*
X10857Y148688D01*
X10629Y149735D01*
X10476Y150796D01*
X10400Y151864D01*
X10400Y152936D01*
X10476Y154004D01*
X10629Y155065D01*
X10857Y156112D01*
X11159Y157140D01*
X11533Y158144D01*
X11978Y159119D01*
X12492Y160059D01*
X13071Y160960D01*
X13713Y161818D01*
X14415Y162628D01*
X15172Y163385D01*
X15982Y164087D01*
X16840Y164729D01*
X17741Y165308D01*
X18681Y165822D01*
X19656Y166267D01*
X20660Y166641D01*
X21688Y166943D01*
X22735Y167171D01*
X23796Y167324D01*
X24864Y167400D01*
X25936Y167400D01*
X27004Y167324D01*
X28065Y167171D01*
X29112Y166943D01*
X30140Y166641D01*
X31144Y166267D01*
X32119Y165822D01*
X33059Y165308D01*
X33960Y164729D01*
X34818Y164087D01*
X35628Y163385D01*
X36385Y162628D01*
X37087Y161818D01*
X37729Y160960D01*
X38308Y160059D01*
X38822Y159119D01*
X39267Y158144D01*
X39641Y157140D01*
X39943Y156112D01*
X40171Y155065D01*
X40324Y154004D01*
X40400Y152936D01*
X40400Y151864D01*
M02*
