G04 EAGLE Gerber RS-274X export*
G75*
%MOMM*%
%FSLAX34Y34*%
%LPD*%
%INSilkscreen Top*%
%IPPOS*%
%AMOC8*
5,1,8,0,0,1.08239X$1,22.5*%
G01*
%ADD10C,0.127000*%
%ADD11C,0.050800*%


D10*
X50800Y152400D02*
X50800Y101600D01*
X68580Y101600D01*
X83820Y101600D01*
X93980Y101600D02*
X109220Y101600D01*
X127000Y101600D01*
X127000Y152400D01*
X50800Y152400D01*
X68580Y106680D02*
X68580Y101600D01*
X83820Y101600D02*
X83820Y106680D01*
X83820Y101600D02*
X93980Y101600D01*
X93980Y106680D01*
X109220Y106680D02*
X109220Y101600D01*
X83820Y106680D02*
X68580Y106680D01*
X93980Y106680D02*
X109220Y106680D01*
D11*
X65617Y156436D02*
X65617Y160782D01*
X65617Y156436D02*
X65615Y156366D01*
X65609Y156297D01*
X65599Y156228D01*
X65586Y156160D01*
X65568Y156092D01*
X65547Y156026D01*
X65522Y155961D01*
X65494Y155897D01*
X65462Y155835D01*
X65427Y155775D01*
X65388Y155717D01*
X65346Y155662D01*
X65301Y155608D01*
X65253Y155558D01*
X65203Y155510D01*
X65149Y155465D01*
X65094Y155423D01*
X65036Y155384D01*
X64976Y155349D01*
X64914Y155317D01*
X64850Y155289D01*
X64785Y155264D01*
X64719Y155243D01*
X64651Y155225D01*
X64583Y155212D01*
X64514Y155202D01*
X64445Y155196D01*
X64375Y155194D01*
X63754Y155194D01*
X69838Y155194D02*
X69908Y155196D01*
X69977Y155202D01*
X70046Y155212D01*
X70114Y155225D01*
X70182Y155243D01*
X70248Y155264D01*
X70313Y155289D01*
X70377Y155317D01*
X70439Y155349D01*
X70499Y155384D01*
X70557Y155423D01*
X70612Y155465D01*
X70666Y155510D01*
X70716Y155558D01*
X70764Y155608D01*
X70809Y155662D01*
X70851Y155717D01*
X70890Y155775D01*
X70925Y155835D01*
X70957Y155897D01*
X70985Y155961D01*
X71010Y156026D01*
X71031Y156092D01*
X71049Y156160D01*
X71062Y156228D01*
X71072Y156297D01*
X71078Y156366D01*
X71080Y156436D01*
X69838Y155194D02*
X69739Y155196D01*
X69641Y155201D01*
X69543Y155211D01*
X69445Y155224D01*
X69348Y155240D01*
X69251Y155260D01*
X69156Y155284D01*
X69061Y155312D01*
X68967Y155343D01*
X68875Y155377D01*
X68784Y155415D01*
X68694Y155456D01*
X68606Y155501D01*
X68520Y155549D01*
X68436Y155600D01*
X68354Y155654D01*
X68273Y155712D01*
X68195Y155772D01*
X68120Y155835D01*
X68046Y155901D01*
X67976Y155970D01*
X68131Y159540D02*
X68133Y159610D01*
X68139Y159679D01*
X68149Y159748D01*
X68162Y159816D01*
X68180Y159884D01*
X68201Y159950D01*
X68226Y160015D01*
X68254Y160079D01*
X68286Y160141D01*
X68321Y160201D01*
X68360Y160259D01*
X68402Y160314D01*
X68447Y160368D01*
X68495Y160418D01*
X68545Y160466D01*
X68599Y160511D01*
X68654Y160553D01*
X68712Y160592D01*
X68772Y160627D01*
X68834Y160659D01*
X68898Y160687D01*
X68963Y160712D01*
X69029Y160733D01*
X69097Y160751D01*
X69165Y160764D01*
X69234Y160774D01*
X69303Y160780D01*
X69373Y160782D01*
X69467Y160780D01*
X69560Y160774D01*
X69653Y160765D01*
X69746Y160752D01*
X69838Y160735D01*
X69929Y160715D01*
X70020Y160690D01*
X70109Y160663D01*
X70197Y160631D01*
X70284Y160596D01*
X70370Y160558D01*
X70453Y160516D01*
X70535Y160471D01*
X70616Y160423D01*
X70694Y160371D01*
X70770Y160316D01*
X68752Y158454D02*
X68693Y158490D01*
X68637Y158530D01*
X68583Y158573D01*
X68531Y158618D01*
X68482Y158667D01*
X68436Y158718D01*
X68393Y158771D01*
X68352Y158827D01*
X68315Y158885D01*
X68280Y158945D01*
X68250Y159006D01*
X68222Y159069D01*
X68198Y159134D01*
X68178Y159200D01*
X68161Y159267D01*
X68148Y159334D01*
X68139Y159402D01*
X68133Y159471D01*
X68131Y159540D01*
X70459Y157522D02*
X70518Y157486D01*
X70574Y157446D01*
X70628Y157403D01*
X70680Y157358D01*
X70729Y157309D01*
X70775Y157258D01*
X70818Y157205D01*
X70859Y157149D01*
X70896Y157091D01*
X70931Y157031D01*
X70961Y156970D01*
X70989Y156907D01*
X71013Y156842D01*
X71033Y156776D01*
X71050Y156709D01*
X71063Y156642D01*
X71072Y156574D01*
X71078Y156505D01*
X71080Y156436D01*
X70459Y157522D02*
X68752Y158454D01*
X74466Y160782D02*
X74466Y155194D01*
X72914Y160782D02*
X76018Y160782D01*
X82668Y160782D02*
X82741Y160780D01*
X82814Y160774D01*
X82887Y160765D01*
X82958Y160751D01*
X83030Y160734D01*
X83100Y160714D01*
X83169Y160689D01*
X83236Y160661D01*
X83302Y160630D01*
X83367Y160595D01*
X83429Y160557D01*
X83489Y160515D01*
X83547Y160471D01*
X83603Y160423D01*
X83656Y160373D01*
X83706Y160320D01*
X83754Y160264D01*
X83798Y160206D01*
X83840Y160146D01*
X83878Y160084D01*
X83913Y160019D01*
X83944Y159953D01*
X83972Y159886D01*
X83997Y159817D01*
X84017Y159747D01*
X84034Y159675D01*
X84048Y159604D01*
X84057Y159531D01*
X84063Y159458D01*
X84065Y159385D01*
X82668Y160782D02*
X82584Y160780D01*
X82501Y160774D01*
X82418Y160765D01*
X82336Y160751D01*
X82254Y160734D01*
X82173Y160712D01*
X82093Y160687D01*
X82015Y160659D01*
X81937Y160627D01*
X81862Y160591D01*
X81788Y160552D01*
X81716Y160509D01*
X81646Y160463D01*
X81579Y160414D01*
X81513Y160361D01*
X81451Y160306D01*
X81391Y160248D01*
X81333Y160187D01*
X81279Y160124D01*
X81227Y160058D01*
X81179Y159990D01*
X81134Y159919D01*
X81092Y159847D01*
X81054Y159772D01*
X81019Y159696D01*
X80988Y159619D01*
X80960Y159540D01*
X83598Y158299D02*
X83652Y158352D01*
X83703Y158409D01*
X83751Y158468D01*
X83796Y158529D01*
X83837Y158592D01*
X83876Y158658D01*
X83911Y158725D01*
X83943Y158794D01*
X83971Y158865D01*
X83995Y158936D01*
X84016Y159009D01*
X84033Y159083D01*
X84047Y159158D01*
X84056Y159233D01*
X84062Y159309D01*
X84064Y159385D01*
X83599Y158298D02*
X80960Y155194D01*
X84065Y155194D01*
X86198Y155194D02*
X86198Y155504D01*
X86508Y155504D01*
X86508Y155194D01*
X86198Y155194D01*
X88641Y155194D02*
X90504Y155194D01*
X90574Y155196D01*
X90643Y155202D01*
X90712Y155212D01*
X90780Y155225D01*
X90848Y155243D01*
X90914Y155264D01*
X90979Y155289D01*
X91043Y155317D01*
X91105Y155349D01*
X91165Y155384D01*
X91223Y155423D01*
X91278Y155465D01*
X91332Y155510D01*
X91382Y155558D01*
X91430Y155608D01*
X91475Y155662D01*
X91517Y155717D01*
X91556Y155775D01*
X91591Y155835D01*
X91623Y155897D01*
X91651Y155961D01*
X91676Y156026D01*
X91697Y156092D01*
X91715Y156160D01*
X91728Y156228D01*
X91738Y156297D01*
X91744Y156366D01*
X91746Y156436D01*
X91746Y157057D01*
X91744Y157127D01*
X91738Y157196D01*
X91728Y157265D01*
X91715Y157333D01*
X91697Y157401D01*
X91676Y157467D01*
X91651Y157532D01*
X91623Y157596D01*
X91591Y157658D01*
X91556Y157718D01*
X91517Y157776D01*
X91475Y157831D01*
X91430Y157885D01*
X91382Y157935D01*
X91332Y157983D01*
X91278Y158028D01*
X91223Y158070D01*
X91165Y158109D01*
X91105Y158144D01*
X91043Y158176D01*
X90979Y158204D01*
X90914Y158229D01*
X90848Y158250D01*
X90780Y158268D01*
X90712Y158281D01*
X90643Y158291D01*
X90574Y158297D01*
X90504Y158299D01*
X90504Y158298D02*
X88641Y158298D01*
X88641Y160782D01*
X91746Y160782D01*
X95369Y160782D02*
X94127Y156436D01*
X97232Y156436D01*
X96301Y157678D02*
X96301Y155194D01*
X99303Y155194D02*
X103029Y160782D01*
X99303Y160782D02*
X103029Y155194D01*
X108205Y159385D02*
X108203Y159458D01*
X108197Y159531D01*
X108188Y159604D01*
X108174Y159675D01*
X108157Y159747D01*
X108137Y159817D01*
X108112Y159886D01*
X108084Y159953D01*
X108053Y160019D01*
X108018Y160084D01*
X107980Y160146D01*
X107938Y160206D01*
X107894Y160264D01*
X107846Y160320D01*
X107796Y160373D01*
X107743Y160423D01*
X107687Y160471D01*
X107629Y160515D01*
X107569Y160557D01*
X107507Y160595D01*
X107442Y160630D01*
X107376Y160661D01*
X107309Y160689D01*
X107240Y160714D01*
X107170Y160734D01*
X107098Y160751D01*
X107027Y160765D01*
X106954Y160774D01*
X106881Y160780D01*
X106808Y160782D01*
X106724Y160780D01*
X106641Y160774D01*
X106558Y160765D01*
X106476Y160751D01*
X106394Y160734D01*
X106313Y160712D01*
X106233Y160687D01*
X106155Y160659D01*
X106077Y160627D01*
X106002Y160591D01*
X105928Y160552D01*
X105856Y160509D01*
X105786Y160463D01*
X105719Y160414D01*
X105653Y160361D01*
X105591Y160306D01*
X105531Y160248D01*
X105473Y160187D01*
X105419Y160124D01*
X105367Y160058D01*
X105319Y159990D01*
X105274Y159919D01*
X105232Y159847D01*
X105194Y159772D01*
X105159Y159696D01*
X105128Y159619D01*
X105100Y159540D01*
X107738Y158299D02*
X107792Y158352D01*
X107843Y158409D01*
X107891Y158468D01*
X107936Y158529D01*
X107977Y158592D01*
X108016Y158658D01*
X108051Y158725D01*
X108083Y158794D01*
X108111Y158865D01*
X108135Y158936D01*
X108156Y159009D01*
X108173Y159083D01*
X108187Y159158D01*
X108196Y159233D01*
X108202Y159309D01*
X108204Y159385D01*
X107739Y158298D02*
X105100Y155194D01*
X108205Y155194D01*
X110852Y155194D02*
X110852Y160782D01*
X112405Y160782D01*
X112482Y160780D01*
X112560Y160774D01*
X112636Y160765D01*
X112713Y160751D01*
X112788Y160734D01*
X112862Y160713D01*
X112936Y160688D01*
X113008Y160660D01*
X113078Y160628D01*
X113147Y160593D01*
X113214Y160554D01*
X113279Y160512D01*
X113342Y160467D01*
X113403Y160419D01*
X113461Y160368D01*
X113516Y160314D01*
X113569Y160257D01*
X113618Y160198D01*
X113665Y160136D01*
X113709Y160072D01*
X113749Y160006D01*
X113786Y159938D01*
X113820Y159868D01*
X113850Y159797D01*
X113876Y159724D01*
X113899Y159650D01*
X113918Y159575D01*
X113933Y159500D01*
X113945Y159423D01*
X113953Y159346D01*
X113957Y159269D01*
X113957Y159191D01*
X113953Y159114D01*
X113945Y159037D01*
X113933Y158960D01*
X113918Y158885D01*
X113899Y158810D01*
X113876Y158736D01*
X113850Y158663D01*
X113820Y158592D01*
X113786Y158522D01*
X113749Y158454D01*
X113709Y158388D01*
X113665Y158324D01*
X113618Y158262D01*
X113569Y158203D01*
X113516Y158146D01*
X113461Y158092D01*
X113403Y158041D01*
X113342Y157993D01*
X113279Y157948D01*
X113214Y157906D01*
X113147Y157867D01*
X113078Y157832D01*
X113008Y157800D01*
X112936Y157772D01*
X112862Y157747D01*
X112788Y157726D01*
X112713Y157709D01*
X112636Y157695D01*
X112560Y157686D01*
X112482Y157680D01*
X112405Y157678D01*
X110852Y157678D01*
D10*
X139700Y152400D02*
X139700Y101600D01*
X157480Y101600D01*
X172720Y101600D01*
X182880Y101600D02*
X198120Y101600D01*
X215900Y101600D01*
X215900Y152400D01*
X139700Y152400D01*
X157480Y106680D02*
X157480Y101600D01*
X172720Y101600D02*
X172720Y106680D01*
X172720Y101600D02*
X182880Y101600D01*
X182880Y106680D01*
X198120Y106680D02*
X198120Y101600D01*
X172720Y106680D02*
X157480Y106680D01*
X182880Y106680D02*
X198120Y106680D01*
D11*
X154517Y156436D02*
X154517Y160782D01*
X154517Y156436D02*
X154515Y156366D01*
X154509Y156297D01*
X154499Y156228D01*
X154486Y156160D01*
X154468Y156092D01*
X154447Y156026D01*
X154422Y155961D01*
X154394Y155897D01*
X154362Y155835D01*
X154327Y155775D01*
X154288Y155717D01*
X154246Y155662D01*
X154201Y155608D01*
X154153Y155558D01*
X154103Y155510D01*
X154049Y155465D01*
X153994Y155423D01*
X153936Y155384D01*
X153876Y155349D01*
X153814Y155317D01*
X153750Y155289D01*
X153685Y155264D01*
X153619Y155243D01*
X153551Y155225D01*
X153483Y155212D01*
X153414Y155202D01*
X153345Y155196D01*
X153275Y155194D01*
X152654Y155194D01*
X158738Y155194D02*
X158808Y155196D01*
X158877Y155202D01*
X158946Y155212D01*
X159014Y155225D01*
X159082Y155243D01*
X159148Y155264D01*
X159213Y155289D01*
X159277Y155317D01*
X159339Y155349D01*
X159399Y155384D01*
X159457Y155423D01*
X159512Y155465D01*
X159566Y155510D01*
X159616Y155558D01*
X159664Y155608D01*
X159709Y155662D01*
X159751Y155717D01*
X159790Y155775D01*
X159825Y155835D01*
X159857Y155897D01*
X159885Y155961D01*
X159910Y156026D01*
X159931Y156092D01*
X159949Y156160D01*
X159962Y156228D01*
X159972Y156297D01*
X159978Y156366D01*
X159980Y156436D01*
X158738Y155194D02*
X158639Y155196D01*
X158541Y155201D01*
X158443Y155211D01*
X158345Y155224D01*
X158248Y155240D01*
X158151Y155260D01*
X158056Y155284D01*
X157961Y155312D01*
X157867Y155343D01*
X157775Y155377D01*
X157684Y155415D01*
X157594Y155456D01*
X157506Y155501D01*
X157420Y155549D01*
X157336Y155600D01*
X157254Y155654D01*
X157173Y155712D01*
X157095Y155772D01*
X157020Y155835D01*
X156946Y155901D01*
X156876Y155970D01*
X157031Y159540D02*
X157033Y159610D01*
X157039Y159679D01*
X157049Y159748D01*
X157062Y159816D01*
X157080Y159884D01*
X157101Y159950D01*
X157126Y160015D01*
X157154Y160079D01*
X157186Y160141D01*
X157221Y160201D01*
X157260Y160259D01*
X157302Y160314D01*
X157347Y160368D01*
X157395Y160418D01*
X157445Y160466D01*
X157499Y160511D01*
X157554Y160553D01*
X157612Y160592D01*
X157672Y160627D01*
X157734Y160659D01*
X157798Y160687D01*
X157863Y160712D01*
X157929Y160733D01*
X157997Y160751D01*
X158065Y160764D01*
X158134Y160774D01*
X158203Y160780D01*
X158273Y160782D01*
X158367Y160780D01*
X158460Y160774D01*
X158553Y160765D01*
X158646Y160752D01*
X158738Y160735D01*
X158829Y160715D01*
X158920Y160690D01*
X159009Y160663D01*
X159097Y160631D01*
X159184Y160596D01*
X159270Y160558D01*
X159353Y160516D01*
X159435Y160471D01*
X159516Y160423D01*
X159594Y160371D01*
X159670Y160316D01*
X157652Y158454D02*
X157593Y158490D01*
X157537Y158530D01*
X157483Y158573D01*
X157431Y158618D01*
X157382Y158667D01*
X157336Y158718D01*
X157293Y158771D01*
X157252Y158827D01*
X157215Y158885D01*
X157180Y158945D01*
X157150Y159006D01*
X157122Y159069D01*
X157098Y159134D01*
X157078Y159200D01*
X157061Y159267D01*
X157048Y159334D01*
X157039Y159402D01*
X157033Y159471D01*
X157031Y159540D01*
X159359Y157522D02*
X159418Y157486D01*
X159474Y157446D01*
X159528Y157403D01*
X159580Y157358D01*
X159629Y157309D01*
X159675Y157258D01*
X159718Y157205D01*
X159759Y157149D01*
X159796Y157091D01*
X159831Y157031D01*
X159861Y156970D01*
X159889Y156907D01*
X159913Y156842D01*
X159933Y156776D01*
X159950Y156709D01*
X159963Y156642D01*
X159972Y156574D01*
X159978Y156505D01*
X159980Y156436D01*
X159359Y157522D02*
X157652Y158454D01*
X163366Y160782D02*
X163366Y155194D01*
X161814Y160782D02*
X164918Y160782D01*
X171568Y160782D02*
X171641Y160780D01*
X171714Y160774D01*
X171787Y160765D01*
X171858Y160751D01*
X171930Y160734D01*
X172000Y160714D01*
X172069Y160689D01*
X172136Y160661D01*
X172202Y160630D01*
X172267Y160595D01*
X172329Y160557D01*
X172389Y160515D01*
X172447Y160471D01*
X172503Y160423D01*
X172556Y160373D01*
X172606Y160320D01*
X172654Y160264D01*
X172698Y160206D01*
X172740Y160146D01*
X172778Y160084D01*
X172813Y160019D01*
X172844Y159953D01*
X172872Y159886D01*
X172897Y159817D01*
X172917Y159747D01*
X172934Y159675D01*
X172948Y159604D01*
X172957Y159531D01*
X172963Y159458D01*
X172965Y159385D01*
X171568Y160782D02*
X171484Y160780D01*
X171401Y160774D01*
X171318Y160765D01*
X171236Y160751D01*
X171154Y160734D01*
X171073Y160712D01*
X170993Y160687D01*
X170915Y160659D01*
X170837Y160627D01*
X170762Y160591D01*
X170688Y160552D01*
X170616Y160509D01*
X170546Y160463D01*
X170479Y160414D01*
X170413Y160361D01*
X170351Y160306D01*
X170291Y160248D01*
X170233Y160187D01*
X170179Y160124D01*
X170127Y160058D01*
X170079Y159990D01*
X170034Y159919D01*
X169992Y159847D01*
X169954Y159772D01*
X169919Y159696D01*
X169888Y159619D01*
X169860Y159540D01*
X172498Y158299D02*
X172552Y158352D01*
X172603Y158409D01*
X172651Y158468D01*
X172696Y158529D01*
X172737Y158592D01*
X172776Y158658D01*
X172811Y158725D01*
X172843Y158794D01*
X172871Y158865D01*
X172895Y158936D01*
X172916Y159009D01*
X172933Y159083D01*
X172947Y159158D01*
X172956Y159233D01*
X172962Y159309D01*
X172964Y159385D01*
X172499Y158298D02*
X169860Y155194D01*
X172965Y155194D01*
X175098Y155194D02*
X175098Y155504D01*
X175408Y155504D01*
X175408Y155194D01*
X175098Y155194D01*
X177541Y155194D02*
X179404Y155194D01*
X179474Y155196D01*
X179543Y155202D01*
X179612Y155212D01*
X179680Y155225D01*
X179748Y155243D01*
X179814Y155264D01*
X179879Y155289D01*
X179943Y155317D01*
X180005Y155349D01*
X180065Y155384D01*
X180123Y155423D01*
X180178Y155465D01*
X180232Y155510D01*
X180282Y155558D01*
X180330Y155608D01*
X180375Y155662D01*
X180417Y155717D01*
X180456Y155775D01*
X180491Y155835D01*
X180523Y155897D01*
X180551Y155961D01*
X180576Y156026D01*
X180597Y156092D01*
X180615Y156160D01*
X180628Y156228D01*
X180638Y156297D01*
X180644Y156366D01*
X180646Y156436D01*
X180646Y157057D01*
X180644Y157127D01*
X180638Y157196D01*
X180628Y157265D01*
X180615Y157333D01*
X180597Y157401D01*
X180576Y157467D01*
X180551Y157532D01*
X180523Y157596D01*
X180491Y157658D01*
X180456Y157718D01*
X180417Y157776D01*
X180375Y157831D01*
X180330Y157885D01*
X180282Y157935D01*
X180232Y157983D01*
X180178Y158028D01*
X180123Y158070D01*
X180065Y158109D01*
X180005Y158144D01*
X179943Y158176D01*
X179879Y158204D01*
X179814Y158229D01*
X179748Y158250D01*
X179680Y158268D01*
X179612Y158281D01*
X179543Y158291D01*
X179474Y158297D01*
X179404Y158299D01*
X179404Y158298D02*
X177541Y158298D01*
X177541Y160782D01*
X180646Y160782D01*
X184269Y160782D02*
X183027Y156436D01*
X186132Y156436D01*
X185201Y157678D02*
X185201Y155194D01*
X188203Y155194D02*
X191929Y160782D01*
X188203Y160782D02*
X191929Y155194D01*
X197105Y159385D02*
X197103Y159458D01*
X197097Y159531D01*
X197088Y159604D01*
X197074Y159675D01*
X197057Y159747D01*
X197037Y159817D01*
X197012Y159886D01*
X196984Y159953D01*
X196953Y160019D01*
X196918Y160084D01*
X196880Y160146D01*
X196838Y160206D01*
X196794Y160264D01*
X196746Y160320D01*
X196696Y160373D01*
X196643Y160423D01*
X196587Y160471D01*
X196529Y160515D01*
X196469Y160557D01*
X196407Y160595D01*
X196342Y160630D01*
X196276Y160661D01*
X196209Y160689D01*
X196140Y160714D01*
X196070Y160734D01*
X195998Y160751D01*
X195927Y160765D01*
X195854Y160774D01*
X195781Y160780D01*
X195708Y160782D01*
X195624Y160780D01*
X195541Y160774D01*
X195458Y160765D01*
X195376Y160751D01*
X195294Y160734D01*
X195213Y160712D01*
X195133Y160687D01*
X195055Y160659D01*
X194977Y160627D01*
X194902Y160591D01*
X194828Y160552D01*
X194756Y160509D01*
X194686Y160463D01*
X194619Y160414D01*
X194553Y160361D01*
X194491Y160306D01*
X194431Y160248D01*
X194373Y160187D01*
X194319Y160124D01*
X194267Y160058D01*
X194219Y159990D01*
X194174Y159919D01*
X194132Y159847D01*
X194094Y159772D01*
X194059Y159696D01*
X194028Y159619D01*
X194000Y159540D01*
X196638Y158299D02*
X196692Y158352D01*
X196743Y158409D01*
X196791Y158468D01*
X196836Y158529D01*
X196877Y158592D01*
X196916Y158658D01*
X196951Y158725D01*
X196983Y158794D01*
X197011Y158865D01*
X197035Y158936D01*
X197056Y159009D01*
X197073Y159083D01*
X197087Y159158D01*
X197096Y159233D01*
X197102Y159309D01*
X197104Y159385D01*
X196639Y158298D02*
X194000Y155194D01*
X197105Y155194D01*
X199752Y155194D02*
X199752Y160782D01*
X201305Y160782D01*
X201382Y160780D01*
X201460Y160774D01*
X201536Y160765D01*
X201613Y160751D01*
X201688Y160734D01*
X201762Y160713D01*
X201836Y160688D01*
X201908Y160660D01*
X201978Y160628D01*
X202047Y160593D01*
X202114Y160554D01*
X202179Y160512D01*
X202242Y160467D01*
X202303Y160419D01*
X202361Y160368D01*
X202416Y160314D01*
X202469Y160257D01*
X202518Y160198D01*
X202565Y160136D01*
X202609Y160072D01*
X202649Y160006D01*
X202686Y159938D01*
X202720Y159868D01*
X202750Y159797D01*
X202776Y159724D01*
X202799Y159650D01*
X202818Y159575D01*
X202833Y159500D01*
X202845Y159423D01*
X202853Y159346D01*
X202857Y159269D01*
X202857Y159191D01*
X202853Y159114D01*
X202845Y159037D01*
X202833Y158960D01*
X202818Y158885D01*
X202799Y158810D01*
X202776Y158736D01*
X202750Y158663D01*
X202720Y158592D01*
X202686Y158522D01*
X202649Y158454D01*
X202609Y158388D01*
X202565Y158324D01*
X202518Y158262D01*
X202469Y158203D01*
X202416Y158146D01*
X202361Y158092D01*
X202303Y158041D01*
X202242Y157993D01*
X202179Y157948D01*
X202114Y157906D01*
X202047Y157867D01*
X201978Y157832D01*
X201908Y157800D01*
X201836Y157772D01*
X201762Y157747D01*
X201688Y157726D01*
X201613Y157709D01*
X201536Y157695D01*
X201460Y157686D01*
X201382Y157680D01*
X201305Y157678D01*
X199752Y157678D01*
D10*
X228600Y152400D02*
X228600Y101600D01*
X246380Y101600D01*
X261620Y101600D01*
X271780Y101600D02*
X287020Y101600D01*
X304800Y101600D01*
X304800Y152400D01*
X228600Y152400D01*
X246380Y106680D02*
X246380Y101600D01*
X261620Y101600D02*
X261620Y106680D01*
X261620Y101600D02*
X271780Y101600D01*
X271780Y106680D01*
X287020Y106680D02*
X287020Y101600D01*
X261620Y106680D02*
X246380Y106680D01*
X271780Y106680D02*
X287020Y106680D01*
D11*
X243417Y156436D02*
X243417Y160782D01*
X243417Y156436D02*
X243415Y156366D01*
X243409Y156297D01*
X243399Y156228D01*
X243386Y156160D01*
X243368Y156092D01*
X243347Y156026D01*
X243322Y155961D01*
X243294Y155897D01*
X243262Y155835D01*
X243227Y155775D01*
X243188Y155717D01*
X243146Y155662D01*
X243101Y155608D01*
X243053Y155558D01*
X243003Y155510D01*
X242949Y155465D01*
X242894Y155423D01*
X242836Y155384D01*
X242776Y155349D01*
X242714Y155317D01*
X242650Y155289D01*
X242585Y155264D01*
X242519Y155243D01*
X242451Y155225D01*
X242383Y155212D01*
X242314Y155202D01*
X242245Y155196D01*
X242175Y155194D01*
X241554Y155194D01*
X247638Y155194D02*
X247708Y155196D01*
X247777Y155202D01*
X247846Y155212D01*
X247914Y155225D01*
X247982Y155243D01*
X248048Y155264D01*
X248113Y155289D01*
X248177Y155317D01*
X248239Y155349D01*
X248299Y155384D01*
X248357Y155423D01*
X248412Y155465D01*
X248466Y155510D01*
X248516Y155558D01*
X248564Y155608D01*
X248609Y155662D01*
X248651Y155717D01*
X248690Y155775D01*
X248725Y155835D01*
X248757Y155897D01*
X248785Y155961D01*
X248810Y156026D01*
X248831Y156092D01*
X248849Y156160D01*
X248862Y156228D01*
X248872Y156297D01*
X248878Y156366D01*
X248880Y156436D01*
X247638Y155194D02*
X247539Y155196D01*
X247441Y155201D01*
X247343Y155211D01*
X247245Y155224D01*
X247148Y155240D01*
X247051Y155260D01*
X246956Y155284D01*
X246861Y155312D01*
X246767Y155343D01*
X246675Y155377D01*
X246584Y155415D01*
X246494Y155456D01*
X246406Y155501D01*
X246320Y155549D01*
X246236Y155600D01*
X246154Y155654D01*
X246073Y155712D01*
X245995Y155772D01*
X245920Y155835D01*
X245846Y155901D01*
X245776Y155970D01*
X245931Y159540D02*
X245933Y159610D01*
X245939Y159679D01*
X245949Y159748D01*
X245962Y159816D01*
X245980Y159884D01*
X246001Y159950D01*
X246026Y160015D01*
X246054Y160079D01*
X246086Y160141D01*
X246121Y160201D01*
X246160Y160259D01*
X246202Y160314D01*
X246247Y160368D01*
X246295Y160418D01*
X246345Y160466D01*
X246399Y160511D01*
X246454Y160553D01*
X246512Y160592D01*
X246572Y160627D01*
X246634Y160659D01*
X246698Y160687D01*
X246763Y160712D01*
X246829Y160733D01*
X246897Y160751D01*
X246965Y160764D01*
X247034Y160774D01*
X247103Y160780D01*
X247173Y160782D01*
X247267Y160780D01*
X247360Y160774D01*
X247453Y160765D01*
X247546Y160752D01*
X247638Y160735D01*
X247729Y160715D01*
X247820Y160690D01*
X247909Y160663D01*
X247997Y160631D01*
X248084Y160596D01*
X248170Y160558D01*
X248253Y160516D01*
X248335Y160471D01*
X248416Y160423D01*
X248494Y160371D01*
X248570Y160316D01*
X246552Y158454D02*
X246493Y158490D01*
X246437Y158530D01*
X246383Y158573D01*
X246331Y158618D01*
X246282Y158667D01*
X246236Y158718D01*
X246193Y158771D01*
X246152Y158827D01*
X246115Y158885D01*
X246080Y158945D01*
X246050Y159006D01*
X246022Y159069D01*
X245998Y159134D01*
X245978Y159200D01*
X245961Y159267D01*
X245948Y159334D01*
X245939Y159402D01*
X245933Y159471D01*
X245931Y159540D01*
X248259Y157522D02*
X248318Y157486D01*
X248374Y157446D01*
X248428Y157403D01*
X248480Y157358D01*
X248529Y157309D01*
X248575Y157258D01*
X248618Y157205D01*
X248659Y157149D01*
X248696Y157091D01*
X248731Y157031D01*
X248761Y156970D01*
X248789Y156907D01*
X248813Y156842D01*
X248833Y156776D01*
X248850Y156709D01*
X248863Y156642D01*
X248872Y156574D01*
X248878Y156505D01*
X248880Y156436D01*
X248259Y157522D02*
X246552Y158454D01*
X252266Y160782D02*
X252266Y155194D01*
X250714Y160782D02*
X253818Y160782D01*
X260468Y160782D02*
X260541Y160780D01*
X260614Y160774D01*
X260687Y160765D01*
X260758Y160751D01*
X260830Y160734D01*
X260900Y160714D01*
X260969Y160689D01*
X261036Y160661D01*
X261102Y160630D01*
X261167Y160595D01*
X261229Y160557D01*
X261289Y160515D01*
X261347Y160471D01*
X261403Y160423D01*
X261456Y160373D01*
X261506Y160320D01*
X261554Y160264D01*
X261598Y160206D01*
X261640Y160146D01*
X261678Y160084D01*
X261713Y160019D01*
X261744Y159953D01*
X261772Y159886D01*
X261797Y159817D01*
X261817Y159747D01*
X261834Y159675D01*
X261848Y159604D01*
X261857Y159531D01*
X261863Y159458D01*
X261865Y159385D01*
X260468Y160782D02*
X260384Y160780D01*
X260301Y160774D01*
X260218Y160765D01*
X260136Y160751D01*
X260054Y160734D01*
X259973Y160712D01*
X259893Y160687D01*
X259815Y160659D01*
X259737Y160627D01*
X259662Y160591D01*
X259588Y160552D01*
X259516Y160509D01*
X259446Y160463D01*
X259379Y160414D01*
X259313Y160361D01*
X259251Y160306D01*
X259191Y160248D01*
X259133Y160187D01*
X259079Y160124D01*
X259027Y160058D01*
X258979Y159990D01*
X258934Y159919D01*
X258892Y159847D01*
X258854Y159772D01*
X258819Y159696D01*
X258788Y159619D01*
X258760Y159540D01*
X261398Y158299D02*
X261452Y158352D01*
X261503Y158409D01*
X261551Y158468D01*
X261596Y158529D01*
X261637Y158592D01*
X261676Y158658D01*
X261711Y158725D01*
X261743Y158794D01*
X261771Y158865D01*
X261795Y158936D01*
X261816Y159009D01*
X261833Y159083D01*
X261847Y159158D01*
X261856Y159233D01*
X261862Y159309D01*
X261864Y159385D01*
X261399Y158298D02*
X258760Y155194D01*
X261865Y155194D01*
X263998Y155194D02*
X263998Y155504D01*
X264308Y155504D01*
X264308Y155194D01*
X263998Y155194D01*
X266441Y155194D02*
X268304Y155194D01*
X268374Y155196D01*
X268443Y155202D01*
X268512Y155212D01*
X268580Y155225D01*
X268648Y155243D01*
X268714Y155264D01*
X268779Y155289D01*
X268843Y155317D01*
X268905Y155349D01*
X268965Y155384D01*
X269023Y155423D01*
X269078Y155465D01*
X269132Y155510D01*
X269182Y155558D01*
X269230Y155608D01*
X269275Y155662D01*
X269317Y155717D01*
X269356Y155775D01*
X269391Y155835D01*
X269423Y155897D01*
X269451Y155961D01*
X269476Y156026D01*
X269497Y156092D01*
X269515Y156160D01*
X269528Y156228D01*
X269538Y156297D01*
X269544Y156366D01*
X269546Y156436D01*
X269546Y157057D01*
X269544Y157127D01*
X269538Y157196D01*
X269528Y157265D01*
X269515Y157333D01*
X269497Y157401D01*
X269476Y157467D01*
X269451Y157532D01*
X269423Y157596D01*
X269391Y157658D01*
X269356Y157718D01*
X269317Y157776D01*
X269275Y157831D01*
X269230Y157885D01*
X269182Y157935D01*
X269132Y157983D01*
X269078Y158028D01*
X269023Y158070D01*
X268965Y158109D01*
X268905Y158144D01*
X268843Y158176D01*
X268779Y158204D01*
X268714Y158229D01*
X268648Y158250D01*
X268580Y158268D01*
X268512Y158281D01*
X268443Y158291D01*
X268374Y158297D01*
X268304Y158299D01*
X268304Y158298D02*
X266441Y158298D01*
X266441Y160782D01*
X269546Y160782D01*
X273169Y160782D02*
X271927Y156436D01*
X275032Y156436D01*
X274101Y157678D02*
X274101Y155194D01*
X277103Y155194D02*
X280829Y160782D01*
X277103Y160782D02*
X280829Y155194D01*
X286005Y159385D02*
X286003Y159458D01*
X285997Y159531D01*
X285988Y159604D01*
X285974Y159675D01*
X285957Y159747D01*
X285937Y159817D01*
X285912Y159886D01*
X285884Y159953D01*
X285853Y160019D01*
X285818Y160084D01*
X285780Y160146D01*
X285738Y160206D01*
X285694Y160264D01*
X285646Y160320D01*
X285596Y160373D01*
X285543Y160423D01*
X285487Y160471D01*
X285429Y160515D01*
X285369Y160557D01*
X285307Y160595D01*
X285242Y160630D01*
X285176Y160661D01*
X285109Y160689D01*
X285040Y160714D01*
X284970Y160734D01*
X284898Y160751D01*
X284827Y160765D01*
X284754Y160774D01*
X284681Y160780D01*
X284608Y160782D01*
X284524Y160780D01*
X284441Y160774D01*
X284358Y160765D01*
X284276Y160751D01*
X284194Y160734D01*
X284113Y160712D01*
X284033Y160687D01*
X283955Y160659D01*
X283877Y160627D01*
X283802Y160591D01*
X283728Y160552D01*
X283656Y160509D01*
X283586Y160463D01*
X283519Y160414D01*
X283453Y160361D01*
X283391Y160306D01*
X283331Y160248D01*
X283273Y160187D01*
X283219Y160124D01*
X283167Y160058D01*
X283119Y159990D01*
X283074Y159919D01*
X283032Y159847D01*
X282994Y159772D01*
X282959Y159696D01*
X282928Y159619D01*
X282900Y159540D01*
X285538Y158299D02*
X285592Y158352D01*
X285643Y158409D01*
X285691Y158468D01*
X285736Y158529D01*
X285777Y158592D01*
X285816Y158658D01*
X285851Y158725D01*
X285883Y158794D01*
X285911Y158865D01*
X285935Y158936D01*
X285956Y159009D01*
X285973Y159083D01*
X285987Y159158D01*
X285996Y159233D01*
X286002Y159309D01*
X286004Y159385D01*
X285539Y158298D02*
X282900Y155194D01*
X286005Y155194D01*
X288652Y155194D02*
X288652Y160782D01*
X290205Y160782D01*
X290282Y160780D01*
X290360Y160774D01*
X290436Y160765D01*
X290513Y160751D01*
X290588Y160734D01*
X290662Y160713D01*
X290736Y160688D01*
X290808Y160660D01*
X290878Y160628D01*
X290947Y160593D01*
X291014Y160554D01*
X291079Y160512D01*
X291142Y160467D01*
X291203Y160419D01*
X291261Y160368D01*
X291316Y160314D01*
X291369Y160257D01*
X291418Y160198D01*
X291465Y160136D01*
X291509Y160072D01*
X291549Y160006D01*
X291586Y159938D01*
X291620Y159868D01*
X291650Y159797D01*
X291676Y159724D01*
X291699Y159650D01*
X291718Y159575D01*
X291733Y159500D01*
X291745Y159423D01*
X291753Y159346D01*
X291757Y159269D01*
X291757Y159191D01*
X291753Y159114D01*
X291745Y159037D01*
X291733Y158960D01*
X291718Y158885D01*
X291699Y158810D01*
X291676Y158736D01*
X291650Y158663D01*
X291620Y158592D01*
X291586Y158522D01*
X291549Y158454D01*
X291509Y158388D01*
X291465Y158324D01*
X291418Y158262D01*
X291369Y158203D01*
X291316Y158146D01*
X291261Y158092D01*
X291203Y158041D01*
X291142Y157993D01*
X291079Y157948D01*
X291014Y157906D01*
X290947Y157867D01*
X290878Y157832D01*
X290808Y157800D01*
X290736Y157772D01*
X290662Y157747D01*
X290588Y157726D01*
X290513Y157709D01*
X290436Y157695D01*
X290360Y157686D01*
X290282Y157680D01*
X290205Y157678D01*
X288652Y157678D01*
D10*
X88900Y76200D02*
X88900Y25400D01*
X106680Y25400D01*
X121920Y25400D01*
X132080Y25400D02*
X147320Y25400D01*
X165100Y25400D01*
X165100Y76200D01*
X88900Y76200D01*
X106680Y30480D02*
X106680Y25400D01*
X121920Y25400D02*
X121920Y30480D01*
X121920Y25400D02*
X132080Y25400D01*
X132080Y30480D01*
X147320Y30480D02*
X147320Y25400D01*
X121920Y30480D02*
X106680Y30480D01*
X132080Y30480D02*
X147320Y30480D01*
D11*
X103717Y80236D02*
X103717Y84582D01*
X103717Y80236D02*
X103715Y80166D01*
X103709Y80097D01*
X103699Y80028D01*
X103686Y79960D01*
X103668Y79892D01*
X103647Y79826D01*
X103622Y79761D01*
X103594Y79697D01*
X103562Y79635D01*
X103527Y79575D01*
X103488Y79517D01*
X103446Y79462D01*
X103401Y79408D01*
X103353Y79358D01*
X103303Y79310D01*
X103249Y79265D01*
X103194Y79223D01*
X103136Y79184D01*
X103076Y79149D01*
X103014Y79117D01*
X102950Y79089D01*
X102885Y79064D01*
X102819Y79043D01*
X102751Y79025D01*
X102683Y79012D01*
X102614Y79002D01*
X102545Y78996D01*
X102475Y78994D01*
X101854Y78994D01*
X107938Y78994D02*
X108008Y78996D01*
X108077Y79002D01*
X108146Y79012D01*
X108214Y79025D01*
X108282Y79043D01*
X108348Y79064D01*
X108413Y79089D01*
X108477Y79117D01*
X108539Y79149D01*
X108599Y79184D01*
X108657Y79223D01*
X108712Y79265D01*
X108766Y79310D01*
X108816Y79358D01*
X108864Y79408D01*
X108909Y79462D01*
X108951Y79517D01*
X108990Y79575D01*
X109025Y79635D01*
X109057Y79697D01*
X109085Y79761D01*
X109110Y79826D01*
X109131Y79892D01*
X109149Y79960D01*
X109162Y80028D01*
X109172Y80097D01*
X109178Y80166D01*
X109180Y80236D01*
X107938Y78994D02*
X107839Y78996D01*
X107741Y79001D01*
X107643Y79011D01*
X107545Y79024D01*
X107448Y79040D01*
X107351Y79060D01*
X107256Y79084D01*
X107161Y79112D01*
X107067Y79143D01*
X106975Y79177D01*
X106884Y79215D01*
X106794Y79256D01*
X106706Y79301D01*
X106620Y79349D01*
X106536Y79400D01*
X106454Y79454D01*
X106373Y79512D01*
X106295Y79572D01*
X106220Y79635D01*
X106146Y79701D01*
X106076Y79770D01*
X106231Y83340D02*
X106233Y83410D01*
X106239Y83479D01*
X106249Y83548D01*
X106262Y83616D01*
X106280Y83684D01*
X106301Y83750D01*
X106326Y83815D01*
X106354Y83879D01*
X106386Y83941D01*
X106421Y84001D01*
X106460Y84059D01*
X106502Y84114D01*
X106547Y84168D01*
X106595Y84218D01*
X106645Y84266D01*
X106699Y84311D01*
X106754Y84353D01*
X106812Y84392D01*
X106872Y84427D01*
X106934Y84459D01*
X106998Y84487D01*
X107063Y84512D01*
X107129Y84533D01*
X107197Y84551D01*
X107265Y84564D01*
X107334Y84574D01*
X107403Y84580D01*
X107473Y84582D01*
X107567Y84580D01*
X107660Y84574D01*
X107753Y84565D01*
X107846Y84552D01*
X107938Y84535D01*
X108029Y84515D01*
X108120Y84490D01*
X108209Y84463D01*
X108297Y84431D01*
X108384Y84396D01*
X108470Y84358D01*
X108553Y84316D01*
X108635Y84271D01*
X108716Y84223D01*
X108794Y84171D01*
X108870Y84116D01*
X106852Y82254D02*
X106793Y82290D01*
X106737Y82330D01*
X106683Y82373D01*
X106631Y82418D01*
X106582Y82467D01*
X106536Y82518D01*
X106493Y82571D01*
X106452Y82627D01*
X106415Y82685D01*
X106380Y82745D01*
X106350Y82806D01*
X106322Y82869D01*
X106298Y82934D01*
X106278Y83000D01*
X106261Y83067D01*
X106248Y83134D01*
X106239Y83202D01*
X106233Y83271D01*
X106231Y83340D01*
X108559Y81322D02*
X108618Y81286D01*
X108674Y81246D01*
X108728Y81203D01*
X108780Y81158D01*
X108829Y81109D01*
X108875Y81058D01*
X108918Y81005D01*
X108959Y80949D01*
X108996Y80891D01*
X109031Y80831D01*
X109061Y80770D01*
X109089Y80707D01*
X109113Y80642D01*
X109133Y80576D01*
X109150Y80509D01*
X109163Y80442D01*
X109172Y80374D01*
X109178Y80305D01*
X109180Y80236D01*
X108559Y81322D02*
X106852Y82254D01*
X112566Y84582D02*
X112566Y78994D01*
X111014Y84582D02*
X114118Y84582D01*
X120768Y84582D02*
X120841Y84580D01*
X120914Y84574D01*
X120987Y84565D01*
X121058Y84551D01*
X121130Y84534D01*
X121200Y84514D01*
X121269Y84489D01*
X121336Y84461D01*
X121402Y84430D01*
X121467Y84395D01*
X121529Y84357D01*
X121589Y84315D01*
X121647Y84271D01*
X121703Y84223D01*
X121756Y84173D01*
X121806Y84120D01*
X121854Y84064D01*
X121898Y84006D01*
X121940Y83946D01*
X121978Y83884D01*
X122013Y83819D01*
X122044Y83753D01*
X122072Y83686D01*
X122097Y83617D01*
X122117Y83547D01*
X122134Y83475D01*
X122148Y83404D01*
X122157Y83331D01*
X122163Y83258D01*
X122165Y83185D01*
X120768Y84582D02*
X120684Y84580D01*
X120601Y84574D01*
X120518Y84565D01*
X120436Y84551D01*
X120354Y84534D01*
X120273Y84512D01*
X120193Y84487D01*
X120115Y84459D01*
X120037Y84427D01*
X119962Y84391D01*
X119888Y84352D01*
X119816Y84309D01*
X119746Y84263D01*
X119679Y84214D01*
X119613Y84161D01*
X119551Y84106D01*
X119491Y84048D01*
X119433Y83987D01*
X119379Y83924D01*
X119327Y83858D01*
X119279Y83790D01*
X119234Y83719D01*
X119192Y83647D01*
X119154Y83572D01*
X119119Y83496D01*
X119088Y83419D01*
X119060Y83340D01*
X121698Y82099D02*
X121752Y82152D01*
X121803Y82209D01*
X121851Y82268D01*
X121896Y82329D01*
X121937Y82392D01*
X121976Y82458D01*
X122011Y82525D01*
X122043Y82594D01*
X122071Y82665D01*
X122095Y82736D01*
X122116Y82809D01*
X122133Y82883D01*
X122147Y82958D01*
X122156Y83033D01*
X122162Y83109D01*
X122164Y83185D01*
X121699Y82098D02*
X119060Y78994D01*
X122165Y78994D01*
X124298Y78994D02*
X124298Y79304D01*
X124608Y79304D01*
X124608Y78994D01*
X124298Y78994D01*
X126741Y78994D02*
X128604Y78994D01*
X128674Y78996D01*
X128743Y79002D01*
X128812Y79012D01*
X128880Y79025D01*
X128948Y79043D01*
X129014Y79064D01*
X129079Y79089D01*
X129143Y79117D01*
X129205Y79149D01*
X129265Y79184D01*
X129323Y79223D01*
X129378Y79265D01*
X129432Y79310D01*
X129482Y79358D01*
X129530Y79408D01*
X129575Y79462D01*
X129617Y79517D01*
X129656Y79575D01*
X129691Y79635D01*
X129723Y79697D01*
X129751Y79761D01*
X129776Y79826D01*
X129797Y79892D01*
X129815Y79960D01*
X129828Y80028D01*
X129838Y80097D01*
X129844Y80166D01*
X129846Y80236D01*
X129846Y80857D01*
X129844Y80927D01*
X129838Y80996D01*
X129828Y81065D01*
X129815Y81133D01*
X129797Y81201D01*
X129776Y81267D01*
X129751Y81332D01*
X129723Y81396D01*
X129691Y81458D01*
X129656Y81518D01*
X129617Y81576D01*
X129575Y81631D01*
X129530Y81685D01*
X129482Y81735D01*
X129432Y81783D01*
X129378Y81828D01*
X129323Y81870D01*
X129265Y81909D01*
X129205Y81944D01*
X129143Y81976D01*
X129079Y82004D01*
X129014Y82029D01*
X128948Y82050D01*
X128880Y82068D01*
X128812Y82081D01*
X128743Y82091D01*
X128674Y82097D01*
X128604Y82099D01*
X128604Y82098D02*
X126741Y82098D01*
X126741Y84582D01*
X129846Y84582D01*
X133469Y84582D02*
X132227Y80236D01*
X135332Y80236D01*
X134401Y81478D02*
X134401Y78994D01*
X137403Y78994D02*
X141129Y84582D01*
X137403Y84582D02*
X141129Y78994D01*
X146305Y83185D02*
X146303Y83258D01*
X146297Y83331D01*
X146288Y83404D01*
X146274Y83475D01*
X146257Y83547D01*
X146237Y83617D01*
X146212Y83686D01*
X146184Y83753D01*
X146153Y83819D01*
X146118Y83884D01*
X146080Y83946D01*
X146038Y84006D01*
X145994Y84064D01*
X145946Y84120D01*
X145896Y84173D01*
X145843Y84223D01*
X145787Y84271D01*
X145729Y84315D01*
X145669Y84357D01*
X145607Y84395D01*
X145542Y84430D01*
X145476Y84461D01*
X145409Y84489D01*
X145340Y84514D01*
X145270Y84534D01*
X145198Y84551D01*
X145127Y84565D01*
X145054Y84574D01*
X144981Y84580D01*
X144908Y84582D01*
X144824Y84580D01*
X144741Y84574D01*
X144658Y84565D01*
X144576Y84551D01*
X144494Y84534D01*
X144413Y84512D01*
X144333Y84487D01*
X144255Y84459D01*
X144177Y84427D01*
X144102Y84391D01*
X144028Y84352D01*
X143956Y84309D01*
X143886Y84263D01*
X143819Y84214D01*
X143753Y84161D01*
X143691Y84106D01*
X143631Y84048D01*
X143573Y83987D01*
X143519Y83924D01*
X143467Y83858D01*
X143419Y83790D01*
X143374Y83719D01*
X143332Y83647D01*
X143294Y83572D01*
X143259Y83496D01*
X143228Y83419D01*
X143200Y83340D01*
X145838Y82099D02*
X145892Y82152D01*
X145943Y82209D01*
X145991Y82268D01*
X146036Y82329D01*
X146077Y82392D01*
X146116Y82458D01*
X146151Y82525D01*
X146183Y82594D01*
X146211Y82665D01*
X146235Y82736D01*
X146256Y82809D01*
X146273Y82883D01*
X146287Y82958D01*
X146296Y83033D01*
X146302Y83109D01*
X146304Y83185D01*
X145839Y82098D02*
X143200Y78994D01*
X146305Y78994D01*
X148952Y78994D02*
X148952Y84582D01*
X150505Y84582D01*
X150582Y84580D01*
X150660Y84574D01*
X150736Y84565D01*
X150813Y84551D01*
X150888Y84534D01*
X150962Y84513D01*
X151036Y84488D01*
X151108Y84460D01*
X151178Y84428D01*
X151247Y84393D01*
X151314Y84354D01*
X151379Y84312D01*
X151442Y84267D01*
X151503Y84219D01*
X151561Y84168D01*
X151616Y84114D01*
X151669Y84057D01*
X151718Y83998D01*
X151765Y83936D01*
X151809Y83872D01*
X151849Y83806D01*
X151886Y83738D01*
X151920Y83668D01*
X151950Y83597D01*
X151976Y83524D01*
X151999Y83450D01*
X152018Y83375D01*
X152033Y83300D01*
X152045Y83223D01*
X152053Y83146D01*
X152057Y83069D01*
X152057Y82991D01*
X152053Y82914D01*
X152045Y82837D01*
X152033Y82760D01*
X152018Y82685D01*
X151999Y82610D01*
X151976Y82536D01*
X151950Y82463D01*
X151920Y82392D01*
X151886Y82322D01*
X151849Y82254D01*
X151809Y82188D01*
X151765Y82124D01*
X151718Y82062D01*
X151669Y82003D01*
X151616Y81946D01*
X151561Y81892D01*
X151503Y81841D01*
X151442Y81793D01*
X151379Y81748D01*
X151314Y81706D01*
X151247Y81667D01*
X151178Y81632D01*
X151108Y81600D01*
X151036Y81572D01*
X150962Y81547D01*
X150888Y81526D01*
X150813Y81509D01*
X150736Y81495D01*
X150660Y81486D01*
X150582Y81480D01*
X150505Y81478D01*
X148952Y81478D01*
D10*
X190500Y76200D02*
X190500Y25400D01*
X208280Y25400D01*
X223520Y25400D01*
X233680Y25400D02*
X248920Y25400D01*
X266700Y25400D01*
X266700Y76200D01*
X190500Y76200D01*
X208280Y30480D02*
X208280Y25400D01*
X223520Y25400D02*
X223520Y30480D01*
X223520Y25400D02*
X233680Y25400D01*
X233680Y30480D01*
X248920Y30480D02*
X248920Y25400D01*
X223520Y30480D02*
X208280Y30480D01*
X233680Y30480D02*
X248920Y30480D01*
D11*
X205317Y80236D02*
X205317Y84582D01*
X205317Y80236D02*
X205315Y80166D01*
X205309Y80097D01*
X205299Y80028D01*
X205286Y79960D01*
X205268Y79892D01*
X205247Y79826D01*
X205222Y79761D01*
X205194Y79697D01*
X205162Y79635D01*
X205127Y79575D01*
X205088Y79517D01*
X205046Y79462D01*
X205001Y79408D01*
X204953Y79358D01*
X204903Y79310D01*
X204849Y79265D01*
X204794Y79223D01*
X204736Y79184D01*
X204676Y79149D01*
X204614Y79117D01*
X204550Y79089D01*
X204485Y79064D01*
X204419Y79043D01*
X204351Y79025D01*
X204283Y79012D01*
X204214Y79002D01*
X204145Y78996D01*
X204075Y78994D01*
X203454Y78994D01*
X209538Y78994D02*
X209608Y78996D01*
X209677Y79002D01*
X209746Y79012D01*
X209814Y79025D01*
X209882Y79043D01*
X209948Y79064D01*
X210013Y79089D01*
X210077Y79117D01*
X210139Y79149D01*
X210199Y79184D01*
X210257Y79223D01*
X210312Y79265D01*
X210366Y79310D01*
X210416Y79358D01*
X210464Y79408D01*
X210509Y79462D01*
X210551Y79517D01*
X210590Y79575D01*
X210625Y79635D01*
X210657Y79697D01*
X210685Y79761D01*
X210710Y79826D01*
X210731Y79892D01*
X210749Y79960D01*
X210762Y80028D01*
X210772Y80097D01*
X210778Y80166D01*
X210780Y80236D01*
X209538Y78994D02*
X209439Y78996D01*
X209341Y79001D01*
X209243Y79011D01*
X209145Y79024D01*
X209048Y79040D01*
X208951Y79060D01*
X208856Y79084D01*
X208761Y79112D01*
X208667Y79143D01*
X208575Y79177D01*
X208484Y79215D01*
X208394Y79256D01*
X208306Y79301D01*
X208220Y79349D01*
X208136Y79400D01*
X208054Y79454D01*
X207973Y79512D01*
X207895Y79572D01*
X207820Y79635D01*
X207746Y79701D01*
X207676Y79770D01*
X207831Y83340D02*
X207833Y83410D01*
X207839Y83479D01*
X207849Y83548D01*
X207862Y83616D01*
X207880Y83684D01*
X207901Y83750D01*
X207926Y83815D01*
X207954Y83879D01*
X207986Y83941D01*
X208021Y84001D01*
X208060Y84059D01*
X208102Y84114D01*
X208147Y84168D01*
X208195Y84218D01*
X208245Y84266D01*
X208299Y84311D01*
X208354Y84353D01*
X208412Y84392D01*
X208472Y84427D01*
X208534Y84459D01*
X208598Y84487D01*
X208663Y84512D01*
X208729Y84533D01*
X208797Y84551D01*
X208865Y84564D01*
X208934Y84574D01*
X209003Y84580D01*
X209073Y84582D01*
X209167Y84580D01*
X209260Y84574D01*
X209353Y84565D01*
X209446Y84552D01*
X209538Y84535D01*
X209629Y84515D01*
X209720Y84490D01*
X209809Y84463D01*
X209897Y84431D01*
X209984Y84396D01*
X210070Y84358D01*
X210153Y84316D01*
X210235Y84271D01*
X210316Y84223D01*
X210394Y84171D01*
X210470Y84116D01*
X208452Y82254D02*
X208393Y82290D01*
X208337Y82330D01*
X208283Y82373D01*
X208231Y82418D01*
X208182Y82467D01*
X208136Y82518D01*
X208093Y82571D01*
X208052Y82627D01*
X208015Y82685D01*
X207980Y82745D01*
X207950Y82806D01*
X207922Y82869D01*
X207898Y82934D01*
X207878Y83000D01*
X207861Y83067D01*
X207848Y83134D01*
X207839Y83202D01*
X207833Y83271D01*
X207831Y83340D01*
X210159Y81322D02*
X210218Y81286D01*
X210274Y81246D01*
X210328Y81203D01*
X210380Y81158D01*
X210429Y81109D01*
X210475Y81058D01*
X210518Y81005D01*
X210559Y80949D01*
X210596Y80891D01*
X210631Y80831D01*
X210661Y80770D01*
X210689Y80707D01*
X210713Y80642D01*
X210733Y80576D01*
X210750Y80509D01*
X210763Y80442D01*
X210772Y80374D01*
X210778Y80305D01*
X210780Y80236D01*
X210159Y81322D02*
X208452Y82254D01*
X214166Y84582D02*
X214166Y78994D01*
X212614Y84582D02*
X215718Y84582D01*
X222368Y84582D02*
X222441Y84580D01*
X222514Y84574D01*
X222587Y84565D01*
X222658Y84551D01*
X222730Y84534D01*
X222800Y84514D01*
X222869Y84489D01*
X222936Y84461D01*
X223002Y84430D01*
X223067Y84395D01*
X223129Y84357D01*
X223189Y84315D01*
X223247Y84271D01*
X223303Y84223D01*
X223356Y84173D01*
X223406Y84120D01*
X223454Y84064D01*
X223498Y84006D01*
X223540Y83946D01*
X223578Y83884D01*
X223613Y83819D01*
X223644Y83753D01*
X223672Y83686D01*
X223697Y83617D01*
X223717Y83547D01*
X223734Y83475D01*
X223748Y83404D01*
X223757Y83331D01*
X223763Y83258D01*
X223765Y83185D01*
X222368Y84582D02*
X222284Y84580D01*
X222201Y84574D01*
X222118Y84565D01*
X222036Y84551D01*
X221954Y84534D01*
X221873Y84512D01*
X221793Y84487D01*
X221715Y84459D01*
X221637Y84427D01*
X221562Y84391D01*
X221488Y84352D01*
X221416Y84309D01*
X221346Y84263D01*
X221279Y84214D01*
X221213Y84161D01*
X221151Y84106D01*
X221091Y84048D01*
X221033Y83987D01*
X220979Y83924D01*
X220927Y83858D01*
X220879Y83790D01*
X220834Y83719D01*
X220792Y83647D01*
X220754Y83572D01*
X220719Y83496D01*
X220688Y83419D01*
X220660Y83340D01*
X223298Y82099D02*
X223352Y82152D01*
X223403Y82209D01*
X223451Y82268D01*
X223496Y82329D01*
X223537Y82392D01*
X223576Y82458D01*
X223611Y82525D01*
X223643Y82594D01*
X223671Y82665D01*
X223695Y82736D01*
X223716Y82809D01*
X223733Y82883D01*
X223747Y82958D01*
X223756Y83033D01*
X223762Y83109D01*
X223764Y83185D01*
X223299Y82098D02*
X220660Y78994D01*
X223765Y78994D01*
X225898Y78994D02*
X225898Y79304D01*
X226208Y79304D01*
X226208Y78994D01*
X225898Y78994D01*
X228341Y78994D02*
X230204Y78994D01*
X230274Y78996D01*
X230343Y79002D01*
X230412Y79012D01*
X230480Y79025D01*
X230548Y79043D01*
X230614Y79064D01*
X230679Y79089D01*
X230743Y79117D01*
X230805Y79149D01*
X230865Y79184D01*
X230923Y79223D01*
X230978Y79265D01*
X231032Y79310D01*
X231082Y79358D01*
X231130Y79408D01*
X231175Y79462D01*
X231217Y79517D01*
X231256Y79575D01*
X231291Y79635D01*
X231323Y79697D01*
X231351Y79761D01*
X231376Y79826D01*
X231397Y79892D01*
X231415Y79960D01*
X231428Y80028D01*
X231438Y80097D01*
X231444Y80166D01*
X231446Y80236D01*
X231446Y80857D01*
X231444Y80927D01*
X231438Y80996D01*
X231428Y81065D01*
X231415Y81133D01*
X231397Y81201D01*
X231376Y81267D01*
X231351Y81332D01*
X231323Y81396D01*
X231291Y81458D01*
X231256Y81518D01*
X231217Y81576D01*
X231175Y81631D01*
X231130Y81685D01*
X231082Y81735D01*
X231032Y81783D01*
X230978Y81828D01*
X230923Y81870D01*
X230865Y81909D01*
X230805Y81944D01*
X230743Y81976D01*
X230679Y82004D01*
X230614Y82029D01*
X230548Y82050D01*
X230480Y82068D01*
X230412Y82081D01*
X230343Y82091D01*
X230274Y82097D01*
X230204Y82099D01*
X230204Y82098D02*
X228341Y82098D01*
X228341Y84582D01*
X231446Y84582D01*
X235069Y84582D02*
X233827Y80236D01*
X236932Y80236D01*
X236001Y81478D02*
X236001Y78994D01*
X239003Y78994D02*
X242729Y84582D01*
X239003Y84582D02*
X242729Y78994D01*
X247905Y83185D02*
X247903Y83258D01*
X247897Y83331D01*
X247888Y83404D01*
X247874Y83475D01*
X247857Y83547D01*
X247837Y83617D01*
X247812Y83686D01*
X247784Y83753D01*
X247753Y83819D01*
X247718Y83884D01*
X247680Y83946D01*
X247638Y84006D01*
X247594Y84064D01*
X247546Y84120D01*
X247496Y84173D01*
X247443Y84223D01*
X247387Y84271D01*
X247329Y84315D01*
X247269Y84357D01*
X247207Y84395D01*
X247142Y84430D01*
X247076Y84461D01*
X247009Y84489D01*
X246940Y84514D01*
X246870Y84534D01*
X246798Y84551D01*
X246727Y84565D01*
X246654Y84574D01*
X246581Y84580D01*
X246508Y84582D01*
X246424Y84580D01*
X246341Y84574D01*
X246258Y84565D01*
X246176Y84551D01*
X246094Y84534D01*
X246013Y84512D01*
X245933Y84487D01*
X245855Y84459D01*
X245777Y84427D01*
X245702Y84391D01*
X245628Y84352D01*
X245556Y84309D01*
X245486Y84263D01*
X245419Y84214D01*
X245353Y84161D01*
X245291Y84106D01*
X245231Y84048D01*
X245173Y83987D01*
X245119Y83924D01*
X245067Y83858D01*
X245019Y83790D01*
X244974Y83719D01*
X244932Y83647D01*
X244894Y83572D01*
X244859Y83496D01*
X244828Y83419D01*
X244800Y83340D01*
X247438Y82099D02*
X247492Y82152D01*
X247543Y82209D01*
X247591Y82268D01*
X247636Y82329D01*
X247677Y82392D01*
X247716Y82458D01*
X247751Y82525D01*
X247783Y82594D01*
X247811Y82665D01*
X247835Y82736D01*
X247856Y82809D01*
X247873Y82883D01*
X247887Y82958D01*
X247896Y83033D01*
X247902Y83109D01*
X247904Y83185D01*
X247439Y82098D02*
X244800Y78994D01*
X247905Y78994D01*
X250552Y78994D02*
X250552Y84582D01*
X252105Y84582D01*
X252182Y84580D01*
X252260Y84574D01*
X252336Y84565D01*
X252413Y84551D01*
X252488Y84534D01*
X252562Y84513D01*
X252636Y84488D01*
X252708Y84460D01*
X252778Y84428D01*
X252847Y84393D01*
X252914Y84354D01*
X252979Y84312D01*
X253042Y84267D01*
X253103Y84219D01*
X253161Y84168D01*
X253216Y84114D01*
X253269Y84057D01*
X253318Y83998D01*
X253365Y83936D01*
X253409Y83872D01*
X253449Y83806D01*
X253486Y83738D01*
X253520Y83668D01*
X253550Y83597D01*
X253576Y83524D01*
X253599Y83450D01*
X253618Y83375D01*
X253633Y83300D01*
X253645Y83223D01*
X253653Y83146D01*
X253657Y83069D01*
X253657Y82991D01*
X253653Y82914D01*
X253645Y82837D01*
X253633Y82760D01*
X253618Y82685D01*
X253599Y82610D01*
X253576Y82536D01*
X253550Y82463D01*
X253520Y82392D01*
X253486Y82322D01*
X253449Y82254D01*
X253409Y82188D01*
X253365Y82124D01*
X253318Y82062D01*
X253269Y82003D01*
X253216Y81946D01*
X253161Y81892D01*
X253103Y81841D01*
X253042Y81793D01*
X252979Y81748D01*
X252914Y81706D01*
X252847Y81667D01*
X252778Y81632D01*
X252708Y81600D01*
X252636Y81572D01*
X252562Y81547D01*
X252488Y81526D01*
X252413Y81509D01*
X252336Y81495D01*
X252260Y81486D01*
X252182Y81480D01*
X252105Y81478D01*
X250552Y81478D01*
M02*
