G04 EAGLE Gerber RS-274X export*
G75*
%MOMM*%
%FSLAX34Y34*%
%LPD*%
%INSilkscreen Top*%
%IPPOS*%
%AMOC8*
5,1,8,0,0,1.08239X$1,22.5*%
G01*
%ADD10C,0.127000*%
%ADD11C,0.050800*%
%ADD12C,0.254000*%
%ADD13C,0.101600*%


D10*
X304800Y25400D02*
X304800Y76200D01*
X287020Y76200D01*
X271780Y76200D01*
X261620Y76200D02*
X246380Y76200D01*
X228600Y76200D01*
X228600Y25400D01*
X304800Y25400D01*
X287020Y71120D02*
X287020Y76200D01*
X271780Y76200D02*
X271780Y71120D01*
X271780Y76200D02*
X261620Y76200D01*
X261620Y71120D01*
X246380Y71120D02*
X246380Y76200D01*
X271780Y71120D02*
X287020Y71120D01*
X261620Y71120D02*
X246380Y71120D01*
D11*
X243506Y22606D02*
X243506Y18260D01*
X243504Y18190D01*
X243498Y18121D01*
X243488Y18052D01*
X243475Y17984D01*
X243457Y17916D01*
X243436Y17850D01*
X243411Y17785D01*
X243383Y17721D01*
X243351Y17659D01*
X243316Y17599D01*
X243277Y17541D01*
X243235Y17486D01*
X243190Y17432D01*
X243142Y17382D01*
X243092Y17334D01*
X243038Y17289D01*
X242983Y17247D01*
X242925Y17208D01*
X242865Y17173D01*
X242803Y17141D01*
X242739Y17113D01*
X242674Y17088D01*
X242608Y17067D01*
X242540Y17049D01*
X242472Y17036D01*
X242403Y17026D01*
X242334Y17020D01*
X242264Y17018D01*
X241643Y17018D01*
X247728Y17018D02*
X247798Y17020D01*
X247867Y17026D01*
X247936Y17036D01*
X248004Y17049D01*
X248072Y17067D01*
X248138Y17088D01*
X248203Y17113D01*
X248267Y17141D01*
X248329Y17173D01*
X248389Y17208D01*
X248447Y17247D01*
X248502Y17289D01*
X248556Y17334D01*
X248606Y17382D01*
X248654Y17432D01*
X248699Y17486D01*
X248741Y17541D01*
X248780Y17599D01*
X248815Y17659D01*
X248847Y17721D01*
X248875Y17785D01*
X248900Y17850D01*
X248921Y17916D01*
X248939Y17984D01*
X248952Y18052D01*
X248962Y18121D01*
X248968Y18190D01*
X248970Y18260D01*
X247728Y17018D02*
X247629Y17020D01*
X247531Y17025D01*
X247433Y17035D01*
X247335Y17048D01*
X247238Y17064D01*
X247141Y17084D01*
X247046Y17108D01*
X246951Y17136D01*
X246857Y17167D01*
X246765Y17201D01*
X246674Y17239D01*
X246584Y17280D01*
X246496Y17325D01*
X246410Y17373D01*
X246326Y17424D01*
X246244Y17478D01*
X246163Y17536D01*
X246085Y17596D01*
X246010Y17659D01*
X245936Y17725D01*
X245866Y17794D01*
X246020Y21364D02*
X246022Y21434D01*
X246028Y21503D01*
X246038Y21572D01*
X246051Y21640D01*
X246069Y21708D01*
X246090Y21774D01*
X246115Y21839D01*
X246143Y21903D01*
X246175Y21965D01*
X246210Y22025D01*
X246249Y22083D01*
X246291Y22138D01*
X246336Y22192D01*
X246384Y22242D01*
X246434Y22290D01*
X246488Y22335D01*
X246543Y22377D01*
X246601Y22416D01*
X246661Y22451D01*
X246723Y22483D01*
X246787Y22511D01*
X246852Y22536D01*
X246918Y22557D01*
X246986Y22575D01*
X247054Y22588D01*
X247123Y22598D01*
X247192Y22604D01*
X247262Y22606D01*
X247356Y22604D01*
X247449Y22598D01*
X247542Y22589D01*
X247635Y22576D01*
X247727Y22559D01*
X247818Y22539D01*
X247909Y22514D01*
X247998Y22487D01*
X248086Y22455D01*
X248173Y22420D01*
X248259Y22382D01*
X248342Y22340D01*
X248424Y22295D01*
X248505Y22247D01*
X248583Y22195D01*
X248659Y22140D01*
X246641Y20278D02*
X246582Y20314D01*
X246526Y20354D01*
X246472Y20397D01*
X246420Y20442D01*
X246371Y20491D01*
X246325Y20542D01*
X246282Y20595D01*
X246241Y20651D01*
X246204Y20709D01*
X246169Y20769D01*
X246139Y20830D01*
X246111Y20893D01*
X246087Y20958D01*
X246067Y21024D01*
X246050Y21091D01*
X246037Y21158D01*
X246028Y21226D01*
X246022Y21295D01*
X246020Y21364D01*
X248348Y19346D02*
X248407Y19310D01*
X248463Y19270D01*
X248517Y19227D01*
X248569Y19182D01*
X248618Y19133D01*
X248664Y19082D01*
X248707Y19029D01*
X248748Y18973D01*
X248785Y18915D01*
X248820Y18855D01*
X248850Y18794D01*
X248878Y18731D01*
X248902Y18666D01*
X248922Y18600D01*
X248939Y18533D01*
X248952Y18466D01*
X248961Y18398D01*
X248967Y18329D01*
X248969Y18260D01*
X248348Y19346D02*
X246641Y20278D01*
X252355Y22606D02*
X252355Y17018D01*
X250803Y22606D02*
X253907Y22606D01*
X260557Y22606D02*
X260630Y22604D01*
X260703Y22598D01*
X260776Y22589D01*
X260847Y22575D01*
X260919Y22558D01*
X260989Y22538D01*
X261058Y22513D01*
X261125Y22485D01*
X261191Y22454D01*
X261256Y22419D01*
X261318Y22381D01*
X261378Y22339D01*
X261436Y22295D01*
X261492Y22247D01*
X261545Y22197D01*
X261595Y22144D01*
X261643Y22088D01*
X261687Y22030D01*
X261729Y21970D01*
X261767Y21908D01*
X261802Y21843D01*
X261833Y21777D01*
X261861Y21710D01*
X261886Y21641D01*
X261906Y21571D01*
X261923Y21499D01*
X261937Y21428D01*
X261946Y21355D01*
X261952Y21282D01*
X261954Y21209D01*
X260557Y22606D02*
X260473Y22604D01*
X260390Y22598D01*
X260307Y22589D01*
X260225Y22575D01*
X260143Y22558D01*
X260062Y22536D01*
X259982Y22511D01*
X259904Y22483D01*
X259826Y22451D01*
X259751Y22415D01*
X259677Y22376D01*
X259605Y22333D01*
X259535Y22287D01*
X259468Y22238D01*
X259402Y22185D01*
X259340Y22130D01*
X259280Y22072D01*
X259222Y22011D01*
X259168Y21948D01*
X259116Y21882D01*
X259068Y21814D01*
X259023Y21743D01*
X258981Y21671D01*
X258943Y21596D01*
X258908Y21520D01*
X258877Y21443D01*
X258849Y21364D01*
X261487Y20123D02*
X261541Y20176D01*
X261592Y20233D01*
X261640Y20292D01*
X261685Y20353D01*
X261726Y20416D01*
X261765Y20482D01*
X261800Y20549D01*
X261832Y20618D01*
X261860Y20689D01*
X261884Y20760D01*
X261905Y20833D01*
X261922Y20907D01*
X261936Y20982D01*
X261945Y21057D01*
X261951Y21133D01*
X261953Y21209D01*
X261488Y20122D02*
X258849Y17018D01*
X261954Y17018D01*
X264087Y17018D02*
X264087Y17328D01*
X264397Y17328D01*
X264397Y17018D01*
X264087Y17018D01*
X266530Y17018D02*
X268393Y17018D01*
X268463Y17020D01*
X268532Y17026D01*
X268601Y17036D01*
X268669Y17049D01*
X268737Y17067D01*
X268803Y17088D01*
X268868Y17113D01*
X268932Y17141D01*
X268994Y17173D01*
X269054Y17208D01*
X269112Y17247D01*
X269167Y17289D01*
X269221Y17334D01*
X269271Y17382D01*
X269319Y17432D01*
X269364Y17486D01*
X269406Y17541D01*
X269445Y17599D01*
X269480Y17659D01*
X269512Y17721D01*
X269540Y17785D01*
X269565Y17850D01*
X269586Y17916D01*
X269604Y17984D01*
X269617Y18052D01*
X269627Y18121D01*
X269633Y18190D01*
X269635Y18260D01*
X269635Y18881D01*
X269633Y18951D01*
X269627Y19020D01*
X269617Y19089D01*
X269604Y19157D01*
X269586Y19225D01*
X269565Y19291D01*
X269540Y19356D01*
X269512Y19420D01*
X269480Y19482D01*
X269445Y19542D01*
X269406Y19600D01*
X269364Y19655D01*
X269319Y19709D01*
X269271Y19759D01*
X269221Y19807D01*
X269167Y19852D01*
X269112Y19894D01*
X269054Y19933D01*
X268994Y19968D01*
X268932Y20000D01*
X268868Y20028D01*
X268803Y20053D01*
X268737Y20074D01*
X268669Y20092D01*
X268601Y20105D01*
X268532Y20115D01*
X268463Y20121D01*
X268393Y20123D01*
X268393Y20122D02*
X266530Y20122D01*
X266530Y22606D01*
X269635Y22606D01*
X273258Y22606D02*
X272017Y18260D01*
X275121Y18260D01*
X274190Y19502D02*
X274190Y17018D01*
X277193Y17018D02*
X280918Y22606D01*
X277193Y22606D02*
X280918Y17018D01*
X286094Y21209D02*
X286092Y21282D01*
X286086Y21355D01*
X286077Y21428D01*
X286063Y21499D01*
X286046Y21571D01*
X286026Y21641D01*
X286001Y21710D01*
X285973Y21777D01*
X285942Y21843D01*
X285907Y21908D01*
X285869Y21970D01*
X285827Y22030D01*
X285783Y22088D01*
X285735Y22144D01*
X285685Y22197D01*
X285632Y22247D01*
X285576Y22295D01*
X285518Y22339D01*
X285458Y22381D01*
X285396Y22419D01*
X285331Y22454D01*
X285265Y22485D01*
X285198Y22513D01*
X285129Y22538D01*
X285059Y22558D01*
X284987Y22575D01*
X284916Y22589D01*
X284843Y22598D01*
X284770Y22604D01*
X284697Y22606D01*
X284613Y22604D01*
X284530Y22598D01*
X284447Y22589D01*
X284365Y22575D01*
X284283Y22558D01*
X284202Y22536D01*
X284122Y22511D01*
X284044Y22483D01*
X283966Y22451D01*
X283891Y22415D01*
X283817Y22376D01*
X283745Y22333D01*
X283675Y22287D01*
X283608Y22238D01*
X283542Y22185D01*
X283480Y22130D01*
X283420Y22072D01*
X283362Y22011D01*
X283308Y21948D01*
X283256Y21882D01*
X283208Y21814D01*
X283163Y21743D01*
X283121Y21671D01*
X283083Y21596D01*
X283048Y21520D01*
X283017Y21443D01*
X282989Y21364D01*
X285627Y20123D02*
X285681Y20176D01*
X285732Y20233D01*
X285780Y20292D01*
X285825Y20353D01*
X285866Y20416D01*
X285905Y20482D01*
X285940Y20549D01*
X285972Y20618D01*
X286000Y20689D01*
X286024Y20760D01*
X286045Y20833D01*
X286062Y20907D01*
X286076Y20982D01*
X286085Y21057D01*
X286091Y21133D01*
X286093Y21209D01*
X285628Y20122D02*
X282989Y17018D01*
X286094Y17018D01*
X288742Y17018D02*
X288742Y22606D01*
X290294Y22606D01*
X290371Y22604D01*
X290449Y22598D01*
X290525Y22589D01*
X290602Y22575D01*
X290677Y22558D01*
X290751Y22537D01*
X290825Y22512D01*
X290897Y22484D01*
X290967Y22452D01*
X291036Y22417D01*
X291103Y22378D01*
X291168Y22336D01*
X291231Y22291D01*
X291292Y22243D01*
X291350Y22192D01*
X291405Y22138D01*
X291458Y22081D01*
X291507Y22022D01*
X291554Y21960D01*
X291598Y21896D01*
X291638Y21830D01*
X291675Y21762D01*
X291709Y21692D01*
X291739Y21621D01*
X291765Y21548D01*
X291788Y21474D01*
X291807Y21399D01*
X291822Y21324D01*
X291834Y21247D01*
X291842Y21170D01*
X291846Y21093D01*
X291846Y21015D01*
X291842Y20938D01*
X291834Y20861D01*
X291822Y20784D01*
X291807Y20709D01*
X291788Y20634D01*
X291765Y20560D01*
X291739Y20487D01*
X291709Y20416D01*
X291675Y20346D01*
X291638Y20278D01*
X291598Y20212D01*
X291554Y20148D01*
X291507Y20086D01*
X291458Y20027D01*
X291405Y19970D01*
X291350Y19916D01*
X291292Y19865D01*
X291231Y19817D01*
X291168Y19772D01*
X291103Y19730D01*
X291036Y19691D01*
X290967Y19656D01*
X290897Y19624D01*
X290825Y19596D01*
X290751Y19571D01*
X290677Y19550D01*
X290602Y19533D01*
X290525Y19519D01*
X290449Y19510D01*
X290371Y19504D01*
X290294Y19502D01*
X288742Y19502D01*
D10*
X215900Y25400D02*
X215900Y76200D01*
X198120Y76200D01*
X182880Y76200D01*
X172720Y76200D02*
X157480Y76200D01*
X139700Y76200D01*
X139700Y25400D01*
X215900Y25400D01*
X198120Y71120D02*
X198120Y76200D01*
X182880Y76200D02*
X182880Y71120D01*
X182880Y76200D02*
X172720Y76200D01*
X172720Y71120D01*
X157480Y71120D02*
X157480Y76200D01*
X182880Y71120D02*
X198120Y71120D01*
X172720Y71120D02*
X157480Y71120D01*
D11*
X154606Y22606D02*
X154606Y18260D01*
X154604Y18190D01*
X154598Y18121D01*
X154588Y18052D01*
X154575Y17984D01*
X154557Y17916D01*
X154536Y17850D01*
X154511Y17785D01*
X154483Y17721D01*
X154451Y17659D01*
X154416Y17599D01*
X154377Y17541D01*
X154335Y17486D01*
X154290Y17432D01*
X154242Y17382D01*
X154192Y17334D01*
X154138Y17289D01*
X154083Y17247D01*
X154025Y17208D01*
X153965Y17173D01*
X153903Y17141D01*
X153839Y17113D01*
X153774Y17088D01*
X153708Y17067D01*
X153640Y17049D01*
X153572Y17036D01*
X153503Y17026D01*
X153434Y17020D01*
X153364Y17018D01*
X152743Y17018D01*
X158828Y17018D02*
X158898Y17020D01*
X158967Y17026D01*
X159036Y17036D01*
X159104Y17049D01*
X159172Y17067D01*
X159238Y17088D01*
X159303Y17113D01*
X159367Y17141D01*
X159429Y17173D01*
X159489Y17208D01*
X159547Y17247D01*
X159602Y17289D01*
X159656Y17334D01*
X159706Y17382D01*
X159754Y17432D01*
X159799Y17486D01*
X159841Y17541D01*
X159880Y17599D01*
X159915Y17659D01*
X159947Y17721D01*
X159975Y17785D01*
X160000Y17850D01*
X160021Y17916D01*
X160039Y17984D01*
X160052Y18052D01*
X160062Y18121D01*
X160068Y18190D01*
X160070Y18260D01*
X158828Y17018D02*
X158729Y17020D01*
X158631Y17025D01*
X158533Y17035D01*
X158435Y17048D01*
X158338Y17064D01*
X158241Y17084D01*
X158146Y17108D01*
X158051Y17136D01*
X157957Y17167D01*
X157865Y17201D01*
X157774Y17239D01*
X157684Y17280D01*
X157596Y17325D01*
X157510Y17373D01*
X157426Y17424D01*
X157344Y17478D01*
X157263Y17536D01*
X157185Y17596D01*
X157110Y17659D01*
X157036Y17725D01*
X156966Y17794D01*
X157120Y21364D02*
X157122Y21434D01*
X157128Y21503D01*
X157138Y21572D01*
X157151Y21640D01*
X157169Y21708D01*
X157190Y21774D01*
X157215Y21839D01*
X157243Y21903D01*
X157275Y21965D01*
X157310Y22025D01*
X157349Y22083D01*
X157391Y22138D01*
X157436Y22192D01*
X157484Y22242D01*
X157534Y22290D01*
X157588Y22335D01*
X157643Y22377D01*
X157701Y22416D01*
X157761Y22451D01*
X157823Y22483D01*
X157887Y22511D01*
X157952Y22536D01*
X158018Y22557D01*
X158086Y22575D01*
X158154Y22588D01*
X158223Y22598D01*
X158292Y22604D01*
X158362Y22606D01*
X158456Y22604D01*
X158549Y22598D01*
X158642Y22589D01*
X158735Y22576D01*
X158827Y22559D01*
X158918Y22539D01*
X159009Y22514D01*
X159098Y22487D01*
X159186Y22455D01*
X159273Y22420D01*
X159359Y22382D01*
X159442Y22340D01*
X159524Y22295D01*
X159605Y22247D01*
X159683Y22195D01*
X159759Y22140D01*
X157741Y20278D02*
X157682Y20314D01*
X157626Y20354D01*
X157572Y20397D01*
X157520Y20442D01*
X157471Y20491D01*
X157425Y20542D01*
X157382Y20595D01*
X157341Y20651D01*
X157304Y20709D01*
X157269Y20769D01*
X157239Y20830D01*
X157211Y20893D01*
X157187Y20958D01*
X157167Y21024D01*
X157150Y21091D01*
X157137Y21158D01*
X157128Y21226D01*
X157122Y21295D01*
X157120Y21364D01*
X159448Y19346D02*
X159507Y19310D01*
X159563Y19270D01*
X159617Y19227D01*
X159669Y19182D01*
X159718Y19133D01*
X159764Y19082D01*
X159807Y19029D01*
X159848Y18973D01*
X159885Y18915D01*
X159920Y18855D01*
X159950Y18794D01*
X159978Y18731D01*
X160002Y18666D01*
X160022Y18600D01*
X160039Y18533D01*
X160052Y18466D01*
X160061Y18398D01*
X160067Y18329D01*
X160069Y18260D01*
X159448Y19346D02*
X157741Y20278D01*
X163455Y22606D02*
X163455Y17018D01*
X161903Y22606D02*
X165007Y22606D01*
X171657Y22606D02*
X171730Y22604D01*
X171803Y22598D01*
X171876Y22589D01*
X171947Y22575D01*
X172019Y22558D01*
X172089Y22538D01*
X172158Y22513D01*
X172225Y22485D01*
X172291Y22454D01*
X172356Y22419D01*
X172418Y22381D01*
X172478Y22339D01*
X172536Y22295D01*
X172592Y22247D01*
X172645Y22197D01*
X172695Y22144D01*
X172743Y22088D01*
X172787Y22030D01*
X172829Y21970D01*
X172867Y21908D01*
X172902Y21843D01*
X172933Y21777D01*
X172961Y21710D01*
X172986Y21641D01*
X173006Y21571D01*
X173023Y21499D01*
X173037Y21428D01*
X173046Y21355D01*
X173052Y21282D01*
X173054Y21209D01*
X171657Y22606D02*
X171573Y22604D01*
X171490Y22598D01*
X171407Y22589D01*
X171325Y22575D01*
X171243Y22558D01*
X171162Y22536D01*
X171082Y22511D01*
X171004Y22483D01*
X170926Y22451D01*
X170851Y22415D01*
X170777Y22376D01*
X170705Y22333D01*
X170635Y22287D01*
X170568Y22238D01*
X170502Y22185D01*
X170440Y22130D01*
X170380Y22072D01*
X170322Y22011D01*
X170268Y21948D01*
X170216Y21882D01*
X170168Y21814D01*
X170123Y21743D01*
X170081Y21671D01*
X170043Y21596D01*
X170008Y21520D01*
X169977Y21443D01*
X169949Y21364D01*
X172587Y20123D02*
X172641Y20176D01*
X172692Y20233D01*
X172740Y20292D01*
X172785Y20353D01*
X172826Y20416D01*
X172865Y20482D01*
X172900Y20549D01*
X172932Y20618D01*
X172960Y20689D01*
X172984Y20760D01*
X173005Y20833D01*
X173022Y20907D01*
X173036Y20982D01*
X173045Y21057D01*
X173051Y21133D01*
X173053Y21209D01*
X172588Y20122D02*
X169949Y17018D01*
X173054Y17018D01*
X175187Y17018D02*
X175187Y17328D01*
X175497Y17328D01*
X175497Y17018D01*
X175187Y17018D01*
X177630Y17018D02*
X179493Y17018D01*
X179563Y17020D01*
X179632Y17026D01*
X179701Y17036D01*
X179769Y17049D01*
X179837Y17067D01*
X179903Y17088D01*
X179968Y17113D01*
X180032Y17141D01*
X180094Y17173D01*
X180154Y17208D01*
X180212Y17247D01*
X180267Y17289D01*
X180321Y17334D01*
X180371Y17382D01*
X180419Y17432D01*
X180464Y17486D01*
X180506Y17541D01*
X180545Y17599D01*
X180580Y17659D01*
X180612Y17721D01*
X180640Y17785D01*
X180665Y17850D01*
X180686Y17916D01*
X180704Y17984D01*
X180717Y18052D01*
X180727Y18121D01*
X180733Y18190D01*
X180735Y18260D01*
X180735Y18881D01*
X180733Y18951D01*
X180727Y19020D01*
X180717Y19089D01*
X180704Y19157D01*
X180686Y19225D01*
X180665Y19291D01*
X180640Y19356D01*
X180612Y19420D01*
X180580Y19482D01*
X180545Y19542D01*
X180506Y19600D01*
X180464Y19655D01*
X180419Y19709D01*
X180371Y19759D01*
X180321Y19807D01*
X180267Y19852D01*
X180212Y19894D01*
X180154Y19933D01*
X180094Y19968D01*
X180032Y20000D01*
X179968Y20028D01*
X179903Y20053D01*
X179837Y20074D01*
X179769Y20092D01*
X179701Y20105D01*
X179632Y20115D01*
X179563Y20121D01*
X179493Y20123D01*
X179493Y20122D02*
X177630Y20122D01*
X177630Y22606D01*
X180735Y22606D01*
X184358Y22606D02*
X183117Y18260D01*
X186221Y18260D01*
X185290Y19502D02*
X185290Y17018D01*
X188293Y17018D02*
X192018Y22606D01*
X188293Y22606D02*
X192018Y17018D01*
X197194Y21209D02*
X197192Y21282D01*
X197186Y21355D01*
X197177Y21428D01*
X197163Y21499D01*
X197146Y21571D01*
X197126Y21641D01*
X197101Y21710D01*
X197073Y21777D01*
X197042Y21843D01*
X197007Y21908D01*
X196969Y21970D01*
X196927Y22030D01*
X196883Y22088D01*
X196835Y22144D01*
X196785Y22197D01*
X196732Y22247D01*
X196676Y22295D01*
X196618Y22339D01*
X196558Y22381D01*
X196496Y22419D01*
X196431Y22454D01*
X196365Y22485D01*
X196298Y22513D01*
X196229Y22538D01*
X196159Y22558D01*
X196087Y22575D01*
X196016Y22589D01*
X195943Y22598D01*
X195870Y22604D01*
X195797Y22606D01*
X195713Y22604D01*
X195630Y22598D01*
X195547Y22589D01*
X195465Y22575D01*
X195383Y22558D01*
X195302Y22536D01*
X195222Y22511D01*
X195144Y22483D01*
X195066Y22451D01*
X194991Y22415D01*
X194917Y22376D01*
X194845Y22333D01*
X194775Y22287D01*
X194708Y22238D01*
X194642Y22185D01*
X194580Y22130D01*
X194520Y22072D01*
X194462Y22011D01*
X194408Y21948D01*
X194356Y21882D01*
X194308Y21814D01*
X194263Y21743D01*
X194221Y21671D01*
X194183Y21596D01*
X194148Y21520D01*
X194117Y21443D01*
X194089Y21364D01*
X196727Y20123D02*
X196781Y20176D01*
X196832Y20233D01*
X196880Y20292D01*
X196925Y20353D01*
X196966Y20416D01*
X197005Y20482D01*
X197040Y20549D01*
X197072Y20618D01*
X197100Y20689D01*
X197124Y20760D01*
X197145Y20833D01*
X197162Y20907D01*
X197176Y20982D01*
X197185Y21057D01*
X197191Y21133D01*
X197193Y21209D01*
X196728Y20122D02*
X194089Y17018D01*
X197194Y17018D01*
X199842Y17018D02*
X199842Y22606D01*
X201394Y22606D01*
X201471Y22604D01*
X201549Y22598D01*
X201625Y22589D01*
X201702Y22575D01*
X201777Y22558D01*
X201851Y22537D01*
X201925Y22512D01*
X201997Y22484D01*
X202067Y22452D01*
X202136Y22417D01*
X202203Y22378D01*
X202268Y22336D01*
X202331Y22291D01*
X202392Y22243D01*
X202450Y22192D01*
X202505Y22138D01*
X202558Y22081D01*
X202607Y22022D01*
X202654Y21960D01*
X202698Y21896D01*
X202738Y21830D01*
X202775Y21762D01*
X202809Y21692D01*
X202839Y21621D01*
X202865Y21548D01*
X202888Y21474D01*
X202907Y21399D01*
X202922Y21324D01*
X202934Y21247D01*
X202942Y21170D01*
X202946Y21093D01*
X202946Y21015D01*
X202942Y20938D01*
X202934Y20861D01*
X202922Y20784D01*
X202907Y20709D01*
X202888Y20634D01*
X202865Y20560D01*
X202839Y20487D01*
X202809Y20416D01*
X202775Y20346D01*
X202738Y20278D01*
X202698Y20212D01*
X202654Y20148D01*
X202607Y20086D01*
X202558Y20027D01*
X202505Y19970D01*
X202450Y19916D01*
X202392Y19865D01*
X202331Y19817D01*
X202268Y19772D01*
X202203Y19730D01*
X202136Y19691D01*
X202067Y19656D01*
X201997Y19624D01*
X201925Y19596D01*
X201851Y19571D01*
X201777Y19550D01*
X201702Y19533D01*
X201625Y19519D01*
X201549Y19510D01*
X201471Y19504D01*
X201394Y19502D01*
X199842Y19502D01*
D10*
X127000Y25400D02*
X127000Y76200D01*
X109220Y76200D01*
X93980Y76200D01*
X83820Y76200D02*
X68580Y76200D01*
X50800Y76200D01*
X50800Y25400D01*
X127000Y25400D01*
X109220Y71120D02*
X109220Y76200D01*
X93980Y76200D02*
X93980Y71120D01*
X93980Y76200D02*
X83820Y76200D01*
X83820Y71120D01*
X68580Y71120D02*
X68580Y76200D01*
X93980Y71120D02*
X109220Y71120D01*
X83820Y71120D02*
X68580Y71120D01*
D11*
X65706Y22606D02*
X65706Y18260D01*
X65704Y18190D01*
X65698Y18121D01*
X65688Y18052D01*
X65675Y17984D01*
X65657Y17916D01*
X65636Y17850D01*
X65611Y17785D01*
X65583Y17721D01*
X65551Y17659D01*
X65516Y17599D01*
X65477Y17541D01*
X65435Y17486D01*
X65390Y17432D01*
X65342Y17382D01*
X65292Y17334D01*
X65238Y17289D01*
X65183Y17247D01*
X65125Y17208D01*
X65065Y17173D01*
X65003Y17141D01*
X64939Y17113D01*
X64874Y17088D01*
X64808Y17067D01*
X64740Y17049D01*
X64672Y17036D01*
X64603Y17026D01*
X64534Y17020D01*
X64464Y17018D01*
X63843Y17018D01*
X69928Y17018D02*
X69998Y17020D01*
X70067Y17026D01*
X70136Y17036D01*
X70204Y17049D01*
X70272Y17067D01*
X70338Y17088D01*
X70403Y17113D01*
X70467Y17141D01*
X70529Y17173D01*
X70589Y17208D01*
X70647Y17247D01*
X70702Y17289D01*
X70756Y17334D01*
X70806Y17382D01*
X70854Y17432D01*
X70899Y17486D01*
X70941Y17541D01*
X70980Y17599D01*
X71015Y17659D01*
X71047Y17721D01*
X71075Y17785D01*
X71100Y17850D01*
X71121Y17916D01*
X71139Y17984D01*
X71152Y18052D01*
X71162Y18121D01*
X71168Y18190D01*
X71170Y18260D01*
X69928Y17018D02*
X69829Y17020D01*
X69731Y17025D01*
X69633Y17035D01*
X69535Y17048D01*
X69438Y17064D01*
X69341Y17084D01*
X69246Y17108D01*
X69151Y17136D01*
X69057Y17167D01*
X68965Y17201D01*
X68874Y17239D01*
X68784Y17280D01*
X68696Y17325D01*
X68610Y17373D01*
X68526Y17424D01*
X68444Y17478D01*
X68363Y17536D01*
X68285Y17596D01*
X68210Y17659D01*
X68136Y17725D01*
X68066Y17794D01*
X68220Y21364D02*
X68222Y21434D01*
X68228Y21503D01*
X68238Y21572D01*
X68251Y21640D01*
X68269Y21708D01*
X68290Y21774D01*
X68315Y21839D01*
X68343Y21903D01*
X68375Y21965D01*
X68410Y22025D01*
X68449Y22083D01*
X68491Y22138D01*
X68536Y22192D01*
X68584Y22242D01*
X68634Y22290D01*
X68688Y22335D01*
X68743Y22377D01*
X68801Y22416D01*
X68861Y22451D01*
X68923Y22483D01*
X68987Y22511D01*
X69052Y22536D01*
X69118Y22557D01*
X69186Y22575D01*
X69254Y22588D01*
X69323Y22598D01*
X69392Y22604D01*
X69462Y22606D01*
X69556Y22604D01*
X69649Y22598D01*
X69742Y22589D01*
X69835Y22576D01*
X69927Y22559D01*
X70018Y22539D01*
X70109Y22514D01*
X70198Y22487D01*
X70286Y22455D01*
X70373Y22420D01*
X70459Y22382D01*
X70542Y22340D01*
X70624Y22295D01*
X70705Y22247D01*
X70783Y22195D01*
X70859Y22140D01*
X68841Y20278D02*
X68782Y20314D01*
X68726Y20354D01*
X68672Y20397D01*
X68620Y20442D01*
X68571Y20491D01*
X68525Y20542D01*
X68482Y20595D01*
X68441Y20651D01*
X68404Y20709D01*
X68369Y20769D01*
X68339Y20830D01*
X68311Y20893D01*
X68287Y20958D01*
X68267Y21024D01*
X68250Y21091D01*
X68237Y21158D01*
X68228Y21226D01*
X68222Y21295D01*
X68220Y21364D01*
X70548Y19346D02*
X70607Y19310D01*
X70663Y19270D01*
X70717Y19227D01*
X70769Y19182D01*
X70818Y19133D01*
X70864Y19082D01*
X70907Y19029D01*
X70948Y18973D01*
X70985Y18915D01*
X71020Y18855D01*
X71050Y18794D01*
X71078Y18731D01*
X71102Y18666D01*
X71122Y18600D01*
X71139Y18533D01*
X71152Y18466D01*
X71161Y18398D01*
X71167Y18329D01*
X71169Y18260D01*
X70548Y19346D02*
X68841Y20278D01*
X74555Y22606D02*
X74555Y17018D01*
X73003Y22606D02*
X76107Y22606D01*
X82757Y22606D02*
X82830Y22604D01*
X82903Y22598D01*
X82976Y22589D01*
X83047Y22575D01*
X83119Y22558D01*
X83189Y22538D01*
X83258Y22513D01*
X83325Y22485D01*
X83391Y22454D01*
X83456Y22419D01*
X83518Y22381D01*
X83578Y22339D01*
X83636Y22295D01*
X83692Y22247D01*
X83745Y22197D01*
X83795Y22144D01*
X83843Y22088D01*
X83887Y22030D01*
X83929Y21970D01*
X83967Y21908D01*
X84002Y21843D01*
X84033Y21777D01*
X84061Y21710D01*
X84086Y21641D01*
X84106Y21571D01*
X84123Y21499D01*
X84137Y21428D01*
X84146Y21355D01*
X84152Y21282D01*
X84154Y21209D01*
X82757Y22606D02*
X82673Y22604D01*
X82590Y22598D01*
X82507Y22589D01*
X82425Y22575D01*
X82343Y22558D01*
X82262Y22536D01*
X82182Y22511D01*
X82104Y22483D01*
X82026Y22451D01*
X81951Y22415D01*
X81877Y22376D01*
X81805Y22333D01*
X81735Y22287D01*
X81668Y22238D01*
X81602Y22185D01*
X81540Y22130D01*
X81480Y22072D01*
X81422Y22011D01*
X81368Y21948D01*
X81316Y21882D01*
X81268Y21814D01*
X81223Y21743D01*
X81181Y21671D01*
X81143Y21596D01*
X81108Y21520D01*
X81077Y21443D01*
X81049Y21364D01*
X83687Y20123D02*
X83741Y20176D01*
X83792Y20233D01*
X83840Y20292D01*
X83885Y20353D01*
X83926Y20416D01*
X83965Y20482D01*
X84000Y20549D01*
X84032Y20618D01*
X84060Y20689D01*
X84084Y20760D01*
X84105Y20833D01*
X84122Y20907D01*
X84136Y20982D01*
X84145Y21057D01*
X84151Y21133D01*
X84153Y21209D01*
X83688Y20122D02*
X81049Y17018D01*
X84154Y17018D01*
X86287Y17018D02*
X86287Y17328D01*
X86597Y17328D01*
X86597Y17018D01*
X86287Y17018D01*
X88730Y17018D02*
X90593Y17018D01*
X90663Y17020D01*
X90732Y17026D01*
X90801Y17036D01*
X90869Y17049D01*
X90937Y17067D01*
X91003Y17088D01*
X91068Y17113D01*
X91132Y17141D01*
X91194Y17173D01*
X91254Y17208D01*
X91312Y17247D01*
X91367Y17289D01*
X91421Y17334D01*
X91471Y17382D01*
X91519Y17432D01*
X91564Y17486D01*
X91606Y17541D01*
X91645Y17599D01*
X91680Y17659D01*
X91712Y17721D01*
X91740Y17785D01*
X91765Y17850D01*
X91786Y17916D01*
X91804Y17984D01*
X91817Y18052D01*
X91827Y18121D01*
X91833Y18190D01*
X91835Y18260D01*
X91835Y18881D01*
X91833Y18951D01*
X91827Y19020D01*
X91817Y19089D01*
X91804Y19157D01*
X91786Y19225D01*
X91765Y19291D01*
X91740Y19356D01*
X91712Y19420D01*
X91680Y19482D01*
X91645Y19542D01*
X91606Y19600D01*
X91564Y19655D01*
X91519Y19709D01*
X91471Y19759D01*
X91421Y19807D01*
X91367Y19852D01*
X91312Y19894D01*
X91254Y19933D01*
X91194Y19968D01*
X91132Y20000D01*
X91068Y20028D01*
X91003Y20053D01*
X90937Y20074D01*
X90869Y20092D01*
X90801Y20105D01*
X90732Y20115D01*
X90663Y20121D01*
X90593Y20123D01*
X90593Y20122D02*
X88730Y20122D01*
X88730Y22606D01*
X91835Y22606D01*
X95458Y22606D02*
X94217Y18260D01*
X97321Y18260D01*
X96390Y19502D02*
X96390Y17018D01*
X99393Y17018D02*
X103118Y22606D01*
X99393Y22606D02*
X103118Y17018D01*
X108294Y21209D02*
X108292Y21282D01*
X108286Y21355D01*
X108277Y21428D01*
X108263Y21499D01*
X108246Y21571D01*
X108226Y21641D01*
X108201Y21710D01*
X108173Y21777D01*
X108142Y21843D01*
X108107Y21908D01*
X108069Y21970D01*
X108027Y22030D01*
X107983Y22088D01*
X107935Y22144D01*
X107885Y22197D01*
X107832Y22247D01*
X107776Y22295D01*
X107718Y22339D01*
X107658Y22381D01*
X107596Y22419D01*
X107531Y22454D01*
X107465Y22485D01*
X107398Y22513D01*
X107329Y22538D01*
X107259Y22558D01*
X107187Y22575D01*
X107116Y22589D01*
X107043Y22598D01*
X106970Y22604D01*
X106897Y22606D01*
X106813Y22604D01*
X106730Y22598D01*
X106647Y22589D01*
X106565Y22575D01*
X106483Y22558D01*
X106402Y22536D01*
X106322Y22511D01*
X106244Y22483D01*
X106166Y22451D01*
X106091Y22415D01*
X106017Y22376D01*
X105945Y22333D01*
X105875Y22287D01*
X105808Y22238D01*
X105742Y22185D01*
X105680Y22130D01*
X105620Y22072D01*
X105562Y22011D01*
X105508Y21948D01*
X105456Y21882D01*
X105408Y21814D01*
X105363Y21743D01*
X105321Y21671D01*
X105283Y21596D01*
X105248Y21520D01*
X105217Y21443D01*
X105189Y21364D01*
X107827Y20123D02*
X107881Y20176D01*
X107932Y20233D01*
X107980Y20292D01*
X108025Y20353D01*
X108066Y20416D01*
X108105Y20482D01*
X108140Y20549D01*
X108172Y20618D01*
X108200Y20689D01*
X108224Y20760D01*
X108245Y20833D01*
X108262Y20907D01*
X108276Y20982D01*
X108285Y21057D01*
X108291Y21133D01*
X108293Y21209D01*
X107828Y20122D02*
X105189Y17018D01*
X108294Y17018D01*
X110942Y17018D02*
X110942Y22606D01*
X112494Y22606D01*
X112571Y22604D01*
X112649Y22598D01*
X112725Y22589D01*
X112802Y22575D01*
X112877Y22558D01*
X112951Y22537D01*
X113025Y22512D01*
X113097Y22484D01*
X113167Y22452D01*
X113236Y22417D01*
X113303Y22378D01*
X113368Y22336D01*
X113431Y22291D01*
X113492Y22243D01*
X113550Y22192D01*
X113605Y22138D01*
X113658Y22081D01*
X113707Y22022D01*
X113754Y21960D01*
X113798Y21896D01*
X113838Y21830D01*
X113875Y21762D01*
X113909Y21692D01*
X113939Y21621D01*
X113965Y21548D01*
X113988Y21474D01*
X114007Y21399D01*
X114022Y21324D01*
X114034Y21247D01*
X114042Y21170D01*
X114046Y21093D01*
X114046Y21015D01*
X114042Y20938D01*
X114034Y20861D01*
X114022Y20784D01*
X114007Y20709D01*
X113988Y20634D01*
X113965Y20560D01*
X113939Y20487D01*
X113909Y20416D01*
X113875Y20346D01*
X113838Y20278D01*
X113798Y20212D01*
X113754Y20148D01*
X113707Y20086D01*
X113658Y20027D01*
X113605Y19970D01*
X113550Y19916D01*
X113492Y19865D01*
X113431Y19817D01*
X113368Y19772D01*
X113303Y19730D01*
X113236Y19691D01*
X113167Y19656D01*
X113097Y19624D01*
X113025Y19596D01*
X112951Y19571D01*
X112877Y19550D01*
X112802Y19533D01*
X112725Y19519D01*
X112649Y19510D01*
X112571Y19504D01*
X112494Y19502D01*
X110942Y19502D01*
D10*
X266700Y95250D02*
X266700Y146050D01*
X248920Y146050D01*
X233680Y146050D01*
X223520Y146050D02*
X208280Y146050D01*
X190500Y146050D01*
X190500Y95250D01*
X266700Y95250D01*
X248920Y140970D02*
X248920Y146050D01*
X233680Y146050D02*
X233680Y140970D01*
X233680Y146050D02*
X223520Y146050D01*
X223520Y140970D01*
X208280Y140970D02*
X208280Y146050D01*
X233680Y140970D02*
X248920Y140970D01*
X223520Y140970D02*
X208280Y140970D01*
D11*
X205406Y92456D02*
X205406Y88110D01*
X205404Y88040D01*
X205398Y87971D01*
X205388Y87902D01*
X205375Y87834D01*
X205357Y87766D01*
X205336Y87700D01*
X205311Y87635D01*
X205283Y87571D01*
X205251Y87509D01*
X205216Y87449D01*
X205177Y87391D01*
X205135Y87336D01*
X205090Y87282D01*
X205042Y87232D01*
X204992Y87184D01*
X204938Y87139D01*
X204883Y87097D01*
X204825Y87058D01*
X204765Y87023D01*
X204703Y86991D01*
X204639Y86963D01*
X204574Y86938D01*
X204508Y86917D01*
X204440Y86899D01*
X204372Y86886D01*
X204303Y86876D01*
X204234Y86870D01*
X204164Y86868D01*
X203543Y86868D01*
X209628Y86868D02*
X209698Y86870D01*
X209767Y86876D01*
X209836Y86886D01*
X209904Y86899D01*
X209972Y86917D01*
X210038Y86938D01*
X210103Y86963D01*
X210167Y86991D01*
X210229Y87023D01*
X210289Y87058D01*
X210347Y87097D01*
X210402Y87139D01*
X210456Y87184D01*
X210506Y87232D01*
X210554Y87282D01*
X210599Y87336D01*
X210641Y87391D01*
X210680Y87449D01*
X210715Y87509D01*
X210747Y87571D01*
X210775Y87635D01*
X210800Y87700D01*
X210821Y87766D01*
X210839Y87834D01*
X210852Y87902D01*
X210862Y87971D01*
X210868Y88040D01*
X210870Y88110D01*
X209628Y86868D02*
X209529Y86870D01*
X209431Y86875D01*
X209333Y86885D01*
X209235Y86898D01*
X209138Y86914D01*
X209041Y86934D01*
X208946Y86958D01*
X208851Y86986D01*
X208757Y87017D01*
X208665Y87051D01*
X208574Y87089D01*
X208484Y87130D01*
X208396Y87175D01*
X208310Y87223D01*
X208226Y87274D01*
X208144Y87328D01*
X208063Y87386D01*
X207985Y87446D01*
X207910Y87509D01*
X207836Y87575D01*
X207766Y87644D01*
X207920Y91214D02*
X207922Y91284D01*
X207928Y91353D01*
X207938Y91422D01*
X207951Y91490D01*
X207969Y91558D01*
X207990Y91624D01*
X208015Y91689D01*
X208043Y91753D01*
X208075Y91815D01*
X208110Y91875D01*
X208149Y91933D01*
X208191Y91988D01*
X208236Y92042D01*
X208284Y92092D01*
X208334Y92140D01*
X208388Y92185D01*
X208443Y92227D01*
X208501Y92266D01*
X208561Y92301D01*
X208623Y92333D01*
X208687Y92361D01*
X208752Y92386D01*
X208818Y92407D01*
X208886Y92425D01*
X208954Y92438D01*
X209023Y92448D01*
X209092Y92454D01*
X209162Y92456D01*
X209256Y92454D01*
X209349Y92448D01*
X209442Y92439D01*
X209535Y92426D01*
X209627Y92409D01*
X209718Y92389D01*
X209809Y92364D01*
X209898Y92337D01*
X209986Y92305D01*
X210073Y92270D01*
X210159Y92232D01*
X210242Y92190D01*
X210324Y92145D01*
X210405Y92097D01*
X210483Y92045D01*
X210559Y91990D01*
X208541Y90128D02*
X208482Y90164D01*
X208426Y90204D01*
X208372Y90247D01*
X208320Y90292D01*
X208271Y90341D01*
X208225Y90392D01*
X208182Y90445D01*
X208141Y90501D01*
X208104Y90559D01*
X208069Y90619D01*
X208039Y90680D01*
X208011Y90743D01*
X207987Y90808D01*
X207967Y90874D01*
X207950Y90941D01*
X207937Y91008D01*
X207928Y91076D01*
X207922Y91145D01*
X207920Y91214D01*
X210248Y89196D02*
X210307Y89160D01*
X210363Y89120D01*
X210417Y89077D01*
X210469Y89032D01*
X210518Y88983D01*
X210564Y88932D01*
X210607Y88879D01*
X210648Y88823D01*
X210685Y88765D01*
X210720Y88705D01*
X210750Y88644D01*
X210778Y88581D01*
X210802Y88516D01*
X210822Y88450D01*
X210839Y88383D01*
X210852Y88316D01*
X210861Y88248D01*
X210867Y88179D01*
X210869Y88110D01*
X210248Y89196D02*
X208541Y90128D01*
X214255Y92456D02*
X214255Y86868D01*
X212703Y92456D02*
X215807Y92456D01*
X222457Y92456D02*
X222530Y92454D01*
X222603Y92448D01*
X222676Y92439D01*
X222747Y92425D01*
X222819Y92408D01*
X222889Y92388D01*
X222958Y92363D01*
X223025Y92335D01*
X223091Y92304D01*
X223156Y92269D01*
X223218Y92231D01*
X223278Y92189D01*
X223336Y92145D01*
X223392Y92097D01*
X223445Y92047D01*
X223495Y91994D01*
X223543Y91938D01*
X223587Y91880D01*
X223629Y91820D01*
X223667Y91758D01*
X223702Y91693D01*
X223733Y91627D01*
X223761Y91560D01*
X223786Y91491D01*
X223806Y91421D01*
X223823Y91349D01*
X223837Y91278D01*
X223846Y91205D01*
X223852Y91132D01*
X223854Y91059D01*
X222457Y92456D02*
X222373Y92454D01*
X222290Y92448D01*
X222207Y92439D01*
X222125Y92425D01*
X222043Y92408D01*
X221962Y92386D01*
X221882Y92361D01*
X221804Y92333D01*
X221726Y92301D01*
X221651Y92265D01*
X221577Y92226D01*
X221505Y92183D01*
X221435Y92137D01*
X221368Y92088D01*
X221302Y92035D01*
X221240Y91980D01*
X221180Y91922D01*
X221122Y91861D01*
X221068Y91798D01*
X221016Y91732D01*
X220968Y91664D01*
X220923Y91593D01*
X220881Y91521D01*
X220843Y91446D01*
X220808Y91370D01*
X220777Y91293D01*
X220749Y91214D01*
X223387Y89973D02*
X223441Y90026D01*
X223492Y90083D01*
X223540Y90142D01*
X223585Y90203D01*
X223626Y90266D01*
X223665Y90332D01*
X223700Y90399D01*
X223732Y90468D01*
X223760Y90539D01*
X223784Y90610D01*
X223805Y90683D01*
X223822Y90757D01*
X223836Y90832D01*
X223845Y90907D01*
X223851Y90983D01*
X223853Y91059D01*
X223388Y89972D02*
X220749Y86868D01*
X223854Y86868D01*
X225987Y86868D02*
X225987Y87178D01*
X226297Y87178D01*
X226297Y86868D01*
X225987Y86868D01*
X228430Y86868D02*
X230293Y86868D01*
X230363Y86870D01*
X230432Y86876D01*
X230501Y86886D01*
X230569Y86899D01*
X230637Y86917D01*
X230703Y86938D01*
X230768Y86963D01*
X230832Y86991D01*
X230894Y87023D01*
X230954Y87058D01*
X231012Y87097D01*
X231067Y87139D01*
X231121Y87184D01*
X231171Y87232D01*
X231219Y87282D01*
X231264Y87336D01*
X231306Y87391D01*
X231345Y87449D01*
X231380Y87509D01*
X231412Y87571D01*
X231440Y87635D01*
X231465Y87700D01*
X231486Y87766D01*
X231504Y87834D01*
X231517Y87902D01*
X231527Y87971D01*
X231533Y88040D01*
X231535Y88110D01*
X231535Y88731D01*
X231533Y88801D01*
X231527Y88870D01*
X231517Y88939D01*
X231504Y89007D01*
X231486Y89075D01*
X231465Y89141D01*
X231440Y89206D01*
X231412Y89270D01*
X231380Y89332D01*
X231345Y89392D01*
X231306Y89450D01*
X231264Y89505D01*
X231219Y89559D01*
X231171Y89609D01*
X231121Y89657D01*
X231067Y89702D01*
X231012Y89744D01*
X230954Y89783D01*
X230894Y89818D01*
X230832Y89850D01*
X230768Y89878D01*
X230703Y89903D01*
X230637Y89924D01*
X230569Y89942D01*
X230501Y89955D01*
X230432Y89965D01*
X230363Y89971D01*
X230293Y89973D01*
X230293Y89972D02*
X228430Y89972D01*
X228430Y92456D01*
X231535Y92456D01*
X235158Y92456D02*
X233917Y88110D01*
X237021Y88110D01*
X236090Y89352D02*
X236090Y86868D01*
X239093Y86868D02*
X242818Y92456D01*
X239093Y92456D02*
X242818Y86868D01*
X247994Y91059D02*
X247992Y91132D01*
X247986Y91205D01*
X247977Y91278D01*
X247963Y91349D01*
X247946Y91421D01*
X247926Y91491D01*
X247901Y91560D01*
X247873Y91627D01*
X247842Y91693D01*
X247807Y91758D01*
X247769Y91820D01*
X247727Y91880D01*
X247683Y91938D01*
X247635Y91994D01*
X247585Y92047D01*
X247532Y92097D01*
X247476Y92145D01*
X247418Y92189D01*
X247358Y92231D01*
X247296Y92269D01*
X247231Y92304D01*
X247165Y92335D01*
X247098Y92363D01*
X247029Y92388D01*
X246959Y92408D01*
X246887Y92425D01*
X246816Y92439D01*
X246743Y92448D01*
X246670Y92454D01*
X246597Y92456D01*
X246513Y92454D01*
X246430Y92448D01*
X246347Y92439D01*
X246265Y92425D01*
X246183Y92408D01*
X246102Y92386D01*
X246022Y92361D01*
X245944Y92333D01*
X245866Y92301D01*
X245791Y92265D01*
X245717Y92226D01*
X245645Y92183D01*
X245575Y92137D01*
X245508Y92088D01*
X245442Y92035D01*
X245380Y91980D01*
X245320Y91922D01*
X245262Y91861D01*
X245208Y91798D01*
X245156Y91732D01*
X245108Y91664D01*
X245063Y91593D01*
X245021Y91521D01*
X244983Y91446D01*
X244948Y91370D01*
X244917Y91293D01*
X244889Y91214D01*
X247527Y89973D02*
X247581Y90026D01*
X247632Y90083D01*
X247680Y90142D01*
X247725Y90203D01*
X247766Y90266D01*
X247805Y90332D01*
X247840Y90399D01*
X247872Y90468D01*
X247900Y90539D01*
X247924Y90610D01*
X247945Y90683D01*
X247962Y90757D01*
X247976Y90832D01*
X247985Y90907D01*
X247991Y90983D01*
X247993Y91059D01*
X247528Y89972D02*
X244889Y86868D01*
X247994Y86868D01*
X250642Y86868D02*
X250642Y92456D01*
X252194Y92456D01*
X252271Y92454D01*
X252349Y92448D01*
X252425Y92439D01*
X252502Y92425D01*
X252577Y92408D01*
X252651Y92387D01*
X252725Y92362D01*
X252797Y92334D01*
X252867Y92302D01*
X252936Y92267D01*
X253003Y92228D01*
X253068Y92186D01*
X253131Y92141D01*
X253192Y92093D01*
X253250Y92042D01*
X253305Y91988D01*
X253358Y91931D01*
X253407Y91872D01*
X253454Y91810D01*
X253498Y91746D01*
X253538Y91680D01*
X253575Y91612D01*
X253609Y91542D01*
X253639Y91471D01*
X253665Y91398D01*
X253688Y91324D01*
X253707Y91249D01*
X253722Y91174D01*
X253734Y91097D01*
X253742Y91020D01*
X253746Y90943D01*
X253746Y90865D01*
X253742Y90788D01*
X253734Y90711D01*
X253722Y90634D01*
X253707Y90559D01*
X253688Y90484D01*
X253665Y90410D01*
X253639Y90337D01*
X253609Y90266D01*
X253575Y90196D01*
X253538Y90128D01*
X253498Y90062D01*
X253454Y89998D01*
X253407Y89936D01*
X253358Y89877D01*
X253305Y89820D01*
X253250Y89766D01*
X253192Y89715D01*
X253131Y89667D01*
X253068Y89622D01*
X253003Y89580D01*
X252936Y89541D01*
X252867Y89506D01*
X252797Y89474D01*
X252725Y89446D01*
X252651Y89421D01*
X252577Y89400D01*
X252502Y89383D01*
X252425Y89369D01*
X252349Y89360D01*
X252271Y89354D01*
X252194Y89352D01*
X250642Y89352D01*
D10*
X166370Y95250D02*
X166370Y146050D01*
X148590Y146050D01*
X133350Y146050D01*
X123190Y146050D02*
X107950Y146050D01*
X90170Y146050D01*
X90170Y95250D01*
X166370Y95250D01*
X148590Y140970D02*
X148590Y146050D01*
X133350Y146050D02*
X133350Y140970D01*
X133350Y146050D02*
X123190Y146050D01*
X123190Y140970D01*
X107950Y140970D02*
X107950Y146050D01*
X133350Y140970D02*
X148590Y140970D01*
X123190Y140970D02*
X107950Y140970D01*
D11*
X105076Y92456D02*
X105076Y88110D01*
X105074Y88040D01*
X105068Y87971D01*
X105058Y87902D01*
X105045Y87834D01*
X105027Y87766D01*
X105006Y87700D01*
X104981Y87635D01*
X104953Y87571D01*
X104921Y87509D01*
X104886Y87449D01*
X104847Y87391D01*
X104805Y87336D01*
X104760Y87282D01*
X104712Y87232D01*
X104662Y87184D01*
X104608Y87139D01*
X104553Y87097D01*
X104495Y87058D01*
X104435Y87023D01*
X104373Y86991D01*
X104309Y86963D01*
X104244Y86938D01*
X104178Y86917D01*
X104110Y86899D01*
X104042Y86886D01*
X103973Y86876D01*
X103904Y86870D01*
X103834Y86868D01*
X103213Y86868D01*
X109298Y86868D02*
X109368Y86870D01*
X109437Y86876D01*
X109506Y86886D01*
X109574Y86899D01*
X109642Y86917D01*
X109708Y86938D01*
X109773Y86963D01*
X109837Y86991D01*
X109899Y87023D01*
X109959Y87058D01*
X110017Y87097D01*
X110072Y87139D01*
X110126Y87184D01*
X110176Y87232D01*
X110224Y87282D01*
X110269Y87336D01*
X110311Y87391D01*
X110350Y87449D01*
X110385Y87509D01*
X110417Y87571D01*
X110445Y87635D01*
X110470Y87700D01*
X110491Y87766D01*
X110509Y87834D01*
X110522Y87902D01*
X110532Y87971D01*
X110538Y88040D01*
X110540Y88110D01*
X109298Y86868D02*
X109199Y86870D01*
X109101Y86875D01*
X109003Y86885D01*
X108905Y86898D01*
X108808Y86914D01*
X108711Y86934D01*
X108616Y86958D01*
X108521Y86986D01*
X108427Y87017D01*
X108335Y87051D01*
X108244Y87089D01*
X108154Y87130D01*
X108066Y87175D01*
X107980Y87223D01*
X107896Y87274D01*
X107814Y87328D01*
X107733Y87386D01*
X107655Y87446D01*
X107580Y87509D01*
X107506Y87575D01*
X107436Y87644D01*
X107590Y91214D02*
X107592Y91284D01*
X107598Y91353D01*
X107608Y91422D01*
X107621Y91490D01*
X107639Y91558D01*
X107660Y91624D01*
X107685Y91689D01*
X107713Y91753D01*
X107745Y91815D01*
X107780Y91875D01*
X107819Y91933D01*
X107861Y91988D01*
X107906Y92042D01*
X107954Y92092D01*
X108004Y92140D01*
X108058Y92185D01*
X108113Y92227D01*
X108171Y92266D01*
X108231Y92301D01*
X108293Y92333D01*
X108357Y92361D01*
X108422Y92386D01*
X108488Y92407D01*
X108556Y92425D01*
X108624Y92438D01*
X108693Y92448D01*
X108762Y92454D01*
X108832Y92456D01*
X108926Y92454D01*
X109019Y92448D01*
X109112Y92439D01*
X109205Y92426D01*
X109297Y92409D01*
X109388Y92389D01*
X109479Y92364D01*
X109568Y92337D01*
X109656Y92305D01*
X109743Y92270D01*
X109829Y92232D01*
X109912Y92190D01*
X109994Y92145D01*
X110075Y92097D01*
X110153Y92045D01*
X110229Y91990D01*
X108211Y90128D02*
X108152Y90164D01*
X108096Y90204D01*
X108042Y90247D01*
X107990Y90292D01*
X107941Y90341D01*
X107895Y90392D01*
X107852Y90445D01*
X107811Y90501D01*
X107774Y90559D01*
X107739Y90619D01*
X107709Y90680D01*
X107681Y90743D01*
X107657Y90808D01*
X107637Y90874D01*
X107620Y90941D01*
X107607Y91008D01*
X107598Y91076D01*
X107592Y91145D01*
X107590Y91214D01*
X109918Y89196D02*
X109977Y89160D01*
X110033Y89120D01*
X110087Y89077D01*
X110139Y89032D01*
X110188Y88983D01*
X110234Y88932D01*
X110277Y88879D01*
X110318Y88823D01*
X110355Y88765D01*
X110390Y88705D01*
X110420Y88644D01*
X110448Y88581D01*
X110472Y88516D01*
X110492Y88450D01*
X110509Y88383D01*
X110522Y88316D01*
X110531Y88248D01*
X110537Y88179D01*
X110539Y88110D01*
X109918Y89196D02*
X108211Y90128D01*
X113925Y92456D02*
X113925Y86868D01*
X112373Y92456D02*
X115477Y92456D01*
X122127Y92456D02*
X122200Y92454D01*
X122273Y92448D01*
X122346Y92439D01*
X122417Y92425D01*
X122489Y92408D01*
X122559Y92388D01*
X122628Y92363D01*
X122695Y92335D01*
X122761Y92304D01*
X122826Y92269D01*
X122888Y92231D01*
X122948Y92189D01*
X123006Y92145D01*
X123062Y92097D01*
X123115Y92047D01*
X123165Y91994D01*
X123213Y91938D01*
X123257Y91880D01*
X123299Y91820D01*
X123337Y91758D01*
X123372Y91693D01*
X123403Y91627D01*
X123431Y91560D01*
X123456Y91491D01*
X123476Y91421D01*
X123493Y91349D01*
X123507Y91278D01*
X123516Y91205D01*
X123522Y91132D01*
X123524Y91059D01*
X122127Y92456D02*
X122043Y92454D01*
X121960Y92448D01*
X121877Y92439D01*
X121795Y92425D01*
X121713Y92408D01*
X121632Y92386D01*
X121552Y92361D01*
X121474Y92333D01*
X121396Y92301D01*
X121321Y92265D01*
X121247Y92226D01*
X121175Y92183D01*
X121105Y92137D01*
X121038Y92088D01*
X120972Y92035D01*
X120910Y91980D01*
X120850Y91922D01*
X120792Y91861D01*
X120738Y91798D01*
X120686Y91732D01*
X120638Y91664D01*
X120593Y91593D01*
X120551Y91521D01*
X120513Y91446D01*
X120478Y91370D01*
X120447Y91293D01*
X120419Y91214D01*
X123057Y89973D02*
X123111Y90026D01*
X123162Y90083D01*
X123210Y90142D01*
X123255Y90203D01*
X123296Y90266D01*
X123335Y90332D01*
X123370Y90399D01*
X123402Y90468D01*
X123430Y90539D01*
X123454Y90610D01*
X123475Y90683D01*
X123492Y90757D01*
X123506Y90832D01*
X123515Y90907D01*
X123521Y90983D01*
X123523Y91059D01*
X123058Y89972D02*
X120419Y86868D01*
X123524Y86868D01*
X125657Y86868D02*
X125657Y87178D01*
X125967Y87178D01*
X125967Y86868D01*
X125657Y86868D01*
X128100Y86868D02*
X129963Y86868D01*
X130033Y86870D01*
X130102Y86876D01*
X130171Y86886D01*
X130239Y86899D01*
X130307Y86917D01*
X130373Y86938D01*
X130438Y86963D01*
X130502Y86991D01*
X130564Y87023D01*
X130624Y87058D01*
X130682Y87097D01*
X130737Y87139D01*
X130791Y87184D01*
X130841Y87232D01*
X130889Y87282D01*
X130934Y87336D01*
X130976Y87391D01*
X131015Y87449D01*
X131050Y87509D01*
X131082Y87571D01*
X131110Y87635D01*
X131135Y87700D01*
X131156Y87766D01*
X131174Y87834D01*
X131187Y87902D01*
X131197Y87971D01*
X131203Y88040D01*
X131205Y88110D01*
X131205Y88731D01*
X131203Y88801D01*
X131197Y88870D01*
X131187Y88939D01*
X131174Y89007D01*
X131156Y89075D01*
X131135Y89141D01*
X131110Y89206D01*
X131082Y89270D01*
X131050Y89332D01*
X131015Y89392D01*
X130976Y89450D01*
X130934Y89505D01*
X130889Y89559D01*
X130841Y89609D01*
X130791Y89657D01*
X130737Y89702D01*
X130682Y89744D01*
X130624Y89783D01*
X130564Y89818D01*
X130502Y89850D01*
X130438Y89878D01*
X130373Y89903D01*
X130307Y89924D01*
X130239Y89942D01*
X130171Y89955D01*
X130102Y89965D01*
X130033Y89971D01*
X129963Y89973D01*
X129963Y89972D02*
X128100Y89972D01*
X128100Y92456D01*
X131205Y92456D01*
X134828Y92456D02*
X133587Y88110D01*
X136691Y88110D01*
X135760Y89352D02*
X135760Y86868D01*
X138763Y86868D02*
X142488Y92456D01*
X138763Y92456D02*
X142488Y86868D01*
X147664Y91059D02*
X147662Y91132D01*
X147656Y91205D01*
X147647Y91278D01*
X147633Y91349D01*
X147616Y91421D01*
X147596Y91491D01*
X147571Y91560D01*
X147543Y91627D01*
X147512Y91693D01*
X147477Y91758D01*
X147439Y91820D01*
X147397Y91880D01*
X147353Y91938D01*
X147305Y91994D01*
X147255Y92047D01*
X147202Y92097D01*
X147146Y92145D01*
X147088Y92189D01*
X147028Y92231D01*
X146966Y92269D01*
X146901Y92304D01*
X146835Y92335D01*
X146768Y92363D01*
X146699Y92388D01*
X146629Y92408D01*
X146557Y92425D01*
X146486Y92439D01*
X146413Y92448D01*
X146340Y92454D01*
X146267Y92456D01*
X146183Y92454D01*
X146100Y92448D01*
X146017Y92439D01*
X145935Y92425D01*
X145853Y92408D01*
X145772Y92386D01*
X145692Y92361D01*
X145614Y92333D01*
X145536Y92301D01*
X145461Y92265D01*
X145387Y92226D01*
X145315Y92183D01*
X145245Y92137D01*
X145178Y92088D01*
X145112Y92035D01*
X145050Y91980D01*
X144990Y91922D01*
X144932Y91861D01*
X144878Y91798D01*
X144826Y91732D01*
X144778Y91664D01*
X144733Y91593D01*
X144691Y91521D01*
X144653Y91446D01*
X144618Y91370D01*
X144587Y91293D01*
X144559Y91214D01*
X147197Y89973D02*
X147251Y90026D01*
X147302Y90083D01*
X147350Y90142D01*
X147395Y90203D01*
X147436Y90266D01*
X147475Y90332D01*
X147510Y90399D01*
X147542Y90468D01*
X147570Y90539D01*
X147594Y90610D01*
X147615Y90683D01*
X147632Y90757D01*
X147646Y90832D01*
X147655Y90907D01*
X147661Y90983D01*
X147663Y91059D01*
X147198Y89972D02*
X144559Y86868D01*
X147664Y86868D01*
X150312Y86868D02*
X150312Y92456D01*
X151864Y92456D01*
X151941Y92454D01*
X152019Y92448D01*
X152095Y92439D01*
X152172Y92425D01*
X152247Y92408D01*
X152321Y92387D01*
X152395Y92362D01*
X152467Y92334D01*
X152537Y92302D01*
X152606Y92267D01*
X152673Y92228D01*
X152738Y92186D01*
X152801Y92141D01*
X152862Y92093D01*
X152920Y92042D01*
X152975Y91988D01*
X153028Y91931D01*
X153077Y91872D01*
X153124Y91810D01*
X153168Y91746D01*
X153208Y91680D01*
X153245Y91612D01*
X153279Y91542D01*
X153309Y91471D01*
X153335Y91398D01*
X153358Y91324D01*
X153377Y91249D01*
X153392Y91174D01*
X153404Y91097D01*
X153412Y91020D01*
X153416Y90943D01*
X153416Y90865D01*
X153412Y90788D01*
X153404Y90711D01*
X153392Y90634D01*
X153377Y90559D01*
X153358Y90484D01*
X153335Y90410D01*
X153309Y90337D01*
X153279Y90266D01*
X153245Y90196D01*
X153208Y90128D01*
X153168Y90062D01*
X153124Y89998D01*
X153077Y89936D01*
X153028Y89877D01*
X152975Y89820D01*
X152920Y89766D01*
X152862Y89715D01*
X152801Y89667D01*
X152738Y89622D01*
X152673Y89580D01*
X152606Y89541D01*
X152537Y89506D01*
X152467Y89474D01*
X152395Y89446D01*
X152321Y89421D01*
X152247Y89400D01*
X152172Y89383D01*
X152095Y89369D01*
X152019Y89360D01*
X151941Y89354D01*
X151864Y89352D01*
X150312Y89352D01*
D12*
X127000Y219710D02*
X228600Y219710D01*
X228600Y200660D01*
X228600Y156210D01*
X127000Y156210D01*
X127000Y200660D01*
X127000Y219710D01*
X127000Y200660D02*
X228600Y200660D01*
D13*
X130556Y226568D02*
X127508Y235712D01*
X133604Y235712D02*
X130556Y226568D01*
M02*
