G04 EAGLE Gerber RS-274X export*
G75*
%MOMM*%
%FSLAX34Y34*%
%LPD*%
%INBottom Copper*%
%IPPOS*%
%AMOC8*
5,1,8,0,0,1.08239X$1,22.5*%
G01*
%ADD10C,1.530000*%
%ADD11R,2.380000X2.380000*%
%ADD12C,1.500000*%


D10*
X279400Y50800D03*
X254000Y50800D03*
X190500Y50800D03*
X165100Y50800D03*
X101600Y50800D03*
X76200Y50800D03*
X241300Y127000D03*
X215900Y127000D03*
X139700Y127000D03*
X114300Y127000D03*
D11*
X198800Y196020D03*
X156800Y196020D03*
X156800Y251020D03*
X198800Y251020D03*
D12*
X241300Y127000D02*
X279400Y88900D01*
X279400Y50800D01*
X241300Y127000D02*
X241300Y202192D01*
X198800Y244692D02*
X198800Y251020D01*
X198800Y244692D02*
X241300Y202192D01*
X215900Y127000D02*
X215900Y120410D01*
X254000Y82310D01*
X254000Y50800D01*
X215900Y127000D02*
X215900Y178920D01*
X198800Y196020D01*
X190500Y31120D02*
X177800Y18420D01*
X108580Y18420D01*
X101600Y25400D01*
X101600Y50800D01*
X190500Y50800D02*
X190500Y31120D01*
X139700Y127000D02*
X139700Y178920D01*
X156800Y196020D01*
X190500Y76200D02*
X190500Y50800D01*
X190500Y76200D02*
X139700Y127000D01*
X165100Y63500D02*
X165100Y50800D01*
X114300Y114300D02*
X114300Y127000D01*
X114300Y114300D02*
X165100Y63500D01*
X114300Y114300D02*
X76200Y76200D01*
X76200Y50800D01*
X114300Y127000D02*
X114300Y203200D01*
X156800Y245700D02*
X156800Y251020D01*
X156800Y245700D02*
X114300Y203200D01*
M02*
