G04 EAGLE Gerber RS-274X export*
G75*
%MOMM*%
%FSLAX34Y34*%
%LPD*%
%IN*%
%IPPOS*%
%AMOC8*
5,1,8,0,0,1.08239X$1,22.5*%
G01*
%ADD10C,0.254000*%


D10*
X0Y0D02*
X355600Y0D01*
X355600Y203200D01*
X350111Y213745D01*
X341365Y227855D01*
X331424Y241149D01*
X320361Y253527D01*
X308262Y264892D01*
X295218Y275161D01*
X281329Y284253D01*
X266700Y292100D01*
X266700Y406400D01*
X88900Y406400D01*
X88900Y292100D01*
X80458Y286722D01*
X61566Y272961D01*
X43946Y257606D01*
X27732Y240774D01*
X13046Y222592D01*
X0Y203200D01*
X0Y0D01*
X345200Y189964D02*
X345124Y188896D01*
X344971Y187835D01*
X344743Y186788D01*
X344441Y185760D01*
X344067Y184756D01*
X343622Y183781D01*
X343108Y182841D01*
X342529Y181940D01*
X341887Y181082D01*
X341185Y180272D01*
X340428Y179515D01*
X339618Y178813D01*
X338760Y178171D01*
X337859Y177592D01*
X336919Y177078D01*
X335944Y176633D01*
X334940Y176259D01*
X333912Y175957D01*
X332865Y175729D01*
X331804Y175576D01*
X330736Y175500D01*
X329664Y175500D01*
X328596Y175576D01*
X327535Y175729D01*
X326488Y175957D01*
X325460Y176259D01*
X324456Y176633D01*
X323481Y177078D01*
X322541Y177592D01*
X321640Y178171D01*
X320782Y178813D01*
X319972Y179515D01*
X319215Y180272D01*
X318513Y181082D01*
X317871Y181940D01*
X317292Y182841D01*
X316778Y183781D01*
X316333Y184756D01*
X315959Y185760D01*
X315657Y186788D01*
X315429Y187835D01*
X315276Y188896D01*
X315200Y189964D01*
X315200Y191036D01*
X315276Y192104D01*
X315429Y193165D01*
X315657Y194212D01*
X315959Y195240D01*
X316333Y196244D01*
X316778Y197219D01*
X317292Y198159D01*
X317871Y199060D01*
X318513Y199918D01*
X319215Y200728D01*
X319972Y201485D01*
X320782Y202187D01*
X321640Y202829D01*
X322541Y203408D01*
X323481Y203922D01*
X324456Y204367D01*
X325460Y204741D01*
X326488Y205043D01*
X327535Y205271D01*
X328596Y205424D01*
X329664Y205500D01*
X330736Y205500D01*
X331804Y205424D01*
X332865Y205271D01*
X333912Y205043D01*
X334940Y204741D01*
X335944Y204367D01*
X336919Y203922D01*
X337859Y203408D01*
X338760Y202829D01*
X339618Y202187D01*
X340428Y201485D01*
X341185Y200728D01*
X341887Y199918D01*
X342529Y199060D01*
X343108Y198159D01*
X343622Y197219D01*
X344067Y196244D01*
X344441Y195240D01*
X344743Y194212D01*
X344971Y193165D01*
X345124Y192104D01*
X345200Y191036D01*
X345200Y189964D01*
X345200Y24864D02*
X345124Y23796D01*
X344971Y22735D01*
X344743Y21688D01*
X344441Y20660D01*
X344067Y19656D01*
X343622Y18681D01*
X343108Y17741D01*
X342529Y16840D01*
X341887Y15982D01*
X341185Y15172D01*
X340428Y14415D01*
X339618Y13713D01*
X338760Y13071D01*
X337859Y12492D01*
X336919Y11978D01*
X335944Y11533D01*
X334940Y11159D01*
X333912Y10857D01*
X332865Y10629D01*
X331804Y10476D01*
X330736Y10400D01*
X329664Y10400D01*
X328596Y10476D01*
X327535Y10629D01*
X326488Y10857D01*
X325460Y11159D01*
X324456Y11533D01*
X323481Y11978D01*
X322541Y12492D01*
X321640Y13071D01*
X320782Y13713D01*
X319972Y14415D01*
X319215Y15172D01*
X318513Y15982D01*
X317871Y16840D01*
X317292Y17741D01*
X316778Y18681D01*
X316333Y19656D01*
X315959Y20660D01*
X315657Y21688D01*
X315429Y22735D01*
X315276Y23796D01*
X315200Y24864D01*
X315200Y25936D01*
X315276Y27004D01*
X315429Y28065D01*
X315657Y29112D01*
X315959Y30140D01*
X316333Y31144D01*
X316778Y32119D01*
X317292Y33059D01*
X317871Y33960D01*
X318513Y34818D01*
X319215Y35628D01*
X319972Y36385D01*
X320782Y37087D01*
X321640Y37729D01*
X322541Y38308D01*
X323481Y38822D01*
X324456Y39267D01*
X325460Y39641D01*
X326488Y39943D01*
X327535Y40171D01*
X328596Y40324D01*
X329664Y40400D01*
X330736Y40400D01*
X331804Y40324D01*
X332865Y40171D01*
X333912Y39943D01*
X334940Y39641D01*
X335944Y39267D01*
X336919Y38822D01*
X337859Y38308D01*
X338760Y37729D01*
X339618Y37087D01*
X340428Y36385D01*
X341185Y35628D01*
X341887Y34818D01*
X342529Y33960D01*
X343108Y33059D01*
X343622Y32119D01*
X344067Y31144D01*
X344441Y30140D01*
X344743Y29112D01*
X344971Y28065D01*
X345124Y27004D01*
X345200Y25936D01*
X345200Y24864D01*
X40400Y24864D02*
X40324Y23796D01*
X40171Y22735D01*
X39943Y21688D01*
X39641Y20660D01*
X39267Y19656D01*
X38822Y18681D01*
X38308Y17741D01*
X37729Y16840D01*
X37087Y15982D01*
X36385Y15172D01*
X35628Y14415D01*
X34818Y13713D01*
X33960Y13071D01*
X33059Y12492D01*
X32119Y11978D01*
X31144Y11533D01*
X30140Y11159D01*
X29112Y10857D01*
X28065Y10629D01*
X27004Y10476D01*
X25936Y10400D01*
X24864Y10400D01*
X23796Y10476D01*
X22735Y10629D01*
X21688Y10857D01*
X20660Y11159D01*
X19656Y11533D01*
X18681Y11978D01*
X17741Y12492D01*
X16840Y13071D01*
X15982Y13713D01*
X15172Y14415D01*
X14415Y15172D01*
X13713Y15982D01*
X13071Y16840D01*
X12492Y17741D01*
X11978Y18681D01*
X11533Y19656D01*
X11159Y20660D01*
X10857Y21688D01*
X10629Y22735D01*
X10476Y23796D01*
X10400Y24864D01*
X10400Y25936D01*
X10476Y27004D01*
X10629Y28065D01*
X10857Y29112D01*
X11159Y30140D01*
X11533Y31144D01*
X11978Y32119D01*
X12492Y33059D01*
X13071Y33960D01*
X13713Y34818D01*
X14415Y35628D01*
X15172Y36385D01*
X15982Y37087D01*
X16840Y37729D01*
X17741Y38308D01*
X18681Y38822D01*
X19656Y39267D01*
X20660Y39641D01*
X21688Y39943D01*
X22735Y40171D01*
X23796Y40324D01*
X24864Y40400D01*
X25936Y40400D01*
X27004Y40324D01*
X28065Y40171D01*
X29112Y39943D01*
X30140Y39641D01*
X31144Y39267D01*
X32119Y38822D01*
X33059Y38308D01*
X33960Y37729D01*
X34818Y37087D01*
X35628Y36385D01*
X36385Y35628D01*
X37087Y34818D01*
X37729Y33960D01*
X38308Y33059D01*
X38822Y32119D01*
X39267Y31144D01*
X39641Y30140D01*
X39943Y29112D01*
X40171Y28065D01*
X40324Y27004D01*
X40400Y25936D01*
X40400Y24864D01*
X40400Y189964D02*
X40324Y188896D01*
X40171Y187835D01*
X39943Y186788D01*
X39641Y185760D01*
X39267Y184756D01*
X38822Y183781D01*
X38308Y182841D01*
X37729Y181940D01*
X37087Y181082D01*
X36385Y180272D01*
X35628Y179515D01*
X34818Y178813D01*
X33960Y178171D01*
X33059Y177592D01*
X32119Y177078D01*
X31144Y176633D01*
X30140Y176259D01*
X29112Y175957D01*
X28065Y175729D01*
X27004Y175576D01*
X25936Y175500D01*
X24864Y175500D01*
X23796Y175576D01*
X22735Y175729D01*
X21688Y175957D01*
X20660Y176259D01*
X19656Y176633D01*
X18681Y177078D01*
X17741Y177592D01*
X16840Y178171D01*
X15982Y178813D01*
X15172Y179515D01*
X14415Y180272D01*
X13713Y181082D01*
X13071Y181940D01*
X12492Y182841D01*
X11978Y183781D01*
X11533Y184756D01*
X11159Y185760D01*
X10857Y186788D01*
X10629Y187835D01*
X10476Y188896D01*
X10400Y189964D01*
X10400Y191036D01*
X10476Y192104D01*
X10629Y193165D01*
X10857Y194212D01*
X11159Y195240D01*
X11533Y196244D01*
X11978Y197219D01*
X12492Y198159D01*
X13071Y199060D01*
X13713Y199918D01*
X14415Y200728D01*
X15172Y201485D01*
X15982Y202187D01*
X16840Y202829D01*
X17741Y203408D01*
X18681Y203922D01*
X19656Y204367D01*
X20660Y204741D01*
X21688Y205043D01*
X22735Y205271D01*
X23796Y205424D01*
X24864Y205500D01*
X25936Y205500D01*
X27004Y205424D01*
X28065Y205271D01*
X29112Y205043D01*
X30140Y204741D01*
X31144Y204367D01*
X32119Y203922D01*
X33059Y203408D01*
X33960Y202829D01*
X34818Y202187D01*
X35628Y201485D01*
X36385Y200728D01*
X37087Y199918D01*
X37729Y199060D01*
X38308Y198159D01*
X38822Y197219D01*
X39267Y196244D01*
X39641Y195240D01*
X39943Y194212D01*
X40171Y193165D01*
X40324Y192104D01*
X40400Y191036D01*
X40400Y189964D01*
X260800Y245884D02*
X260724Y244816D01*
X260571Y243755D01*
X260343Y242708D01*
X260041Y241680D01*
X259667Y240676D01*
X259222Y239701D01*
X258708Y238761D01*
X258129Y237860D01*
X257487Y237002D01*
X256785Y236192D01*
X256028Y235435D01*
X255218Y234733D01*
X254360Y234091D01*
X253459Y233512D01*
X252519Y232998D01*
X251544Y232553D01*
X250540Y232179D01*
X249512Y231877D01*
X248465Y231649D01*
X247404Y231496D01*
X246336Y231420D01*
X245264Y231420D01*
X244196Y231496D01*
X243135Y231649D01*
X242088Y231877D01*
X241060Y232179D01*
X240056Y232553D01*
X239081Y232998D01*
X238141Y233512D01*
X237240Y234091D01*
X236382Y234733D01*
X235572Y235435D01*
X234815Y236192D01*
X234113Y237002D01*
X233471Y237860D01*
X232892Y238761D01*
X232378Y239701D01*
X231933Y240676D01*
X231559Y241680D01*
X231257Y242708D01*
X231029Y243755D01*
X230876Y244816D01*
X230800Y245884D01*
X230800Y246956D01*
X230876Y248024D01*
X231029Y249085D01*
X231257Y250132D01*
X231559Y251160D01*
X231933Y252164D01*
X232378Y253139D01*
X232892Y254079D01*
X233471Y254980D01*
X234113Y255838D01*
X234815Y256648D01*
X235572Y257405D01*
X236382Y258107D01*
X237240Y258749D01*
X238141Y259328D01*
X239081Y259842D01*
X240056Y260287D01*
X241060Y260661D01*
X242088Y260963D01*
X243135Y261191D01*
X244196Y261344D01*
X245264Y261420D01*
X246336Y261420D01*
X247404Y261344D01*
X248465Y261191D01*
X249512Y260963D01*
X250540Y260661D01*
X251544Y260287D01*
X252519Y259842D01*
X253459Y259328D01*
X254360Y258749D01*
X255218Y258107D01*
X256028Y257405D01*
X256785Y256648D01*
X257487Y255838D01*
X258129Y254980D01*
X258708Y254079D01*
X259222Y253139D01*
X259667Y252164D01*
X260041Y251160D01*
X260343Y250132D01*
X260571Y249085D01*
X260724Y248024D01*
X260800Y246956D01*
X260800Y245884D01*
X124800Y245884D02*
X124724Y244816D01*
X124571Y243755D01*
X124343Y242708D01*
X124041Y241680D01*
X123667Y240676D01*
X123222Y239701D01*
X122708Y238761D01*
X122129Y237860D01*
X121487Y237002D01*
X120785Y236192D01*
X120028Y235435D01*
X119218Y234733D01*
X118360Y234091D01*
X117459Y233512D01*
X116519Y232998D01*
X115544Y232553D01*
X114540Y232179D01*
X113512Y231877D01*
X112465Y231649D01*
X111404Y231496D01*
X110336Y231420D01*
X109264Y231420D01*
X108196Y231496D01*
X107135Y231649D01*
X106088Y231877D01*
X105060Y232179D01*
X104056Y232553D01*
X103081Y232998D01*
X102141Y233512D01*
X101240Y234091D01*
X100382Y234733D01*
X99572Y235435D01*
X98815Y236192D01*
X98113Y237002D01*
X97471Y237860D01*
X96892Y238761D01*
X96378Y239701D01*
X95933Y240676D01*
X95559Y241680D01*
X95257Y242708D01*
X95029Y243755D01*
X94876Y244816D01*
X94800Y245884D01*
X94800Y246956D01*
X94876Y248024D01*
X95029Y249085D01*
X95257Y250132D01*
X95559Y251160D01*
X95933Y252164D01*
X96378Y253139D01*
X96892Y254079D01*
X97471Y254980D01*
X98113Y255838D01*
X98815Y256648D01*
X99572Y257405D01*
X100382Y258107D01*
X101240Y258749D01*
X102141Y259328D01*
X103081Y259842D01*
X104056Y260287D01*
X105060Y260661D01*
X106088Y260963D01*
X107135Y261191D01*
X108196Y261344D01*
X109264Y261420D01*
X110336Y261420D01*
X111404Y261344D01*
X112465Y261191D01*
X113512Y260963D01*
X114540Y260661D01*
X115544Y260287D01*
X116519Y259842D01*
X117459Y259328D01*
X118360Y258749D01*
X119218Y258107D01*
X120028Y257405D01*
X120785Y256648D01*
X121487Y255838D01*
X122129Y254980D01*
X122708Y254079D01*
X123222Y253139D01*
X123667Y252164D01*
X124041Y251160D01*
X124343Y250132D01*
X124571Y249085D01*
X124724Y248024D01*
X124800Y246956D01*
X124800Y245884D01*
M02*
