M48
;GenerationSoftware,Autodesk,EAGLE,9.6.2*%
;CreationDate,2025-03-19T16:43:51Z*%
FMAT,2
ICI,OFF
METRIC,TZ,000.000
T3C0.900
T2C1.400
T1C3.000
%
G90
M71
T1
X24580Y24642
X10980Y24642
X33020Y19050
X33020Y2540
X2540Y2540
X2540Y19050
T2
X19880Y19602
X15680Y19602
X15680Y25102
X19880Y25102
T3
X27940Y5080
X25400Y5080
X19050Y5080
X16510Y5080
X10160Y5080
X7620Y5080
X24130Y12700
X21590Y12700
X13970Y12700
X11430Y12700
M30