M48
;GenerationSoftware,Autodesk,EAGLE,9.6.2*%
;CreationDate,2025-10-16T21:58:32Z*%
FMAT,2
ICI,OFF
METRIC,TZ,000.000
T7C0.813
T6C0.889
T5C1.000
T4C1.016
T3C1.118
T2C3.000
T1C3.302
%
G90
M71
T1
X46990Y37846
X59690Y37846
X34290Y37846
T2
X66929Y55499
X3175Y43815
X66929Y44069
X2540Y4318
X67056Y4191
X3175Y55245
T3
X31750Y20320
X34290Y20320
X44450Y20320
X46990Y20320
X49530Y20320
X57150Y20320
X59690Y20320
X62230Y20320
X36830Y20320
T4
X30988Y45847
X30988Y50927
X11430Y7620
X8890Y7620
X47244Y8890
X49784Y8890
X29210Y7620
X26670Y7620
X17780Y7620
X55880Y8890
X58420Y8890
X58420Y48260
X60960Y48260
X40640Y48260
X43180Y48260
X51943Y48260
X49403Y48260
X20320Y7620
T5
X45720Y16510
X7620Y15240
X20320Y15240
X19050Y53340
X53340Y52856
X46990Y43180
X59690Y43180
X38100Y16510
T6
X17018Y37211
X14478Y37211
X17018Y18288
X14478Y18288
T7
X8890Y45720
X8890Y43180
X16510Y43180
X16510Y45720
X8890Y26670
X8890Y24130
X7620Y49530
X17780Y49530
X41656Y3048
X41656Y13208
X38862Y3048
X38862Y13208
X33274Y3175
X16510Y24130
X33274Y13335
X22225Y49530
X22225Y39370
X8890Y31115
X19050Y31115
X22733Y30861
X22733Y20701
X16510Y26670
M30